# B1
# Sony PlayStation DualShock 3 by 3doverstock, CGTrader Royalty Free License
o B1
v 48.1779 -22.3544 -4.7281
v 49.8178 -22.3983 -3.6324
v 48.0614 -22.3971 -4.4470
v 49.6026 -22.4377 -3.4172
v 44.3090 -22.3545 -4.7281
v 44.4255 -22.3972 -4.4470
v 42.6691 -22.3986 -3.6324
v 42.8843 -22.4380 -3.4172
v 50.6324 -22.4914 -1.8760
v 49.2966 -22.6602 -1.3227
v 48.5802 -22.6238 -2.3948
v 50.9941 -22.5475 -0.0580
v 49.5481 -22.7000 -0.0580
v 50.6324 -22.5996 1.7599
v 49.2966 -22.7378 1.2066
v 49.6026 -22.6428 3.3011
v 48.5802 -22.7691 2.2787
v 48.0614 -22.6719 4.3310
v 47.5081 -22.7898 2.9951
v 46.2435 -22.6824 4.6926
v 46.2435 -22.7973 3.2467
v 44.4255 -22.6726 4.3310
v 44.9788 -22.7903 2.9951
v 42.8843 -22.6440 3.3012
v 43.9067 -22.7698 2.2787
v 41.8545 -22.6010 1.7600
v 43.1903 -22.7388 1.2066
v 41.4928 -22.5487 -0.0580
v 42.9387 -22.7009 -0.0580
v 41.8545 -22.4922 -1.8760
v 43.1903 -22.6608 -1.3227
v 43.9067 -22.6241 -2.3948
v 44.9788 -22.5978 -3.1112
v 46.2435 -22.3818 -4.8086
v 46.2435 -22.5882 -3.3627
v 47.5081 -22.5977 -3.1112
v 49.9972 -22.0166 -3.8118
v 51.1479 -22.0771 -2.0895
v 51.1435 -22.1879 -2.0877
v 49.9938 -22.1275 -3.8084
v 51.5520 -22.1391 -0.0580
v 51.5473 -22.2499 -0.0580
v 51.1479 -22.1962 1.9735
v 51.1435 -22.3069 1.9716
v 49.9972 -22.2437 3.6957
v 49.9938 -22.3544 3.6923
v 48.2749 -22.2760 4.8464
v 48.2731 -22.3867 4.8420
v 46.2435 -22.2878 5.2505
v 46.2435 -22.3984 5.2458
v 44.2119 -22.2768 4.8464
v 44.2138 -22.3875 4.8420
v 42.4897 -22.2451 3.6957
v 42.4931 -22.3558 3.6923
v 41.3390 -22.1978 1.9735
v 41.3434 -22.3085 1.9717
v 40.9349 -22.1405 -0.0580
v 40.9397 -22.2513 -0.0580
v 41.3390 -22.0779 -2.0895
v 41.3434 -22.1888 -2.0877
v 42.4897 -22.0169 -3.8118
v 42.4931 -22.1278 -3.8084
v 44.2119 -21.9698 -4.9625
v 44.2138 -22.0808 -4.9581
v 46.2435 -21.9518 -5.3666
v 46.2435 -22.0628 -5.3618
v 48.2749 -21.9698 -4.9625
v 48.2731 -22.0807 -4.9581
v 50.9135 -22.4557 -1.9924
v 51.2983 -22.5151 -0.0580
v 46.2435 -22.3377 -5.1129
v 41.5734 -22.4565 -1.9924
v 41.1886 -22.5164 -0.0580
v 41.5734 -22.5714 1.8764
v 42.6691 -22.6168 3.5163
v 44.3090 -22.6471 4.6120
v 46.2435 -22.6575 4.9968
v 48.1779 -22.6463 4.6120
v 49.8178 -22.6155 3.5163
v 50.9135 -22.5699 1.8764
v 46.2435 -22.8267 -0.0580
v 51.6273 -20.0075 -0.0580
v 51.2175 -20.0652 2.0023
v 51.2175 -19.9447 -2.1183
v 50.0504 -19.8833 -3.8650
v 48.3038 -19.8356 -5.0321
v 46.2435 -19.8173 -5.4419
v 44.1831 -19.8357 -5.0321
v 42.4365 -19.8836 -3.8650
v 41.2694 -19.9456 -2.1183
v 40.8596 -20.0089 -0.0580
v 41.2694 -20.0669 2.0023
v 42.4365 -20.1148 3.7489
v 44.1831 -20.1469 4.9160
v 46.2435 -20.1580 5.3258
v 48.3038 -20.1461 4.9160
v 50.0504 -20.1133 3.7489
vt 0.932445 0.075052
vt 0.938849 0.079332
vt 0.938009 0.080172
vt 0.931990 0.076150
vt 0.917337 0.075052
vt 0.917791 0.076150
vt 0.911773 0.080172
vt 0.910932 0.079332
vt 0.942031 0.086190
vt 0.936814 0.088351
vt 0.934016 0.084164
vt 0.943443 0.093290
vt 0.937796 0.093290
vt 0.942031 0.100389
vt 0.936814 0.098229
vt 0.938009 0.106408
vt 0.934016 0.102415
vt 0.931990 0.110430
vt 0.929830 0.105213
vt 0.924891 0.111842
vt 0.924891 0.106195
vt 0.917791 0.110430
vt 0.919952 0.105213
vt 0.911773 0.106408
vt 0.915765 0.102415
vt 0.907751 0.100389
vt 0.912968 0.098229
vt 0.906339 0.093290
vt 0.911985 0.093290
vt 0.907751 0.086190
vt 0.912968 0.088351
vt 0.915765 0.084164
vt 0.919952 0.081367
vt 0.924891 0.074738
vt 0.924891 0.080384
vt 0.929830 0.081367
vt 0.938564 0.079617
vt 0.942755 0.085890
vt 0.942739 0.085897
vt 0.938551 0.079629
vt 0.944227 0.093290
vt 0.944210 0.093290
vt 0.942755 0.100689
vt 0.942739 0.100683
vt 0.938564 0.106962
vt 0.938551 0.106950
vt 0.932290 0.111154
vt 0.932284 0.111138
vt 0.924891 0.112626
vt 0.924891 0.112609
vt 0.917491 0.111154
vt 0.917498 0.111138
vt 0.911218 0.106962
vt 0.911231 0.106950
vt 0.907027 0.100689
vt 0.907043 0.100683
vt 0.905555 0.093290
vt 0.905572 0.093290
vt 0.907027 0.085890
vt 0.907043 0.085897
vt 0.911218 0.079617
vt 0.911231 0.079629
vt 0.917491 0.075426
vt 0.917498 0.075442
vt 0.924891 0.073954
vt 0.924891 0.073971
vt 0.932290 0.075426
vt 0.932284 0.075442
vt 0.943128 0.085736
vt 0.944631 0.093290
vt 0.924891 0.073550
vt 0.906653 0.085736
vt 0.905151 0.093290
vt 0.906653 0.100844
vt 0.910933 0.107248
vt 0.917337 0.111527
vt 0.924891 0.113030
vt 0.932445 0.111527
vt 0.938849 0.107248
vt 0.943128 0.100844
vt 0.924891 0.093290
vt 0.942444 0.093290
vt 0.941108 0.100007
vt 0.941108 0.086573
vt 0.937303 0.080878
vt 0.931608 0.077073
vt 0.924891 0.075737
vt 0.918174 0.077073
vt 0.912479 0.080878
vt 0.908674 0.086573
vt 0.907338 0.093290
vt 0.908674 0.100007
vt 0.912479 0.105702
vt 0.918174 0.109507
vt 0.924891 0.110843
vt 0.931608 0.109507
vt 0.937303 0.105702
vn 0.1653 -0.8850 -0.4353
vn 0.3079 -0.8883 -0.3407
vn 0.0726 -0.9914 -0.1088
vn 0.0388 -0.9903 -0.1333
vn -0.1653 -0.8850 -0.4353
vn -0.0387 -0.9903 -0.1334
vn -0.0724 -0.9914 -0.1090
vn -0.3078 -0.8883 -0.3408
vn 0.0962 -0.9927 -0.0723
vn 0.0655 -0.9961 -0.0596
vn 0.0492 -0.9952 -0.0846
vn 0.1056 -0.9940 -0.0296
vn 0.0717 -0.9970 -0.0303
vn 0.0986 -0.9950 0.0126
vn 0.0666 -0.9978 -0.0015
vn 0.0762 -0.9959 0.0482
vn 0.0512 -0.9984 0.0226
vn 0.0416 -0.9965 0.0719
vn 0.0279 -0.9989 0.0385
vn 0.0002 -0.9968 0.0803
vn 0.0002 -0.9990 0.0440
vn -0.0412 -0.9966 0.0719
vn -0.0275 -0.9989 0.0385
vn -0.0759 -0.9960 0.0481
vn -0.0509 -0.9984 0.0225
vn -0.0983 -0.9951 0.0125
vn -0.0664 -0.9978 -0.0016
vn -0.1053 -0.9940 -0.0297
vn -0.0714 -0.9970 -0.0304
vn -0.0960 -0.9927 -0.0725
vn -0.0653 -0.9961 -0.0598
vn -0.0491 -0.9952 -0.0847
vn -0.0260 -0.9946 -0.1009
vn 0.0000 -0.9899 -0.1419
vn 0.0001 -0.9943 -0.1065
vn 0.0262 -0.9946 -0.1009
vn 0.7059 -0.0391 -0.7073
vn 0.9227 -0.0391 -0.3834
vn 0.8474 -0.3870 -0.3634
vn 0.6457 -0.3845 -0.6597
vn 0.9992 -0.0392 -0.0011
vn 0.9210 -0.3894 -0.0112
vn 0.9235 -0.0392 0.3815
vn 0.8539 -0.3914 0.3430
vn 0.7071 -0.0392 0.7060
vn 0.6555 -0.3931 0.6448
vn 0.3828 -0.0392 0.9230
vn 0.3555 -0.3943 0.8474
vn 0.0000 -0.0392 0.9992
vn 0.0001 -0.3948 0.9188
vn -0.3828 -0.0392 0.9230
vn -0.3554 -0.3944 0.8474
vn -0.7071 -0.0392 0.7060
vn -0.6554 -0.3932 0.6448
vn -0.9235 -0.0392 0.3815
vn -0.8539 -0.3915 0.3430
vn -0.9992 -0.0392 -0.0011
vn -0.9210 -0.3894 -0.0112
vn -0.9227 -0.0391 -0.3835
vn -0.8474 -0.3871 -0.3635
vn -0.7059 -0.0391 -0.7073
vn -0.6456 -0.3845 -0.6598
vn -0.3818 -0.0391 -0.9234
vn -0.3481 -0.3823 -0.8560
vn 0.0000 -0.0391 -0.9992
vn 0.0000 -0.3814 -0.9244
vn 0.3818 -0.0391 -0.9234
vn 0.3481 -0.3823 -0.8560
vn 0.4062 -0.8922 -0.1972
vn 0.4436 -0.8958 -0.0261
vn 0.0000 -0.8836 -0.4682
vn -0.4061 -0.8923 -0.1973
vn -0.4435 -0.8959 -0.0263
vn -0.4128 -0.8990 0.1461
vn -0.3179 -0.9016 0.2932
vn -0.1727 -0.9035 0.3923
vn 0.0002 -0.9041 0.4273
vn 0.1730 -0.9034 0.3923
vn 0.3182 -0.9015 0.2933
vn 0.4131 -0.8989 0.1462
vn 0.0001 -0.9995 -0.0313
vn 0.9994 -0.0353 -0.0010
vn 0.9236 -0.0353 0.3816
vn 0.9229 -0.0353 -0.3834
vn 0.7060 -0.0353 -0.7073
vn 0.3819 -0.0353 -0.9235
vn 0.0000 -0.0353 -0.9994
vn -0.3819 -0.0353 -0.9235
vn -0.7060 -0.0353 -0.7073
vn -0.9229 -0.0353 -0.3834
vn -0.9994 -0.0353 -0.0010
vn -0.9236 -0.0353 0.3816
vn -0.7071 -0.0353 0.7062
vn -0.3828 -0.0353 0.9232
vn 0.0000 -0.0353 0.9994
vn 0.3828 -0.0353 0.9232
vn 0.7071 -0.0353 0.7062
f 1/1/1 2/2/2 4/3/3 3/4/4
f 5/5/5 6/6/6 8/7/7 7/8/8
f 4/3/3 9/9/9 10/10/10 11/11/11
f 9/9/9 12/12/12 13/13/13 10/10/10
f 12/12/12 14/14/14 15/15/15 13/13/13
f 14/14/14 16/16/16 17/17/17 15/15/15
f 16/16/16 18/18/18 19/19/19 17/17/17
f 18/18/18 20/20/20 21/21/21 19/19/19
f 20/20/20 22/22/22 23/23/23 21/21/21
f 22/22/22 24/24/24 25/25/25 23/23/23
f 24/24/24 26/26/26 27/27/27 25/25/25
f 26/26/26 28/28/28 29/29/29 27/27/27
f 28/28/28 30/30/30 31/31/31 29/29/29
f 30/30/30 8/7/7 32/32/32 31/31/31
f 8/7/7 6/6/6 33/33/33 32/32/32
f 6/6/6 34/34/34 35/35/35 33/33/33
f 34/34/34 3/4/4 36/36/36 35/35/35
f 3/4/4 4/3/3 11/11/11 36/36/36
f 37/37/37 38/38/38 39/39/39 40/40/40
f 38/38/38 41/41/41 42/42/42 39/39/39
f 41/41/41 43/43/43 44/44/44 42/42/42
f 43/43/43 45/45/45 46/46/46 44/44/44
f 45/45/45 47/47/47 48/48/48 46/46/46
f 47/47/47 49/49/49 50/50/50 48/48/48
f 49/49/49 51/51/51 52/52/52 50/50/50
f 51/51/51 53/53/53 54/54/54 52/52/52
f 53/53/53 55/55/55 56/56/56 54/54/54
f 55/55/55 57/57/57 58/58/58 56/56/56
f 57/57/57 59/59/59 60/60/60 58/58/58
f 59/59/59 61/61/61 62/62/62 60/60/60
f 61/61/61 63/63/63 64/64/64 62/62/62
f 63/63/63 65/65/65 66/66/66 64/64/64
f 65/65/65 67/67/67 68/68/68 66/66/66
f 67/67/67 37/37/37 40/40/40 68/68/68
f 69/69/69 39/39/39 42/42/42 70/70/70
f 2/2/2 40/40/40 39/39/39 69/69/69
f 1/1/1 68/68/68 40/40/40 2/2/2
f 71/71/71 66/66/66 68/68/68 1/1/1
f 5/5/5 64/64/64 66/66/66 71/71/71
f 7/8/8 62/62/62 64/64/64 5/5/5
f 72/72/72 60/60/60 62/62/62 7/8/8
f 73/73/73 58/58/58 60/60/60 72/72/72
f 74/74/74 56/56/56 58/58/58 73/73/73
f 75/75/75 54/54/54 56/56/56 74/74/74
f 76/76/76 52/52/52 54/54/54 75/75/75
f 77/77/77 50/50/50 52/52/52 76/76/76
f 78/78/78 48/48/48 50/50/50 77/77/77
f 79/79/79 46/46/46 48/48/48 78/78/78
f 80/80/80 44/44/44 46/46/46 79/79/79
f 44/44/44 80/80/80 70/70/70 42/42/42
f 70/70/70 80/80/80 14/14/14 12/12/12
f 69/69/69 70/70/70 12/12/12 9/9/9
f 2/2/2 69/69/69 9/9/9 4/3/3
f 71/71/71 1/1/1 3/4/4 34/34/34
f 5/5/5 71/71/71 34/34/34 6/6/6
f 72/72/72 7/8/8 8/7/7 30/30/30
f 73/73/73 72/72/72 30/30/30 28/28/28
f 74/74/74 73/73/73 28/28/28 26/26/26
f 75/75/75 74/74/74 26/26/26 24/24/24
f 76/76/76 75/75/75 24/24/24 22/22/22
f 77/77/77 76/76/76 22/22/22 20/20/20
f 78/78/78 77/77/77 20/20/20 18/18/18
f 79/79/79 78/78/78 18/18/18 16/16/16
f 80/80/80 79/79/79 16/16/16 14/14/14
f 13/13/13 15/15/15 81/81/81
f 10/10/10 13/13/13 81/81/81
f 11/11/11 10/10/10 81/81/81
f 36/36/36 11/11/11 81/81/81
f 35/35/35 36/36/36 81/81/81
f 33/33/33 35/35/35 81/81/81
f 32/32/32 33/33/33 81/81/81
f 31/31/31 32/32/32 81/81/81
f 29/29/29 31/31/31 81/81/81
f 27/27/27 29/29/29 81/81/81
f 25/25/25 27/27/27 81/81/81
f 23/23/23 25/25/25 81/81/81
f 21/21/21 23/23/23 81/81/81
f 19/19/19 21/21/21 81/81/81
f 17/17/17 19/19/19 81/81/81
f 15/15/15 17/17/17 81/81/81
f 82/82/82 83/83/83 43/43/43 41/41/41
f 84/84/84 82/82/82 41/41/41 38/38/38
f 85/85/85 84/84/84 38/38/38 37/37/37
f 86/86/86 85/85/85 37/37/37 67/67/67
f 87/87/87 86/86/86 67/67/67 65/65/65
f 88/88/88 87/87/87 65/65/65 63/63/63
f 89/89/89 88/88/88 63/63/63 61/61/61
f 90/90/90 89/89/89 61/61/61 59/59/59
f 91/91/91 90/90/90 59/59/59 57/57/57
f 92/92/92 91/91/91 57/57/57 55/55/55
f 93/93/93 92/92/92 55/55/55 53/53/53
f 94/94/94 93/93/93 53/53/53 51/51/51
f 95/95/95 94/94/94 51/51/51 49/49/49
f 96/96/96 95/95/95 49/49/49 47/47/47
f 97/97/97 96/96/96 47/47/47 45/45/45
f 83/83/83 97/97/97 45/45/45 43/43/43
