# B2
# Sony PlayStation DualShock 3 by 3doverstock, CGTrader Royalty Free License
o B2
v 64.0018 -22.3526 10.2080
v 63.7207 -22.3947 10.3244
v 62.9061 -22.3942 8.5681
v 62.6909 -22.4332 8.7832
v 64.0018 -22.3524 14.0768
v 62.9061 -22.3934 15.7167
v 63.7207 -22.3944 13.9604
v 62.6909 -22.4323 15.5016
v 62.3849 -22.5923 10.8778
v 61.6685 -22.6173 9.8056
v 64.0823 -22.3801 12.1424
v 62.6364 -22.5831 12.1424
v 62.3849 -22.5920 13.4071
v 61.6685 -22.6164 14.4792
v 61.1497 -22.4823 16.5314
v 60.5964 -22.6506 15.1956
v 59.3317 -22.5352 16.8930
v 59.3317 -22.6885 15.4471
v 57.5138 -22.5854 16.5314
v 58.0671 -22.7251 15.1956
v 55.9726 -22.6286 15.5016
v 56.9950 -22.7560 14.4792
v 54.9428 -22.6588 13.9604
v 56.2786 -22.7771 13.4071
v 54.5811 -22.6703 12.1424
v 56.0270 -22.7850 12.1424
v 54.9428 -22.6606 10.3244
v 56.2786 -22.7782 10.8778
v 55.9725 -22.6318 8.7832
v 56.9950 -22.7580 9.8056
v 57.5138 -22.5890 7.7534
v 58.0671 -22.7274 9.0893
v 59.3317 -22.5383 7.3918
v 59.3317 -22.6907 8.8377
v 61.1497 -22.4843 7.7534
v 60.5964 -22.6522 9.0893
v 63.0854 -22.0129 8.3887
v 64.2362 -21.9686 10.1109
v 64.2318 -22.0795 10.1127
v 63.0821 -22.1237 8.3921
v 64.6403 -21.9516 12.1424
v 64.6355 -22.0626 12.1424
v 64.2362 -21.9684 14.1739
v 64.2318 -22.0794 14.1721
v 63.0855 -22.0120 15.8961
v 63.0821 -22.1229 15.8928
v 61.3632 -22.0683 17.0469
v 61.3614 -22.1791 17.0425
v 59.3317 -22.1264 17.4510
v 59.3317 -22.2372 17.4462
v 57.3002 -22.1814 17.0469
v 57.3021 -22.2922 17.0425
v 55.5780 -22.2292 15.8962
v 55.5814 -22.3399 15.8928
v 54.4273 -22.2629 14.1739
v 54.4317 -22.3736 14.1721
v 54.0232 -22.2759 12.1424
v 54.0279 -22.3866 12.1424
v 54.4273 -22.2651 10.1109
v 54.4317 -22.3757 10.1127
v 55.5780 -22.2328 8.3887
v 55.5814 -22.3435 8.3921
v 57.3002 -22.1855 7.2379
v 57.3021 -22.2963 7.2424
v 59.3317 -22.1298 6.8338
v 59.3317 -22.2406 6.8386
v 61.3632 -22.0704 7.2379
v 61.3614 -22.1812 7.2424
v 64.3866 -22.3368 12.1424
v 61.2662 -22.4488 7.4723
v 59.3317 -22.5058 7.0876
v 57.3973 -22.5593 7.4723
v 55.7574 -22.6046 8.5681
v 54.6617 -22.6353 10.2080
v 54.2769 -22.6456 12.1424
v 54.6617 -22.6333 14.0768
v 55.7574 -22.6011 15.7167
v 57.3973 -22.5555 16.8125
v 59.3317 -22.5025 17.1973
v 61.2662 -22.4468 16.8125
v 59.3317 -22.8164 12.1424
v 64.7156 -19.8173 12.1424
v 64.3058 -19.8345 14.2027
v 64.3058 -19.8346 10.0821
v 63.1387 -19.8797 8.3354
v 61.3921 -19.9381 7.1684
v 59.3317 -19.9982 6.7586
v 57.2714 -20.0546 7.1684
v 55.5248 -20.1025 8.3354
v 54.3577 -20.1352 10.0821
v 53.9479 -20.1462 12.1424
v 54.3577 -20.1330 14.2027
v 55.5248 -20.0987 15.9494
v 57.2714 -20.0504 17.1165
v 59.3317 -19.9947 17.5263
v 61.3921 -19.9359 17.1165
v 63.1387 -19.8789 15.9494
vt 0.995521 0.134470
vt 0.994430 0.134922
vt 0.990433 0.128941
vt 0.991268 0.128106
vt 0.995521 0.149484
vt 0.991268 0.155848
vt 0.990433 0.155013
vt 0.994430 0.149032
vt 0.989246 0.137069
vt 0.986465 0.132908
vt 0.995833 0.141977
vt 0.990222 0.141977
vt 0.989246 0.146885
vt 0.986466 0.151045
vt 0.984452 0.159009
vt 0.982305 0.153825
vt 0.977397 0.160413
vt 0.977397 0.154802
vt 0.970342 0.159009
vt 0.972489 0.153825
vt 0.964361 0.155013
vt 0.968329 0.151045
vt 0.960365 0.149032
vt 0.965549 0.146885
vt 0.958961 0.141977
vt 0.964572 0.141977
vt 0.960365 0.134922
vt 0.965549 0.137069
vt 0.964361 0.128941
vt 0.968329 0.132908
vt 0.970342 0.124944
vt 0.972489 0.130128
vt 0.977397 0.123541
vt 0.977397 0.129152
vt 0.984452 0.124944
vt 0.982305 0.130128
vt 0.991964 0.127410
vt 0.996430 0.134093
vt 0.996413 0.134100
vt 0.991951 0.127423
vt 0.997998 0.141977
vt 0.997980 0.141977
vt 0.996430 0.149861
vt 0.996413 0.149854
vt 0.991965 0.156544
vt 0.991951 0.156531
vt 0.985281 0.161010
vt 0.985274 0.160993
vt 0.977397 0.162578
vt 0.977397 0.162560
vt 0.969513 0.161010
vt 0.969520 0.160993
vt 0.962830 0.156544
vt 0.962843 0.156531
vt 0.958364 0.149861
vt 0.958381 0.149854
vt 0.956796 0.141977
vt 0.956814 0.141977
vt 0.958364 0.134093
vt 0.958381 0.134100
vt 0.962830 0.127410
vt 0.962843 0.127423
vt 0.969513 0.122944
vt 0.969520 0.122961
vt 0.977397 0.121376
vt 0.977397 0.121394
vt 0.985281 0.122944
vt 0.985274 0.122961
vt 0.997014 0.141977
vt 0.984904 0.123853
vt 0.977397 0.122360
vt 0.969890 0.123853
vt 0.963526 0.128106
vt 0.959274 0.134470
vt 0.957780 0.141977
vt 0.959274 0.149484
vt 0.963526 0.155848
vt 0.969890 0.160100
vt 0.977397 0.161593
vt 0.984904 0.160100
vt 0.977397 0.141977
vt 0.994010 0.141977
vt 0.992745 0.148334
vt 0.992745 0.135620
vt 0.989144 0.130230
vt 0.983754 0.126629
vt 0.977397 0.125364
vt 0.971040 0.126629
vt 0.965650 0.130230
vt 0.962049 0.135620
vt 0.960784 0.141977
vt 0.962049 0.148334
vt 0.965650 0.153724
vt 0.971040 0.157325
vt 0.977397 0.158589
vt 0.983754 0.157325
vt 0.989144 0.153724
vn 0.4337 -0.8857 -0.1654
vn 0.1311 -0.9906 -0.0387
vn 0.1070 -0.9916 -0.0725
vn 0.3392 -0.8888 -0.3081
vn 0.4335 -0.8858 0.1656
vn 0.3389 -0.8889 0.3084
vn 0.1066 -0.9916 0.0728
vn 0.1309 -0.9906 0.0389
vn 0.0991 -0.9947 -0.0261
vn 0.0829 -0.9953 -0.0491
vn 0.1395 -0.9902 0.0001
vn 0.1046 -0.9945 0.0001
vn 0.0990 -0.9947 0.0264
vn 0.0827 -0.9953 0.0496
vn 0.0704 -0.9928 0.0966
vn 0.0579 -0.9961 0.0659
vn 0.0282 -0.9940 0.1061
vn 0.0290 -0.9970 0.0721
vn -0.0134 -0.9950 0.0993
vn 0.0006 -0.9977 0.0672
vn -0.0485 -0.9959 0.0769
vn -0.0230 -0.9984 0.0519
vn -0.0719 -0.9965 0.0421
vn -0.0388 -0.9988 0.0284
vn -0.0801 -0.9968 0.0005
vn -0.0443 -0.9990 0.0005
vn -0.0718 -0.9966 -0.0412
vn -0.0387 -0.9989 -0.0275
vn -0.0483 -0.9959 -0.0760
vn -0.0229 -0.9984 -0.0510
vn -0.0131 -0.9950 -0.0985
vn 0.0009 -0.9978 -0.0664
vn 0.0286 -0.9940 -0.1055
vn 0.0293 -0.9970 -0.0715
vn 0.0708 -0.9928 -0.0961
vn 0.0583 -0.9962 -0.0653
vn 0.7072 -0.0391 -0.7059
vn 0.9234 -0.0391 -0.3819
vn 0.8557 -0.3827 -0.3483
vn 0.6593 -0.3848 -0.6460
vn 0.9992 -0.0391 0.0000
vn 0.9242 -0.3819 0.0000
vn 0.9234 -0.0391 0.3819
vn 0.8556 -0.3828 0.3484
vn 0.7072 -0.0391 0.7059
vn 0.6592 -0.3848 0.6461
vn 0.3834 -0.0391 0.9228
vn 0.3627 -0.3871 0.8477
vn 0.0010 -0.0391 0.9992
vn 0.0106 -0.3893 0.9211
vn -0.3815 -0.0392 0.9235
vn -0.3432 -0.3912 0.8539
vn -0.7060 -0.0392 0.7071
vn -0.6448 -0.3929 0.6557
vn -0.9230 -0.0392 0.3828
vn -0.8473 -0.3943 0.3558
vn -0.9992 -0.0392 0.0000
vn -0.9187 -0.3949 0.0002
vn -0.9230 -0.0392 -0.3828
vn -0.8474 -0.3944 -0.3554
vn -0.7060 -0.0392 -0.7071
vn -0.6448 -0.3931 -0.6555
vn -0.3815 -0.0392 -0.9235
vn -0.3432 -0.3914 -0.8539
vn 0.0011 -0.0391 -0.9992
vn 0.0108 -0.3894 -0.9210
vn 0.3834 -0.0391 -0.9228
vn 0.3629 -0.3872 -0.8476
vn 0.4665 -0.8845 0.0000
vn 0.1959 -0.8925 -0.4063
vn 0.0253 -0.8959 -0.4436
vn -0.1465 -0.8989 -0.4130
vn -0.2933 -0.9016 -0.3181
vn -0.3921 -0.9035 -0.1727
vn -0.4270 -0.9042 0.0005
vn -0.3921 -0.9034 0.1736
vn -0.2934 -0.9013 0.3187
vn -0.1468 -0.8986 0.4135
vn 0.0249 -0.8957 0.4440
vn 0.1954 -0.8924 0.4067
vn 0.0302 -0.9995 0.0003
vn 0.9994 -0.0353 0.0000
vn 0.9235 -0.0353 0.3820
vn 0.9235 -0.0353 -0.3820
vn 0.7073 -0.0353 -0.7061
vn 0.3833 -0.0353 -0.9229
vn 0.0010 -0.0353 -0.9994
vn -0.3817 -0.0353 -0.9236
vn -0.7062 -0.0353 -0.7071
vn -0.9232 -0.0353 -0.3828
vn -0.9994 -0.0353 0.0000
vn -0.9232 -0.0353 0.3828
vn -0.7062 -0.0353 0.7071
vn -0.3817 -0.0353 0.9236
vn 0.0009 -0.0353 0.9994
vn 0.3833 -0.0353 0.9229
vn 0.7073 -0.0353 0.7061
f 1/1/1 2/2/2 4/3/3 3/4/4
f 5/5/5 6/6/6 8/7/7 7/8/8
f 4/3/3 2/2/2 9/9/9 10/10/10
f 2/2/2 11/11/11 12/12/12 9/9/9
f 11/11/11 7/8/8 13/13/13 12/12/12
f 7/8/8 8/7/7 14/14/14 13/13/13
f 8/7/7 15/15/15 16/16/16 14/14/14
f 15/15/15 17/17/17 18/18/18 16/16/16
f 17/17/17 19/19/19 20/20/20 18/18/18
f 19/19/19 21/21/21 22/22/22 20/20/20
f 21/21/21 23/23/23 24/24/24 22/22/22
f 23/23/23 25/25/25 26/26/26 24/24/24
f 25/25/25 27/27/27 28/28/28 26/26/26
f 27/27/27 29/29/29 30/30/30 28/28/28
f 29/29/29 31/31/31 32/32/32 30/30/30
f 31/31/31 33/33/33 34/34/34 32/32/32
f 33/33/33 35/35/35 36/36/36 34/34/34
f 35/35/35 4/3/3 10/10/10 36/36/36
f 37/37/37 38/38/38 39/39/39 40/40/40
f 38/38/38 41/41/41 42/42/42 39/39/39
f 41/41/41 43/43/43 44/44/44 42/42/42
f 43/43/43 45/45/45 46/46/46 44/44/44
f 45/45/45 47/47/47 48/48/48 46/46/46
f 47/47/47 49/49/49 50/50/50 48/48/48
f 49/49/49 51/51/51 52/52/52 50/50/50
f 51/51/51 53/53/53 54/54/54 52/52/52
f 53/53/53 55/55/55 56/56/56 54/54/54
f 55/55/55 57/57/57 58/58/58 56/56/56
f 57/57/57 59/59/59 60/60/60 58/58/58
f 59/59/59 61/61/61 62/62/62 60/60/60
f 61/61/61 63/63/63 64/64/64 62/62/62
f 63/63/63 65/65/65 66/66/66 64/64/64
f 65/65/65 67/67/67 68/68/68 66/66/66
f 67/67/67 37/37/37 40/40/40 68/68/68
f 1/1/1 39/39/39 42/42/42 69/69/69
f 3/4/4 40/40/40 39/39/39 1/1/1
f 70/70/70 68/68/68 40/40/40 3/4/4
f 71/71/71 66/66/66 68/68/68 70/70/70
f 72/72/72 64/64/64 66/66/66 71/71/71
f 73/73/73 62/62/62 64/64/64 72/72/72
f 74/74/74 60/60/60 62/62/62 73/73/73
f 75/75/75 58/58/58 60/60/60 74/74/74
f 76/76/76 56/56/56 58/58/58 75/75/75
f 77/77/77 54/54/54 56/56/56 76/76/76
f 78/78/78 52/52/52 54/54/54 77/77/77
f 79/79/79 50/50/50 52/52/52 78/78/78
f 80/80/80 48/48/48 50/50/50 79/79/79
f 6/6/6 46/46/46 48/48/48 80/80/80
f 5/5/5 44/44/44 46/46/46 6/6/6
f 44/44/44 5/5/5 69/69/69 42/42/42
f 69/69/69 5/5/5 7/8/8 11/11/11
f 1/1/1 69/69/69 11/11/11 2/2/2
f 70/70/70 3/4/4 4/3/3 35/35/35
f 71/71/71 70/70/70 35/35/35 33/33/33
f 72/72/72 71/71/71 33/33/33 31/31/31
f 73/73/73 72/72/72 31/31/31 29/29/29
f 74/74/74 73/73/73 29/29/29 27/27/27
f 75/75/75 74/74/74 27/27/27 25/25/25
f 76/76/76 75/75/75 25/25/25 23/23/23
f 77/77/77 76/76/76 23/23/23 21/21/21
f 78/78/78 77/77/77 21/21/21 19/19/19
f 79/79/79 78/78/78 19/19/19 17/17/17
f 80/80/80 79/79/79 17/17/17 15/15/15
f 6/6/6 80/80/80 15/15/15 8/7/7
f 12/12/12 13/13/13 81/81/81
f 9/9/9 12/12/12 81/81/81
f 10/10/10 9/9/9 81/81/81
f 36/36/36 10/10/10 81/81/81
f 34/34/34 36/36/36 81/81/81
f 32/32/32 34/34/34 81/81/81
f 30/30/30 32/32/32 81/81/81
f 28/28/28 30/30/30 81/81/81
f 26/26/26 28/28/28 81/81/81
f 24/24/24 26/26/26 81/81/81
f 22/22/22 24/24/24 81/81/81
f 20/20/20 22/22/22 81/81/81
f 18/18/18 20/20/20 81/81/81
f 16/16/16 18/18/18 81/81/81
f 14/14/14 16/16/16 81/81/81
f 13/13/13 14/14/14 81/81/81
f 82/82/82 83/83/83 43/43/43 41/41/41
f 84/84/84 82/82/82 41/41/41 38/38/38
f 85/85/85 84/84/84 38/38/38 37/37/37
f 86/86/86 85/85/85 37/37/37 67/67/67
f 87/87/87 86/86/86 67/67/67 65/65/65
f 88/88/88 87/87/87 65/65/65 63/63/63
f 89/89/89 88/88/88 63/63/63 61/61/61
f 90/90/90 89/89/89 61/61/61 59/59/59
f 91/91/91 90/90/90 59/59/59 57/57/57
f 92/92/92 91/91/91 57/57/57 55/55/55
f 93/93/93 92/92/92 55/55/55 53/53/53
f 94/94/94 93/93/93 53/53/53 51/51/51
f 95/95/95 94/94/94 51/51/51 49/49/49
f 96/96/96 95/95/95 49/49/49 47/47/47
f 97/97/97 96/96/96 47/47/47 45/45/45
f 83/83/83 97/97/97 45/45/45 43/43/43
