# B3
# Sony PlayStation DualShock 3 by 3doverstock, CGTrader Royalty Free License
o B3
v 28.5528 -22.3525 9.9618
v 29.6486 -22.3938 8.3219
v 28.8339 -22.3946 10.0783
v 29.8637 -22.4327 8.5371
v 28.5528 -22.3525 13.8307
v 28.8339 -22.3946 13.7142
v 29.6486 -22.3938 15.4706
v 29.8637 -22.4327 15.2554
v 36.5821 -22.6303 8.5371
v 37.6119 -22.6598 10.0783
v 36.2761 -22.7777 10.6316
v 35.5597 -22.7571 9.5595
v 37.9735 -22.6704 11.8962
v 36.5276 -22.7850 11.8962
v 37.6119 -22.6598 13.7142
v 36.2761 -22.7777 13.1609
v 36.5821 -22.6303 15.2554
v 35.5597 -22.7571 14.2330
v 35.0409 -22.5873 16.2852
v 34.4876 -22.7263 14.9494
v 33.2229 -22.5368 16.6469
v 33.2229 -22.6896 15.2009
v 31.4049 -22.4833 16.2852
v 31.9583 -22.6514 14.9494
v 30.8861 -22.6169 14.2330
v 30.1698 -22.5922 13.1609
v 28.4723 -22.3801 11.8962
v 29.9182 -22.5831 11.8962
v 30.1698 -22.5922 10.6316
v 30.8861 -22.6169 9.5595
v 31.4049 -22.4833 7.5072
v 31.9583 -22.6514 8.8431
v 33.2229 -22.5368 7.1456
v 33.2229 -22.6896 8.5915
v 35.0409 -22.5873 7.5072
v 34.4876 -22.7263 8.8431
v 36.9766 -22.2310 8.1425
v 38.1274 -22.2640 9.8647
v 38.1230 -22.3747 9.8666
v 36.9733 -22.3418 8.1459
v 38.5315 -22.2760 11.8962
v 38.5267 -22.3866 11.8962
v 38.1274 -22.2640 13.9277
v 38.1230 -22.3747 13.9259
v 36.9766 -22.2310 15.6500
v 36.9733 -22.3418 15.6466
v 35.2544 -22.1835 16.8007
v 35.2526 -22.2943 16.7963
v 33.2229 -22.1282 17.2048
v 33.2229 -22.2390 17.2000
v 31.1914 -22.0694 16.8007
v 31.1932 -22.1802 16.7963
v 29.4692 -22.0125 15.6500
v 29.4726 -22.1233 15.6466
v 28.3184 -21.9685 13.9277
v 28.3228 -22.0795 13.9259
v 27.9143 -21.9516 11.8962
v 27.9191 -22.0626 11.8962
v 28.3184 -21.9685 9.8647
v 28.3228 -22.0795 9.8666
v 29.4692 -22.0125 8.1425
v 29.4726 -22.1233 8.1459
v 31.1914 -22.0694 6.9918
v 31.1932 -22.1802 6.9962
v 33.2229 -22.1282 6.5877
v 33.2229 -22.2390 6.5924
v 35.2544 -22.1835 6.9918
v 35.2526 -22.2943 6.9962
v 37.8930 -22.6343 9.9618
v 38.2778 -22.6456 11.8962
v 36.7972 -22.6029 8.3219
v 35.1573 -22.5574 7.2262
v 33.2229 -22.5042 6.8414
v 31.2885 -22.4478 7.2262
v 28.1680 -22.3368 11.8962
v 31.2885 -22.4478 16.5663
v 33.2229 -22.5042 16.9511
v 35.1573 -22.5574 16.5663
v 36.7972 -22.6029 15.4706
v 37.8930 -22.6343 13.8306
v 33.2229 -22.8164 11.8962
v 38.6068 -20.1462 11.8962
v 38.1970 -20.1341 13.9566
v 38.1970 -20.1341 9.8359
v 37.0299 -20.1007 8.0893
v 35.2832 -20.0525 6.9222
v 33.2229 -19.9965 6.5124
v 31.1626 -19.9370 6.9222
v 29.4159 -19.8793 8.0893
v 28.2489 -19.8345 9.8359
v 27.8390 -19.8173 11.8962
v 28.2489 -19.8345 13.9566
v 29.4159 -19.8793 15.7032
v 31.1626 -19.9370 16.8703
v 33.2229 -19.9965 17.2801
v 35.2832 -20.0525 16.8703
v 37.0299 -20.1007 15.7032
vt 0.854768 0.133993
vt 0.859060 0.127569
vt 0.859903 0.128411
vt 0.855869 0.134449
vt 0.854768 0.149148
vt 0.855869 0.148692
vt 0.859903 0.154730
vt 0.859060 0.155572
vt 0.886221 0.128411
vt 0.890255 0.134449
vt 0.885022 0.136616
vt 0.882216 0.132417
vt 0.891672 0.141571
vt 0.886008 0.141571
vt 0.890255 0.148692
vt 0.885022 0.146525
vt 0.886221 0.154730
vt 0.882216 0.150724
vt 0.880184 0.158764
vt 0.878016 0.153531
vt 0.873062 0.160180
vt 0.873062 0.154516
vt 0.865940 0.158764
vt 0.868108 0.153531
vt 0.863908 0.150724
vt 0.861102 0.146525
vt 0.854452 0.141571
vt 0.860116 0.141571
vt 0.861102 0.136616
vt 0.863908 0.132417
vt 0.865940 0.124377
vt 0.868108 0.129610
vt 0.873062 0.122961
vt 0.873062 0.128625
vt 0.880184 0.124377
vt 0.878016 0.129610
vt 0.887452 0.127181
vt 0.891863 0.133783
vt 0.891847 0.133790
vt 0.887439 0.127194
vt 0.893413 0.141571
vt 0.893394 0.141571
vt 0.891863 0.149358
vt 0.891847 0.149351
vt 0.887452 0.155961
vt 0.887439 0.155948
vt 0.880850 0.160372
vt 0.880843 0.160355
vt 0.873062 0.161921
vt 0.873062 0.161903
vt 0.865274 0.160372
vt 0.865281 0.160355
vt 0.858672 0.155961
vt 0.858685 0.155948
vt 0.854261 0.149358
vt 0.854278 0.149351
vt 0.852711 0.141571
vt 0.852730 0.141571
vt 0.854261 0.133783
vt 0.854278 0.133790
vt 0.858672 0.127181
vt 0.858685 0.127194
vt 0.865274 0.122769
vt 0.865281 0.122786
vt 0.873062 0.121220
vt 0.873062 0.121238
vt 0.880850 0.122769
vt 0.880843 0.122786
vt 0.891357 0.133993
vt 0.892864 0.141571
vt 0.887064 0.127569
vt 0.880640 0.123276
vt 0.873062 0.121769
vt 0.865484 0.123276
vt 0.853260 0.141571
vt 0.865484 0.159865
vt 0.873062 0.161372
vt 0.880640 0.159865
vt 0.887064 0.155572
vt 0.891357 0.149148
vt 0.873062 0.141571
vt 0.891057 0.141571
vt 0.889687 0.148457
vt 0.889687 0.134684
vt 0.885786 0.128846
vt 0.879948 0.124946
vt 0.873062 0.123576
vt 0.866176 0.124946
vt 0.860338 0.128846
vt 0.856437 0.134684
vt 0.855067 0.141571
vt 0.856437 0.148457
vt 0.860338 0.154295
vt 0.866176 0.158196
vt 0.873062 0.159565
vt 0.879948 0.158196
vt 0.885786 0.154295
vn -0.4336 -0.8858 -0.1655
vn -0.3390 -0.8889 -0.3082
vn -0.1068 -0.9916 -0.0726
vn -0.1310 -0.9906 -0.0388
vn -0.4336 -0.8858 0.1655
vn -0.1310 -0.9906 0.0388
vn -0.1068 -0.9916 0.0726
vn -0.3390 -0.8889 0.3082
vn 0.0484 -0.9959 -0.0765
vn 0.0718 -0.9965 -0.0417
vn 0.0387 -0.9989 -0.0280
vn 0.0229 -0.9984 -0.0514
vn 0.0801 -0.9968 -0.0000
vn 0.0443 -0.9990 -0.0000
vn 0.0718 -0.9965 0.0417
vn 0.0387 -0.9989 0.0280
vn 0.0484 -0.9959 0.0765
vn 0.0229 -0.9984 0.0514
vn 0.0133 -0.9950 0.0989
vn -0.0008 -0.9978 0.0668
vn -0.0284 -0.9940 0.1058
vn -0.0292 -0.9970 0.0718
vn -0.0706 -0.9928 0.0964
vn -0.0581 -0.9962 0.0656
vn -0.0828 -0.9953 0.0493
vn -0.0990 -0.9947 0.0262
vn -0.1395 -0.9902 0.0000
vn -0.1046 -0.9945 0.0000
vn -0.0990 -0.9947 -0.0262
vn -0.0828 -0.9953 -0.0493
vn -0.0706 -0.9928 -0.0964
vn -0.0581 -0.9962 -0.0656
vn -0.0284 -0.9940 -0.1058
vn -0.0292 -0.9970 -0.0718
vn 0.0133 -0.9950 -0.0989
vn -0.0008 -0.9978 -0.0668
vn 0.7060 -0.0392 -0.7071
vn 0.9230 -0.0392 -0.3828
vn 0.8474 -0.3944 -0.3556
vn 0.6448 -0.3930 -0.6556
vn 0.9992 -0.0392 0.0000
vn 0.9187 -0.3949 -0.0000
vn 0.9230 -0.0392 0.3828
vn 0.8474 -0.3944 0.3556
vn 0.7060 -0.0392 0.7071
vn 0.6448 -0.3930 0.6556
vn 0.3815 -0.0392 0.9235
vn 0.3432 -0.3913 0.8539
vn -0.0011 -0.0391 0.9992
vn -0.0107 -0.3893 0.9210
vn -0.3834 -0.0391 0.9228
vn -0.3628 -0.3872 0.8476
vn -0.7072 -0.0391 0.7059
vn -0.6592 -0.3848 0.6460
vn -0.9234 -0.0391 0.3819
vn -0.8557 -0.3828 0.3484
vn -0.9992 -0.0391 0.0000
vn -0.9242 -0.3819 0.0000
vn -0.9234 -0.0391 -0.3819
vn -0.8557 -0.3828 -0.3484
vn -0.7072 -0.0391 -0.7059
vn -0.6592 -0.3848 -0.6460
vn -0.3834 -0.0391 -0.9228
vn -0.3628 -0.3872 -0.8476
vn -0.0011 -0.0391 -0.9992
vn -0.0107 -0.3893 -0.9210
vn 0.3815 -0.0392 -0.9235
vn 0.3432 -0.3913 -0.8539
vn 0.3921 -0.9035 -0.1731
vn 0.4270 -0.9042 -0.0000
vn 0.2933 -0.9014 -0.3184
vn 0.1467 -0.8987 -0.4132
vn -0.0251 -0.8958 -0.4438
vn -0.1957 -0.8925 -0.4065
vn -0.4665 -0.8845 0.0000
vn -0.1957 -0.8925 0.4065
vn -0.0251 -0.8958 0.4438
vn 0.1467 -0.8987 0.4132
vn 0.2933 -0.9014 0.3184
vn 0.3921 -0.9035 0.1731
vn -0.0302 -0.9995 0.0000
vn 0.9994 -0.0353 -0.0000
vn 0.9232 -0.0353 0.3828
vn 0.9232 -0.0353 -0.3828
vn 0.7062 -0.0353 -0.7071
vn 0.3817 -0.0353 -0.9236
vn -0.0010 -0.0353 -0.9994
vn -0.3833 -0.0353 -0.9229
vn -0.7073 -0.0353 -0.7061
vn -0.9235 -0.0353 -0.3820
vn -0.9994 -0.0353 0.0000
vn -0.9235 -0.0353 0.3820
vn -0.7073 -0.0353 0.7061
vn -0.3833 -0.0353 0.9229
vn -0.0010 -0.0353 0.9994
vn 0.3817 -0.0353 0.9236
vn 0.7062 -0.0353 0.7071
f 1/1/1 2/2/2 4/3/3 3/4/4
f 5/5/5 6/6/6 8/7/7 7/8/8
f 9/9/9 10/10/10 11/11/11 12/12/12
f 10/10/10 13/13/13 14/14/14 11/11/11
f 13/13/13 15/15/15 16/16/16 14/14/14
f 15/15/15 17/17/17 18/18/18 16/16/16
f 17/17/17 19/19/19 20/20/20 18/18/18
f 19/19/19 21/21/21 22/22/22 20/20/20
f 21/21/21 23/23/23 24/24/24 22/22/22
f 23/23/23 8/7/7 25/25/25 24/24/24
f 8/7/7 6/6/6 26/26/26 25/25/25
f 6/6/6 27/27/27 28/28/28 26/26/26
f 27/27/27 3/4/4 29/29/29 28/28/28
f 3/4/4 4/3/3 30/30/30 29/29/29
f 4/3/3 31/31/31 32/32/32 30/30/30
f 31/31/31 33/33/33 34/34/34 32/32/32
f 33/33/33 35/35/35 36/36/36 34/34/34
f 35/35/35 9/9/9 12/12/12 36/36/36
f 37/37/37 38/38/38 39/39/39 40/40/40
f 38/38/38 41/41/41 42/42/42 39/39/39
f 41/41/41 43/43/43 44/44/44 42/42/42
f 43/43/43 45/45/45 46/46/46 44/44/44
f 45/45/45 47/47/47 48/48/48 46/46/46
f 47/47/47 49/49/49 50/50/50 48/48/48
f 49/49/49 51/51/51 52/52/52 50/50/50
f 51/51/51 53/53/53 54/54/54 52/52/52
f 53/53/53 55/55/55 56/56/56 54/54/54
f 55/55/55 57/57/57 58/58/58 56/56/56
f 57/57/57 59/59/59 60/60/60 58/58/58
f 59/59/59 61/61/61 62/62/62 60/60/60
f 61/61/61 63/63/63 64/64/64 62/62/62
f 63/63/63 65/65/65 66/66/66 64/64/64
f 65/65/65 67/67/67 68/68/68 66/66/66
f 67/67/67 37/37/37 40/40/40 68/68/68
f 69/69/69 39/39/39 42/42/42 70/70/70
f 71/71/71 40/40/40 39/39/39 69/69/69
f 72/72/72 68/68/68 40/40/40 71/71/71
f 73/73/73 66/66/66 68/68/68 72/72/72
f 74/74/74 64/64/64 66/66/66 73/73/73
f 2/2/2 62/62/62 64/64/64 74/74/74
f 1/1/1 60/60/60 62/62/62 2/2/2
f 75/75/75 58/58/58 60/60/60 1/1/1
f 5/5/5 56/56/56 58/58/58 75/75/75
f 7/8/8 54/54/54 56/56/56 5/5/5
f 76/76/76 52/52/52 54/54/54 7/8/8
f 77/77/77 50/50/50 52/52/52 76/76/76
f 78/78/78 48/48/48 50/50/50 77/77/77
f 79/79/79 46/46/46 48/48/48 78/78/78
f 80/80/80 44/44/44 46/46/46 79/79/79
f 44/44/44 80/80/80 70/70/70 42/42/42
f 70/70/70 80/80/80 15/15/15 13/13/13
f 69/69/69 70/70/70 13/13/13 10/10/10
f 71/71/71 69/69/69 10/10/10 9/9/9
f 72/72/72 71/71/71 9/9/9 35/35/35
f 73/73/73 72/72/72 35/35/35 33/33/33
f 74/74/74 73/73/73 33/33/33 31/31/31
f 2/2/2 74/74/74 31/31/31 4/3/3
f 75/75/75 1/1/1 3/4/4 27/27/27
f 5/5/5 75/75/75 27/27/27 6/6/6
f 76/76/76 7/8/8 8/7/7 23/23/23
f 77/77/77 76/76/76 23/23/23 21/21/21
f 78/78/78 77/77/77 21/21/21 19/19/19
f 79/79/79 78/78/78 19/19/19 17/17/17
f 80/80/80 79/79/79 17/17/17 15/15/15
f 14/14/14 16/16/16 81/81/81
f 11/11/11 14/14/14 81/81/81
f 12/12/12 11/11/11 81/81/81
f 36/36/36 12/12/12 81/81/81
f 34/34/34 36/36/36 81/81/81
f 32/32/32 34/34/34 81/81/81
f 30/30/30 32/32/32 81/81/81
f 29/29/29 30/30/30 81/81/81
f 28/28/28 29/29/29 81/81/81
f 26/26/26 28/28/28 81/81/81
f 25/25/25 26/26/26 81/81/81
f 24/24/24 25/25/25 81/81/81
f 22/22/22 24/24/24 81/81/81
f 20/20/20 22/22/22 81/81/81
f 18/18/18 20/20/20 81/81/81
f 16/16/16 18/18/18 81/81/81
f 82/82/82 83/83/83 43/43/43 41/41/41
f 84/84/84 82/82/82 41/41/41 38/38/38
f 85/85/85 84/84/84 38/38/38 37/37/37
f 86/86/86 85/85/85 37/37/37 67/67/67
f 87/87/87 86/86/86 67/67/67 65/65/65
f 88/88/88 87/87/87 65/65/65 63/63/63
f 89/89/89 88/88/88 63/63/63 61/61/61
f 90/90/90 89/89/89 61/61/61 59/59/59
f 91/91/91 90/90/90 59/59/59 57/57/57
f 92/92/92 91/91/91 57/57/57 55/55/55
f 93/93/93 92/92/92 55/55/55 53/53/53
f 94/94/94 93/93/93 53/53/53 51/51/51
f 95/95/95 94/94/94 51/51/51 49/49/49
f 96/96/96 95/95/95 49/49/49 47/47/47
f 97/97/97 96/96/96 47/47/47 45/45/45
f 83/83/83 97/97/97 45/45/45 43/43/43
