# B4
# Sony PlayStation DualShock 3 by 3doverstock, CGTrader Royalty Free License
o B4
v 44.2713 -22.3545 28.5206
v 42.6314 -22.3986 27.4248
v 44.3878 -22.3972 28.2395
v 42.8466 -22.4380 27.2097
v 48.1401 -22.3544 28.5206
v 48.0237 -22.3972 28.2395
v 49.7801 -22.3984 27.4248
v 49.5649 -22.4377 27.2097
v 49.5649 -22.6430 20.4913
v 50.5947 -22.5999 22.0325
v 49.2589 -22.7380 22.5859
v 48.5425 -22.7692 21.5137
v 50.9564 -22.5477 23.8505
v 49.5104 -22.7002 23.8505
v 50.5947 -22.4915 25.6685
v 49.2589 -22.6603 25.1151
v 48.5425 -22.6238 26.1873
v 47.4704 -22.5977 26.9036
v 46.2057 -22.3818 28.6011
v 46.2057 -22.5882 27.1552
v 44.9411 -22.5978 26.9036
v 43.8690 -22.6241 26.1873
v 41.8168 -22.4920 25.6685
v 43.1526 -22.6607 25.1151
v 41.4551 -22.5485 23.8505
v 42.9010 -22.7007 23.8505
v 41.8168 -22.6007 22.0325
v 43.1526 -22.7386 22.5859
v 42.8465 -22.6438 20.4913
v 43.8690 -22.7697 21.5137
v 44.3878 -22.6724 19.4615
v 44.9411 -22.7902 20.7974
v 46.2057 -22.6824 19.0999
v 46.2057 -22.7973 20.5458
v 48.0237 -22.6720 19.4615
v 47.4704 -22.7899 20.7974
v 49.9595 -22.2440 20.0968
v 51.1102 -22.1965 21.8190
v 51.1058 -22.3072 21.8208
v 49.9561 -22.3547 20.1001
v 51.5143 -22.1394 23.8505
v 51.5095 -22.2502 23.8505
v 51.1102 -22.0773 25.8820
v 51.1058 -22.1881 25.8802
v 49.9595 -22.0166 27.6042
v 49.9561 -22.1275 27.6009
v 48.2372 -21.9698 28.7550
v 48.2354 -22.0808 28.7506
v 46.2057 -21.9518 29.1591
v 46.2057 -22.0628 29.1543
v 44.1742 -21.9698 28.7550
v 44.1761 -22.0808 28.7506
v 42.4520 -22.0168 27.6042
v 42.4554 -22.1277 27.6009
v 41.3013 -22.0778 25.8820
v 41.3057 -22.1886 25.8802
v 40.8972 -22.1402 23.8505
v 40.9019 -22.2510 23.8505
v 41.3013 -22.1975 21.8190
v 41.3057 -22.3082 21.8208
v 42.4520 -22.2449 20.0968
v 42.4554 -22.3556 20.1001
v 44.1742 -22.2767 18.9460
v 44.1761 -22.3873 18.9504
v 46.2057 -22.2878 18.5419
v 46.2057 -22.3984 18.5467
v 48.2372 -22.2761 18.9460
v 48.2354 -22.3868 18.9504
v 50.8758 -22.5702 21.9161
v 51.2606 -22.5153 23.8505
v 49.7801 -22.6157 20.2762
v 48.1401 -22.6465 19.1804
v 46.2057 -22.6575 18.7956
v 44.2713 -22.6470 19.1804
v 42.6314 -22.6166 20.2762
v 41.5357 -22.5712 21.9161
v 41.1509 -22.5161 23.8505
v 41.5357 -22.4564 25.7849
v 46.2057 -22.3377 28.9054
v 50.8758 -22.4559 25.7849
v 46.2057 -22.8267 23.8505
v 51.5896 -20.0078 23.8505
v 51.1798 -19.9449 25.9108
v 51.1798 -20.0655 21.7902
v 50.0127 -20.1136 20.0435
v 48.2661 -20.1462 18.8765
v 46.2057 -20.1580 18.4666
v 44.1454 -20.1467 18.8765
v 42.3988 -20.1145 20.0435
v 41.2317 -20.0666 21.7902
v 40.8219 -20.0086 23.8505
v 41.2317 -19.9454 25.9108
v 42.3988 -19.8835 27.6575
v 44.1454 -19.8357 28.8245
v 46.2057 -19.8173 29.2344
v 48.2661 -19.8356 28.8245
v 50.0127 -19.8833 27.6575
vt 0.918019 0.206595
vt 0.911735 0.202396
vt 0.912559 0.201571
vt 0.918465 0.205517
vt 0.932844 0.206595
vt 0.932398 0.205517
vt 0.938304 0.201571
vt 0.939128 0.202396
vt 0.938304 0.175827
vt 0.942250 0.181733
vt 0.937131 0.183853
vt 0.934386 0.179745
vt 0.943636 0.188699
vt 0.938095 0.188699
vt 0.942250 0.195665
vt 0.937131 0.193545
vt 0.934386 0.197653
vt 0.930278 0.200399
vt 0.925432 0.206903
vt 0.925432 0.201362
vt 0.920586 0.200399
vt 0.916477 0.197653
vt 0.908613 0.195665
vt 0.913732 0.193545
vt 0.907228 0.188699
vt 0.912768 0.188699
vt 0.908613 0.181733
vt 0.913732 0.183853
vt 0.912559 0.175827
vt 0.916477 0.179745
vt 0.918465 0.171881
vt 0.920586 0.177000
vt 0.925432 0.170495
vt 0.925432 0.176036
vt 0.932398 0.171881
vt 0.930278 0.177000
vt 0.939376 0.174755
vt 0.943651 0.181153
vt 0.943634 0.181159
vt 0.939363 0.174767
vt 0.945152 0.188699
vt 0.945134 0.188699
vt 0.943651 0.196246
vt 0.943634 0.196239
vt 0.939376 0.202643
vt 0.939363 0.202631
vt 0.932978 0.206918
vt 0.932971 0.206902
vt 0.925432 0.208419
vt 0.925432 0.208401
vt 0.917885 0.206918
vt 0.917892 0.206902
vt 0.911488 0.202643
vt 0.911500 0.202631
vt 0.907213 0.196246
vt 0.907229 0.196239
vt 0.905712 0.188699
vt 0.905729 0.188699
vt 0.907213 0.181153
vt 0.907229 0.181159
vt 0.911488 0.174755
vt 0.911500 0.174767
vt 0.917885 0.170480
vt 0.917892 0.170496
vt 0.925432 0.168979
vt 0.925432 0.168997
vt 0.932978 0.170480
vt 0.932971 0.170496
vt 0.943327 0.181286
vt 0.944802 0.188699
vt 0.939128 0.175002
vt 0.932844 0.170803
vt 0.925432 0.169329
vt 0.918019 0.170803
vt 0.911735 0.175002
vt 0.907536 0.181286
vt 0.906062 0.188699
vt 0.907536 0.196112
vt 0.925432 0.208069
vt 0.943327 0.196112
vt 0.925432 0.188699
vt 0.943539 0.188699
vt 0.942161 0.195628
vt 0.942161 0.181770
vt 0.938235 0.175895
vt 0.932361 0.171970
vt 0.925432 0.170592
vt 0.918502 0.171970
vt 0.912628 0.175895
vt 0.908703 0.181770
vt 0.907325 0.188699
vt 0.908703 0.195628
vt 0.912628 0.201503
vt 0.918503 0.205428
vt 0.925432 0.206806
vt 0.932361 0.205428
vt 0.938235 0.201503
vn -0.1653 -0.8850 0.4353
vn -0.3078 -0.8883 0.3408
vn -0.0725 -0.9914 0.1089
vn -0.0387 -0.9903 0.1334
vn 0.1653 -0.8850 0.4353
vn 0.0388 -0.9903 0.1333
vn 0.0725 -0.9914 0.1089
vn 0.3079 -0.8883 0.3407
vn 0.0761 -0.9959 -0.0482
vn 0.0986 -0.9950 -0.0126
vn 0.0666 -0.9978 0.0015
vn 0.0512 -0.9984 -0.0225
vn 0.1055 -0.9940 0.0296
vn 0.0716 -0.9970 0.0303
vn 0.0962 -0.9927 0.0723
vn 0.0654 -0.9961 0.0597
vn 0.0492 -0.9952 0.0846
vn 0.0261 -0.9946 0.1009
vn 0.0000 -0.9899 0.1419
vn 0.0000 -0.9943 0.1065
vn -0.0261 -0.9946 0.1009
vn -0.0491 -0.9952 0.0846
vn -0.0961 -0.9927 0.0724
vn -0.0653 -0.9961 0.0598
vn -0.1053 -0.9940 0.0297
vn -0.0715 -0.9970 0.0304
vn -0.0984 -0.9951 -0.0125
vn -0.0664 -0.9978 0.0015
vn -0.0759 -0.9960 -0.0481
vn -0.0510 -0.9984 -0.0225
vn -0.0413 -0.9966 -0.0719
vn -0.0276 -0.9989 -0.0385
vn 0.0001 -0.9968 -0.0803
vn 0.0001 -0.9990 -0.0440
vn 0.0415 -0.9965 -0.0719
vn 0.0278 -0.9989 -0.0385
vn 0.7071 -0.0391 -0.7060
vn 0.9235 -0.0391 -0.3815
vn 0.8539 -0.3914 -0.3430
vn 0.6555 -0.3931 -0.6448
vn 0.9992 -0.0391 0.0011
vn 0.9210 -0.3894 0.0112
vn 0.9227 -0.0391 0.3834
vn 0.8474 -0.3870 0.3634
vn 0.7059 -0.0391 0.7073
vn 0.6457 -0.3845 0.6598
vn 0.3818 -0.0391 0.9234
vn 0.3481 -0.3823 0.8560
vn -0.0000 -0.0391 0.9992
vn 0.0000 -0.3814 0.9244
vn -0.3818 -0.0391 0.9234
vn -0.3481 -0.3823 0.8560
vn -0.7059 -0.0391 0.7073
vn -0.6457 -0.3845 0.6598
vn -0.9227 -0.0391 0.3834
vn -0.8474 -0.3871 0.3635
vn -0.9992 -0.0392 0.0011
vn -0.9210 -0.3894 0.0112
vn -0.9235 -0.0392 -0.3815
vn -0.8539 -0.3914 -0.3430
vn -0.7071 -0.0392 -0.7060
vn -0.6554 -0.3932 -0.6448
vn -0.3828 -0.0392 -0.9230
vn -0.3554 -0.3944 -0.8474
vn 0.0000 -0.0392 -0.9992
vn 0.0001 -0.3948 -0.9188
vn 0.3828 -0.0392 -0.9230
vn 0.3555 -0.3943 -0.8474
vn 0.4130 -0.8989 -0.1461
vn 0.4436 -0.8958 0.0262
vn 0.3181 -0.9015 -0.2933
vn 0.1730 -0.9034 -0.3923
vn 0.0001 -0.9041 -0.4273
vn -0.1728 -0.9035 -0.3923
vn -0.3180 -0.9016 -0.2933
vn -0.4129 -0.8990 -0.1461
vn -0.4435 -0.8959 0.0263
vn -0.4061 -0.8923 0.1973
vn 0.0000 -0.8836 0.4682
vn 0.4062 -0.8922 0.1972
vn 0.0001 -0.9995 0.0313
vn 0.9994 -0.0353 0.0010
vn 0.9229 -0.0353 0.3834
vn 0.9236 -0.0353 -0.3816
vn 0.7071 -0.0353 -0.7062
vn 0.3828 -0.0353 -0.9232
vn 0.0000 -0.0353 -0.9994
vn -0.3828 -0.0353 -0.9232
vn -0.7071 -0.0353 -0.7062
vn -0.9236 -0.0353 -0.3816
vn -0.9994 -0.0353 0.0010
vn -0.9229 -0.0353 0.3834
vn -0.7060 -0.0353 0.7073
vn -0.3819 -0.0353 0.9235
vn 0.0000 -0.0353 0.9994
vn 0.3819 -0.0353 0.9235
vn 0.7060 -0.0353 0.7073
f 1/1/1 2/2/2 4/3/3 3/4/4
f 5/5/5 6/6/6 8/7/7 7/8/8
f 9/9/9 10/10/10 11/11/11 12/12/12
f 10/10/10 13/13/13 14/14/14 11/11/11
f 13/13/13 15/15/15 16/16/16 14/14/14
f 15/15/15 8/7/7 17/17/17 16/16/16
f 8/7/7 6/6/6 18/18/18 17/17/17
f 6/6/6 19/19/19 20/20/20 18/18/18
f 19/19/19 3/4/4 21/21/21 20/20/20
f 3/4/4 4/3/3 22/22/22 21/21/21
f 4/3/3 23/23/23 24/24/24 22/22/22
f 23/23/23 25/25/25 26/26/26 24/24/24
f 25/25/25 27/27/27 28/28/28 26/26/26
f 27/27/27 29/29/29 30/30/30 28/28/28
f 29/29/29 31/31/31 32/32/32 30/30/30
f 31/31/31 33/33/33 34/34/34 32/32/32
f 33/33/33 35/35/35 36/36/36 34/34/34
f 35/35/35 9/9/9 12/12/12 36/36/36
f 37/37/37 38/38/38 39/39/39 40/40/40
f 38/38/38 41/41/41 42/42/42 39/39/39
f 41/41/41 43/43/43 44/44/44 42/42/42
f 43/43/43 45/45/45 46/46/46 44/44/44
f 45/45/45 47/47/47 48/48/48 46/46/46
f 47/47/47 49/49/49 50/50/50 48/48/48
f 49/49/49 51/51/51 52/52/52 50/50/50
f 51/51/51 53/53/53 54/54/54 52/52/52
f 53/53/53 55/55/55 56/56/56 54/54/54
f 55/55/55 57/57/57 58/58/58 56/56/56
f 57/57/57 59/59/59 60/60/60 58/58/58
f 59/59/59 61/61/61 62/62/62 60/60/60
f 61/61/61 63/63/63 64/64/64 62/62/62
f 63/63/63 65/65/65 66/66/66 64/64/64
f 65/65/65 67/67/67 68/68/68 66/66/66
f 67/67/67 37/37/37 40/40/40 68/68/68
f 69/69/69 39/39/39 42/42/42 70/70/70
f 71/71/71 40/40/40 39/39/39 69/69/69
f 72/72/72 68/68/68 40/40/40 71/71/71
f 73/73/73 66/66/66 68/68/68 72/72/72
f 74/74/74 64/64/64 66/66/66 73/73/73
f 75/75/75 62/62/62 64/64/64 74/74/74
f 76/76/76 60/60/60 62/62/62 75/75/75
f 77/77/77 58/58/58 60/60/60 76/76/76
f 78/78/78 56/56/56 58/58/58 77/77/77
f 2/2/2 54/54/54 56/56/56 78/78/78
f 1/1/1 52/52/52 54/54/54 2/2/2
f 79/79/79 50/50/50 52/52/52 1/1/1
f 5/5/5 48/48/48 50/50/50 79/79/79
f 7/8/8 46/46/46 48/48/48 5/5/5
f 80/80/80 44/44/44 46/46/46 7/8/8
f 44/44/44 80/80/80 70/70/70 42/42/42
f 70/70/70 80/80/80 15/15/15 13/13/13
f 69/69/69 70/70/70 13/13/13 10/10/10
f 71/71/71 69/69/69 10/10/10 9/9/9
f 72/72/72 71/71/71 9/9/9 35/35/35
f 73/73/73 72/72/72 35/35/35 33/33/33
f 74/74/74 73/73/73 33/33/33 31/31/31
f 75/75/75 74/74/74 31/31/31 29/29/29
f 76/76/76 75/75/75 29/29/29 27/27/27
f 77/77/77 76/76/76 27/27/27 25/25/25
f 78/78/78 77/77/77 25/25/25 23/23/23
f 2/2/2 78/78/78 23/23/23 4/3/3
f 79/79/79 1/1/1 3/4/4 19/19/19
f 5/5/5 79/79/79 19/19/19 6/6/6
f 80/80/80 7/8/8 8/7/7 15/15/15
f 14/14/14 16/16/16 81/81/81
f 11/11/11 14/14/14 81/81/81
f 12/12/12 11/11/11 81/81/81
f 36/36/36 12/12/12 81/81/81
f 34/34/34 36/36/36 81/81/81
f 32/32/32 34/34/34 81/81/81
f 30/30/30 32/32/32 81/81/81
f 28/28/28 30/30/30 81/81/81
f 26/26/26 28/28/28 81/81/81
f 24/24/24 26/26/26 81/81/81
f 22/22/22 24/24/24 81/81/81
f 21/21/21 22/22/22 81/81/81
f 20/20/20 21/21/21 81/81/81
f 18/18/18 20/20/20 81/81/81
f 17/17/17 18/18/18 81/81/81
f 16/16/16 17/17/17 81/81/81
f 82/82/82 83/83/83 43/43/43 41/41/41
f 84/84/84 82/82/82 41/41/41 38/38/38
f 85/85/85 84/84/84 38/38/38 37/37/37
f 86/86/86 85/85/85 37/37/37 67/67/67
f 87/87/87 86/86/86 67/67/67 65/65/65
f 88/88/88 87/87/87 65/65/65 63/63/63
f 89/89/89 88/88/88 63/63/63 61/61/61
f 90/90/90 89/89/89 61/61/61 59/59/59
f 91/91/91 90/90/90 59/59/59 57/57/57
f 92/92/92 91/91/91 57/57/57 55/55/55
f 93/93/93 92/92/92 55/55/55 53/53/53
f 94/94/94 93/93/93 53/53/53 51/51/51
f 95/95/95 94/94/94 51/51/51 49/49/49
f 96/96/96 95/95/95 49/49/49 47/47/47
f 97/97/97 96/96/96 47/47/47 45/45/45
f 83/83/83 97/97/97 45/45/45 43/43/43
