# Back
# Sony PlayStation DualShock 3 by 3doverstock, CGTrader Royalty Free License
o Back
v -17.1609 -19.3734 13.5939
v -17.1609 -19.3734 9.7843
v -11.2412 -19.3734 9.7843
v -11.2412 -19.3734 13.5939
v -17.5418 -19.3734 10.1653
v -17.5418 -19.3734 13.2130
v -10.8603 -19.3734 13.2130
v -10.7823 -17.3742 13.2485
v -11.1721 -17.3742 13.6384
v -17.2299 -17.3743 13.6384
v -17.6197 -17.3743 13.2485
v -11.1721 -17.3742 9.7399
v -10.7823 -17.3742 10.1297
v -10.8603 -19.3734 10.1653
v -17.6197 -17.3743 10.1297
v -17.2299 -17.3743 9.7399
vt 0.262511 0.571506
vt 0.262511 0.557373
vt 0.284472 0.557373
vt 0.284472 0.571506
vt 0.261098 0.558786
vt 0.261098 0.570093
vt 0.285885 0.570093
vt 0.286175 0.570225
vt 0.284729 0.571671
vt 0.262255 0.571671
vt 0.260808 0.570225
vt 0.284729 0.557208
vt 0.286175 0.558654
vt 0.285885 0.558786
vt 0.260808 0.558654
vt 0.262255 0.557208
vn 0.0000 -1.0000 -0.0000
vn 0.0000 -1.0000 -0.0000
vn 0.0000 -1.0000 -0.0000
vn 0.0000 -1.0000 -0.0000
vn 0.0000 -1.0000 -0.0000
vn 0.0000 -1.0000 -0.0000
vn 0.3824 -0.0337 0.9234
vn 0.9230 -0.0428 0.3823
vn 0.9230 -0.0428 0.3823
vn 0.3824 -0.0337 0.9234
vn -0.9230 -0.0428 0.3823
vn -0.3824 -0.0337 0.9234
vn -0.3824 -0.0337 0.9234
vn -0.9230 -0.0428 0.3823
vn 0.3824 -0.0337 -0.9234
vn 0.9230 -0.0428 -0.3823
vn 0.9230 -0.0428 -0.3823
vn 0.3824 -0.0337 -0.9234
vn -0.9230 -0.0428 -0.3823
vn -0.3824 -0.0337 -0.9234
vn -0.3824 -0.0337 -0.9234
vn -0.9230 -0.0428 -0.3823
vn 0.0000 -1.0000 -0.0000
vn 0.0000 -1.0000 -0.0000
f 1/1/1 2/2/2 3/3/3 4/4/4
f 5/5/5 2/2/2 1/1/1 6/6/6
f 4/4/7 7/7/8 8/8/9 9/9/10
f 6/6/11 1/1/12 10/10/13 11/11/14
f 12/12/15 13/13/16 14/14/17 3/3/18
f 15/15/19 16/16/20 2/2/21 5/5/22
f 4/4/4 3/3/3 14/14/23 7/7/24
f 6/6/11 11/11/14 15/15/19 5/5/22
f 14/14/17 13/13/16 8/8/9 7/7/8
f 10/10/13 1/1/12 4/4/7 9/9/10
f 2/2/21 16/16/20 12/12/15 3/3/18
