# DPadDown
# Sony PlayStation DualShock 3 by 3doverstock, CGTrader Royalty Free License
o DPadDown
v -42.7938 -21.6400 5.2023
v -42.7516 -20.1281 5.2137
v -43.1088 -21.5838 5.8912
v -43.0700 -20.1281 5.9102
v -45.8141 -21.3687 8.5262
v -45.8052 -20.1281 8.5743
v -50.1469 -21.5838 5.8912
v -47.4415 -21.3687 8.5262
v -50.1857 -20.1281 5.9102
v -47.4505 -20.1281 8.5743
v -50.4618 -21.6400 5.2023
v -50.5041 -20.1281 5.2137
v -50.4618 -22.0137 0.6255
v -50.5041 -20.1281 0.5864
v -50.1811 -22.0713 -0.0803
v -50.2203 -20.1281 -0.1271
v -43.0745 -22.0713 -0.0803
v -43.0354 -20.1281 -0.1271
v -42.7938 -22.0137 0.6255
v -42.7516 -20.1281 0.5864
v -46.6487 -20.1281 8.7612
v -46.6485 -21.3536 8.7111
v -49.5351 -20.1281 -0.4227
v -49.5034 -22.0952 -0.3726
v -46.6479 -20.1281 -0.4227
v -46.6477 -22.0952 -0.3726
v -43.7205 -20.1281 -0.4227
v -43.7522 -22.0952 -0.3726
v -43.2077 -23.1910 1.0080
v -43.4863 -23.1699 1.2655
v -43.7163 -23.2172 0.6872
v -43.4581 -23.2424 0.3784
v -43.2077 -22.8576 5.0908
v -43.4863 -22.8637 5.0157
v -49.7976 -23.2424 0.3784
v -49.5394 -23.2172 0.6872
v -49.7694 -23.1699 1.2655
v -50.0480 -23.1910 1.0080
v -49.7694 -22.8637 5.0157
v -50.0480 -22.8576 5.0908
v -43.4886 -22.8074 5.7053
v -43.7443 -22.8177 5.5802
v -44.2716 -23.2367 0.4477
v -44.0626 -23.2637 0.1177
v -46.6441 -23.2367 0.4477
v -46.6456 -23.2637 0.1177
v -47.3537 -22.6155 8.0559
v -47.2946 -22.6414 7.7393
v -46.6448 -22.6290 7.8909
v -46.6463 -22.6021 8.2209
v -49.7670 -22.8074 5.7053
v -49.5113 -22.8177 5.5802
v -49.1930 -23.2637 0.1177
v -48.9841 -23.2367 0.4477
v -45.9611 -22.6414 7.7393
v -45.9020 -22.6155 8.0559
v -43.0805 -22.3714 -0.0731
v -43.7571 -22.3952 -0.3649
v -46.6477 -22.3952 -0.3649
v -49.4986 -22.3952 -0.3649
v -50.1752 -22.3714 -0.0731
v -50.4554 -22.3138 0.6315
v -50.4554 -21.9408 5.2006
v -50.1410 -21.8846 5.8883
v -47.4402 -21.6699 8.5189
v -46.6485 -21.6548 8.7035
v -45.8155 -21.6699 8.5189
v -43.1147 -21.8846 5.8883
v -42.8003 -21.9408 5.2006
v -42.8003 -22.3138 0.6315
v -46.6441 -22.8637 5.0157
v -46.6441 -22.8177 5.5802
vt 0.948577 0.777594
vt 0.948746 0.777640
vt 0.947475 0.780419
vt 0.947321 0.780343
vt 0.936560 0.791050
vt 0.936524 0.790859
vt 0.919235 0.780343
vt 0.930030 0.790859
vt 0.929995 0.791050
vt 0.919079 0.780419
vt 0.917978 0.777594
vt 0.917809 0.777640
vt 0.917978 0.759330
vt 0.917809 0.759174
vt 0.919098 0.756514
vt 0.918942 0.756327
vt 0.947457 0.756514
vt 0.947614 0.756327
vt 0.948746 0.759174
vt 0.948577 0.759330
vt 0.933194 0.791796
vt 0.933195 0.791596
vt 0.921676 0.755147
vt 0.921802 0.755347
vt 0.933197 0.755147
vt 0.933198 0.755347
vt 0.944879 0.755147
vt 0.944753 0.755347
vt 0.946926 0.760856
vt 0.945814 0.761884
vt 0.944896 0.759576
vt 0.945927 0.758344
vt 0.946926 0.777149
vt 0.945814 0.776850
vt 0.920628 0.758344
vt 0.921659 0.759576
vt 0.920741 0.761884
vt 0.919629 0.760856
vt 0.920741 0.776850
vt 0.919629 0.777149
vt 0.945805 0.779601
vt 0.944784 0.779102
vt 0.942680 0.758621
vt 0.943514 0.757303
vt 0.933213 0.758621
vt 0.933207 0.757303
vt 0.930381 0.788982
vt 0.930617 0.787718
vt 0.933210 0.788323
vt 0.933204 0.789640
vt 0.920750 0.779601
vt 0.921771 0.779102
vt 0.923041 0.757303
vt 0.923875 0.758621
vt 0.935938 0.787718
vt 0.936174 0.788982
vt 0.947433 0.756542
vt 0.944734 0.755378
vt 0.933198 0.755378
vt 0.921822 0.755378
vt 0.919122 0.756542
vt 0.918003 0.759354
vt 0.918003 0.777587
vt 0.919258 0.780331
vt 0.930036 0.790829
vt 0.933195 0.791566
vt 0.936519 0.790829
vt 0.947297 0.780331
vt 0.948552 0.777587
vt 0.948552 0.759354
vt 0.933213 0.776850
vt 0.933213 0.779102
vn 0.9765 -0.0249 0.2140
vn 0.9765 -0.0276 0.2137
vn 0.8166 -0.0301 0.5764
vn 0.8166 -0.0259 0.5767
vn 0.4744 -0.0362 0.8796
vn 0.4744 -0.0299 0.8798
vn -0.8166 -0.0259 0.5767
vn -0.4792 -0.0299 0.8772
vn -0.4792 -0.0362 0.8770
vn -0.8166 -0.0301 0.5764
vn -0.9765 -0.0249 0.2140
vn -0.9765 -0.0276 0.2137
vn -0.9821 -0.0259 -0.1866
vn -0.9820 -0.0269 -0.1871
vn -0.7176 -0.0311 -0.6957
vn -0.7174 -0.0314 -0.6960
vn 0.7176 -0.0312 -0.6957
vn 0.7174 -0.0314 -0.6960
vn 0.9820 -0.0269 -0.1871
vn 0.9821 -0.0259 -0.1866
vn -0.0055 -0.0406 0.9992
vn -0.0055 -0.0330 0.9994
vn -0.2024 -0.0283 -0.9789
vn -0.2025 -0.0283 -0.9789
vn 0.0000 -0.0254 -0.9997
vn 0.0000 -0.0255 -0.9997
vn 0.2024 -0.0283 -0.9789
vn 0.2025 -0.0283 -0.9789
vn 0.5114 -0.8589 -0.0260
vn -0.0000 -0.9967 0.0814
vn -0.0000 -0.9967 0.0814
vn 0.3453 -0.9012 -0.2618
vn 0.5147 -0.8383 0.1796
vn -0.0000 -0.9967 0.0814
vn -0.3453 -0.9012 -0.2618
vn 0.0000 -0.9967 0.0814
vn 0.0000 -0.9967 0.0814
vn -0.5114 -0.8589 -0.0260
vn 0.0000 -0.9967 0.0814
vn -0.5147 -0.8383 0.1796
vn 0.4268 -0.8260 0.3682
vn -0.0000 -0.9967 0.0814
vn -0.0000 -0.9967 0.0814
vn 0.1029 -0.8943 -0.4356
vn 0.0000 -0.9967 0.0814
vn 0.0000 -0.8818 -0.4716
vn -0.2415 -0.8301 0.5027
vn 0.0000 -0.9967 0.0814
vn 0.0000 -0.9967 0.0814
vn -0.0027 -0.8335 0.5525
vn -0.4268 -0.8260 0.3682
vn 0.0000 -0.9967 0.0814
vn -0.1029 -0.8943 -0.4356
vn 0.0000 -0.9967 0.0814
vn -0.0000 -0.9967 0.0814
vn 0.2388 -0.8304 0.5034
vn 0.6947 -0.3080 -0.6500
vn 0.1965 -0.2868 -0.9376
vn 0.0000 -0.2632 -0.9647
vn -0.1965 -0.2868 -0.9376
vn -0.6947 -0.3080 -0.6500
vn -0.9547 -0.2504 -0.1609
vn -0.9482 -0.2253 0.2240
vn -0.7894 -0.2180 0.5739
vn -0.4614 -0.2323 0.8563
vn -0.0052 -0.2465 0.9691
vn 0.4567 -0.2327 0.8586
vn 0.7894 -0.2180 0.5739
vn 0.9482 -0.2253 0.2240
vn 0.9547 -0.2504 -0.1609
vn 0.0000 -0.9967 0.0814
vn 0.0000 -0.9967 0.0814
f 1/1/1 2/2/2 4/3/3 3/4/4
f 3/4/4 4/3/3 6/5/5 5/6/6
f 7/7/7 8/8/8 10/9/9 9/10/10
f 11/11/11 7/7/7 9/10/10 12/12/12
f 13/13/13 11/11/11 12/12/12 14/14/14
f 15/15/15 13/13/13 14/14/14 16/16/16
f 17/17/17 18/18/18 20/19/19 19/20/20
f 19/20/20 20/19/19 2/2/2 1/1/1
f 21/21/21 22/22/22 5/6/6 6/5/5
f 10/9/9 8/8/8 22/22/22 21/21/21
f 23/23/23 24/24/24 15/15/15 16/16/16
f 25/25/25 26/26/26 24/24/24 23/23/23
f 27/27/27 28/28/28 26/26/26 25/25/25
f 18/18/18 17/17/17 28/28/28 27/27/27
f 29/29/29 30/30/30 31/31/31 32/32/32
f 33/33/33 34/34/34 30/30/30 29/29/29
f 35/35/35 36/36/36 37/37/37 38/38/38
f 38/38/38 37/37/37 39/39/39 40/40/40
f 41/41/41 42/42/42 34/34/34 33/33/33
f 32/32/32 31/31/31 43/43/43 44/44/44
f 44/44/44 43/43/43 45/45/45 46/46/46
f 47/47/47 48/48/48 49/49/49 50/50/50
f 51/51/51 52/52/52 48/48/48 47/47/47
f 40/40/40 39/39/39 52/52/52 51/51/51
f 53/53/53 54/54/54 36/36/36 35/35/35
f 46/46/46 45/45/45 54/54/54 53/53/53
f 50/50/50 49/49/49 55/55/55 56/56/56
f 56/56/56 55/55/55 42/42/42 41/41/41
f 57/57/57 32/32/32 44/44/44 58/58/58
f 44/44/44 46/46/46 59/59/59 58/58/58
f 46/46/46 53/53/53 60/60/60 59/59/59
f 35/35/35 61/61/61 60/60/60 53/53/53
f 38/38/38 62/62/62 61/61/61 35/35/35
f 62/62/62 38/38/38 40/40/40 63/63/63
f 51/51/51 64/64/64 63/63/63 40/40/40
f 47/47/47 65/65/65 64/64/64 51/51/51
f 65/65/65 47/47/47 50/50/50 66/66/66
f 50/50/50 56/56/56 67/67/67 66/66/66
f 67/67/67 56/56/56 41/41/41 68/68/68
f 68/68/68 41/41/41 33/33/33 69/69/69
f 33/33/33 29/29/29 70/70/70 69/69/69
f 70/70/70 29/29/29 32/32/32 57/57/57
f 31/31/31 30/30/30 34/34/34 71/71/71
f 37/37/37 36/36/36 71/71/71 39/39/39
f 71/71/71 34/34/34 42/42/42 72/72/72
f 43/43/43 31/31/31 71/71/71 45/45/45
f 22/22/22 66/66/66 67/67/67 5/6/6
f 26/26/26 59/59/59 60/60/60 24/24/24
f 49/49/49 48/48/48 52/52/52 72/72/72
f 3/4/4 68/68/68 69/69/69 1/1/1
f 11/11/11 63/63/63 64/64/64 7/7/7
f 39/39/39 71/71/71 72/72/72 52/52/52
f 24/24/24 60/60/60 61/61/61 15/15/15
f 15/15/15 61/61/61 62/62/62 13/13/13
f 17/17/17 57/57/57 58/58/58 28/28/28
f 70/70/70 57/57/57 17/17/17 19/20/20
f 36/36/36 54/54/54 45/45/45 71/71/71
f 1/1/1 69/69/69 70/70/70 19/20/20
f 13/13/13 62/62/62 63/63/63 11/11/11
f 8/8/8 65/65/65 66/66/66 22/22/22
f 28/28/28 58/58/58 59/59/59 26/26/26
f 7/7/7 64/64/64 65/65/65 8/8/8
f 55/55/55 49/49/49 72/72/72 42/42/42
f 5/6/6 67/67/67 68/68/68 3/4/4
