# DPadUp
# Sony PlayStation DualShock 3 by 3doverstock, CGTrader Royalty Free License
o DPadUp
v -42.7938 -21.6400 18.6162
v -43.1088 -21.5838 17.9272
v -42.7516 -20.1281 18.6048
v -43.0700 -20.1281 17.9082
v -45.8141 -21.3687 15.2918
v -45.8052 -20.1281 15.2438
v -50.1469 -21.5838 17.9272
v -50.1857 -20.1281 17.9082
v -47.4415 -21.3687 15.2918
v -47.4505 -20.1281 15.2438
v -50.4618 -21.6400 18.6162
v -50.5041 -20.1281 18.6048
v -50.4618 -22.0137 23.1935
v -50.5041 -20.1281 23.2326
v -50.1811 -22.0713 23.8994
v -50.2203 -20.1281 23.9462
v -43.0745 -22.0713 23.8994
v -42.7938 -22.0137 23.1935
v -43.0354 -20.1281 23.9462
v -42.7516 -20.1281 23.2326
v -46.6487 -20.1281 15.0568
v -46.6485 -21.3536 15.1069
v -49.5351 -20.1281 24.2418
v -49.5034 -22.0952 24.1918
v -46.6479 -20.1281 24.2418
v -46.6477 -22.0952 24.1918
v -43.7205 -20.1281 24.2418
v -43.7522 -22.0952 24.1918
v -43.2077 -23.1910 22.8110
v -43.4581 -23.2424 23.4406
v -43.7163 -23.2172 23.1318
v -43.4863 -23.1699 22.5534
v -43.2077 -22.8576 18.7277
v -43.4863 -22.8637 18.8027
v -49.7976 -23.2424 23.4406
v -50.0480 -23.1910 22.8110
v -49.7694 -23.1699 22.5534
v -49.5394 -23.2172 23.1318
v -50.0480 -22.8576 18.7277
v -49.7694 -22.8637 18.8027
v -43.4886 -22.8074 18.1131
v -43.7443 -22.8177 18.2382
v -44.0626 -23.2637 23.7014
v -44.2716 -23.2367 23.3714
v -46.6456 -23.2637 23.7014
v -46.6441 -23.2367 23.3714
v -47.3537 -22.6155 15.7622
v -46.6463 -22.6021 15.5972
v -46.6448 -22.6290 15.9272
v -47.2946 -22.6414 16.0788
v -49.7670 -22.8074 18.1131
v -49.5113 -22.8177 18.2382
v -49.1930 -23.2637 23.7014
v -48.9841 -23.2367 23.3714
v -45.9020 -22.6155 15.7622
v -45.9611 -22.6414 16.0788
v -43.0805 -22.3714 23.8922
v -43.7571 -22.3952 24.1841
v -46.6477 -22.3952 24.1841
v -49.4986 -22.3952 24.1841
v -50.1752 -22.3714 23.8922
v -50.4554 -22.3138 23.1876
v -50.4554 -21.9408 18.6179
v -50.1410 -21.8846 17.9301
v -47.4402 -21.6699 15.2991
v -46.6485 -21.6548 15.1145
v -45.8155 -21.6699 15.2991
v -43.1147 -21.8846 17.9301
v -42.8003 -21.9408 18.6179
v -42.8003 -22.3138 23.1876
v -46.6441 -22.8637 18.8027
v -46.6441 -22.8177 18.2382
vt 0.948577 0.831123
vt 0.947321 0.828374
vt 0.947475 0.828298
vt 0.948746 0.831078
vt 0.936524 0.817857
vt 0.936560 0.817666
vt 0.919235 0.828374
vt 0.919079 0.828298
vt 0.929995 0.817666
vt 0.930030 0.817857
vt 0.917978 0.831123
vt 0.917809 0.831078
vt 0.917978 0.849390
vt 0.917809 0.849546
vt 0.919098 0.852207
vt 0.918942 0.852394
vt 0.947457 0.852207
vt 0.948577 0.849390
vt 0.948746 0.849546
vt 0.947614 0.852394
vt 0.933194 0.816919
vt 0.933195 0.817119
vt 0.921676 0.853573
vt 0.921802 0.853373
vt 0.933197 0.853573
vt 0.933198 0.853373
vt 0.944879 0.853573
vt 0.944753 0.853373
vt 0.946926 0.847863
vt 0.945927 0.850376
vt 0.944896 0.849143
vt 0.945814 0.846835
vt 0.946926 0.831568
vt 0.945814 0.831868
vt 0.920628 0.850376
vt 0.919629 0.847863
vt 0.920741 0.846835
vt 0.921659 0.849143
vt 0.919629 0.831568
vt 0.920741 0.831868
vt 0.945805 0.829116
vt 0.944784 0.829615
vt 0.943514 0.851417
vt 0.942680 0.850099
vt 0.933207 0.851417
vt 0.933213 0.850099
vt 0.930381 0.819734
vt 0.933204 0.819076
vt 0.933210 0.820393
vt 0.930617 0.820998
vt 0.920750 0.829116
vt 0.921771 0.829615
vt 0.923041 0.851417
vt 0.923875 0.850099
vt 0.936174 0.819734
vt 0.935938 0.820998
vt 0.947433 0.852178
vt 0.944734 0.853343
vt 0.933198 0.853343
vt 0.921822 0.853343
vt 0.919122 0.852178
vt 0.918003 0.849366
vt 0.918003 0.831130
vt 0.919258 0.828386
vt 0.930036 0.817887
vt 0.933195 0.817150
vt 0.936519 0.817887
vt 0.947297 0.828386
vt 0.948552 0.831130
vt 0.948552 0.849366
vt 0.933213 0.831868
vt 0.933213 0.829615
vn 0.9765 -0.0249 -0.2140
vn 0.8166 -0.0259 -0.5766
vn 0.8166 -0.0301 -0.5764
vn 0.9765 -0.0276 -0.2137
vn 0.4744 -0.0299 -0.8798
vn 0.4744 -0.0363 -0.8796
vn -0.8166 -0.0259 -0.5766
vn -0.8166 -0.0301 -0.5764
vn -0.4792 -0.0362 -0.8769
vn -0.4792 -0.0299 -0.8772
vn -0.9765 -0.0249 -0.2140
vn -0.9765 -0.0276 -0.2137
vn -0.9821 -0.0259 0.1866
vn -0.9820 -0.0269 0.1870
vn -0.7177 -0.0311 0.6957
vn -0.7174 -0.0314 0.6960
vn 0.7177 -0.0312 0.6957
vn 0.9821 -0.0259 0.1866
vn 0.9820 -0.0269 0.1870
vn 0.7174 -0.0314 0.6960
vn -0.0055 -0.0406 -0.9992
vn -0.0055 -0.0330 -0.9994
vn -0.2024 -0.0283 0.9789
vn -0.2025 -0.0283 0.9789
vn 0.0000 -0.0255 0.9997
vn 0.0000 -0.0255 0.9997
vn 0.2024 -0.0283 0.9789
vn 0.2025 -0.0283 0.9789
vn 0.5114 -0.8589 0.0260
vn 0.3453 -0.9012 0.2618
vn -0.0000 -0.9967 -0.0814
vn -0.0000 -0.9967 -0.0814
vn 0.5148 -0.8383 -0.1796
vn -0.0000 -0.9967 -0.0814
vn -0.3453 -0.9012 0.2618
vn -0.5114 -0.8589 0.0260
vn 0.0000 -0.9967 -0.0814
vn 0.0000 -0.9967 -0.0814
vn -0.5148 -0.8383 -0.1796
vn 0.0000 -0.9967 -0.0814
vn 0.4268 -0.8260 -0.3682
vn -0.0000 -0.9967 -0.0814
vn 0.1029 -0.8943 0.4356
vn -0.0000 -0.9967 -0.0814
vn 0.0000 -0.8818 0.4715
vn 0.0000 -0.9967 -0.0814
vn -0.2415 -0.8301 -0.5026
vn -0.0027 -0.8335 -0.5525
vn 0.0000 -0.9967 -0.0814
vn 0.0000 -0.9967 -0.0814
vn -0.4268 -0.8260 -0.3682
vn 0.0000 -0.9967 -0.0814
vn -0.1029 -0.8943 0.4356
vn 0.0000 -0.9967 -0.0814
vn 0.2388 -0.8304 -0.5034
vn -0.0000 -0.9967 -0.0814
vn 0.6948 -0.3080 0.6500
vn 0.1965 -0.2869 0.9376
vn 0.0000 -0.2632 0.9647
vn -0.1965 -0.2868 0.9376
vn -0.6948 -0.3080 0.6500
vn -0.9547 -0.2504 0.1608
vn -0.9482 -0.2253 -0.2240
vn -0.7894 -0.2180 -0.5739
vn -0.4614 -0.2323 -0.8562
vn -0.0052 -0.2465 -0.9691
vn 0.4568 -0.2327 -0.8586
vn 0.7894 -0.2180 -0.5739
vn 0.9482 -0.2253 -0.2240
vn 0.9547 -0.2504 0.1608
vn 0.0000 -0.9967 -0.0814
vn 0.0000 -0.9967 -0.0814
f 1/1/1 2/2/2 4/3/3 3/4/4
f 2/2/2 5/5/5 6/6/6 4/3/3
f 7/7/7 8/8/8 10/9/9 9/10/10
f 11/11/11 12/12/12 8/8/8 7/7/7
f 13/13/13 14/14/14 12/12/12 11/11/11
f 15/15/15 16/16/16 14/14/14 13/13/13
f 17/17/17 18/18/18 20/19/19 19/20/20
f 18/18/18 1/1/1 3/4/4 20/19/19
f 21/21/21 6/6/6 5/5/5 22/22/22
f 10/9/9 21/21/21 22/22/22 9/10/10
f 23/23/23 16/16/16 15/15/15 24/24/24
f 25/25/25 23/23/23 24/24/24 26/26/26
f 27/27/27 25/25/25 26/26/26 28/28/28
f 19/20/20 27/27/27 28/28/28 17/17/17
f 29/29/29 30/30/30 31/31/31 32/32/32
f 33/33/33 29/29/29 32/32/32 34/34/34
f 35/35/35 36/36/36 37/37/37 38/38/38
f 36/36/36 39/39/39 40/40/40 37/37/37
f 41/41/41 33/33/33 34/34/34 42/42/42
f 30/30/30 43/43/43 44/44/44 31/31/31
f 43/43/43 45/45/45 46/46/46 44/44/44
f 47/47/47 48/48/48 49/49/49 50/50/50
f 51/51/51 47/47/47 50/50/50 52/52/52
f 39/39/39 51/51/51 52/52/52 40/40/40
f 53/53/53 35/35/35 38/38/38 54/54/54
f 45/45/45 53/53/53 54/54/54 46/46/46
f 48/48/48 55/55/55 56/56/56 49/49/49
f 55/55/55 41/41/41 42/42/42 56/56/56
f 57/57/57 58/58/58 43/43/43 30/30/30
f 43/43/43 58/58/58 59/59/59 45/45/45
f 45/45/45 59/59/59 60/60/60 53/53/53
f 35/35/35 53/53/53 60/60/60 61/61/61
f 36/36/36 35/35/35 61/61/61 62/62/62
f 62/62/62 63/63/63 39/39/39 36/36/36
f 51/51/51 39/39/39 63/63/63 64/64/64
f 47/47/47 51/51/51 64/64/64 65/65/65
f 65/65/65 66/66/66 48/48/48 47/47/47
f 48/48/48 66/66/66 67/67/67 55/55/55
f 67/67/67 68/68/68 41/41/41 55/55/55
f 68/68/68 69/69/69 33/33/33 41/41/41
f 33/33/33 69/69/69 70/70/70 29/29/29
f 70/70/70 57/57/57 30/30/30 29/29/29
f 31/31/31 71/71/71 34/34/34 32/32/32
f 37/37/37 40/40/40 71/71/71 38/38/38
f 71/71/71 72/72/72 42/42/42 34/34/34
f 44/44/44 46/46/46 71/71/71 31/31/31
f 22/22/22 5/5/5 67/67/67 66/66/66
f 26/26/26 24/24/24 60/60/60 59/59/59
f 49/49/49 72/72/72 52/52/52 50/50/50
f 2/2/2 1/1/1 69/69/69 68/68/68
f 11/11/11 7/7/7 64/64/64 63/63/63
f 40/40/40 52/52/52 72/72/72 71/71/71
f 24/24/24 15/15/15 61/61/61 60/60/60
f 15/15/15 13/13/13 62/62/62 61/61/61
f 17/17/17 28/28/28 58/58/58 57/57/57
f 70/70/70 18/18/18 17/17/17 57/57/57
f 38/38/38 71/71/71 46/46/46 54/54/54
f 1/1/1 18/18/18 70/70/70 69/69/69
f 13/13/13 11/11/11 63/63/63 62/62/62
f 9/10/10 22/22/22 66/66/66 65/65/65
f 28/28/28 26/26/26 59/59/59 58/58/58
f 7/7/7 9/10/10 65/65/65 64/64/64
f 56/56/56 42/42/42 72/72/72 49/49/49
f 5/5/5 2/2/2 68/68/68 67/67/67
