# DPadLeft
# Sony PlayStation DualShock 3 by 3doverstock, CGTrader Royalty Free License
o DPadLeft
v -53.3351 -21.6400 8.0756
v -53.3237 -20.1281 8.0333
v -52.6463 -21.5838 8.3905
v -52.6273 -20.1281 8.3517
v -50.0112 -21.3687 11.0959
v -49.9632 -20.1281 11.0869
v -52.6463 -21.5838 15.4286
v -50.0112 -21.3687 12.7233
v -52.6273 -20.1281 15.4674
v -49.9632 -20.1281 12.7322
v -53.3351 -21.6400 15.7436
v -53.3237 -20.1281 15.7859
v -57.9119 -22.0137 15.7436
v -57.9510 -20.1281 15.7859
v -58.6177 -22.0713 15.4629
v -58.6645 -20.1281 15.5021
v -58.6177 -22.0713 8.3563
v -58.6645 -20.1281 8.3171
v -57.9119 -22.0137 8.0756
v -57.9510 -20.1281 8.0333
v -49.7762 -20.1281 11.9305
v -49.8263 -21.3536 11.9303
v -58.9601 -20.1281 14.8169
v -58.9100 -22.0952 14.7852
v -58.9601 -20.1281 11.9297
v -58.9100 -22.0952 11.9294
v -58.9601 -20.1281 9.0023
v -58.9100 -22.0952 9.0340
v -57.5294 -23.1910 8.4894
v -57.2719 -23.1699 8.7680
v -57.8502 -23.2172 8.9980
v -58.1590 -23.2424 8.7398
v -53.4466 -22.8576 8.4894
v -53.5217 -22.8637 8.7680
v -58.1590 -23.2424 15.0793
v -57.8502 -23.2172 14.8211
v -57.2719 -23.1699 15.0511
v -57.5294 -23.1910 15.3297
v -53.5217 -22.8637 15.0511
v -53.4466 -22.8576 15.3297
v -52.8321 -22.8074 8.7704
v -52.9572 -22.8177 9.0261
v -58.0897 -23.2367 9.5533
v -58.4198 -23.2637 9.3444
v -58.0897 -23.2367 11.9259
v -58.4198 -23.2637 11.9273
v -50.4815 -22.6155 12.6354
v -50.7981 -22.6414 12.5763
v -50.6466 -22.6290 11.9265
v -50.3165 -22.6021 11.9280
v -52.8321 -22.8074 15.0488
v -52.9572 -22.8177 14.7931
v -58.4198 -23.2637 14.4748
v -58.0897 -23.2367 14.2658
v -50.7981 -22.6414 11.2429
v -50.4815 -22.6155 11.1837
v -58.6105 -22.3714 8.3623
v -58.9024 -22.3952 9.0388
v -58.9024 -22.3952 11.9294
v -58.9024 -22.3952 14.7803
v -58.6105 -22.3714 15.4569
v -57.9060 -22.3138 15.7371
v -53.3369 -21.9408 15.7371
v -52.6492 -21.8846 15.4227
v -50.0185 -21.6699 12.7219
v -49.8339 -21.6548 11.9302
v -50.0185 -21.6699 11.0973
v -52.6492 -21.8846 8.3965
v -53.3369 -21.9408 8.0820
v -57.9060 -22.3138 8.0820
v -53.5217 -22.8637 11.9259
v -52.9572 -22.8177 11.9259
vt 0.906512 0.789060
vt 0.906557 0.788892
vt 0.909336 0.790162
vt 0.909261 0.790317
vt 0.919968 0.801077
vt 0.919776 0.801113
vt 0.909261 0.818403
vt 0.919776 0.807607
vt 0.919968 0.807643
vt 0.909336 0.818558
vt 0.906512 0.819660
vt 0.906557 0.819829
vt 0.888247 0.819660
vt 0.888091 0.819829
vt 0.885431 0.818540
vt 0.885244 0.818696
vt 0.885431 0.790180
vt 0.885244 0.790024
vt 0.888091 0.788892
vt 0.888247 0.789060
vt 0.920714 0.804444
vt 0.920514 0.804443
vt 0.884065 0.815962
vt 0.884264 0.815835
vt 0.884065 0.804440
vt 0.884264 0.804439
vt 0.884065 0.792758
vt 0.884264 0.792885
vt 0.889774 0.790712
vt 0.890801 0.791824
vt 0.888493 0.792741
vt 0.887261 0.791711
vt 0.906066 0.790712
vt 0.905767 0.791824
vt 0.887261 0.817009
vt 0.888493 0.815979
vt 0.890801 0.816897
vt 0.889774 0.818009
vt 0.905767 0.816897
vt 0.906066 0.818009
vt 0.908519 0.791833
vt 0.908019 0.792853
vt 0.887538 0.794957
vt 0.886221 0.794124
vt 0.887538 0.804425
vt 0.886221 0.804431
vt 0.917899 0.807257
vt 0.916636 0.807021
vt 0.917240 0.804428
vt 0.918557 0.804434
vt 0.908519 0.816887
vt 0.908019 0.815867
vt 0.886221 0.814597
vt 0.887538 0.813763
vt 0.916636 0.801700
vt 0.917899 0.801464
vt 0.885460 0.790204
vt 0.884295 0.792904
vt 0.884295 0.804439
vt 0.884295 0.815816
vt 0.885460 0.818516
vt 0.888271 0.819634
vt 0.906504 0.819634
vt 0.909249 0.818380
vt 0.919747 0.807602
vt 0.920483 0.804443
vt 0.919747 0.801118
vt 0.909249 0.790341
vt 0.906504 0.789086
vt 0.888271 0.789086
vt 0.905767 0.804425
vt 0.908019 0.804425
vn 0.2140 -0.0249 -0.9765
vn 0.2137 -0.0276 -0.9765
vn 0.5764 -0.0301 -0.8166
vn 0.5767 -0.0259 -0.8166
vn 0.8796 -0.0363 -0.4744
vn 0.8798 -0.0299 -0.4744
vn 0.5767 -0.0259 0.8166
vn 0.8772 -0.0299 0.4792
vn 0.8770 -0.0362 0.4792
vn 0.5764 -0.0301 0.8166
vn 0.2140 -0.0249 0.9765
vn 0.2137 -0.0276 0.9765
vn -0.1866 -0.0259 0.9821
vn -0.1871 -0.0269 0.9820
vn -0.6957 -0.0311 0.7176
vn -0.6960 -0.0314 0.7174
vn -0.6957 -0.0312 -0.7176
vn -0.6960 -0.0314 -0.7174
vn -0.1871 -0.0269 -0.9820
vn -0.1866 -0.0259 -0.9821
vn 0.9992 -0.0406 0.0055
vn 0.9994 -0.0330 0.0055
vn -0.9789 -0.0283 0.2024
vn -0.9789 -0.0283 0.2025
vn -0.9997 -0.0255 -0.0000
vn -0.9997 -0.0255 -0.0000
vn -0.9789 -0.0283 -0.2024
vn -0.9789 -0.0283 -0.2025
vn -0.0260 -0.8589 -0.5114
vn 0.0814 -0.9967 0.0000
vn 0.0814 -0.9967 0.0000
vn -0.2618 -0.9012 -0.3453
vn 0.1796 -0.8383 -0.5147
vn 0.0814 -0.9967 0.0000
vn -0.2618 -0.9012 0.3453
vn 0.0814 -0.9967 -0.0000
vn 0.0814 -0.9967 -0.0000
vn -0.0260 -0.8589 0.5114
vn 0.0814 -0.9967 -0.0000
vn 0.1796 -0.8383 0.5147
vn 0.3682 -0.8260 -0.4268
vn 0.0814 -0.9967 -0.0000
vn 0.0814 -0.9967 0.0000
vn -0.4356 -0.8943 -0.1029
vn 0.0814 -0.9967 -0.0000
vn -0.4716 -0.8818 -0.0000
vn 0.5027 -0.8301 0.2415
vn 0.0814 -0.9967 0.0000
vn 0.0814 -0.9967 -0.0000
vn 0.5525 -0.8335 0.0027
vn 0.3682 -0.8260 0.4268
vn 0.0814 -0.9967 0.0000
vn -0.4356 -0.8943 0.1029
vn 0.0814 -0.9967 -0.0000
vn 0.0814 -0.9967 -0.0000
vn 0.5034 -0.8304 -0.2388
vn -0.6500 -0.3080 -0.6947
vn -0.9376 -0.2868 -0.1965
vn -0.9647 -0.2632 -0.0000
vn -0.9376 -0.2868 0.1965
vn -0.6500 -0.3080 0.6947
vn -0.1609 -0.2504 0.9547
vn 0.2240 -0.2253 0.9482
vn 0.5739 -0.2180 0.7894
vn 0.8563 -0.2323 0.4614
vn 0.9691 -0.2465 0.0052
vn 0.8586 -0.2327 -0.4567
vn 0.5739 -0.2180 -0.7894
vn 0.2240 -0.2253 -0.9482
vn -0.1609 -0.2504 -0.9547
vn 0.0814 -0.9967 -0.0000
vn 0.0814 -0.9967 -0.0000
f 1/1/1 2/2/2 4/3/3 3/4/4
f 3/4/4 4/3/3 6/5/5 5/6/6
f 7/7/7 8/8/8 10/9/9 9/10/10
f 11/11/11 7/7/7 9/10/10 12/12/12
f 13/13/13 11/11/11 12/12/12 14/14/14
f 15/15/15 13/13/13 14/14/14 16/16/16
f 17/17/17 18/18/18 20/19/19 19/20/20
f 19/20/20 20/19/19 2/2/2 1/1/1
f 21/21/21 22/22/22 5/6/6 6/5/5
f 10/9/9 8/8/8 22/22/22 21/21/21
f 23/23/23 24/24/24 15/15/15 16/16/16
f 25/25/25 26/26/26 24/24/24 23/23/23
f 27/27/27 28/28/28 26/26/26 25/25/25
f 18/18/18 17/17/17 28/28/28 27/27/27
f 29/29/29 30/30/30 31/31/31 32/32/32
f 33/33/33 34/34/34 30/30/30 29/29/29
f 35/35/35 36/36/36 37/37/37 38/38/38
f 38/38/38 37/37/37 39/39/39 40/40/40
f 41/41/41 42/42/42 34/34/34 33/33/33
f 32/32/32 31/31/31 43/43/43 44/44/44
f 44/44/44 43/43/43 45/45/45 46/46/46
f 47/47/47 48/48/48 49/49/49 50/50/50
f 51/51/51 52/52/52 48/48/48 47/47/47
f 40/40/40 39/39/39 52/52/52 51/51/51
f 53/53/53 54/54/54 36/36/36 35/35/35
f 46/46/46 45/45/45 54/54/54 53/53/53
f 50/50/50 49/49/49 55/55/55 56/56/56
f 56/56/56 55/55/55 42/42/42 41/41/41
f 57/57/57 32/32/32 44/44/44 58/58/58
f 44/44/44 46/46/46 59/59/59 58/58/58
f 46/46/46 53/53/53 60/60/60 59/59/59
f 35/35/35 61/61/61 60/60/60 53/53/53
f 38/38/38 62/62/62 61/61/61 35/35/35
f 62/62/62 38/38/38 40/40/40 63/63/63
f 51/51/51 64/64/64 63/63/63 40/40/40
f 47/47/47 65/65/65 64/64/64 51/51/51
f 65/65/65 47/47/47 50/50/50 66/66/66
f 50/50/50 56/56/56 67/67/67 66/66/66
f 67/67/67 56/56/56 41/41/41 68/68/68
f 68/68/68 41/41/41 33/33/33 69/69/69
f 33/33/33 29/29/29 70/70/70 69/69/69
f 70/70/70 29/29/29 32/32/32 57/57/57
f 31/31/31 30/30/30 34/34/34 71/71/71
f 37/37/37 36/36/36 71/71/71 39/39/39
f 71/71/71 34/34/34 42/42/42 72/72/72
f 43/43/43 31/31/31 71/71/71 45/45/45
f 22/22/22 66/66/66 67/67/67 5/6/6
f 26/26/26 59/59/59 60/60/60 24/24/24
f 49/49/49 48/48/48 52/52/52 72/72/72
f 3/4/4 68/68/68 69/69/69 1/1/1
f 11/11/11 63/63/63 64/64/64 7/7/7
f 39/39/39 71/71/71 72/72/72 52/52/52
f 24/24/24 60/60/60 61/61/61 15/15/15
f 15/15/15 61/61/61 62/62/62 13/13/13
f 17/17/17 57/57/57 58/58/58 28/28/28
f 70/70/70 57/57/57 17/17/17 19/20/20
f 36/36/36 54/54/54 45/45/45 71/71/71
f 1/1/1 69/69/69 70/70/70 19/20/20
f 13/13/13 62/62/62 63/63/63 11/11/11
f 8/8/8 65/65/65 66/66/66 22/22/22
f 28/28/28 58/58/58 59/59/59 26/26/26
f 7/7/7 64/64/64 65/65/65 8/8/8
f 55/55/55 49/49/49 72/72/72 42/42/42
f 5/6/6 67/67/67 68/68/68 3/4/4
