# DPadRight
# Sony PlayStation DualShock 3 by 3doverstock, CGTrader Royalty Free License
o DPadRight
v -39.9213 -21.6400 8.0756
v -40.6102 -21.5838 8.3905
v -39.9327 -20.1281 8.0333
v -40.6292 -20.1281 8.3517
v -43.2456 -21.3687 11.0959
v -43.2937 -20.1281 11.0869
v -40.6102 -21.5838 15.4286
v -40.6292 -20.1281 15.4674
v -43.2456 -21.3687 12.7233
v -43.2937 -20.1281 12.7322
v -39.9213 -21.6400 15.7436
v -39.9327 -20.1281 15.7859
v -35.3439 -22.0137 15.7436
v -35.3048 -20.1281 15.7859
v -34.6380 -22.0713 15.4629
v -34.5912 -20.1281 15.5021
v -34.6380 -22.0713 8.3563
v -35.3439 -22.0137 8.0756
v -34.5912 -20.1281 8.3171
v -35.3048 -20.1281 8.0333
v -43.4807 -20.1281 11.9305
v -43.4306 -21.3536 11.9303
v -34.2956 -20.1281 14.8169
v -34.3457 -22.0952 14.7852
v -34.2956 -20.1281 11.9297
v -34.3457 -22.0952 11.9294
v -34.2956 -20.1281 9.0023
v -34.3457 -22.0952 9.0340
v -35.7265 -23.1910 8.4894
v -35.0968 -23.2424 8.7398
v -35.4056 -23.2172 8.9980
v -35.9840 -23.1699 8.7680
v -39.8098 -22.8576 8.4894
v -39.7347 -22.8637 8.7680
v -35.0968 -23.2424 15.0793
v -35.7265 -23.1910 15.3297
v -35.9840 -23.1699 15.0511
v -35.4056 -23.2172 14.8211
v -39.8098 -22.8576 15.3297
v -39.7347 -22.8637 15.0511
v -40.4243 -22.8074 8.7704
v -40.2992 -22.8177 9.0261
v -34.8360 -23.2637 9.3444
v -35.1661 -23.2367 9.5533
v -34.8360 -23.2637 11.9273
v -35.1661 -23.2367 11.9259
v -42.7753 -22.6155 12.6354
v -42.9403 -22.6021 11.9280
v -42.6102 -22.6290 11.9265
v -42.4586 -22.6414 12.5763
v -40.4243 -22.8074 15.0488
v -40.2992 -22.8177 14.7931
v -34.8360 -23.2637 14.4748
v -35.1661 -23.2367 14.2658
v -42.7753 -22.6155 11.1837
v -42.4586 -22.6414 11.2429
v -34.6452 -22.3714 8.3623
v -34.3533 -22.3952 9.0388
v -34.3533 -22.3952 11.9294
v -34.3533 -22.3952 14.7803
v -34.6452 -22.3714 15.4569
v -35.3499 -22.3138 15.7371
v -39.9195 -21.9408 15.7371
v -40.6073 -21.8846 15.4227
v -43.2383 -21.6699 12.7219
v -43.4229 -21.6548 11.9302
v -43.2383 -21.6699 11.0973
v -40.6073 -21.8846 8.3965
v -39.9195 -21.9408 8.0820
v -35.3499 -22.3138 8.0820
v -39.7347 -22.8637 11.9259
v -40.2992 -22.8177 11.9259
vt 0.960041 0.789060
vt 0.957291 0.790317
vt 0.957216 0.790162
vt 0.959995 0.788892
vt 0.946775 0.801113
vt 0.946583 0.801077
vt 0.957291 0.818403
vt 0.957216 0.818558
vt 0.946583 0.807643
vt 0.946775 0.807607
vt 0.960041 0.819660
vt 0.959995 0.819829
vt 0.978307 0.819660
vt 0.978463 0.819829
vt 0.981124 0.818540
vt 0.981311 0.818696
vt 0.981124 0.790180
vt 0.978307 0.789060
vt 0.978463 0.788892
vt 0.981311 0.790024
vt 0.945837 0.804444
vt 0.946036 0.804443
vt 0.982491 0.815962
vt 0.982291 0.815835
vt 0.982491 0.804440
vt 0.982291 0.804439
vt 0.982491 0.792758
vt 0.982291 0.792885
vt 0.976781 0.790712
vt 0.979293 0.791711
vt 0.978061 0.792741
vt 0.975753 0.791824
vt 0.960486 0.790712
vt 0.960785 0.791824
vt 0.979293 0.817009
vt 0.976781 0.818009
vt 0.975753 0.816897
vt 0.978061 0.815979
vt 0.960486 0.818009
vt 0.960785 0.816897
vt 0.958033 0.791833
vt 0.958533 0.792853
vt 0.980334 0.794124
vt 0.979017 0.794957
vt 0.980334 0.804431
vt 0.979017 0.804425
vt 0.948652 0.807257
vt 0.947993 0.804434
vt 0.949310 0.804428
vt 0.949915 0.807021
vt 0.958033 0.816887
vt 0.958533 0.815867
vt 0.980334 0.814597
vt 0.979017 0.813763
vt 0.948652 0.801464
vt 0.949915 0.801700
vt 0.981095 0.790204
vt 0.982260 0.792904
vt 0.982260 0.804439
vt 0.982260 0.815816
vt 0.981095 0.818516
vt 0.978283 0.819634
vt 0.960048 0.819634
vt 0.957303 0.818380
vt 0.946804 0.807602
vt 0.946067 0.804443
vt 0.946804 0.801118
vt 0.957303 0.790341
vt 0.960048 0.789086
vt 0.978283 0.789086
vt 0.960785 0.804425
vt 0.958533 0.804425
vn -0.2140 -0.0249 -0.9765
vn -0.5766 -0.0259 -0.8166
vn -0.5764 -0.0301 -0.8166
vn -0.2137 -0.0276 -0.9765
vn -0.8798 -0.0299 -0.4744
vn -0.8796 -0.0362 -0.4744
vn -0.5766 -0.0259 0.8166
vn -0.5764 -0.0301 0.8166
vn -0.8769 -0.0362 0.4792
vn -0.8772 -0.0299 0.4792
vn -0.2140 -0.0249 0.9765
vn -0.2137 -0.0276 0.9765
vn 0.1866 -0.0259 0.9821
vn 0.1870 -0.0269 0.9820
vn 0.6957 -0.0311 0.7177
vn 0.6960 -0.0314 0.7174
vn 0.6957 -0.0311 -0.7177
vn 0.1866 -0.0259 -0.9821
vn 0.1870 -0.0269 -0.9820
vn 0.6960 -0.0314 -0.7174
vn -0.9992 -0.0406 0.0055
vn -0.9994 -0.0330 0.0055
vn 0.9789 -0.0283 0.2024
vn 0.9789 -0.0283 0.2025
vn 0.9997 -0.0255 -0.0000
vn 0.9997 -0.0255 -0.0000
vn 0.9789 -0.0283 -0.2024
vn 0.9789 -0.0283 -0.2025
vn 0.0260 -0.8589 -0.5114
vn 0.2618 -0.9012 -0.3453
vn -0.0814 -0.9967 0.0000
vn -0.0814 -0.9967 0.0000
vn -0.1796 -0.8383 -0.5147
vn -0.0814 -0.9967 0.0000
vn 0.2618 -0.9012 0.3453
vn 0.0260 -0.8589 0.5114
vn -0.0814 -0.9967 -0.0000
vn -0.0814 -0.9967 -0.0000
vn -0.1796 -0.8383 0.5147
vn -0.0814 -0.9967 -0.0000
vn -0.3682 -0.8260 -0.4268
vn -0.0814 -0.9967 0.0000
vn 0.4356 -0.8943 -0.1029
vn -0.0814 -0.9967 -0.0000
vn 0.4715 -0.8818 -0.0000
vn -0.0814 -0.9967 -0.0000
vn -0.5026 -0.8301 0.2415
vn -0.5525 -0.8335 0.0027
vn -0.0814 -0.9967 0.0000
vn -0.0814 -0.9967 0.0000
vn -0.3682 -0.8260 0.4268
vn -0.0814 -0.9967 -0.0000
vn 0.4356 -0.8943 0.1029
vn -0.0814 -0.9967 0.0000
vn -0.5034 -0.8304 -0.2388
vn -0.0814 -0.9967 0.0000
vn 0.6500 -0.3080 -0.6948
vn 0.9376 -0.2868 -0.1965
vn 0.9647 -0.2632 -0.0000
vn 0.9376 -0.2868 0.1965
vn 0.6500 -0.3080 0.6948
vn 0.1608 -0.2504 0.9547
vn -0.2240 -0.2253 0.9482
vn -0.5739 -0.2180 0.7894
vn -0.8562 -0.2323 0.4614
vn -0.9691 -0.2465 0.0052
vn -0.8586 -0.2327 -0.4568
vn -0.5739 -0.2180 -0.7894
vn -0.2240 -0.2253 -0.9482
vn 0.1608 -0.2504 -0.9547
vn -0.0814 -0.9967 0.0000
vn -0.0814 -0.9967 -0.0000
f 1/1/1 2/2/2 4/3/3 3/4/4
f 2/2/2 5/5/5 6/6/6 4/3/3
f 7/7/7 8/8/8 10/9/9 9/10/10
f 11/11/11 12/12/12 8/8/8 7/7/7
f 13/13/13 14/14/14 12/12/12 11/11/11
f 15/15/15 16/16/16 14/14/14 13/13/13
f 17/17/17 18/18/18 20/19/19 19/20/20
f 18/18/18 1/1/1 3/4/4 20/19/19
f 21/21/21 6/6/6 5/5/5 22/22/22
f 10/9/9 21/21/21 22/22/22 9/10/10
f 23/23/23 16/16/16 15/15/15 24/24/24
f 25/25/25 23/23/23 24/24/24 26/26/26
f 27/27/27 25/25/25 26/26/26 28/28/28
f 19/20/20 27/27/27 28/28/28 17/17/17
f 29/29/29 30/30/30 31/31/31 32/32/32
f 33/33/33 29/29/29 32/32/32 34/34/34
f 35/35/35 36/36/36 37/37/37 38/38/38
f 36/36/36 39/39/39 40/40/40 37/37/37
f 41/41/41 33/33/33 34/34/34 42/42/42
f 30/30/30 43/43/43 44/44/44 31/31/31
f 43/43/43 45/45/45 46/46/46 44/44/44
f 47/47/47 48/48/48 49/49/49 50/50/50
f 51/51/51 47/47/47 50/50/50 52/52/52
f 39/39/39 51/51/51 52/52/52 40/40/40
f 53/53/53 35/35/35 38/38/38 54/54/54
f 45/45/45 53/53/53 54/54/54 46/46/46
f 48/48/48 55/55/55 56/56/56 49/49/49
f 55/55/55 41/41/41 42/42/42 56/56/56
f 57/57/57 58/58/58 43/43/43 30/30/30
f 43/43/43 58/58/58 59/59/59 45/45/45
f 45/45/45 59/59/59 60/60/60 53/53/53
f 35/35/35 53/53/53 60/60/60 61/61/61
f 36/36/36 35/35/35 61/61/61 62/62/62
f 62/62/62 63/63/63 39/39/39 36/36/36
f 51/51/51 39/39/39 63/63/63 64/64/64
f 47/47/47 51/51/51 64/64/64 65/65/65
f 65/65/65 66/66/66 48/48/48 47/47/47
f 48/48/48 66/66/66 67/67/67 55/55/55
f 67/67/67 68/68/68 41/41/41 55/55/55
f 68/68/68 69/69/69 33/33/33 41/41/41
f 33/33/33 69/69/69 70/70/70 29/29/29
f 70/70/70 57/57/57 30/30/30 29/29/29
f 31/31/31 71/71/71 34/34/34 32/32/32
f 37/37/37 40/40/40 71/71/71 38/38/38
f 71/71/71 72/72/72 42/42/42 34/34/34
f 44/44/44 46/46/46 71/71/71 31/31/31
f 22/22/22 5/5/5 67/67/67 66/66/66
f 26/26/26 24/24/24 60/60/60 59/59/59
f 49/49/49 72/72/72 52/52/52 50/50/50
f 2/2/2 1/1/1 69/69/69 68/68/68
f 11/11/11 7/7/7 64/64/64 63/63/63
f 40/40/40 52/52/52 72/72/72 71/71/71
f 24/24/24 15/15/15 61/61/61 60/60/60
f 15/15/15 13/13/13 62/62/62 61/61/61
f 17/17/17 28/28/28 58/58/58 57/57/57
f 70/70/70 18/18/18 17/17/17 57/57/57
f 38/38/38 71/71/71 46/46/46 54/54/54
f 1/1/1 18/18/18 70/70/70 69/69/69
f 13/13/13 11/11/11 63/63/63 62/62/62
f 9/10/10 22/22/22 66/66/66 65/65/65
f 28/28/28 26/26/26 59/59/59 58/58/58
f 7/7/7 9/10/10 65/65/65 64/64/64
f 56/56/56 42/42/42 72/72/72 49/49/49
f 5/5/5 2/2/2 68/68/68 67/67/67
