# Joystick-Right-Ring
# Sony PlayStation DualShock 3 by 3doverstock, CGTrader Royalty Free License
o Joystick-Right-Ring
v 24.2974 -28.7864 -20.6944
v 26.5657 -28.7864 -20.1354
v 26.5514 -28.9330 -20.0975
v 24.2926 -28.9330 -20.6543
v 21.9613 -28.7864 -20.6944
v 21.9661 -28.9330 -20.6543
v 19.6930 -28.7864 -20.1354
v 19.7073 -28.9330 -20.0975
v 17.6244 -28.7864 -19.0497
v 17.6474 -28.9330 -19.0164
v 15.8757 -28.7864 -17.5005
v 15.9060 -28.9330 -17.4737
v 14.5486 -28.7864 -15.5778
v 14.5844 -28.9330 -15.5590
v 13.7202 -28.7864 -13.3935
v 13.7595 -28.9330 -13.3838
v 13.4386 -28.7864 -11.0743
v 13.4790 -28.9330 -11.0743
v 13.7202 -28.7864 -8.7552
v 13.7595 -28.9330 -8.7648
v 14.5486 -28.7864 -6.5708
v 14.5844 -28.9330 -6.5896
v 15.8757 -28.7864 -4.6481
v 15.9060 -28.9330 -4.6750
v 17.6244 -28.7864 -3.0989
v 17.6473 -28.9330 -3.1323
v 19.6930 -28.7864 -2.0133
v 19.7073 -28.9330 -2.0511
v 21.9613 -28.7864 -1.4542
v 21.9661 -28.9330 -1.4944
v 24.2974 -28.7864 -1.4542
v 24.2926 -28.9330 -1.4944
v 26.5657 -28.7864 -2.0133
v 26.5514 -28.9330 -2.0511
v 28.6343 -28.7864 -3.0989
v 28.6114 -28.9330 -3.1323
v 30.3830 -28.7864 -4.6481
v 30.3527 -28.9330 -4.6750
v 31.7101 -28.7864 -6.5708
v 31.6743 -28.9330 -6.5896
v 32.5385 -28.7864 -8.7552
v 32.4992 -28.9330 -8.7648
v 32.8201 -28.7864 -11.0743
v 32.7797 -28.9330 -11.0743
v 32.5385 -28.7864 -13.3935
v 32.4992 -28.9330 -13.3838
v 31.7101 -28.7864 -15.5778
v 31.6743 -28.9330 -15.5590
v 30.3830 -28.7864 -17.5005
v 30.3527 -28.9330 -17.4737
v 28.6343 -28.7864 -19.0497
v 28.6114 -28.9330 -19.0164
v 29.5859 -31.4331 -9.4829
v 29.0174 -31.4331 -7.9840
v 26.2242 -32.1723 -9.4500
v 26.5230 -32.1723 -10.2379
v 28.1068 -31.4331 -6.6647
v 25.7455 -32.1723 -8.7566
v 26.9069 -31.4331 -5.6016
v 25.1148 -32.1723 -8.1978
v 25.4874 -31.4331 -4.8567
v 24.3687 -32.1723 -7.8063
v 23.9309 -31.4331 -4.4730
v 23.5506 -32.1723 -7.6046
v 22.3278 -31.4331 -4.4730
v 22.7081 -32.1723 -7.6046
v 20.7713 -31.4331 -4.8567
v 21.8899 -32.1723 -7.8063
v 19.3518 -31.4331 -5.6016
v 21.1439 -32.1723 -8.1978
v 18.1519 -31.4331 -6.6647
v 20.5132 -32.1723 -8.7566
v 17.2413 -31.4331 -7.9840
v 20.0345 -32.1723 -9.4500
v 16.6728 -31.4331 -9.4829
v 19.7357 -32.1723 -10.2379
v 16.4796 -31.4331 -11.0743
v 19.6342 -32.1723 -11.0743
v 16.6728 -31.4331 -12.6657
v 19.7357 -32.1723 -11.9108
v 17.2413 -31.4331 -14.1646
v 20.0345 -32.1723 -12.6986
v 18.1519 -31.4331 -15.4839
v 20.5132 -32.1723 -13.3920
v 19.3518 -31.4331 -16.5470
v 21.1439 -32.1723 -13.9508
v 20.7713 -31.4331 -17.2920
v 21.8899 -32.1723 -14.3423
v 22.3278 -31.4331 -17.6756
v 22.7081 -32.1723 -14.5440
v 23.9309 -31.4331 -17.6756
v 23.5506 -32.1723 -14.5440
v 25.4874 -31.4331 -17.2920
v 24.3687 -32.1723 -14.3423
v 26.9069 -31.4331 -16.5470
v 25.1148 -32.1723 -13.9508
v 28.1068 -31.4331 -15.4839
v 25.7455 -32.1723 -13.3920
v 29.0174 -31.4331 -14.1646
v 26.2242 -32.1723 -12.6986
v 29.5859 -31.4331 -12.6657
v 26.5230 -32.1723 -11.9108
v 29.7791 -31.4331 -11.0743
v 26.6245 -32.1723 -11.0743
v 31.5595 -30.5401 -8.9965
v 30.8173 -30.5401 -7.0394
v 29.6282 -30.5401 -5.3168
v 28.0615 -30.5401 -3.9288
v 26.2082 -30.5401 -2.9561
v 24.1759 -30.5401 -2.4552
v 22.0828 -30.5401 -2.4552
v 20.0505 -30.5401 -2.9561
v 18.1972 -30.5401 -3.9288
v 16.6305 -30.5401 -5.3168
v 15.4414 -30.5401 -7.0394
v 14.6992 -30.5401 -8.9965
v 14.4469 -30.5401 -11.0743
v 14.6992 -30.5401 -13.1522
v 15.4414 -30.5401 -15.1092
v 16.6305 -30.5401 -16.8318
v 18.1972 -30.5401 -18.2198
v 20.0505 -30.5401 -19.1925
v 22.0828 -30.5401 -19.6934
v 24.1759 -30.5401 -19.6934
v 26.2082 -30.5401 -19.1925
v 28.0615 -30.5401 -18.2198
v 29.6282 -30.5401 -16.8318
v 30.8173 -30.5401 -15.1092
v 31.5595 -30.5401 -13.1522
v 31.8118 -30.5401 -11.0743
v 32.2822 -29.7430 -8.8183
v 31.4763 -29.7430 -6.6935
v 30.1854 -29.7430 -4.8232
v 28.4844 -29.7430 -3.3162
v 26.4721 -29.7430 -2.2601
v 24.2656 -29.7430 -1.7163
v 21.9931 -29.7430 -1.7163
v 19.7866 -29.7430 -2.2601
v 17.7743 -29.7430 -3.3162
v 16.0733 -29.7430 -4.8232
v 14.7824 -29.7430 -6.6935
v 13.9765 -29.7430 -8.8183
v 13.7026 -29.7430 -11.0743
v 13.9765 -29.7430 -13.3303
v 14.7824 -29.7430 -15.4551
v 16.0733 -29.7430 -17.3254
v 17.7743 -29.7430 -18.8324
v 19.7866 -29.7430 -19.8885
v 21.9931 -29.7430 -20.4323
v 24.2656 -29.7430 -20.4323
v 26.4721 -29.7430 -19.8885
v 28.4844 -29.7430 -18.8324
v 30.1854 -29.7430 -17.3254
v 31.4763 -29.7430 -15.4551
v 32.2822 -29.7430 -13.3303
v 32.5561 -29.7430 -11.0743
v 23.1294 -32.4955 -11.0743
vt 0.950041 0.889824
vt 0.959093 0.892055
vt 0.959035 0.892206
vt 0.950021 0.889984
vt 0.940718 0.889824
vt 0.940737 0.889984
vt 0.931666 0.892055
vt 0.931723 0.892206
vt 0.923411 0.896388
vt 0.923503 0.896521
vt 0.916433 0.902570
vt 0.916554 0.902677
vt 0.911137 0.910242
vt 0.911280 0.910317
vt 0.907831 0.918959
vt 0.907988 0.918998
vt 0.906869 0.928214
vt 0.906707 0.928214
vt 0.907831 0.937469
vt 0.907988 0.937430
vt 0.911137 0.946186
vt 0.911280 0.946111
vt 0.916433 0.953858
vt 0.916554 0.953751
vt 0.923411 0.960041
vt 0.923503 0.959908
vt 0.931666 0.964373
vt 0.931723 0.964222
vt 0.940718 0.966604
vt 0.940737 0.966444
vt 0.950041 0.966604
vt 0.950021 0.966444
vt 0.959093 0.964373
vt 0.959035 0.964222
vt 0.967348 0.960041
vt 0.967256 0.959908
vt 0.974326 0.953858
vt 0.974205 0.953751
vt 0.979622 0.946186
vt 0.979479 0.946111
vt 0.982928 0.937469
vt 0.982771 0.937430
vt 0.984051 0.928214
vt 0.983890 0.928214
vt 0.982928 0.918959
vt 0.982771 0.918998
vt 0.979622 0.910242
vt 0.979479 0.910317
vt 0.974326 0.902570
vt 0.974205 0.902677
vt 0.967348 0.896388
vt 0.967256 0.896521
vt 0.971145 0.934565
vt 0.968876 0.940546
vt 0.957730 0.934696
vt 0.958922 0.931552
vt 0.965242 0.945811
vt 0.955820 0.937463
vt 0.960454 0.950053
vt 0.953303 0.939693
vt 0.954789 0.953026
vt 0.950325 0.941256
vt 0.948578 0.954557
vt 0.947061 0.942060
vt 0.942181 0.954557
vt 0.943698 0.942060
vt 0.935969 0.953026
vt 0.940434 0.941256
vt 0.930305 0.950053
vt 0.937456 0.939693
vt 0.925516 0.945811
vt 0.934939 0.937463
vt 0.921882 0.940546
vt 0.933029 0.934696
vt 0.919614 0.934565
vt 0.931837 0.931552
vt 0.918843 0.928214
vt 0.931432 0.928214
vt 0.919614 0.921863
vt 0.931837 0.924876
vt 0.921882 0.915882
vt 0.933029 0.921732
vt 0.925516 0.910617
vt 0.934939 0.918965
vt 0.930305 0.906375
vt 0.937456 0.916735
vt 0.935969 0.903402
vt 0.940434 0.915173
vt 0.942181 0.901871
vt 0.943698 0.914368
vt 0.948578 0.901871
vt 0.947061 0.914368
vt 0.954789 0.903402
vt 0.950325 0.915173
vt 0.960454 0.906375
vt 0.953303 0.916735
vt 0.965242 0.910617
vt 0.955820 0.918965
vt 0.968876 0.915882
vt 0.957730 0.921732
vt 0.971145 0.921863
vt 0.958922 0.924876
vt 0.971916 0.928214
vt 0.959327 0.928214
vt 0.979021 0.936506
vt 0.976059 0.944316
vt 0.971314 0.951190
vt 0.965062 0.956729
vt 0.957666 0.960611
vt 0.949556 0.962610
vt 0.941203 0.962610
vt 0.933093 0.960611
vt 0.925697 0.956729
vt 0.919445 0.951190
vt 0.914700 0.944316
vt 0.911738 0.936506
vt 0.910731 0.928214
vt 0.911738 0.919922
vt 0.914700 0.912112
vt 0.919445 0.905238
vt 0.925697 0.899699
vt 0.933093 0.895818
vt 0.941203 0.893819
vt 0.949556 0.893819
vt 0.957666 0.895818
vt 0.965062 0.899699
vt 0.971314 0.905238
vt 0.976059 0.912112
vt 0.979021 0.919922
vt 0.980027 0.928214
vt 0.981905 0.937217
vt 0.978689 0.945696
vt 0.973537 0.953160
vt 0.966749 0.959174
vt 0.958719 0.963388
vt 0.949914 0.965558
vt 0.940845 0.965558
vt 0.932040 0.963388
vt 0.924010 0.959174
vt 0.917222 0.953160
vt 0.912070 0.945696
vt 0.908854 0.937217
vt 0.907761 0.928214
vt 0.908854 0.919211
vt 0.912070 0.910732
vt 0.917222 0.903268
vt 0.924010 0.897255
vt 0.932040 0.893040
vt 0.940845 0.890870
vt 0.949914 0.890870
vt 0.958719 0.893040
vt 0.966749 0.897255
vt 0.973537 0.903268
vt 0.978689 0.910732
vt 0.981905 0.919211
vt 0.982998 0.928214
vt 0.945379 0.928214
vn 0.1198 0.1100 -0.9867
vn 0.3524 0.1100 -0.9293
vn 0.3418 -0.2660 -0.9013
vn 0.1162 -0.2660 -0.9569
vn -0.1198 0.1100 -0.9867
vn -0.1162 -0.2661 -0.9569
vn -0.3525 0.1100 -0.9293
vn -0.3418 -0.2661 -0.9013
vn -0.5646 0.1100 -0.8180
vn -0.5476 -0.2661 -0.7933
vn -0.7440 0.1100 -0.6591
vn -0.7215 -0.2661 -0.6392
vn -0.8801 0.1100 -0.4619
vn -0.8535 -0.2660 -0.4480
vn -0.9650 0.1100 -0.2379
vn -0.9359 -0.2660 -0.2307
vn -0.9640 -0.2660 -0.0000
vn -0.9939 0.1100 -0.0000
vn -0.9651 0.1100 0.2379
vn -0.9359 -0.2661 0.2307
vn -0.8801 0.1100 0.4619
vn -0.8535 -0.2661 0.4480
vn -0.7440 0.1100 0.6591
vn -0.7215 -0.2661 0.6392
vn -0.5646 0.1100 0.8180
vn -0.5476 -0.2660 0.7933
vn -0.3525 0.1100 0.9293
vn -0.3418 -0.2660 0.9013
vn -0.1198 0.1100 0.9867
vn -0.1162 -0.2660 0.9569
vn 0.1198 0.1100 0.9867
vn 0.1162 -0.2660 0.9569
vn 0.3524 0.1100 0.9293
vn 0.3418 -0.2660 0.9013
vn 0.5646 0.1100 0.8180
vn 0.5476 -0.2660 0.7933
vn 0.7440 0.1100 0.6591
vn 0.7215 -0.2661 0.6392
vn 0.8801 0.1100 0.4619
vn 0.8535 -0.2661 0.4480
vn 0.9650 0.1100 0.2379
vn 0.9359 -0.2660 0.2307
vn 0.9939 0.1100 -0.0000
vn 0.9640 -0.2660 -0.0000
vn 0.9650 0.1100 -0.2379
vn 0.9360 -0.2660 -0.2307
vn 0.8801 0.1100 -0.4619
vn 0.8535 -0.2660 -0.4480
vn 0.7440 0.1100 -0.6591
vn 0.7215 -0.2660 -0.6392
vn 0.5646 0.1100 -0.8180
vn 0.5476 -0.2660 -0.7933
vn 0.3073 -0.9486 0.0757
vn 0.2802 -0.9486 0.1471
vn 0.1421 -0.9870 0.0746
vn 0.1558 -0.9870 0.0384
vn 0.2369 -0.9486 0.2099
vn 0.1201 -0.9870 0.1064
vn 0.1798 -0.9486 0.2605
vn 0.0912 -0.9870 0.1321
vn 0.1122 -0.9486 0.2959
vn 0.0569 -0.9870 0.1500
vn 0.0381 -0.9486 0.3142
vn 0.0193 -0.9870 0.1593
vn -0.0381 -0.9486 0.3142
vn -0.0193 -0.9870 0.1593
vn -0.1122 -0.9486 0.2959
vn -0.0569 -0.9870 0.1500
vn -0.1798 -0.9486 0.2605
vn -0.0912 -0.9870 0.1321
vn -0.2369 -0.9486 0.2099
vn -0.1201 -0.9870 0.1064
vn -0.2802 -0.9486 0.1471
vn -0.1421 -0.9870 0.0746
vn -0.3073 -0.9486 0.0757
vn -0.1558 -0.9870 0.0384
vn -0.3165 -0.9486 -0.0000
vn -0.1605 -0.9870 -0.0000
vn -0.3073 -0.9486 -0.0757
vn -0.1558 -0.9870 -0.0384
vn -0.2802 -0.9486 -0.1471
vn -0.1421 -0.9870 -0.0746
vn -0.2369 -0.9486 -0.2099
vn -0.1201 -0.9870 -0.1064
vn -0.1798 -0.9486 -0.2605
vn -0.0912 -0.9870 -0.1321
vn -0.1122 -0.9486 -0.2959
vn -0.0569 -0.9870 -0.1500
vn -0.0381 -0.9486 -0.3142
vn -0.0193 -0.9870 -0.1593
vn 0.0381 -0.9486 -0.3142
vn 0.0193 -0.9870 -0.1593
vn 0.1122 -0.9486 -0.2959
vn 0.0569 -0.9870 -0.1500
vn 0.1798 -0.9486 -0.2605
vn 0.0912 -0.9870 -0.1321
vn 0.2369 -0.9486 -0.2099
vn 0.1201 -0.9870 -0.1064
vn 0.2802 -0.9486 -0.1471
vn 0.1421 -0.9870 -0.0746
vn 0.3073 -0.9486 -0.0757
vn 0.1558 -0.9870 -0.0384
vn 0.3165 -0.9486 -0.0000
vn 0.1605 -0.9870 0.0000
vn 0.5614 -0.8159 0.1384
vn 0.5120 -0.8159 0.2687
vn 0.4328 -0.8159 0.3834
vn 0.3284 -0.8159 0.4758
vn 0.2050 -0.8159 0.5406
vn 0.0697 -0.8159 0.5740
vn -0.0697 -0.8159 0.5740
vn -0.2050 -0.8159 0.5406
vn -0.3284 -0.8159 0.4758
vn -0.4328 -0.8159 0.3834
vn -0.5120 -0.8159 0.2687
vn -0.5614 -0.8159 0.1384
vn -0.5782 -0.8159 -0.0000
vn -0.5614 -0.8159 -0.1384
vn -0.5119 -0.8159 -0.2687
vn -0.4328 -0.8159 -0.3834
vn -0.3284 -0.8159 -0.4758
vn -0.2050 -0.8159 -0.5406
vn -0.0697 -0.8159 -0.5740
vn 0.0697 -0.8159 -0.5740
vn 0.2050 -0.8159 -0.5406
vn 0.3284 -0.8159 -0.4758
vn 0.4328 -0.8159 -0.3834
vn 0.5120 -0.8159 -0.2687
vn 0.5614 -0.8159 -0.1384
vn 0.5782 -0.8159 -0.0000
vn 0.8471 -0.4887 0.2088
vn 0.7725 -0.4887 0.4054
vn 0.6530 -0.4887 0.5785
vn 0.4956 -0.4887 0.7180
vn 0.3094 -0.4887 0.8158
vn 0.1052 -0.4887 0.8661
vn -0.1052 -0.4887 0.8661
vn -0.3094 -0.4887 0.8158
vn -0.4956 -0.4887 0.7180
vn -0.6530 -0.4887 0.5785
vn -0.7725 -0.4887 0.4054
vn -0.8471 -0.4887 0.2088
vn -0.8725 -0.4887 -0.0000
vn -0.8471 -0.4887 -0.2088
vn -0.7725 -0.4887 -0.4055
vn -0.6530 -0.4887 -0.5785
vn -0.4956 -0.4887 -0.7180
vn -0.3094 -0.4887 -0.8158
vn -0.1052 -0.4887 -0.8661
vn 0.1052 -0.4887 -0.8661
vn 0.3094 -0.4887 -0.8158
vn 0.4956 -0.4887 -0.7180
vn 0.6530 -0.4887 -0.5785
vn 0.7725 -0.4887 -0.4054
vn 0.8471 -0.4887 -0.2088
vn 0.8725 -0.4887 -0.0000
vn 0.0000 -1.0000 -0.0000
f 1/1/1 2/2/2 3/3/3 4/4/4
f 5/5/5 1/1/1 4/4/4 6/6/6
f 7/7/7 5/5/5 6/6/6 8/8/8
f 9/9/9 7/7/7 8/8/8 10/10/10
f 11/11/11 9/9/9 10/10/10 12/12/12
f 13/13/13 11/11/11 12/12/12 14/14/14
f 15/15/15 13/13/13 14/14/14 16/16/16
f 15/15/15 16/16/16 18/17/17 17/18/18
f 19/19/19 17/18/18 18/17/17 20/20/20
f 21/21/21 19/19/19 20/20/20 22/22/22
f 23/23/23 21/21/21 22/22/22 24/24/24
f 25/25/25 23/23/23 24/24/24 26/26/26
f 27/27/27 25/25/25 26/26/26 28/28/28
f 29/29/29 27/27/27 28/28/28 30/30/30
f 31/31/31 29/29/29 30/30/30 32/32/32
f 33/33/33 31/31/31 32/32/32 34/34/34
f 35/35/35 33/33/33 34/34/34 36/36/36
f 37/37/37 35/35/35 36/36/36 38/38/38
f 39/39/39 37/37/37 38/38/38 40/40/40
f 41/41/41 39/39/39 40/40/40 42/42/42
f 43/43/43 41/41/41 42/42/42 44/44/44
f 45/45/45 43/43/43 44/44/44 46/46/46
f 47/47/47 45/45/45 46/46/46 48/48/48
f 49/49/49 47/47/47 48/48/48 50/50/50
f 51/51/51 49/49/49 50/50/50 52/52/52
f 2/2/2 51/51/51 52/52/52 3/3/3
f 53/53/53 54/54/54 55/55/55 56/56/56
f 54/54/54 57/57/57 58/58/58 55/55/55
f 57/57/57 59/59/59 60/60/60 58/58/58
f 59/59/59 61/61/61 62/62/62 60/60/60
f 61/61/61 63/63/63 64/64/64 62/62/62
f 63/63/63 65/65/65 66/66/66 64/64/64
f 65/65/65 67/67/67 68/68/68 66/66/66
f 67/67/67 69/69/69 70/70/70 68/68/68
f 69/69/69 71/71/71 72/72/72 70/70/70
f 71/71/71 73/73/73 74/74/74 72/72/72
f 73/73/73 75/75/75 76/76/76 74/74/74
f 75/75/75 77/77/77 78/78/78 76/76/76
f 79/79/79 80/80/80 78/78/78 77/77/77
f 79/79/79 81/81/81 82/82/82 80/80/80
f 81/81/81 83/83/83 84/84/84 82/82/82
f 83/83/83 85/85/85 86/86/86 84/84/84
f 85/85/85 87/87/87 88/88/88 86/86/86
f 87/87/87 89/89/89 90/90/90 88/88/88
f 89/89/89 91/91/91 92/92/92 90/90/90
f 91/91/91 93/93/93 94/94/94 92/92/92
f 93/93/93 95/95/95 96/96/96 94/94/94
f 95/95/95 97/97/97 98/98/98 96/96/96
f 97/97/97 99/99/99 100/100/100 98/98/98
f 99/99/99 101/101/101 102/102/102 100/100/100
f 101/101/101 103/103/103 104/104/104 102/102/102
f 103/103/103 53/53/53 56/56/56 104/104/104
f 105/105/105 106/106/106 54/54/54 53/53/53
f 106/106/106 107/107/107 57/57/57 54/54/54
f 107/107/107 108/108/108 59/59/59 57/57/57
f 108/108/108 109/109/109 61/61/61 59/59/59
f 109/109/109 110/110/110 63/63/63 61/61/61
f 110/110/110 111/111/111 65/65/65 63/63/63
f 111/111/111 112/112/112 67/67/67 65/65/65
f 112/112/112 113/113/113 69/69/69 67/67/67
f 113/113/113 114/114/114 71/71/71 69/69/69
f 114/114/114 115/115/115 73/73/73 71/71/71
f 115/115/115 116/116/116 75/75/75 73/73/73
f 116/116/116 117/117/117 77/77/77 75/75/75
f 118/118/118 79/79/79 77/77/77 117/117/117
f 118/118/118 119/119/119 81/81/81 79/79/79
f 119/119/119 120/120/120 83/83/83 81/81/81
f 120/120/120 121/121/121 85/85/85 83/83/83
f 121/121/121 122/122/122 87/87/87 85/85/85
f 122/122/122 123/123/123 89/89/89 87/87/87
f 123/123/123 124/124/124 91/91/91 89/89/89
f 124/124/124 125/125/125 93/93/93 91/91/91
f 125/125/125 126/126/126 95/95/95 93/93/93
f 126/126/126 127/127/127 97/97/97 95/95/95
f 127/127/127 128/128/128 99/99/99 97/97/97
f 128/128/128 129/129/129 101/101/101 99/99/99
f 129/129/129 130/130/130 103/103/103 101/101/101
f 130/130/130 105/105/105 53/53/53 103/103/103
f 131/131/131 132/132/132 106/106/106 105/105/105
f 132/132/132 133/133/133 107/107/107 106/106/106
f 133/133/133 134/134/134 108/108/108 107/107/107
f 134/134/134 135/135/135 109/109/109 108/108/108
f 135/135/135 136/136/136 110/110/110 109/109/109
f 136/136/136 137/137/137 111/111/111 110/110/110
f 137/137/137 138/138/138 112/112/112 111/111/111
f 138/138/138 139/139/139 113/113/113 112/112/112
f 139/139/139 140/140/140 114/114/114 113/113/113
f 140/140/140 141/141/141 115/115/115 114/114/114
f 141/141/141 142/142/142 116/116/116 115/115/115
f 142/142/142 143/143/143 117/117/117 116/116/116
f 144/144/144 118/118/118 117/117/117 143/143/143
f 144/144/144 145/145/145 119/119/119 118/118/118
f 145/145/145 146/146/146 120/120/120 119/119/119
f 146/146/146 147/147/147 121/121/121 120/120/120
f 147/147/147 148/148/148 122/122/122 121/121/121
f 148/148/148 149/149/149 123/123/123 122/122/122
f 149/149/149 150/150/150 124/124/124 123/123/123
f 150/150/150 151/151/151 125/125/125 124/124/124
f 151/151/151 152/152/152 126/126/126 125/125/125
f 152/152/152 153/153/153 127/127/127 126/126/126
f 153/153/153 154/154/154 128/128/128 127/127/127
f 154/154/154 155/155/155 129/129/129 128/128/128
f 155/155/155 156/156/156 130/130/130 129/129/129
f 156/156/156 131/131/131 105/105/105 130/130/130
f 42/42/42 40/40/40 132/132/132 131/131/131
f 40/40/40 38/38/38 133/133/133 132/132/132
f 38/38/38 36/36/36 134/134/134 133/133/133
f 36/36/36 34/34/34 135/135/135 134/134/134
f 34/34/34 32/32/32 136/136/136 135/135/135
f 32/32/32 30/30/30 137/137/137 136/136/136
f 30/30/30 28/28/28 138/138/138 137/137/137
f 28/28/28 26/26/26 139/139/139 138/138/138
f 26/26/26 24/24/24 140/140/140 139/139/139
f 24/24/24 22/22/22 141/141/141 140/140/140
f 22/22/22 20/20/20 142/142/142 141/141/141
f 20/20/20 18/17/17 143/143/143 142/142/142
f 16/16/16 144/144/144 143/143/143 18/17/17
f 16/16/16 14/14/14 145/145/145 144/144/144
f 14/14/14 12/12/12 146/146/146 145/145/145
f 12/12/12 10/10/10 147/147/147 146/146/146
f 10/10/10 8/8/8 148/148/148 147/147/147
f 8/8/8 6/6/6 149/149/149 148/148/148
f 6/6/6 4/4/4 150/150/150 149/149/149
f 4/4/4 3/3/3 151/151/151 150/150/150
f 3/3/3 52/52/52 152/152/152 151/151/151
f 52/52/52 50/50/50 153/153/153 152/152/152
f 50/50/50 48/48/48 154/154/154 153/153/153
f 48/48/48 46/46/46 155/155/155 154/154/154
f 46/46/46 44/44/44 156/156/156 155/155/155
f 44/44/44 42/42/42 131/131/131 156/156/156
f 56/56/56 55/55/55 157/157/157
f 55/55/55 58/58/58 157/157/157
f 58/58/58 60/60/60 157/157/157
f 60/60/60 62/62/62 157/157/157
f 62/62/62 64/64/64 157/157/157
f 64/64/64 66/66/66 157/157/157
f 66/66/66 68/68/68 157/157/157
f 68/68/68 70/70/70 157/157/157
f 70/70/70 72/72/72 157/157/157
f 72/72/72 74/74/74 157/157/157
f 74/74/74 76/76/76 157/157/157
f 76/76/76 78/78/78 157/157/157
f 78/78/78 80/80/80 157/157/157
f 80/80/80 82/82/82 157/157/157
f 82/82/82 84/84/84 157/157/157
f 84/84/84 86/86/86 157/157/157
f 86/86/86 88/88/88 157/157/157
f 88/88/88 90/90/90 157/157/157
f 90/90/90 92/92/92 157/157/157
f 92/92/92 94/94/94 157/157/157
f 94/94/94 96/96/96 157/157/157
f 96/96/96 98/98/98 157/157/157
f 98/98/98 100/100/100 157/157/157
f 100/100/100 102/102/102 157/157/157
f 102/102/102 104/104/104 157/157/157
f 104/104/104 56/56/56 157/157/157
