# Joystick-Left-Ring
# Sony PlayStation DualShock 3 by 3doverstock, CGTrader Royalty Free License
o Joystick-Left-Ring
v -24.2974 -28.7864 -20.6944
v -24.2926 -28.9330 -20.6543
v -26.5514 -28.9330 -20.0975
v -26.5657 -28.7864 -20.1354
v -21.9612 -28.7864 -20.6944
v -21.9661 -28.9330 -20.6543
v -19.6929 -28.7864 -20.1354
v -19.7073 -28.9330 -20.0975
v -17.6243 -28.7864 -19.0497
v -17.6473 -28.9330 -19.0164
v -15.8757 -28.7864 -17.5005
v -15.9060 -28.9330 -17.4737
v -14.5486 -28.7864 -15.5778
v -14.5844 -28.9330 -15.5590
v -13.7202 -28.7864 -13.3935
v -13.7595 -28.9330 -13.3838
v -13.4386 -28.7864 -11.0743
v -13.4790 -28.9330 -11.0743
v -13.7202 -28.7864 -8.7552
v -13.7595 -28.9330 -8.7648
v -14.5486 -28.7864 -6.5708
v -14.5844 -28.9330 -6.5896
v -15.8757 -28.7864 -4.6481
v -15.9060 -28.9330 -4.6750
v -17.6243 -28.7864 -3.0989
v -17.6473 -28.9330 -3.1323
v -19.6929 -28.7864 -2.0133
v -19.7073 -28.9330 -2.0511
v -21.9612 -28.7864 -1.4542
v -21.9661 -28.9330 -1.4944
v -24.2974 -28.7864 -1.4542
v -24.2926 -28.9330 -1.4944
v -26.5657 -28.7864 -2.0133
v -26.5514 -28.9330 -2.0511
v -28.6343 -28.7864 -3.0989
v -28.6113 -28.9330 -3.1323
v -30.3830 -28.7864 -4.6481
v -30.3527 -28.9330 -4.6750
v -31.7101 -28.7864 -6.5708
v -31.6743 -28.9330 -6.5896
v -32.5385 -28.7864 -8.7552
v -32.4992 -28.9330 -8.7648
v -32.8201 -28.7864 -11.0743
v -32.7796 -28.9330 -11.0743
v -32.5385 -28.7864 -13.3935
v -32.4992 -28.9330 -13.3838
v -31.7101 -28.7864 -15.5778
v -31.6743 -28.9330 -15.5590
v -30.3830 -28.7864 -17.5005
v -30.3527 -28.9330 -17.4737
v -28.6343 -28.7864 -19.0497
v -28.6113 -28.9330 -19.0164
v -29.5859 -31.4331 -9.4829
v -26.5229 -32.1723 -10.2379
v -26.2242 -32.1723 -9.4500
v -29.0174 -31.4331 -7.9840
v -25.7455 -32.1723 -8.7566
v -28.1068 -31.4331 -6.6647
v -25.1148 -32.1723 -8.1978
v -26.9069 -31.4331 -5.6016
v -24.3687 -32.1723 -7.8063
v -25.4874 -31.4331 -4.8567
v -23.5506 -32.1723 -7.6046
v -23.9309 -31.4331 -4.4730
v -22.7080 -32.1723 -7.6046
v -22.3278 -31.4331 -4.4730
v -21.8899 -32.1723 -7.8063
v -20.7713 -31.4331 -4.8567
v -21.1439 -32.1723 -8.1978
v -19.3518 -31.4331 -5.6016
v -20.5132 -32.1723 -8.7566
v -18.1519 -31.4331 -6.6647
v -20.0345 -32.1723 -9.4500
v -17.2412 -31.4331 -7.9840
v -19.7357 -32.1723 -10.2379
v -16.6728 -31.4331 -9.4829
v -19.6342 -32.1723 -11.0743
v -16.4796 -31.4331 -11.0743
v -19.7357 -32.1723 -11.9108
v -16.6728 -31.4331 -12.6657
v -20.0345 -32.1723 -12.6986
v -17.2413 -31.4331 -14.1646
v -20.5132 -32.1723 -13.3920
v -18.1519 -31.4331 -15.4839
v -21.1439 -32.1723 -13.9508
v -19.3518 -31.4331 -16.5470
v -21.8899 -32.1723 -14.3423
v -20.7713 -31.4331 -17.2920
v -22.7080 -32.1723 -14.5440
v -22.3278 -31.4331 -17.6756
v -23.5506 -32.1723 -14.5440
v -23.9309 -31.4331 -17.6756
v -24.3687 -32.1723 -14.3423
v -25.4874 -31.4331 -17.2920
v -25.1148 -32.1723 -13.9508
v -26.9069 -31.4331 -16.5470
v -25.7455 -32.1723 -13.3920
v -28.1068 -31.4331 -15.4839
v -26.2242 -32.1723 -12.6986
v -29.0174 -31.4331 -14.1646
v -26.5229 -32.1723 -11.9108
v -29.5859 -31.4331 -12.6657
v -26.6245 -32.1723 -11.0743
v -29.7791 -31.4331 -11.0743
v -31.5595 -30.5401 -8.9965
v -30.8173 -30.5401 -7.0394
v -29.6282 -30.5401 -5.3168
v -28.0615 -30.5401 -3.9288
v -26.2082 -30.5401 -2.9561
v -24.1759 -30.5401 -2.4552
v -22.0828 -30.5401 -2.4552
v -20.0505 -30.5401 -2.9561
v -18.1972 -30.5401 -3.9288
v -16.6304 -30.5401 -5.3168
v -15.4414 -30.5401 -7.0394
v -14.6992 -30.5401 -8.9965
v -14.4469 -30.5401 -11.0743
v -14.6992 -30.5401 -13.1522
v -15.4414 -30.5401 -15.1092
v -16.6305 -30.5401 -16.8318
v -18.1972 -30.5401 -18.2198
v -20.0505 -30.5401 -19.1925
v -22.0828 -30.5401 -19.6934
v -24.1759 -30.5401 -19.6934
v -26.2082 -30.5401 -19.1925
v -28.0615 -30.5401 -18.2198
v -29.6282 -30.5401 -16.8318
v -30.8173 -30.5401 -15.1092
v -31.5595 -30.5401 -13.1522
v -31.8118 -30.5401 -11.0743
v -32.2822 -29.7430 -8.8183
v -31.4763 -29.7430 -6.6935
v -30.1854 -29.7430 -4.8232
v -28.4844 -29.7430 -3.3162
v -26.4721 -29.7430 -2.2601
v -24.2656 -29.7430 -1.7163
v -21.9931 -29.7430 -1.7163
v -19.7866 -29.7430 -2.2601
v -17.7743 -29.7430 -3.3162
v -16.0733 -29.7430 -4.8232
v -14.7824 -29.7430 -6.6935
v -13.9765 -29.7430 -8.8183
v -13.7026 -29.7430 -11.0743
v -13.9765 -29.7430 -13.3303
v -14.7824 -29.7430 -15.4551
v -16.0733 -29.7430 -17.3254
v -17.7743 -29.7430 -18.8324
v -19.7866 -29.7430 -19.8885
v -21.9931 -29.7430 -20.4323
v -24.2656 -29.7430 -20.4323
v -26.4721 -29.7430 -19.8885
v -28.4844 -29.7430 -18.8324
v -30.1854 -29.7430 -17.3254
v -31.4763 -29.7430 -15.4551
v -32.2822 -29.7430 -13.3303
v -32.5561 -29.7430 -11.0743
v -23.1293 -32.4955 -11.0743
vt 0.834697 0.888780
vt 0.834717 0.888941
vt 0.825703 0.891162
vt 0.825645 0.891011
vt 0.844020 0.888780
vt 0.844000 0.888941
vt 0.853072 0.891011
vt 0.853015 0.891162
vt 0.861327 0.895344
vt 0.861235 0.895477
vt 0.868305 0.901526
vt 0.868184 0.901633
vt 0.873601 0.909199
vt 0.873458 0.909274
vt 0.876907 0.917915
vt 0.876750 0.917954
vt 0.878031 0.927170
vt 0.877869 0.927170
vt 0.876907 0.936425
vt 0.876750 0.936386
vt 0.873601 0.945142
vt 0.873458 0.945067
vt 0.868305 0.952814
vt 0.868184 0.952707
vt 0.861327 0.958997
vt 0.861235 0.958864
vt 0.853072 0.963329
vt 0.853015 0.963178
vt 0.844020 0.965560
vt 0.844000 0.965400
vt 0.834697 0.965560
vt 0.834717 0.965400
vt 0.825645 0.963329
vt 0.825703 0.963178
vt 0.817390 0.958997
vt 0.817482 0.958864
vt 0.810412 0.952814
vt 0.810533 0.952707
vt 0.805116 0.945142
vt 0.805259 0.945067
vt 0.801810 0.936425
vt 0.801967 0.936386
vt 0.800687 0.927170
vt 0.800848 0.927170
vt 0.801810 0.917915
vt 0.801967 0.917954
vt 0.805116 0.909199
vt 0.805259 0.909274
vt 0.810412 0.901526
vt 0.810533 0.901633
vt 0.817390 0.895344
vt 0.817482 0.895477
vt 0.813593 0.933521
vt 0.825816 0.930508
vt 0.827008 0.933652
vt 0.815862 0.939502
vt 0.828919 0.936419
vt 0.819496 0.944767
vt 0.831435 0.938649
vt 0.824284 0.949009
vt 0.834413 0.940212
vt 0.829949 0.951982
vt 0.837677 0.941016
vt 0.836160 0.953513
vt 0.841040 0.941016
vt 0.842557 0.953513
vt 0.844305 0.940212
vt 0.848769 0.951982
vt 0.847282 0.938649
vt 0.854433 0.949009
vt 0.849799 0.936419
vt 0.859221 0.944767
vt 0.851709 0.933652
vt 0.862855 0.939502
vt 0.852901 0.930508
vt 0.865124 0.933521
vt 0.853306 0.927170
vt 0.865895 0.927170
vt 0.852901 0.923832
vt 0.865124 0.920820
vt 0.851709 0.920688
vt 0.862855 0.914838
vt 0.849799 0.917921
vt 0.859221 0.909573
vt 0.847282 0.915691
vt 0.854433 0.905331
vt 0.844305 0.914129
vt 0.848769 0.902358
vt 0.841040 0.913324
vt 0.842557 0.900827
vt 0.837677 0.913324
vt 0.836160 0.900827
vt 0.834413 0.914129
vt 0.829949 0.902358
vt 0.831435 0.915691
vt 0.824284 0.905331
vt 0.828918 0.917921
vt 0.819496 0.909573
vt 0.827008 0.920688
vt 0.815862 0.914838
vt 0.825816 0.923832
vt 0.813593 0.920820
vt 0.825411 0.927170
vt 0.812822 0.927170
vt 0.805717 0.935462
vt 0.808679 0.943272
vt 0.813424 0.950146
vt 0.819676 0.955685
vt 0.827072 0.959567
vt 0.835182 0.961566
vt 0.843535 0.961566
vt 0.851645 0.959567
vt 0.859041 0.955685
vt 0.865293 0.950146
vt 0.870038 0.943272
vt 0.873000 0.935462
vt 0.874007 0.927170
vt 0.873000 0.918878
vt 0.870038 0.911068
vt 0.865293 0.904194
vt 0.859041 0.898655
vt 0.851645 0.894774
vt 0.843535 0.892775
vt 0.835182 0.892775
vt 0.827072 0.894774
vt 0.819676 0.898655
vt 0.813424 0.904194
vt 0.808679 0.911068
vt 0.805717 0.918878
vt 0.804710 0.927170
vt 0.802833 0.936173
vt 0.806049 0.944652
vt 0.811201 0.952116
vt 0.817989 0.958130
vt 0.826019 0.962344
vt 0.834824 0.964514
vt 0.843893 0.964514
vt 0.852698 0.962344
vt 0.860728 0.958130
vt 0.867516 0.952116
vt 0.872668 0.944652
vt 0.875884 0.936173
vt 0.876977 0.927170
vt 0.875884 0.918167
vt 0.872668 0.909688
vt 0.867516 0.902225
vt 0.860728 0.896211
vt 0.852698 0.891996
vt 0.843893 0.889826
vt 0.834824 0.889826
vt 0.826019 0.891996
vt 0.817989 0.896211
vt 0.811201 0.902225
vt 0.806049 0.909688
vt 0.802833 0.918167
vt 0.801740 0.927170
vt 0.839359 0.927170
vn -0.1198 0.1100 -0.9867
vn -0.1162 -0.2660 -0.9569
vn -0.3418 -0.2660 -0.9013
vn -0.3525 0.1100 -0.9293
vn 0.1198 0.1100 -0.9867
vn 0.1162 -0.2661 -0.9569
vn 0.3525 0.1100 -0.9293
vn 0.3418 -0.2661 -0.9013
vn 0.5646 0.1100 -0.8180
vn 0.5476 -0.2661 -0.7933
vn 0.7440 0.1100 -0.6591
vn 0.7215 -0.2660 -0.6392
vn 0.8801 0.1100 -0.4619
vn 0.8535 -0.2660 -0.4480
vn 0.9650 0.1100 -0.2379
vn 0.9360 -0.2660 -0.2307
vn 0.9939 0.1100 -0.0000
vn 0.9640 -0.2660 -0.0000
vn 0.9650 0.1100 0.2379
vn 0.9359 -0.2660 0.2307
vn 0.8801 0.1100 0.4619
vn 0.8535 -0.2660 0.4480
vn 0.7440 0.1100 0.6591
vn 0.7215 -0.2660 0.6392
vn 0.5646 0.1100 0.8180
vn 0.5476 -0.2660 0.7933
vn 0.3525 0.1100 0.9293
vn 0.3418 -0.2660 0.9013
vn 0.1198 0.1100 0.9867
vn 0.1162 -0.2660 0.9569
vn -0.1198 0.1100 0.9867
vn -0.1162 -0.2660 0.9569
vn -0.3524 0.1100 0.9293
vn -0.3418 -0.2660 0.9013
vn -0.5646 0.1100 0.8180
vn -0.5476 -0.2660 0.7933
vn -0.7440 0.1100 0.6591
vn -0.7215 -0.2661 0.6392
vn -0.8801 0.1100 0.4619
vn -0.8535 -0.2660 0.4480
vn -0.9650 0.1100 0.2379
vn -0.9360 -0.2660 0.2307
vn -0.9939 0.1100 0.0000
vn -0.9640 -0.2660 0.0000
vn -0.9650 0.1100 -0.2379
vn -0.9360 -0.2660 -0.2307
vn -0.8801 0.1100 -0.4619
vn -0.8536 -0.2660 -0.4480
vn -0.7440 0.1100 -0.6591
vn -0.7215 -0.2660 -0.6392
vn -0.5646 0.1100 -0.8180
vn -0.5476 -0.2660 -0.7933
vn -0.3073 -0.9486 0.0757
vn -0.1558 -0.9870 0.0384
vn -0.1421 -0.9870 0.0746
vn -0.2802 -0.9486 0.1471
vn -0.1201 -0.9870 0.1064
vn -0.2369 -0.9486 0.2099
vn -0.0912 -0.9870 0.1321
vn -0.1798 -0.9486 0.2605
vn -0.0569 -0.9870 0.1500
vn -0.1122 -0.9486 0.2959
vn -0.0193 -0.9870 0.1593
vn -0.0381 -0.9486 0.3142
vn 0.0193 -0.9870 0.1593
vn 0.0381 -0.9486 0.3142
vn 0.0569 -0.9870 0.1500
vn 0.1122 -0.9486 0.2959
vn 0.0912 -0.9870 0.1321
vn 0.1798 -0.9486 0.2605
vn 0.1201 -0.9870 0.1064
vn 0.2369 -0.9486 0.2099
vn 0.1421 -0.9870 0.0746
vn 0.2802 -0.9486 0.1471
vn 0.1558 -0.9870 0.0384
vn 0.3073 -0.9486 0.0757
vn 0.1605 -0.9870 -0.0000
vn 0.3165 -0.9486 -0.0000
vn 0.1558 -0.9870 -0.0384
vn 0.3073 -0.9486 -0.0757
vn 0.1421 -0.9870 -0.0746
vn 0.2802 -0.9486 -0.1471
vn 0.1201 -0.9870 -0.1064
vn 0.2369 -0.9486 -0.2099
vn 0.0912 -0.9870 -0.1321
vn 0.1798 -0.9486 -0.2605
vn 0.0569 -0.9870 -0.1500
vn 0.1122 -0.9486 -0.2959
vn 0.0193 -0.9870 -0.1593
vn 0.0381 -0.9486 -0.3142
vn -0.0193 -0.9870 -0.1593
vn -0.0381 -0.9486 -0.3142
vn -0.0569 -0.9870 -0.1500
vn -0.1122 -0.9486 -0.2959
vn -0.0912 -0.9870 -0.1321
vn -0.1798 -0.9486 -0.2605
vn -0.1201 -0.9870 -0.1064
vn -0.2369 -0.9486 -0.2099
vn -0.1421 -0.9870 -0.0746
vn -0.2802 -0.9486 -0.1471
vn -0.1558 -0.9870 -0.0384
vn -0.3073 -0.9486 -0.0757
vn -0.1605 -0.9870 0.0000
vn -0.3165 -0.9486 -0.0000
vn -0.5614 -0.8159 0.1384
vn -0.5120 -0.8159 0.2687
vn -0.4328 -0.8159 0.3834
vn -0.3284 -0.8159 0.4758
vn -0.2050 -0.8159 0.5406
vn -0.0697 -0.8159 0.5740
vn 0.0697 -0.8159 0.5740
vn 0.2050 -0.8159 0.5406
vn 0.3284 -0.8159 0.4758
vn 0.4328 -0.8159 0.3834
vn 0.5120 -0.8159 0.2687
vn 0.5614 -0.8159 0.1384
vn 0.5782 -0.8159 -0.0000
vn 0.5614 -0.8159 -0.1384
vn 0.5119 -0.8159 -0.2687
vn 0.4328 -0.8159 -0.3834
vn 0.3284 -0.8159 -0.4758
vn 0.2050 -0.8159 -0.5406
vn 0.0697 -0.8159 -0.5740
vn -0.0697 -0.8159 -0.5740
vn -0.2050 -0.8159 -0.5406
vn -0.3284 -0.8159 -0.4758
vn -0.4328 -0.8159 -0.3834
vn -0.5119 -0.8159 -0.2687
vn -0.5614 -0.8159 -0.1384
vn -0.5782 -0.8159 -0.0000
vn -0.8471 -0.4887 0.2088
vn -0.7725 -0.4887 0.4054
vn -0.6530 -0.4887 0.5785
vn -0.4956 -0.4887 0.7180
vn -0.3094 -0.4887 0.8158
vn -0.1052 -0.4887 0.8661
vn 0.1052 -0.4887 0.8661
vn 0.3094 -0.4887 0.8158
vn 0.4956 -0.4887 0.7180
vn 0.6530 -0.4887 0.5785
vn 0.7725 -0.4887 0.4054
vn 0.8471 -0.4887 0.2088
vn 0.8725 -0.4887 -0.0000
vn 0.8471 -0.4887 -0.2088
vn 0.7725 -0.4887 -0.4055
vn 0.6530 -0.4887 -0.5785
vn 0.4956 -0.4887 -0.7180
vn 0.3094 -0.4887 -0.8158
vn 0.1052 -0.4887 -0.8661
vn -0.1052 -0.4887 -0.8661
vn -0.3094 -0.4887 -0.8158
vn -0.4956 -0.4887 -0.7180
vn -0.6530 -0.4887 -0.5785
vn -0.7725 -0.4887 -0.4054
vn -0.8471 -0.4887 -0.2088
vn -0.8725 -0.4887 -0.0000
vn -0.0000 -1.0000 0.0000
f 1/1/1 2/2/2 3/3/3 4/4/4
f 5/5/5 6/6/6 2/2/2 1/1/1
f 7/7/7 8/8/8 6/6/6 5/5/5
f 9/9/9 10/10/10 8/8/8 7/7/7
f 11/11/11 12/12/12 10/10/10 9/9/9
f 13/13/13 14/14/14 12/12/12 11/11/11
f 15/15/15 16/16/16 14/14/14 13/13/13
f 16/16/16 15/15/15 17/17/17 18/18/18
f 19/19/19 20/20/20 18/18/18 17/17/17
f 21/21/21 22/22/22 20/20/20 19/19/19
f 23/23/23 24/24/24 22/22/22 21/21/21
f 25/25/25 26/26/26 24/24/24 23/23/23
f 27/27/27 28/28/28 26/26/26 25/25/25
f 29/29/29 30/30/30 28/28/28 27/27/27
f 31/31/31 32/32/32 30/30/30 29/29/29
f 33/33/33 34/34/34 32/32/32 31/31/31
f 35/35/35 36/36/36 34/34/34 33/33/33
f 37/37/37 38/38/38 36/36/36 35/35/35
f 39/39/39 40/40/40 38/38/38 37/37/37
f 41/41/41 42/42/42 40/40/40 39/39/39
f 43/43/43 44/44/44 42/42/42 41/41/41
f 45/45/45 46/46/46 44/44/44 43/43/43
f 47/47/47 48/48/48 46/46/46 45/45/45
f 49/49/49 50/50/50 48/48/48 47/47/47
f 51/51/51 52/52/52 50/50/50 49/49/49
f 4/4/4 3/3/3 52/52/52 51/51/51
f 53/53/53 54/54/54 55/55/55 56/56/56
f 56/56/56 55/55/55 57/57/57 58/58/58
f 58/58/58 57/57/57 59/59/59 60/60/60
f 60/60/60 59/59/59 61/61/61 62/62/62
f 62/62/62 61/61/61 63/63/63 64/64/64
f 64/64/64 63/63/63 65/65/65 66/66/66
f 66/66/66 65/65/65 67/67/67 68/68/68
f 68/68/68 67/67/67 69/69/69 70/70/70
f 70/70/70 69/69/69 71/71/71 72/72/72
f 72/72/72 71/71/71 73/73/73 74/74/74
f 74/74/74 73/73/73 75/75/75 76/76/76
f 76/76/76 75/75/75 77/77/77 78/78/78
f 77/77/77 79/79/79 80/80/80 78/78/78
f 80/80/80 79/79/79 81/81/81 82/82/82
f 82/82/82 81/81/81 83/83/83 84/84/84
f 84/84/84 83/83/83 85/85/85 86/86/86
f 86/86/86 85/85/85 87/87/87 88/88/88
f 88/88/88 87/87/87 89/89/89 90/90/90
f 90/90/90 89/89/89 91/91/91 92/92/92
f 92/92/92 91/91/91 93/93/93 94/94/94
f 94/94/94 93/93/93 95/95/95 96/96/96
f 96/96/96 95/95/95 97/97/97 98/98/98
f 98/98/98 97/97/97 99/99/99 100/100/100
f 100/100/100 99/99/99 101/101/101 102/102/102
f 102/102/102 101/101/101 103/103/103 104/104/104
f 104/104/104 103/103/103 54/54/54 53/53/53
f 105/105/105 53/53/53 56/56/56 106/106/106
f 106/106/106 56/56/56 58/58/58 107/107/107
f 107/107/107 58/58/58 60/60/60 108/108/108
f 108/108/108 60/60/60 62/62/62 109/109/109
f 109/109/109 62/62/62 64/64/64 110/110/110
f 110/110/110 64/64/64 66/66/66 111/111/111
f 111/111/111 66/66/66 68/68/68 112/112/112
f 112/112/112 68/68/68 70/70/70 113/113/113
f 113/113/113 70/70/70 72/72/72 114/114/114
f 114/114/114 72/72/72 74/74/74 115/115/115
f 115/115/115 74/74/74 76/76/76 116/116/116
f 116/116/116 76/76/76 78/78/78 117/117/117
f 80/80/80 118/118/118 117/117/117 78/78/78
f 118/118/118 80/80/80 82/82/82 119/119/119
f 119/119/119 82/82/82 84/84/84 120/120/120
f 120/120/120 84/84/84 86/86/86 121/121/121
f 121/121/121 86/86/86 88/88/88 122/122/122
f 122/122/122 88/88/88 90/90/90 123/123/123
f 123/123/123 90/90/90 92/92/92 124/124/124
f 124/124/124 92/92/92 94/94/94 125/125/125
f 125/125/125 94/94/94 96/96/96 126/126/126
f 126/126/126 96/96/96 98/98/98 127/127/127
f 127/127/127 98/98/98 100/100/100 128/128/128
f 128/128/128 100/100/100 102/102/102 129/129/129
f 129/129/129 102/102/102 104/104/104 130/130/130
f 130/130/130 104/104/104 53/53/53 105/105/105
f 131/131/131 105/105/105 106/106/106 132/132/132
f 132/132/132 106/106/106 107/107/107 133/133/133
f 133/133/133 107/107/107 108/108/108 134/134/134
f 134/134/134 108/108/108 109/109/109 135/135/135
f 135/135/135 109/109/109 110/110/110 136/136/136
f 136/136/136 110/110/110 111/111/111 137/137/137
f 137/137/137 111/111/111 112/112/112 138/138/138
f 138/138/138 112/112/112 113/113/113 139/139/139
f 139/139/139 113/113/113 114/114/114 140/140/140
f 140/140/140 114/114/114 115/115/115 141/141/141
f 141/141/141 115/115/115 116/116/116 142/142/142
f 142/142/142 116/116/116 117/117/117 143/143/143
f 118/118/118 144/144/144 143/143/143 117/117/117
f 144/144/144 118/118/118 119/119/119 145/145/145
f 145/145/145 119/119/119 120/120/120 146/146/146
f 146/146/146 120/120/120 121/121/121 147/147/147
f 147/147/147 121/121/121 122/122/122 148/148/148
f 148/148/148 122/122/122 123/123/123 149/149/149
f 149/149/149 123/123/123 124/124/124 150/150/150
f 150/150/150 124/124/124 125/125/125 151/151/151
f 151/151/151 125/125/125 126/126/126 152/152/152
f 152/152/152 126/126/126 127/127/127 153/153/153
f 153/153/153 127/127/127 128/128/128 154/154/154
f 154/154/154 128/128/128 129/129/129 155/155/155
f 155/155/155 129/129/129 130/130/130 156/156/156
f 156/156/156 130/130/130 105/105/105 131/131/131
f 42/42/42 131/131/131 132/132/132 40/40/40
f 40/40/40 132/132/132 133/133/133 38/38/38
f 38/38/38 133/133/133 134/134/134 36/36/36
f 36/36/36 134/134/134 135/135/135 34/34/34
f 34/34/34 135/135/135 136/136/136 32/32/32
f 32/32/32 136/136/136 137/137/137 30/30/30
f 30/30/30 137/137/137 138/138/138 28/28/28
f 28/28/28 138/138/138 139/139/139 26/26/26
f 26/26/26 139/139/139 140/140/140 24/24/24
f 24/24/24 140/140/140 141/141/141 22/22/22
f 22/22/22 141/141/141 142/142/142 20/20/20
f 20/20/20 142/142/142 143/143/143 18/18/18
f 144/144/144 16/16/16 18/18/18 143/143/143
f 16/16/16 144/144/144 145/145/145 14/14/14
f 14/14/14 145/145/145 146/146/146 12/12/12
f 12/12/12 146/146/146 147/147/147 10/10/10
f 10/10/10 147/147/147 148/148/148 8/8/8
f 8/8/8 148/148/148 149/149/149 6/6/6
f 6/6/6 149/149/149 150/150/150 2/2/2
f 2/2/2 150/150/150 151/151/151 3/3/3
f 3/3/3 151/151/151 152/152/152 52/52/52
f 52/52/52 152/152/152 153/153/153 50/50/50
f 50/50/50 153/153/153 154/154/154 48/48/48
f 48/48/48 154/154/154 155/155/155 46/46/46
f 46/46/46 155/155/155 156/156/156 44/44/44
f 44/44/44 156/156/156 131/131/131 42/42/42
f 54/54/54 157/157/157 55/55/55
f 55/55/55 157/157/157 57/57/57
f 57/57/57 157/157/157 59/59/59
f 59/59/59 157/157/157 61/61/61
f 61/61/61 157/157/157 63/63/63
f 63/63/63 157/157/157 65/65/65
f 65/65/65 157/157/157 67/67/67
f 67/67/67 157/157/157 69/69/69
f 69/69/69 157/157/157 71/71/71
f 71/71/71 157/157/157 73/73/73
f 73/73/73 157/157/157 75/75/75
f 75/75/75 157/157/157 77/77/77
f 77/77/77 157/157/157 79/79/79
f 79/79/79 157/157/157 81/81/81
f 81/81/81 157/157/157 83/83/83
f 83/83/83 157/157/157 85/85/85
f 85/85/85 157/157/157 87/87/87
f 87/87/87 157/157/157 89/89/89
f 89/89/89 157/157/157 91/91/91
f 91/91/91 157/157/157 93/93/93
f 93/93/93 157/157/157 95/95/95
f 95/95/95 157/157/157 97/97/97
f 97/97/97 157/157/157 99/99/99
f 99/99/99 157/157/157 101/101/101
f 101/101/101 157/157/157 103/103/103
f 103/103/103 157/157/157 54/54/54
