# L1
# Sony PlayStation DualShock 3 by 3doverstock, CGTrader Royalty Free License
o L1
v -54.5852 -4.4973 46.4211
v -55.1332 -5.0410 45.6631
v -54.5747 -4.8267 46.8296
v -54.9945 -5.2577 46.2363
v -37.3966 -4.4973 46.4211
v -37.4100 -4.8255 46.8308
v -36.8646 -5.0476 45.6641
v -36.9873 -5.2577 46.2362
v -54.5862 -12.9837 46.0558
v -54.5751 -12.6651 46.4888
v -55.1344 -12.4460 45.3614
v -54.9973 -12.2409 45.9377
v -37.3955 -12.9837 46.0558
v -36.8474 -12.4460 45.3614
v -37.4101 -12.6664 46.4901
v -36.9844 -12.2409 45.9377
v -38.1529 -4.6060 47.2136
v -38.1448 -4.2997 46.8769
v -55.3325 -11.7098 45.2801
v -55.1477 -11.7073 45.8330
v -38.1528 -12.8762 46.8502
v -38.1439 -13.1791 46.4810
v -36.6493 -11.7098 45.2801
v -36.8356 -11.7073 45.8320
v -53.8228 -4.6058 47.2159
v -53.8370 -4.2997 46.8758
v -53.8217 -12.8766 46.8528
v -53.8379 -13.1791 46.4800
v -42.0293 -4.3008 47.9117
v -42.0326 -4.6060 48.2371
v -42.0326 -12.8761 47.8737
v -42.0290 -13.1778 47.5155
v -50.3100 -4.3008 47.8500
v -50.3062 -4.6060 48.1758
v -46.1184 -4.6059 48.5513
v -46.1185 -4.3011 48.2306
v -50.3103 -13.1779 47.4538
v -50.3062 -12.8761 47.8124
v -46.1184 -12.8762 48.1879
v -46.1185 -13.1775 47.8345
v -36.6506 -5.7856 45.5149
v -36.8373 -5.7899 46.0694
v -55.3312 -5.7856 45.5133
v -55.1458 -5.7899 46.0703
v -55.1483 -10.8839 45.9539
v -55.3318 -10.8874 45.3979
v -36.8353 -6.6514 46.0972
v -36.6509 -6.6482 45.5458
v -55.1486 -6.6514 46.0987
v -55.3309 -6.6482 45.5458
v -55.1496 -8.7364 46.0992
v -55.3307 -8.7364 45.5457
v -38.1510 -5.7899 47.3089
v -37.4120 -5.7899 46.9140
v -38.1506 -11.7073 47.0739
v -37.4126 -11.7073 46.6795
v -54.5814 -5.7899 46.9091
v -54.5874 -6.6514 46.9376
v -54.5961 -8.7364 46.9337
v -54.5900 -10.8839 46.7905
v -54.5831 -11.7073 46.6735
v -53.7849 -6.6514 47.3573
v -53.8009 -5.7899 47.3201
v -53.7958 -11.7073 47.0873
v -50.3062 -11.7073 48.0370
v -53.7616 -8.7364 47.3659
v -53.7775 -10.8839 47.2142
v -53.9429 -4.2398 42.9746
v -54.6979 -4.4420 42.9746
v -55.2506 -4.9947 42.9746
v -55.4529 -5.7497 42.9746
v -36.7311 -4.9947 42.9746
v -36.5288 -5.7497 42.9746
v -37.2838 -4.4421 42.9746
v -38.0388 -4.2398 42.9746
v -55.2506 -12.4836 42.9746
v -55.4529 -11.7286 42.9746
v -54.6979 -13.0363 42.9746
v -53.9430 -13.2386 42.9746
v -38.0388 -13.2386 42.9746
v -37.2838 -13.0363 42.9746
v -36.7311 -12.4836 42.9746
v -36.5288 -11.7286 42.9746
v -50.3693 -4.2398 42.9746
v -50.3062 -10.8839 48.1570
v -50.3693 -13.2386 42.9746
v -55.4529 -8.7363 42.9746
v -55.4529 -10.9153 42.9746
v -36.6511 -8.7364 45.5457
v -36.6500 -10.8874 45.3979
v -36.5288 -8.7363 42.9746
v -36.5288 -10.9153 42.9746
v -41.9748 -4.2398 42.9746
v -41.9748 -13.2386 42.9746
v -36.8360 -10.8839 45.9521
v -36.8356 -8.7364 46.0968
v -38.1496 -6.6514 47.3396
v -37.4139 -6.6514 46.9460
v -38.1476 -8.7364 47.3387
v -37.4165 -8.7364 46.9470
v -38.1490 -10.8839 47.1934
v -37.4147 -10.8839 46.8004
v -50.3062 -6.6514 48.3030
v -50.3062 -5.7899 48.2718
v -46.1184 -6.6514 48.6785
v -46.1184 -5.7899 48.6473
v -42.0326 -6.6514 48.3643
v -42.0326 -5.7899 48.3332
v -46.1184 -11.7073 48.4125
v -42.0326 -11.7073 48.0983
v -42.0326 -8.7364 48.3642
v -42.0326 -10.8839 48.2184
v -50.3062 -8.7364 48.3028
v -46.1202 -4.2398 42.9746
v -46.1184 -8.7364 48.6783
v -46.1184 -10.8839 48.5325
v -46.1202 -13.2386 42.9746
v -55.4529 -6.6209 42.9746
v -36.5288 -6.6209 42.9746
vt 0.207160 0.959577
vt 0.209247 0.961746
vt 0.208718 0.962611
vt 0.207120 0.960891
vt 0.141714 0.959577
vt 0.141765 0.960887
vt 0.140155 0.962611
vt 0.139688 0.961773
vt 0.207164 0.993443
vt 0.207121 0.992171
vt 0.208729 0.990478
vt 0.209251 0.991297
vt 0.141710 0.993443
vt 0.139623 0.991297
vt 0.140145 0.990478
vt 0.141765 0.992176
vt 0.144563 0.958788
vt 0.144594 0.960011
vt 0.209302 0.988349
vt 0.210005 0.988359
vt 0.144593 0.993014
vt 0.144559 0.994222
vt 0.138869 0.988359
vt 0.139578 0.988349
vt 0.204257 0.960010
vt 0.204311 0.958788
vt 0.204315 0.994222
vt 0.204253 0.993015
vt 0.159353 0.958793
vt 0.159366 0.960010
vt 0.159366 0.993013
vt 0.159352 0.994217
vt 0.190868 0.960010
vt 0.190882 0.958793
vt 0.174922 0.960010
vt 0.174923 0.958794
vt 0.190883 0.994218
vt 0.190868 0.993013
vt 0.174922 0.993014
vt 0.174923 0.994216
vt 0.139584 0.964735
vt 0.138874 0.964718
vt 0.210001 0.964718
vt 0.209295 0.964735
vt 0.209304 0.985063
vt 0.210003 0.985077
vt 0.139577 0.968173
vt 0.138875 0.968160
vt 0.209305 0.968173
vt 0.209999 0.968160
vt 0.209309 0.976493
vt 0.209999 0.976493
vt 0.144587 0.964735
vt 0.141773 0.964735
vt 0.141775 0.988349
vt 0.144585 0.988349
vt 0.207145 0.964735
vt 0.207168 0.968173
vt 0.207201 0.976493
vt 0.207178 0.985063
vt 0.207152 0.988349
vt 0.204113 0.968173
vt 0.204174 0.964735
vt 0.204154 0.988349
vt 0.190868 0.988349
vt 0.204024 0.976493
vt 0.204085 0.985063
vt 0.204715 0.958549
vt 0.207589 0.959356
vt 0.209694 0.961562
vt 0.210464 0.964575
vt 0.139180 0.961562
vt 0.138410 0.964575
vt 0.141285 0.959356
vt 0.144159 0.958549
vt 0.209694 0.991447
vt 0.210464 0.988434
vt 0.207589 0.993652
vt 0.204715 0.994460
vt 0.144159 0.994460
vt 0.141285 0.993652
vt 0.139180 0.991447
vt 0.138410 0.988434
vt 0.191108 0.958549
vt 0.190868 0.985063
vt 0.191108 0.994460
vt 0.210464 0.976493
vt 0.210464 0.985188
vt 0.138875 0.976493
vt 0.138871 0.985077
vt 0.138410 0.985188
vt 0.138410 0.976493
vt 0.159145 0.958549
vt 0.159145 0.994460
vt 0.139580 0.985063
vt 0.139578 0.976493
vt 0.144581 0.968173
vt 0.141780 0.968173
vt 0.144574 0.976493
vt 0.141790 0.976493
vt 0.144579 0.985063
vt 0.141783 0.985063
vt 0.190868 0.968173
vt 0.190868 0.964735
vt 0.174922 0.968173
vt 0.174922 0.964735
vt 0.159366 0.968173
vt 0.159366 0.964735
vt 0.174922 0.988349
vt 0.159366 0.988349
vt 0.159366 0.976493
vt 0.159366 0.985063
vt 0.190868 0.976493
vt 0.174930 0.958549
vt 0.174922 0.976493
vt 0.174922 0.985063
vt 0.174930 0.994460
vt 0.210464 0.968051
vt 0.138410 0.968051
vn -0.6336 0.7276 0.2631
vn -0.9009 0.3905 0.1896
vn -0.8895 0.2087 0.4064
vn -0.7129 0.3106 0.6288
vn 0.6364 0.7261 0.2603
vn 0.7146 0.3110 0.6266
vn 0.8908 0.2135 0.4012
vn 0.9001 0.3944 0.1850
vn -0.6178 -0.7434 0.2562
vn -0.6957 -0.3703 0.6155
vn -0.8799 -0.2509 0.4035
vn -0.8931 -0.4077 0.1901
vn 0.6179 -0.7433 0.2563
vn 0.8932 -0.4072 0.1909
vn 0.8792 -0.2485 0.4066
vn 0.6959 -0.3689 0.6162
vn 0.2556 0.9032 0.3449
vn 0.3785 0.4105 0.8296
vn -0.8927 -0.1156 0.4356
vn -0.9744 -0.1308 0.1830
vn 0.3626 -0.4793 0.7992
vn 0.2428 -0.9136 0.3263
vn 0.9742 -0.1304 0.1844
vn 0.8908 -0.1131 0.4402
vn -0.3808 0.4102 0.8287
vn -0.2569 0.9029 0.3446
vn -0.2440 -0.9133 0.3261
vn -0.3645 -0.4790 0.7986
vn 0.0625 0.9265 0.3711
vn 0.1507 0.4313 0.8896
vn 0.1445 -0.5022 0.8526
vn 0.0584 -0.9359 0.3473
vn -0.1601 0.4314 0.8879
vn -0.0664 0.9264 0.3705
vn -0.0057 0.4330 0.9014
vn -0.0024 0.9271 0.3747
vn -0.0621 -0.9359 0.3468
vn -0.1534 -0.5022 0.8510
vn -0.0055 -0.5048 0.8632
vn -0.0022 -0.9367 0.3502
vn 0.8958 0.0701 0.4389
vn 0.9763 0.1195 0.1806
vn -0.9769 0.1135 0.1812
vn -0.8967 0.0687 0.4373
vn -0.8978 -0.0478 0.4378
vn -0.9829 -0.0181 0.1834
vn 0.8956 0.0078 0.4447
vn 0.9828 0.0031 0.1844
vn -0.8987 0.0093 0.4385
vn -0.9833 0.0034 0.1821
vn -0.8993 -0.0147 0.4370
vn -0.9833 -0.0057 0.1817
vn 0.3657 0.0549 0.9291
vn 0.6689 0.0451 0.7420
vn 0.6647 -0.1259 0.7364
vn 0.3619 -0.1556 0.9191
vn -0.6689 0.0468 0.7419
vn -0.6680 0.0141 0.7441
vn -0.6678 -0.0252 0.7439
vn -0.6661 -0.0798 0.7416
vn -0.6647 -0.1279 0.7361
vn -0.3648 0.0168 0.9309
vn -0.3667 0.0548 0.9287
vn -0.3624 -0.1556 0.9190
vn -0.1743 -0.1645 0.9709
vn -0.3636 -0.0316 0.9310
vn -0.3626 -0.0989 0.9267
vn -0.1338 0.9908 0.0186
vn -0.5091 0.8601 0.0318
vn -0.8707 0.4898 0.0448
vn -0.9906 0.1280 0.0483
vn 0.8708 0.4893 0.0478
vn 0.9898 0.1332 0.0500
vn 0.5141 0.8571 0.0333
vn 0.1338 0.9908 0.0185
vn -0.8690 -0.4925 0.0481
vn -0.9900 -0.1308 0.0518
vn -0.5071 -0.8612 0.0344
vn -0.1332 -0.9909 0.0202
vn 0.1332 -0.9909 0.0202
vn 0.5072 -0.8612 0.0344
vn 0.8690 -0.4925 0.0481
vn 0.9900 -0.1309 0.0518
vn -0.0011 0.9999 0.0129
vn -0.1754 -0.1048 0.9789
vn -0.0012 -0.9999 0.0141
vn -0.9988 -0.0007 0.0481
vn -0.9988 -0.0023 0.0499
vn 0.9828 -0.0058 0.1846
vn 0.9824 -0.0181 0.1859
vn 0.9988 -0.0023 0.0499
vn 0.9988 -0.0007 0.0481
vn 0.0011 0.9999 0.0129
vn 0.0011 -0.9999 0.0140
vn 0.8945 -0.0469 0.4447
vn 0.8955 -0.0152 0.4449
vn 0.3659 0.0168 0.9305
vn 0.6682 0.0131 0.7439
vn 0.3659 -0.0316 0.9301
vn 0.6680 -0.0253 0.7438
vn 0.3643 -0.0988 0.9260
vn 0.6664 -0.0788 0.7414
vn -0.1764 0.0181 0.9841
vn -0.1764 0.0581 0.9826
vn -0.0063 0.0181 0.9998
vn -0.0063 0.0585 0.9983
vn 0.1666 0.0178 0.9859
vn 0.1663 0.0577 0.9844
vn -0.0063 -0.1665 0.9860
vn 0.1644 -0.1642 0.9726
vn 0.1665 -0.0335 0.9855
vn 0.1657 -0.1046 0.9806
vn -0.1762 -0.0333 0.9838
vn -0.0000 0.9999 0.0120
vn -0.0063 -0.0339 0.9994
vn -0.0063 -0.1061 0.9943
vn -0.0000 -0.9999 0.0130
vn -0.9989 0.0003 0.0476
vn 0.9989 0.0003 0.0476
f 1/1/1 2/2/2 4/3/3 3/4/4
f 5/5/5 6/6/6 8/7/7 7/8/8
f 9/9/9 10/10/10 12/11/11 11/12/12
f 13/13/13 14/14/14 16/15/15 15/16/16
f 6/6/6 5/5/5 18/17/17 17/18/18
f 11/12/12 12/11/11 20/19/19 19/20/20
f 15/16/16 21/21/21 22/22/22 13/13/13
f 14/14/14 23/23/23 24/24/24 16/15/15
f 3/4/4 25/25/25 26/26/26 1/1/1
f 10/10/10 9/9/9 28/27/27 27/28/28
f 18/17/17 29/29/29 30/30/30 17/18/18
f 31/31/31 32/32/32 22/22/22 21/21/21
f 26/26/26 25/25/25 34/33/33 33/34/34
f 35/35/35 30/30/30 29/29/29 36/36/36
f 35/35/35 36/36/36 33/34/34 34/33/33
f 28/27/27 37/37/37 38/38/38 27/28/28
f 39/39/39 38/38/38 37/37/37 40/40/40
f 32/32/32 31/31/31 39/39/39 40/40/40
f 7/8/8 8/7/7 42/41/41 41/42/42
f 2/2/2 43/43/43 44/44/44 4/3/3
f 45/45/45 46/46/46 19/20/20 20/19/19
f 47/47/47 48/48/48 41/42/42 42/41/41
f 49/49/49 44/44/44 43/43/43 50/50/50
f 51/51/51 49/49/49 50/50/50 52/52/52
f 46/46/46 45/45/45 51/51/51 52/52/52
f 17/18/18 53/53/53 54/54/54 6/6/6
f 21/21/21 15/16/16 56/55/55 55/56/56
f 3/4/4 4/3/3 44/44/44 57/57/57
f 44/44/44 49/49/49 58/58/58 57/57/57
f 58/58/58 49/49/49 51/51/51 59/59/59
f 59/59/59 51/51/51 45/45/45 60/60/60
f 60/60/60 45/45/45 20/19/19 61/61/61
f 10/10/10 61/61/61 20/19/19 12/11/11
f 62/62/62 63/63/63 57/57/57 58/58/58
f 27/28/28 64/64/64 61/61/61 10/10/10
f 27/28/28 38/38/38 65/65/65 64/64/64
f 25/25/25 3/4/4 57/57/57 63/63/63
f 66/66/66 62/62/62 58/58/58 59/59/59
f 66/66/66 59/59/59 60/60/60 67/67/67
f 67/67/67 60/60/60 61/61/61 64/64/64
f 15/16/16 16/15/15 24/24/24 56/55/55
f 68/68/68 69/69/69 1/1/1 26/26/26
f 69/69/69 70/70/70 2/2/2 1/1/1
f 70/70/70 71/71/71 43/43/43 2/2/2
f 72/72/72 7/8/8 41/42/42 73/73/73
f 74/74/74 5/5/5 7/8/8 72/72/72
f 75/75/75 18/17/17 5/5/5 74/74/74
f 76/76/76 11/12/12 19/20/20 77/77/77
f 78/78/78 9/9/9 11/12/12 76/76/76
f 79/79/79 28/27/27 9/9/9 78/78/78
f 80/80/80 81/81/81 13/13/13 22/22/22
f 81/81/81 82/82/82 14/14/14 13/13/13
f 14/14/14 82/82/82 83/83/83 23/23/23
f 84/84/84 68/68/68 26/26/26 33/34/34
f 85/85/85 67/67/67 64/64/64 65/65/65
f 86/86/86 37/37/37 28/27/27 79/79/79
f 6/6/6 54/54/54 42/41/41 8/7/7
f 52/52/52 87/87/87 88/88/88 46/46/46
f 89/89/89 90/90/90 92/91/91 91/92/92
f 90/90/90 23/23/23 83/83/83 92/91/91
f 46/46/46 88/88/88 77/77/77 19/20/20
f 93/93/93 29/29/29 18/17/17 75/75/75
f 94/94/94 80/80/80 22/22/22 32/32/32
f 95/95/95 24/24/24 23/23/23 90/90/90
f 96/96/96 95/95/95 90/90/90 89/89/89
f 89/89/89 48/48/48 47/47/47 96/96/96
f 54/54/54 53/53/53 97/97/97 98/98/98
f 98/98/98 97/97/97 99/99/99 100/100/100
f 100/100/100 99/99/99 101/101/101 102/102/102
f 102/102/102 101/101/101 55/56/56 56/55/55
f 63/63/63 62/62/62 103/103/103 104/104/104
f 104/104/104 103/103/103 105/105/105 106/106/106
f 106/106/106 105/105/105 107/107/107 108/108/108
f 108/108/108 107/107/107 97/97/97 53/53/53
f 42/41/41 54/54/54 98/98/98 47/47/47
f 65/65/65 38/38/38 39/39/39 109/109/109
f 109/109/109 39/39/39 31/31/31 110/110/110
f 110/110/110 31/31/31 21/21/21 55/56/56
f 30/30/30 108/108/108 53/53/53 17/18/18
f 97/97/97 107/107/107 111/111/111 99/99/99
f 99/99/99 111/111/111 112/112/112 101/101/101
f 101/101/101 112/112/112 110/110/110 55/56/56
f 95/95/95 102/102/102 56/55/55 24/24/24
f 25/25/25 63/63/63 104/104/104 34/33/33
f 103/103/103 62/62/62 66/66/66 113/113/113
f 113/113/113 66/66/66 67/67/67 85/85/85
f 93/93/93 114/114/114 36/36/36 29/29/29
f 35/35/35 106/106/106 108/108/108 30/30/30
f 107/107/107 105/105/105 115/115/115 111/111/111
f 111/111/111 115/115/115 116/116/116 112/112/112
f 112/112/112 116/116/116 109/109/109 110/110/110
f 94/94/94 32/32/32 40/40/40 117/117/117
f 114/114/114 84/84/84 33/34/34 36/36/36
f 34/33/33 104/104/104 106/106/106 35/35/35
f 105/105/105 103/103/103 113/113/113 115/115/115
f 115/115/115 113/113/113 85/85/85 116/116/116
f 116/116/116 85/85/85 65/65/65 109/109/109
f 117/117/117 40/40/40 37/37/37 86/86/86
f 71/71/71 118/118/118 50/50/50 43/43/43
f 48/48/48 119/119/119 73/73/73 41/42/42
f 96/96/96 100/100/100 102/102/102 95/95/95
f 118/118/118 87/87/87 52/52/52 50/50/50
f 89/89/89 91/92/92 119/119/119 48/48/48
f 47/47/47 98/98/98 100/100/100 96/96/96
