# LeftStickClick
# Sony PlayStation DualShock 3 by 3doverstock, CGTrader Royalty Free License
o LeftStickClick
v -24.2974 -28.7864 -20.6944
v -26.5657 -28.7864 -20.1354
v -21.9612 -28.7864 -20.6944
v -19.6929 -28.7864 -20.1354
v -17.6243 -28.7864 -19.0497
v -15.8757 -28.7864 -17.5005
v -14.5486 -28.7864 -15.5778
v -13.7202 -28.7864 -13.3935
v -13.4386 -28.7864 -11.0743
v -13.7202 -28.7864 -8.7552
v -14.5486 -28.7864 -6.5708
v -15.8757 -28.7864 -4.6481
v -17.6243 -28.7864 -3.0989
v -19.6929 -28.7864 -2.0133
v -21.9612 -28.7864 -1.4542
v -24.2974 -28.7864 -1.4542
v -26.5657 -28.7864 -2.0133
v -28.6343 -28.7864 -3.0989
v -30.3830 -28.7864 -4.6481
v -31.7101 -28.7864 -6.5708
v -32.5385 -28.7864 -8.7552
v -32.8201 -28.7864 -11.0743
v -32.5385 -28.7864 -13.3935
v -31.7101 -28.7864 -15.5778
v -30.3830 -28.7864 -17.5005
v -28.6343 -28.7864 -19.0497
v -23.7039 -26.3881 -15.8063
v -24.2375 -28.2486 -20.2011
v -26.3895 -28.2486 -19.6707
v -24.8197 -26.3881 -15.5313
v -22.5548 -26.3881 -15.8063
v -22.0212 -28.2486 -20.2011
v -21.4390 -26.3881 -15.5313
v -19.8692 -28.2486 -19.6707
v -20.4215 -26.3881 -14.9973
v -17.9067 -28.2486 -18.6407
v -19.5614 -26.3881 -14.2352
v -16.2477 -28.2486 -17.1710
v -18.9086 -26.3881 -13.2895
v -14.9886 -28.2486 -15.3469
v -18.5011 -26.3881 -12.2151
v -14.2027 -28.2486 -13.2745
v -18.3626 -26.3881 -11.0743
v -13.9355 -28.2486 -11.0743
v -18.5011 -26.3881 -9.9336
v -14.2027 -28.2486 -8.8741
v -18.9086 -26.3881 -8.8591
v -14.9886 -28.2486 -6.8017
v -19.5614 -26.3881 -7.9134
v -16.2477 -28.2486 -4.9777
v -20.4215 -26.3881 -7.1514
v -17.9066 -28.2486 -3.5079
v -21.4390 -26.3881 -6.6173
v -19.8692 -28.2486 -2.4779
v -22.5548 -26.3881 -6.3423
v -22.0211 -28.2486 -1.9475
v -23.7039 -26.3881 -6.3423
v -24.2375 -28.2486 -1.9475
v -24.8196 -26.3881 -6.6173
v -26.3895 -28.2486 -2.4779
v -25.8372 -26.3881 -7.1514
v -28.3520 -28.2486 -3.5079
v -26.6973 -26.3881 -7.9134
v -30.0110 -28.2486 -4.9777
v -27.3501 -26.3881 -8.8591
v -31.2701 -28.2486 -6.8017
v -27.7576 -26.3881 -9.9336
v -32.0560 -28.2486 -8.8741
v -27.8961 -26.3881 -11.0743
v -32.3232 -28.2486 -11.0743
v -27.7575 -26.3881 -12.2151
v -32.0560 -28.2486 -13.2745
v -27.3501 -26.3881 -13.2895
v -31.2701 -28.2486 -15.3469
v -26.6973 -26.3881 -14.2352
v -30.0110 -28.2486 -17.1710
v -25.8372 -26.3881 -14.9973
v -28.3520 -28.2486 -18.6407
v -33.0656 -18.7508 -13.5234
v -33.3629 -18.7508 -11.0743
v -32.1907 -18.7508 -15.8301
v -30.7893 -18.7508 -17.8605
v -28.9427 -18.7508 -19.4964
v -26.7582 -18.7508 -20.6429
v -24.3629 -18.7508 -21.2333
v -21.8958 -18.7508 -21.2333
v -19.5005 -18.7508 -20.6429
v -17.3160 -18.7508 -19.4964
v -15.4694 -18.7508 -17.8605
v -14.0679 -18.7508 -15.8301
v -13.1931 -18.7508 -13.5234
v -12.8957 -18.7508 -11.0743
v -13.1931 -18.7508 -8.6252
v -14.0679 -18.7508 -6.3185
v -15.4694 -18.7508 -4.2882
v -17.3160 -18.7508 -2.6522
v -19.5004 -18.7508 -1.5057
v -21.8958 -18.7508 -0.9153
v -24.3629 -18.7508 -0.9153
v -26.7582 -18.7508 -1.5057
v -28.9427 -18.7508 -2.6522
v -30.7893 -18.7508 -4.2882
v -32.1907 -18.7508 -6.3185
v -33.0656 -18.7508 -8.6252
v -30.1070 -20.5384 -11.0743
v -27.8961 -21.1138 -11.0743
v -27.7576 -21.1138 -9.9336
v -29.9042 -20.5384 -9.4045
v -27.3501 -21.1138 -8.8591
v -29.3077 -20.5384 -7.8316
v -26.6973 -21.1138 -7.9134
v -28.3522 -20.5384 -6.4473
v -25.8372 -21.1138 -7.1514
v -27.0931 -20.5384 -5.3318
v -24.8196 -21.1138 -6.6173
v -25.6036 -20.5384 -4.5501
v -23.7039 -21.1138 -6.3423
v -23.9704 -20.5384 -4.1476
v -22.5548 -21.1138 -6.3423
v -22.2883 -20.5384 -4.1476
v -21.4390 -21.1138 -6.6173
v -20.6550 -20.5384 -4.5501
v -20.4215 -21.1138 -7.1514
v -19.1656 -20.5384 -5.3318
v -19.5614 -21.1138 -7.9134
v -17.9065 -20.5384 -6.4473
v -18.9086 -21.1138 -8.8591
v -16.9510 -20.5384 -7.8316
v -18.5011 -21.1138 -9.9336
v -16.3545 -20.5384 -9.4045
v -18.3626 -21.1138 -11.0743
v -16.1517 -20.5384 -11.0743
v -18.5011 -21.1138 -12.2151
v -16.3545 -20.5384 -12.7442
v -18.9086 -21.1138 -13.2895
v -16.9510 -20.5384 -14.3170
v -19.5614 -21.1138 -14.2352
v -17.9065 -20.5384 -15.7013
v -20.4215 -21.1138 -14.9973
v -19.1656 -20.5384 -16.8168
v -21.4390 -21.1138 -15.5313
v -20.6550 -20.5384 -17.5985
v -22.5548 -21.1138 -15.8063
v -22.2883 -20.5384 -18.0011
v -23.7039 -21.1138 -15.8063
v -23.9704 -20.5384 -18.0011
v -24.8197 -21.1138 -15.5313
v -25.6036 -20.5384 -17.5985
v -25.8372 -21.1138 -14.9973
v -27.0931 -20.5384 -16.8168
v -26.6973 -21.1138 -14.2352
v -28.3522 -20.5384 -15.7013
v -27.3501 -21.1138 -13.2895
v -29.3077 -20.5384 -14.3170
v -27.7575 -21.1138 -12.2151
v -29.9042 -20.5384 -12.7442
v -30.2141 -28.3626 -4.7978
v -31.5103 -28.3626 -6.6757
v -28.5061 -28.3626 -3.2847
v -26.4857 -28.3626 -2.2243
v -24.2702 -28.3626 -1.6782
v -21.9885 -28.3626 -1.6782
v -19.7730 -28.3626 -2.2243
v -17.7525 -28.3626 -3.2847
v -16.0446 -28.3626 -4.7978
v -14.7484 -28.3626 -6.6757
v -13.9393 -28.3626 -8.8092
v -13.6642 -28.3626 -11.0743
v -13.9393 -28.3626 -13.3395
v -14.7484 -28.3626 -15.4730
v -16.0446 -28.3626 -17.3509
v -17.7525 -28.3626 -18.8639
v -19.7730 -28.3626 -19.9243
v -21.9885 -28.3626 -20.4704
v -24.2702 -28.3626 -20.4704
v -26.4857 -28.3626 -19.9243
v -28.5061 -28.3626 -18.8639
v -30.2141 -28.3626 -17.3509
v -31.5103 -28.3626 -15.4730
v -32.3194 -28.3626 -13.3395
v -32.5944 -28.3626 -11.0743
v -32.3194 -28.3626 -8.8092
v -34.4391 -17.3064 -8.2867
v -33.4433 -17.3064 -5.6611
v -31.8482 -17.3064 -3.3501
v -29.7463 -17.3064 -1.4880
v -27.2599 -17.3064 -0.1830
v -24.5334 -17.3064 0.4890
v -21.7253 -17.3064 0.4890
v -18.9988 -17.3064 -0.1830
v -16.5124 -17.3064 -1.4880
v -14.4105 -17.3064 -3.3501
v -12.8153 -17.3064 -5.6611
v -11.8196 -17.3064 -8.2867
v -11.4811 -17.3064 -11.0743
v -11.8196 -17.3064 -13.8619
v -12.8154 -17.3064 -16.4875
v -14.4105 -17.3064 -18.7985
v -16.5124 -17.3064 -20.6606
v -18.9988 -17.3064 -21.9656
v -21.7253 -17.3064 -22.6376
v -24.5334 -17.3064 -22.6376
v -27.2599 -17.3064 -21.9656
v -29.7463 -17.3064 -20.6606
v -31.8482 -17.3064 -18.7985
v -33.4433 -17.3064 -16.4875
v -34.4391 -17.3064 -13.8619
v -34.7776 -17.3064 -11.0743
v -14.5512 -19.7266 -13.1886
v -14.2944 -19.7266 -11.0743
v -14.5512 -19.7266 -8.9600
v -15.3064 -19.7266 -6.9685
v -16.5163 -19.7266 -5.2157
v -18.1105 -19.7266 -3.8033
v -19.9964 -19.7266 -2.8135
v -22.0644 -19.7266 -2.3038
v -24.1943 -19.7266 -2.3038
v -26.2622 -19.7266 -2.8135
v -28.1481 -19.7266 -3.8033
v -29.7424 -19.7266 -5.2157
v -30.9523 -19.7266 -6.9685
v -31.7075 -19.7266 -8.9600
v -31.9642 -19.7266 -11.0743
v -31.7075 -19.7266 -13.1886
v -30.9522 -19.7266 -15.1801
v -29.7423 -19.7266 -16.9329
v -28.1481 -19.7266 -18.3453
v -26.2622 -19.7266 -19.3351
v -24.1943 -19.7266 -19.8448
v -22.0644 -19.7266 -19.8448
v -19.9965 -19.7266 -19.3351
v -18.1106 -19.7266 -18.3453
v -16.5163 -19.7266 -16.9329
v -15.3064 -19.7266 -15.1801
vt 0.834697 0.888780
vt 0.825645 0.891011
vt 0.844020 0.888780
vt 0.853072 0.891011
vt 0.861327 0.895344
vt 0.868305 0.901526
vt 0.873601 0.909199
vt 0.876907 0.917915
vt 0.878031 0.927170
vt 0.876907 0.936425
vt 0.873601 0.945142
vt 0.868305 0.952814
vt 0.861327 0.958997
vt 0.853072 0.963329
vt 0.844020 0.965560
vt 0.834697 0.965560
vt 0.825645 0.963329
vt 0.817390 0.958997
vt 0.810412 0.952814
vt 0.805116 0.945142
vt 0.801810 0.936425
vt 0.800687 0.927170
vt 0.801810 0.917915
vt 0.805116 0.909199
vt 0.810412 0.901526
vt 0.817390 0.895344
vt 0.258262 0.753357
vt 0.834936 0.890749
vt 0.826348 0.892866
vt 0.253810 0.752260
vt 0.262848 0.753357
vt 0.843781 0.890749
vt 0.267301 0.752260
vt 0.852369 0.892866
vt 0.271361 0.750129
vt 0.860200 0.896976
vt 0.274794 0.747088
vt 0.866820 0.902841
vt 0.277399 0.743314
vt 0.871845 0.910120
vt 0.279025 0.739026
vt 0.874981 0.918390
vt 0.279577 0.734474
vt 0.876047 0.927170
vt 0.279025 0.729921
vt 0.874981 0.935950
vt 0.277399 0.725634
vt 0.871845 0.944220
vt 0.274794 0.721860
vt 0.866821 0.951499
vt 0.271361 0.718819
vt 0.860200 0.957365
vt 0.267301 0.716688
vt 0.852369 0.961475
vt 0.262848 0.715590
vt 0.843781 0.963592
vt 0.258262 0.715590
vt 0.834936 0.963592
vt 0.253810 0.716688
vt 0.826348 0.961475
vt 0.249749 0.718819
vt 0.818517 0.957365
vt 0.246317 0.721860
vt 0.811897 0.951499
vt 0.243712 0.725634
vt 0.806872 0.944220
vt 0.242086 0.729921
vt 0.803736 0.935950
vt 0.241533 0.734474
vt 0.802670 0.927170
vt 0.242086 0.739026
vt 0.803736 0.918390
vt 0.243712 0.743314
vt 0.806872 0.910120
vt 0.246317 0.747088
vt 0.811897 0.902841
vt 0.249749 0.750129
vt 0.818517 0.896976
vt 0.193901 0.473551
vt 0.195088 0.463778
vt 0.200507 0.465113
vt 0.199483 0.473551
vt 0.198579 0.454572
vt 0.203521 0.457166
vt 0.204171 0.446470
vt 0.208349 0.450172
vt 0.211540 0.439942
vt 0.214711 0.444535
vt 0.220258 0.435367
vt 0.222237 0.440586
vt 0.229817 0.433010
vt 0.230489 0.438551
vt 0.239661 0.433010
vt 0.238989 0.438551
vt 0.249220 0.435367
vt 0.247241 0.440586
vt 0.257938 0.439942
vt 0.254767 0.444535
vt 0.265307 0.446470
vt 0.261129 0.450172
vt 0.270899 0.454572
vt 0.265957 0.457166
vt 0.274391 0.463778
vt 0.268971 0.465113
vt 0.275577 0.473551
vt 0.269996 0.473551
vt 0.274391 0.483324
vt 0.268971 0.481988
vt 0.270899 0.492529
vt 0.265957 0.489935
vt 0.265307 0.500632
vt 0.261129 0.496930
vt 0.257938 0.507160
vt 0.254767 0.502566
vt 0.249220 0.511735
vt 0.247241 0.506516
vt 0.239661 0.514091
vt 0.238989 0.508550
vt 0.229817 0.514091
vt 0.230489 0.508550
vt 0.220258 0.511735
vt 0.222237 0.506516
vt 0.211540 0.507160
vt 0.214711 0.502566
vt 0.204171 0.500632
vt 0.208349 0.496930
vt 0.198579 0.492529
vt 0.203521 0.489935
vt 0.195088 0.483324
vt 0.200507 0.481988
vt 0.206894 0.473551
vt 0.215717 0.473551
vt 0.216270 0.478103
vt 0.207703 0.480215
vt 0.217896 0.482391
vt 0.210084 0.486491
vt 0.220501 0.486165
vt 0.213897 0.492015
vt 0.223933 0.489206
vt 0.218921 0.496467
vt 0.227994 0.491337
vt 0.224865 0.499586
vt 0.232446 0.492434
vt 0.231383 0.501193
vt 0.237032 0.492434
vt 0.238095 0.501193
vt 0.241484 0.491337
vt 0.244613 0.499586
vt 0.245545 0.489206
vt 0.250557 0.496467
vt 0.248977 0.486165
vt 0.255581 0.492015
vt 0.251582 0.482391
vt 0.259394 0.486491
vt 0.253208 0.478103
vt 0.261775 0.480215
vt 0.253761 0.473551
vt 0.262584 0.473551
vt 0.253208 0.468999
vt 0.261775 0.466887
vt 0.251582 0.464711
vt 0.259394 0.460611
vt 0.248977 0.460937
vt 0.255581 0.455086
vt 0.245545 0.457896
vt 0.250557 0.450635
vt 0.241484 0.455765
vt 0.244613 0.447516
vt 0.237032 0.454667
vt 0.238095 0.445909
vt 0.232446 0.454667
vt 0.231383 0.445909
vt 0.227994 0.455765
vt 0.224865 0.447516
vt 0.223933 0.457896
vt 0.218921 0.450635
vt 0.220501 0.460937
vt 0.213897 0.455086
vt 0.217896 0.464711
vt 0.210084 0.460611
vt 0.216270 0.468999
vt 0.207703 0.466887
vt 0.811086 0.952217
vt 0.805914 0.944723
vt 0.817902 0.958256
vt 0.825965 0.962487
vt 0.834806 0.964666
vt 0.843911 0.964666
vt 0.852753 0.962487
vt 0.860815 0.958256
vt 0.867631 0.952217
vt 0.872803 0.944723
vt 0.876032 0.936209
vt 0.877130 0.927170
vt 0.876032 0.918131
vt 0.872803 0.909617
vt 0.867631 0.902123
vt 0.860815 0.896085
vt 0.852753 0.891853
vt 0.843911 0.889674
vt 0.834806 0.889674
vt 0.825965 0.891853
vt 0.817902 0.896085
vt 0.811086 0.902123
vt 0.805914 0.909617
vt 0.802685 0.918131
vt 0.801587 0.927170
vt 0.802685 0.936209
vt 0.054389 0.760198
vt 0.054389 0.780379
vt 0.055996 0.780379
vt 0.055996 0.760198
vt 0.058570 0.780379
vt 0.058570 0.760198
vt 0.061962 0.780379
vt 0.061962 0.760198
vt 0.065974 0.780379
vt 0.065974 0.760198
vt 0.070374 0.780379
vt 0.070374 0.760198
vt 0.074906 0.780379
vt 0.074906 0.760198
vt 0.079306 0.780379
vt 0.079306 0.760198
vt 0.083318 0.780379
vt 0.083318 0.760198
vt 0.086710 0.780379
vt 0.086710 0.760198
vt 0.089284 0.780379
vt 0.089284 0.760198
vt 0.090891 0.780379
vt 0.090891 0.760198
vt 0.091437 0.780379
vt 0.091437 0.760198
vt 0.090891 0.780379
vt 0.090891 0.760198
vt 0.089284 0.780379
vt 0.089284 0.760198
vt 0.086710 0.780379
vt 0.086710 0.760198
vt 0.083318 0.780379
vt 0.083318 0.760198
vt 0.079306 0.780379
vt 0.079306 0.760198
vt 0.074906 0.780379
vt 0.074906 0.760198
vt 0.070374 0.780379
vt 0.070374 0.760198
vt 0.065974 0.780379
vt 0.065974 0.760198
vt 0.061962 0.780379
vt 0.061962 0.760198
vt 0.058570 0.780379
vt 0.058570 0.760198
vt 0.055996 0.780379
vt 0.055996 0.760198
vt 0.054389 0.780379
vt 0.054389 0.760198
vt 0.053843 0.780379
vt 0.053843 0.760198
vt 0.189606 0.484675
vt 0.193580 0.495153
vt 0.199946 0.504375
vt 0.208333 0.511806
vt 0.218256 0.517013
vt 0.229136 0.519695
vt 0.240342 0.519695
vt 0.251222 0.517013
vt 0.261145 0.511806
vt 0.269532 0.504375
vt 0.275898 0.495153
vt 0.279872 0.484675
vt 0.281222 0.473551
vt 0.279872 0.462427
vt 0.275898 0.451949
vt 0.269532 0.442727
vt 0.261145 0.435296
vt 0.251222 0.430088
vt 0.240342 0.427407
vt 0.229136 0.427407
vt 0.218256 0.430088
vt 0.208333 0.435296
vt 0.199946 0.442727
vt 0.193580 0.451949
vt 0.189606 0.462427
vt 0.188256 0.473551
vt 0.247545 0.768778
vt 0.239714 0.764668
vt 0.233093 0.758803
vt 0.228069 0.751524
vt 0.224932 0.743254
vt 0.223867 0.734474
vt 0.224932 0.725694
vt 0.228069 0.717424
vt 0.233093 0.710145
vt 0.239714 0.704279
vt 0.247545 0.700169
vt 0.256133 0.698052
vt 0.264978 0.698052
vt 0.273565 0.700169
vt 0.281397 0.704279
vt 0.288017 0.710145
vt 0.293042 0.717424
vt 0.296178 0.725694
vt 0.297244 0.734474
vt 0.296178 0.743254
vt 0.293042 0.751524
vt 0.288017 0.758803
vt 0.281397 0.764668
vt 0.273565 0.768778
vt 0.264978 0.770895
vt 0.256133 0.770895
vn -0.1198 0.1100 -0.9867
vn -0.3525 0.1100 -0.9293
vn 0.1198 0.1100 -0.9867
vn 0.3525 0.1100 -0.9293
vn 0.5646 0.1100 -0.8180
vn 0.7440 0.1100 -0.6591
vn 0.8801 0.1100 -0.4619
vn 0.9650 0.1100 -0.2379
vn 0.9939 0.1100 -0.0000
vn 0.9650 0.1100 0.2379
vn 0.8801 0.1100 0.4619
vn 0.7440 0.1100 0.6591
vn 0.5646 0.1100 0.8180
vn 0.3525 0.1100 0.9293
vn 0.1198 0.1100 0.9867
vn -0.1198 0.1100 0.9867
vn -0.3524 0.1100 0.9293
vn -0.5646 0.1100 0.8180
vn -0.7440 0.1100 0.6591
vn -0.8801 0.1100 0.4619
vn -0.9650 0.1100 0.2379
vn -0.9939 0.1100 0.0000
vn -0.9650 0.1100 -0.2379
vn -0.8801 0.1100 -0.4619
vn -0.7440 0.1100 -0.6591
vn -0.5646 0.1100 -0.8180
vn -0.0467 0.9219 -0.3846
vn -0.0467 0.9219 -0.3846
vn -0.1374 0.9219 -0.3623
vn -0.1374 0.9219 -0.3623
vn 0.0467 0.9219 -0.3846
vn 0.0467 0.9219 -0.3846
vn 0.1374 0.9219 -0.3623
vn 0.1374 0.9219 -0.3623
vn 0.2201 0.9219 -0.3189
vn 0.2201 0.9219 -0.3189
vn 0.2900 0.9219 -0.2569
vn 0.2900 0.9219 -0.2569
vn 0.3431 0.9219 -0.1800
vn 0.3431 0.9219 -0.1801
vn 0.3762 0.9219 -0.0927
vn 0.3762 0.9219 -0.0927
vn 0.3874 0.9219 -0.0000
vn 0.3874 0.9219 -0.0000
vn 0.3762 0.9219 0.0927
vn 0.3762 0.9219 0.0927
vn 0.3431 0.9219 0.1800
vn 0.3431 0.9219 0.1800
vn 0.2900 0.9219 0.2569
vn 0.2900 0.9219 0.2569
vn 0.2201 0.9219 0.3189
vn 0.2201 0.9219 0.3189
vn 0.1374 0.9219 0.3623
vn 0.1374 0.9219 0.3623
vn 0.0467 0.9219 0.3846
vn 0.0467 0.9219 0.3846
vn -0.0467 0.9219 0.3846
vn -0.0467 0.9219 0.3846
vn -0.1374 0.9219 0.3623
vn -0.1374 0.9219 0.3623
vn -0.2201 0.9219 0.3189
vn -0.2201 0.9219 0.3189
vn -0.2900 0.9219 0.2569
vn -0.2900 0.9219 0.2569
vn -0.3431 0.9219 0.1800
vn -0.3431 0.9219 0.1801
vn -0.3762 0.9219 0.0927
vn -0.3762 0.9219 0.0927
vn -0.3874 0.9219 -0.0000
vn -0.3874 0.9219 0.0000
vn -0.3762 0.9219 -0.0927
vn -0.3762 0.9219 -0.0927
vn -0.3431 0.9219 -0.1800
vn -0.3431 0.9219 -0.1800
vn -0.2900 0.9219 -0.2569
vn -0.2900 0.9219 -0.2569
vn -0.2201 0.9219 -0.3189
vn -0.2201 0.9219 -0.3189
vn -0.6461 -0.7633 -0.0000
vn -0.6273 -0.7633 -0.1546
vn -0.4745 -0.8725 -0.1169
vn -0.4887 -0.8725 0.0000
vn -0.5721 -0.7633 -0.3002
vn -0.4327 -0.8725 -0.2271
vn -0.4836 -0.7633 -0.4284
vn -0.3658 -0.8725 -0.3240
vn -0.3670 -0.7633 -0.5317
vn -0.2776 -0.8725 -0.4022
vn -0.2291 -0.7633 -0.6041
vn -0.1733 -0.8725 -0.4569
vn -0.0779 -0.7633 -0.6414
vn -0.0589 -0.8725 -0.4851
vn 0.0779 -0.7633 -0.6414
vn 0.0589 -0.8725 -0.4851
vn 0.2291 -0.7633 -0.6041
vn 0.1733 -0.8725 -0.4569
vn 0.3670 -0.7633 -0.5317
vn 0.2776 -0.8725 -0.4022
vn 0.4836 -0.7633 -0.4284
vn 0.3658 -0.8725 -0.3240
vn 0.5721 -0.7633 -0.3002
vn 0.4327 -0.8725 -0.2271
vn 0.6273 -0.7633 -0.1546
vn 0.4745 -0.8725 -0.1169
vn 0.6461 -0.7633 -0.0000
vn 0.4887 -0.8725 0.0000
vn 0.6273 -0.7633 0.1546
vn 0.4745 -0.8725 0.1169
vn 0.5721 -0.7633 0.3002
vn 0.4327 -0.8725 0.2271
vn 0.4836 -0.7633 0.4284
vn 0.3658 -0.8725 0.3240
vn 0.3670 -0.7633 0.5317
vn 0.2776 -0.8725 0.4022
vn 0.2291 -0.7633 0.6041
vn 0.1733 -0.8725 0.4569
vn 0.0779 -0.7633 0.6414
vn 0.0589 -0.8725 0.4851
vn -0.0779 -0.7633 0.6414
vn -0.0589 -0.8725 0.4851
vn -0.2291 -0.7633 0.6041
vn -0.1733 -0.8725 0.4569
vn -0.3670 -0.7633 0.5317
vn -0.2776 -0.8725 0.4022
vn -0.4836 -0.7633 0.4284
vn -0.3658 -0.8725 0.3240
vn -0.5721 -0.7633 0.3002
vn -0.4327 -0.8725 0.2271
vn -0.6273 -0.7633 0.1546
vn -0.4745 -0.8725 0.1169
vn -0.3272 -0.9450 0.0000
vn -0.2518 -0.9678 -0.0000
vn -0.2445 -0.9678 0.0603
vn -0.3177 -0.9450 0.0783
vn -0.2230 -0.9678 0.1170
vn -0.2897 -0.9450 0.1520
vn -0.1885 -0.9678 0.1670
vn -0.2449 -0.9450 0.2169
vn -0.1431 -0.9678 0.2073
vn -0.1858 -0.9450 0.2692
vn -0.0893 -0.9678 0.2355
vn -0.1160 -0.9450 0.3059
vn -0.0304 -0.9678 0.2500
vn -0.0394 -0.9450 0.3248
vn 0.0304 -0.9678 0.2500
vn 0.0394 -0.9450 0.3248
vn 0.0893 -0.9678 0.2355
vn 0.1160 -0.9450 0.3059
vn 0.1431 -0.9678 0.2073
vn 0.1858 -0.9450 0.2693
vn 0.1885 -0.9678 0.1670
vn 0.2449 -0.9450 0.2170
vn 0.2230 -0.9678 0.1170
vn 0.2897 -0.9450 0.1520
vn 0.2445 -0.9678 0.0603
vn 0.3177 -0.9450 0.0783
vn 0.2518 -0.9678 0.0000
vn 0.3272 -0.9450 0.0000
vn 0.2445 -0.9678 -0.0603
vn 0.3177 -0.9450 -0.0783
vn 0.2230 -0.9678 -0.1170
vn 0.2897 -0.9450 -0.1520
vn 0.1885 -0.9678 -0.1670
vn 0.2449 -0.9450 -0.2169
vn 0.1431 -0.9678 -0.2073
vn 0.1858 -0.9450 -0.2692
vn 0.0893 -0.9678 -0.2355
vn 0.1160 -0.9450 -0.3059
vn 0.0304 -0.9678 -0.2500
vn 0.0394 -0.9450 -0.3248
vn -0.0304 -0.9678 -0.2500
vn -0.0394 -0.9450 -0.3248
vn -0.0893 -0.9678 -0.2355
vn -0.1160 -0.9450 -0.3059
vn -0.1431 -0.9678 -0.2073
vn -0.1858 -0.9450 -0.2692
vn -0.1885 -0.9678 -0.1670
vn -0.2449 -0.9450 -0.2169
vn -0.2230 -0.9678 -0.1170
vn -0.2897 -0.9450 -0.1520
vn -0.2445 -0.9678 -0.0603
vn -0.3177 -0.9450 -0.0783
vn -0.5041 0.7392 0.4466
vn -0.5963 0.7392 0.3130
vn -0.3826 0.7392 0.5542
vn -0.2388 0.7392 0.6297
vn -0.0812 0.7392 0.6685
vn 0.0812 0.7392 0.6685
vn 0.2388 0.7392 0.6297
vn 0.3826 0.7392 0.5542
vn 0.5041 0.7392 0.4466
vn 0.5963 0.7392 0.3130
vn 0.6539 0.7392 0.1612
vn 0.6734 0.7392 -0.0000
vn 0.6539 0.7392 -0.1612
vn 0.5963 0.7392 -0.3130
vn 0.5041 0.7392 -0.4466
vn 0.3826 0.7392 -0.5542
vn 0.2388 0.7392 -0.6297
vn 0.0812 0.7393 -0.6685
vn -0.0812 0.7392 -0.6685
vn -0.2388 0.7392 -0.6297
vn -0.3826 0.7392 -0.5542
vn -0.5041 0.7392 -0.4466
vn -0.5963 0.7392 -0.3130
vn -0.6539 0.7392 -0.1612
vn -0.6734 0.7392 0.0000
vn -0.6539 0.7392 0.1612
vn -0.9709 -0.0000 0.2393
vn -0.9709 -0.0000 0.2393
vn -0.8855 -0.0000 0.4647
vn -0.8855 -0.0000 0.4647
vn -0.7485 -0.0000 0.6631
vn -0.7485 -0.0000 0.6631
vn -0.5681 -0.0000 0.8230
vn -0.5681 -0.0000 0.8230
vn -0.3546 -0.0000 0.9350
vn -0.3546 -0.0000 0.9350
vn -0.1205 -0.0000 0.9927
vn -0.1205 -0.0000 0.9927
vn 0.1205 -0.0000 0.9927
vn 0.1205 -0.0000 0.9927
vn 0.3546 -0.0000 0.9350
vn 0.3546 -0.0000 0.9350
vn 0.5681 -0.0000 0.8230
vn 0.5681 -0.0000 0.8230
vn 0.7485 -0.0000 0.6631
vn 0.7485 -0.0000 0.6631
vn 0.8855 -0.0000 0.4647
vn 0.8855 -0.0000 0.4647
vn 0.9709 -0.0000 0.2393
vn 0.9709 -0.0000 0.2393
vn 1.0000 -0.0000 0.0000
vn 1.0000 -0.0000 0.0000
vn 0.9709 -0.0000 -0.2393
vn 0.9709 -0.0000 -0.2393
vn 0.8855 0.0000 -0.4647
vn 0.8855 0.0000 -0.4647
vn 0.7485 0.0000 -0.6631
vn 0.7485 0.0000 -0.6631
vn 0.5681 0.0000 -0.8230
vn 0.5681 0.0000 -0.8230
vn 0.3546 -0.0000 -0.9350
vn 0.3546 -0.0000 -0.9350
vn 0.1205 -0.0000 -0.9927
vn 0.1205 -0.0000 -0.9927
vn -0.1205 -0.0000 -0.9927
vn -0.1205 -0.0000 -0.9927
vn -0.3546 -0.0000 -0.9350
vn -0.3546 -0.0000 -0.9350
vn -0.5681 -0.0000 -0.8230
vn -0.5681 -0.0000 -0.8230
vn -0.7485 -0.0000 -0.6631
vn -0.7485 -0.0000 -0.6631
vn -0.8855 -0.0000 -0.4647
vn -0.8855 -0.0000 -0.4647
vn -0.9709 -0.0000 -0.2393
vn -0.9709 -0.0000 -0.2393
vn -1.0000 -0.0000 -0.0000
vn -1.0000 -0.0000 -0.0000
vn -0.6937 -0.6997 0.1710
vn -0.6326 -0.6997 0.3320
vn -0.5348 -0.6997 0.4738
vn -0.4058 -0.6997 0.5880
vn -0.2533 -0.6997 0.6680
vn -0.0861 -0.6997 0.7092
vn 0.0861 -0.6997 0.7092
vn 0.2533 -0.6997 0.6680
vn 0.4058 -0.6997 0.5880
vn 0.5348 -0.6997 0.4738
vn 0.6326 -0.6997 0.3320
vn 0.6937 -0.6997 0.1710
vn 0.7144 -0.6997 -0.0000
vn 0.6937 -0.6997 -0.1710
vn 0.6326 -0.6997 -0.3320
vn 0.5348 -0.6997 -0.4738
vn 0.4058 -0.6997 -0.5880
vn 0.2533 -0.6997 -0.6680
vn 0.0861 -0.6997 -0.7092
vn -0.0861 -0.6997 -0.7092
vn -0.2533 -0.6997 -0.6680
vn -0.4059 -0.6997 -0.5880
vn -0.5348 -0.6997 -0.4738
vn -0.6326 -0.6997 -0.3320
vn -0.6937 -0.6997 -0.1710
vn -0.7144 -0.6997 -0.0000
f 27/27/27 28/312/28 29/287/29 30/30/30
f 31/31/31 32/311/32 28/312/28 27/27/27
f 33/33/33 34/310/34 32/311/32 31/31/31
f 35/35/35 36/309/36 34/310/34 33/33/33
f 37/37/37 38/308/38 36/309/36 35/35/35
f 39/39/39 40/307/40 38/308/38 37/37/37
f 41/41/41 42/306/42 40/307/40 39/39/39
f 42/306/42 41/41/41 43/43/43 44/305/44
f 45/45/45 46/304/46 44/305/44 43/43/43
f 47/47/47 48/303/48 46/304/46 45/45/45
f 49/49/49 50/302/50 48/303/48 47/47/47
f 51/51/51 52/301/52 50/302/50 49/49/49
f 53/53/53 54/300/54 52/301/52 51/51/51
f 55/55/55 56/299/56 54/300/54 53/53/53
f 57/57/57 58/298/58 56/299/56 55/55/55
f 59/59/59 60/297/60 58/298/58 57/57/57
f 61/61/61 62/296/62 60/297/60 59/59/59
f 63/63/63 64/295/64 62/296/62 61/61/61
f 65/65/65 66/294/66 64/295/64 63/63/63
f 67/67/67 68/293/68 66/294/66 65/65/65
f 69/69/69 70/292/70 68/293/68 67/67/67
f 71/71/71 72/291/72 70/292/70 69/69/69
f 73/73/73 74/290/74 72/291/72 71/71/71
f 75/75/75 76/289/76 74/290/74 73/73/73
f 77/77/77 78/288/78 76/289/76 75/75/75
f 30/30/30 29/287/29 78/288/78 77/77/77
f 80/79/79 79/80/80 224/81/81 223/82/82
f 79/80/80 81/83/83 225/84/84 224/81/81
f 81/83/83 82/85/85 226/86/86 225/84/84
f 82/85/85 83/87/87 227/88/88 226/86/86
f 83/87/87 84/89/89 228/90/90 227/88/88
f 84/89/89 85/91/91 229/92/92 228/90/90
f 85/91/91 86/93/93 230/94/94 229/92/92
f 86/93/93 87/95/95 231/96/96 230/94/94
f 87/95/95 88/97/97 232/98/98 231/96/96
f 88/97/97 89/99/99 233/100/100 232/98/98
f 89/99/99 90/101/101 234/102/102 233/100/100
f 90/101/101 91/103/103 209/104/104 234/102/102
f 91/103/103 92/105/105 210/106/106 209/104/104
f 92/105/105 93/107/107 211/108/108 210/106/106
f 93/107/107 94/109/109 212/110/110 211/108/108
f 94/109/109 95/111/111 213/112/112 212/110/110
f 95/111/111 96/113/113 214/114/114 213/112/112
f 96/113/113 97/115/115 215/116/116 214/114/114
f 97/115/115 98/117/117 216/118/118 215/116/116
f 98/117/117 99/119/119 217/120/120 216/118/118
f 99/119/119 100/121/121 218/122/122 217/120/120
f 100/121/121 101/123/123 219/124/124 218/122/122
f 101/123/123 102/125/125 220/126/126 219/124/124
f 102/125/125 103/127/127 221/128/128 220/126/126
f 103/127/127 104/129/129 222/130/130 221/128/128
f 104/129/129 80/79/79 223/82/82 222/130/130
f 105/131/131 106/132/132 107/133/133 108/134/134
f 108/134/134 107/133/133 109/135/135 110/136/136
f 110/136/136 109/135/135 111/137/137 112/138/138
f 112/138/138 111/137/137 113/139/139 114/140/140
f 114/140/140 113/139/139 115/141/141 116/142/142
f 116/142/142 115/141/141 117/143/143 118/144/144
f 118/144/144 117/143/143 119/145/145 120/146/146
f 120/146/146 119/145/145 121/147/147 122/148/148
f 122/148/148 121/147/147 123/149/149 124/150/150
f 124/150/150 123/149/149 125/151/151 126/152/152
f 126/152/152 125/151/151 127/153/153 128/154/154
f 128/154/154 127/153/153 129/155/155 130/156/156
f 130/156/156 129/155/155 131/157/157 132/158/158
f 133/159/159 134/160/160 132/158/158 131/157/157
f 134/160/160 133/159/159 135/161/161 136/162/162
f 136/162/162 135/161/161 137/163/163 138/164/164
f 138/164/164 137/163/163 139/165/165 140/166/166
f 140/166/166 139/165/165 141/167/167 142/168/168
f 142/168/168 141/167/167 143/169/169 144/170/170
f 144/170/170 143/169/169 145/171/171 146/172/172
f 146/172/172 145/171/171 147/173/173 148/174/174
f 148/174/174 147/173/173 149/175/175 150/176/176
f 150/176/176 149/175/175 151/177/177 152/178/178
f 152/178/178 151/177/177 153/179/179 154/180/180
f 154/180/180 153/179/179 155/181/181 156/182/182
f 156/182/182 155/181/181 106/132/132 105/131/131
f 157/183/183 158/184/184 20/20/20 19/19/19
f 159/185/185 157/183/183 19/19/19 18/18/18
f 160/186/186 159/185/185 18/18/18 17/17/17
f 161/187/187 160/186/186 17/17/17 16/16/16
f 162/188/188 161/187/187 16/16/16 15/15/15
f 163/189/189 162/188/188 15/15/15 14/14/14
f 164/190/190 163/189/189 14/14/14 13/13/13
f 165/191/191 164/190/190 13/13/13 12/12/12
f 166/192/192 165/191/191 12/12/12 11/11/11
f 167/193/193 166/192/192 11/11/11 10/10/10
f 168/194/194 167/193/193 10/10/10 9/9/9
f 8/8/8 169/195/195 168/194/194 9/9/9
f 170/196/196 169/195/195 8/8/8 7/7/7
f 171/197/197 170/196/196 7/7/7 6/6/6
f 172/198/198 171/197/197 6/6/6 5/5/5
f 173/199/199 172/198/198 5/5/5 4/4/4
f 174/200/200 173/199/199 4/4/4 3/3/3
f 175/201/201 174/200/200 3/3/3 1/1/1
f 176/202/202 175/201/201 1/1/1 2/2/2
f 177/203/203 176/202/202 2/2/2 26/26/26
f 178/204/204 177/203/203 26/26/26 25/25/25
f 179/205/205 178/204/204 25/25/25 24/24/24
f 180/206/206 179/205/205 24/24/24 23/23/23
f 181/207/207 180/206/206 23/23/23 22/22/22
f 21/21/21 20/20/20 158/184/184 182/208/208
f 182/208/208 181/207/207 22/22/22 21/21/21
f 68/68/68 182/208/208 158/184/184 66/66/66
f 66/66/66 158/184/184 157/183/183 64/64/64
f 64/64/64 157/183/183 159/185/185 62/62/62
f 62/62/62 159/185/185 160/186/186 60/60/60
f 60/60/60 160/186/186 161/187/187 58/58/58
f 58/58/58 161/187/187 162/188/188 56/56/56
f 56/56/56 162/188/188 163/189/189 54/54/54
f 54/54/54 163/189/189 164/190/190 52/52/52
f 52/52/52 164/190/190 165/191/191 50/50/50
f 50/50/50 165/191/191 166/192/192 48/48/48
f 48/48/48 166/192/192 167/193/193 46/46/46
f 46/46/46 167/193/193 168/194/194 44/44/44
f 169/195/195 42/42/42 44/44/44 168/194/194
f 42/42/42 169/195/195 170/196/196 40/40/40
f 40/40/40 170/196/196 171/197/197 38/38/38
f 38/38/38 171/197/197 172/198/198 36/36/36
f 36/36/36 172/198/198 173/199/199 34/34/34
f 34/34/34 173/199/199 174/200/200 32/32/32
f 32/32/32 174/200/200 175/201/201 28/28/28
f 28/28/28 175/201/201 176/202/202 29/29/29
f 29/29/29 176/202/202 177/203/203 78/78/78
f 78/78/78 177/203/203 178/204/204 76/76/76
f 76/76/76 178/204/204 179/205/205 74/74/74
f 74/74/74 179/205/205 180/206/206 72/72/72
f 72/72/72 180/206/206 181/207/207 70/70/70
f 70/70/70 181/207/207 182/208/208 68/68/68
f 107/209/209 67/210/210 65/211/211 109/212/212
f 109/212/212 65/211/211 63/213/213 111/214/214
f 111/214/214 63/213/213 61/215/215 113/216/216
f 113/216/216 61/215/215 59/217/217 115/218/218
f 115/218/218 59/217/217 57/219/219 117/220/220
f 117/220/220 57/219/219 55/221/221 119/222/222
f 119/222/222 55/221/221 53/223/223 121/224/224
f 121/224/224 53/223/223 51/225/225 123/226/226
f 123/226/226 51/225/225 49/227/227 125/228/228
f 125/228/228 49/227/227 47/229/229 127/230/230
f 127/230/230 47/229/229 45/231/231 129/232/232
f 129/232/232 45/231/231 43/233/233 131/234/234
f 41/235/235 133/236/236 131/234/234 43/233/233
f 133/236/236 41/235/235 39/237/237 135/238/238
f 135/238/238 39/237/237 37/239/239 137/240/240
f 137/240/240 37/239/239 35/241/241 139/242/242
f 139/242/242 35/241/241 33/243/243 141/244/244
f 141/244/244 33/243/243 31/245/245 143/246/246
f 143/246/246 31/245/245 27/247/247 145/248/248
f 145/248/248 27/247/247 30/249/249 147/250/250
f 147/250/250 30/249/249 77/251/251 149/252/252
f 149/252/252 77/251/251 75/253/253 151/254/254
f 151/254/254 75/253/253 73/255/255 153/256/256
f 153/256/256 73/255/255 71/257/257 155/258/258
f 155/258/258 71/257/257 69/259/259 106/260/260
f 106/260/260 69/259/259 67/210/210 107/209/209
f 108/134/134 110/136/136 221/128/128 222/130/130
f 221/128/128 110/136/136 112/138/138 220/126/126
f 220/126/126 112/138/138 114/140/140 219/124/124
f 219/124/124 114/140/140 116/142/142 218/122/122
f 218/122/122 116/142/142 118/144/144 217/120/120
f 217/120/120 118/144/144 120/146/146 216/118/118
f 216/118/118 120/146/146 122/148/148 215/116/116
f 215/116/116 122/148/148 124/150/150 214/114/114
f 214/114/114 124/150/150 126/152/152 213/112/112
f 213/112/112 126/152/152 128/154/154 212/110/110
f 212/110/110 128/154/154 130/156/156 211/108/108
f 211/108/108 130/156/156 132/158/158 210/106/106
f 134/160/160 209/104/104 210/106/106 132/158/158
f 234/102/102 209/104/104 134/160/160 136/162/162
f 234/102/102 136/162/162 138/164/164 233/100/100
f 233/100/100 138/164/164 140/166/166 232/98/98
f 232/98/98 140/166/166 142/168/168 231/96/96
f 231/96/96 142/168/168 144/170/170 230/94/94
f 230/94/94 144/170/170 146/172/172 229/92/92
f 229/92/92 146/172/172 148/174/174 228/90/90
f 228/90/90 148/174/174 150/176/176 227/88/88
f 227/88/88 150/176/176 152/178/178 226/86/86
f 226/86/86 152/178/178 154/180/180 225/84/84
f 225/84/84 154/180/180 156/182/182 224/81/81
f 224/81/81 156/182/182 105/131/131 223/82/82
f 223/82/82 105/131/131 108/134/134 222/130/130
f 183/261/261 104/129/129 103/127/127 184/262/262
f 184/262/262 103/127/127 102/125/125 185/263/263
f 185/263/263 102/125/125 101/123/123 186/264/264
f 186/264/264 101/123/123 100/121/121 187/265/265
f 187/265/265 100/121/121 99/119/119 188/266/266
f 188/266/266 99/119/119 98/117/117 189/267/267
f 189/267/267 98/117/117 97/115/115 190/268/268
f 190/268/268 97/115/115 96/113/113 191/269/269
f 191/269/269 96/113/113 95/111/111 192/270/270
f 192/270/270 95/111/111 94/109/109 193/271/271
f 193/271/271 94/109/109 93/107/107 194/272/272
f 194/272/272 93/107/107 92/105/105 195/273/273
f 91/103/103 196/274/274 195/273/273 92/105/105
f 196/274/274 91/103/103 90/101/101 197/275/275
f 197/275/275 90/101/101 89/99/99 198/276/276
f 198/276/276 89/99/99 88/97/97 199/277/277
f 199/277/277 88/97/97 87/95/95 200/278/278
f 200/278/278 87/95/95 86/93/93 201/279/279
f 201/279/279 86/93/93 85/91/91 202/280/280
f 202/280/280 85/91/91 84/89/89 203/281/281
f 203/281/281 84/89/89 83/87/87 204/282/282
f 204/282/282 83/87/87 82/85/85 205/283/283
f 205/283/283 82/85/85 81/83/83 206/284/284
f 206/284/284 81/83/83 79/80/80 207/285/285
f 207/285/285 79/80/80 80/79/79 208/286/286
f 208/286/286 80/79/79 104/129/129 183/261/261
