# R1
# Sony PlayStation DualShock 3 by 3doverstock, CGTrader Royalty Free License
o R1
v 54.5852 -4.4973 46.4211
v 54.5747 -4.8267 46.8296
v 55.1332 -5.0410 45.6631
v 54.9945 -5.2577 46.2363
v 37.3966 -4.4973 46.4211
v 36.8646 -5.0476 45.6641
v 37.4100 -4.8255 46.8308
v 36.9873 -5.2577 46.2362
v 54.5862 -12.9837 46.0558
v 55.1344 -12.4460 45.3614
v 54.5751 -12.6651 46.4888
v 54.9973 -12.2409 45.9377
v 37.3955 -12.9837 46.0558
v 37.4101 -12.6664 46.4901
v 36.8474 -12.4460 45.3614
v 36.9845 -12.2409 45.9377
v 38.1529 -4.6060 47.2136
v 38.1448 -4.2997 46.8769
v 55.3325 -11.7098 45.2801
v 55.1477 -11.7073 45.8330
v 38.1528 -12.8762 46.8502
v 38.1439 -13.1791 46.4810
v 36.6493 -11.7098 45.2801
v 36.8356 -11.7073 45.8320
v 53.8228 -4.6058 47.2159
v 53.8370 -4.2997 46.8758
v 53.8218 -12.8766 46.8528
v 53.8379 -13.1791 46.4800
v 42.0293 -4.3008 47.9117
v 42.0326 -4.6060 48.2371
v 42.0326 -12.8761 47.8737
v 42.0290 -13.1778 47.5155
v 50.3100 -4.3008 47.8500
v 50.3063 -4.6060 48.1758
v 46.1184 -4.6059 48.5513
v 46.1185 -4.3011 48.2306
v 50.3103 -13.1779 47.4538
v 50.3063 -12.8761 47.8124
v 46.1185 -13.1775 47.8345
v 46.1184 -12.8762 48.1879
v 36.6506 -5.7856 45.5149
v 36.8373 -5.7899 46.0694
v 55.3312 -5.7856 45.5133
v 55.1458 -5.7899 46.0703
v 55.1483 -10.8839 45.9539
v 55.3318 -10.8874 45.3979
v 36.8353 -6.6514 46.0972
v 36.6509 -6.6482 45.5458
v 55.1486 -6.6514 46.0987
v 55.3309 -6.6482 45.5458
v 55.1496 -8.7364 46.0992
v 55.3307 -8.7364 45.5457
v 38.1510 -5.7899 47.3089
v 37.4120 -5.7899 46.9140
v 38.1506 -11.7073 47.0739
v 37.4126 -11.7073 46.6795
v 54.5814 -5.7899 46.9091
v 54.5874 -6.6514 46.9376
v 54.5961 -8.7364 46.9337
v 54.5901 -10.8839 46.7905
v 54.5831 -11.7073 46.6735
v 53.7849 -6.6514 47.3573
v 53.8009 -5.7899 47.3202
v 53.7958 -11.7073 47.0873
v 50.3063 -11.7073 48.0370
v 53.7616 -8.7364 47.3659
v 53.7775 -10.8839 47.2142
v 53.9430 -4.2398 42.9746
v 54.6979 -4.4421 42.9746
v 55.2506 -4.9947 42.9746
v 55.4529 -5.7497 42.9746
v 36.7311 -4.9947 42.9746
v 36.5288 -5.7497 42.9746
v 37.2838 -4.4421 42.9746
v 38.0388 -4.2398 42.9746
v 55.2506 -12.4836 42.9746
v 55.4529 -11.7286 42.9746
v 54.6979 -13.0363 42.9746
v 53.9430 -13.2386 42.9746
v 38.0388 -13.2386 42.9746
v 37.2838 -13.0363 42.9746
v 36.7311 -12.4836 42.9746
v 36.5288 -11.7286 42.9746
v 50.3693 -4.2398 42.9746
v 50.3063 -10.8839 48.1570
v 50.3693 -13.2386 42.9746
v 55.4529 -8.7363 42.9746
v 55.4529 -10.9153 42.9746
v 36.6511 -8.7364 45.5457
v 36.5288 -8.7363 42.9746
v 36.6500 -10.8874 45.3979
v 36.5288 -10.9153 42.9746
v 41.9748 -4.2398 42.9746
v 41.9748 -13.2386 42.9746
v 36.8361 -10.8839 45.9521
v 36.8356 -8.7364 46.0968
v 37.4139 -6.6514 46.9460
v 38.1497 -6.6514 47.3396
v 37.4165 -8.7364 46.9470
v 38.1476 -8.7364 47.3387
v 37.4147 -10.8839 46.8004
v 38.1490 -10.8839 47.1934
v 50.3063 -5.7899 48.2718
v 50.3063 -6.6514 48.3030
v 46.1184 -5.7899 48.6473
v 46.1184 -6.6514 48.6785
v 42.0326 -5.7899 48.3332
v 42.0326 -6.6514 48.3644
v 46.1184 -11.7073 48.4125
v 42.0326 -11.7073 48.0983
v 42.0326 -8.7364 48.3642
v 42.0326 -10.8839 48.2184
v 50.3063 -8.7364 48.3028
v 46.1202 -4.2398 42.9746
v 46.1184 -8.7364 48.6783
v 46.1184 -10.8839 48.5325
v 46.1202 -13.2386 42.9746
v 55.4529 -6.6209 42.9746
v 36.5288 -6.6209 42.9746
vt 0.017443 0.960414
vt 0.017484 0.961713
vt 0.015829 0.963411
vt 0.015282 0.962557
vt 0.085196 0.960414
vt 0.087293 0.962583
vt 0.086810 0.963411
vt 0.085143 0.961708
vt 0.017439 0.993866
vt 0.015278 0.991746
vt 0.015818 0.990937
vt 0.017482 0.992610
vt 0.085200 0.993866
vt 0.085143 0.992615
vt 0.086821 0.990937
vt 0.087361 0.991746
vt 0.082215 0.960843
vt 0.082247 0.959635
vt 0.014497 0.988844
vt 0.015225 0.988834
vt 0.082250 0.994636
vt 0.082215 0.993442
vt 0.087407 0.988834
vt 0.088142 0.988844
vt 0.020392 0.959635
vt 0.020448 0.960842
vt 0.020452 0.993443
vt 0.020388 0.994636
vt 0.066922 0.960842
vt 0.066935 0.959640
vt 0.066922 0.993441
vt 0.066936 0.994631
vt 0.034295 0.959639
vt 0.034309 0.960842
vt 0.050817 0.960842
vt 0.050816 0.959641
vt 0.034309 0.993441
vt 0.034293 0.994631
vt 0.050817 0.993442
vt 0.050816 0.994630
vt 0.088137 0.965492
vt 0.087401 0.965509
vt 0.015233 0.965509
vt 0.014502 0.965492
vt 0.015223 0.985589
vt 0.014500 0.985602
vt 0.087409 0.968905
vt 0.088136 0.968892
vt 0.015222 0.968905
vt 0.014503 0.968892
vt 0.015218 0.977124
vt 0.014504 0.977123
vt 0.085135 0.965509
vt 0.082222 0.965509
vt 0.082224 0.988834
vt 0.085133 0.988834
vt 0.017458 0.965509
vt 0.017434 0.968905
vt 0.017400 0.977124
vt 0.017424 0.985589
vt 0.017451 0.988834
vt 0.020597 0.968905
vt 0.020534 0.965509
vt 0.020554 0.988834
vt 0.034309 0.988834
vt 0.020689 0.977124
vt 0.020626 0.985589
vt 0.019974 0.959399
vt 0.016998 0.960196
vt 0.014820 0.962375
vt 0.014022 0.965351
vt 0.087819 0.962375
vt 0.088617 0.965351
vt 0.085641 0.960196
vt 0.082665 0.959399
vt 0.014820 0.991894
vt 0.014022 0.988918
vt 0.016998 0.994073
vt 0.019974 0.994870
vt 0.082665 0.994870
vt 0.085641 0.994073
vt 0.087819 0.991894
vt 0.088617 0.988918
vt 0.034061 0.959399
vt 0.034309 0.985589
vt 0.034060 0.994870
vt 0.014022 0.985712
vt 0.014022 0.977123
vt 0.088135 0.977124
vt 0.088617 0.977123
vt 0.088617 0.985712
vt 0.088139 0.985602
vt 0.067150 0.959399
vt 0.067150 0.994870
vt 0.087406 0.985589
vt 0.087407 0.977124
vt 0.085128 0.968905
vt 0.082228 0.968905
vt 0.085118 0.977124
vt 0.082236 0.977124
vt 0.085125 0.985589
vt 0.082230 0.985589
vt 0.034309 0.965509
vt 0.034309 0.968905
vt 0.050817 0.965509
vt 0.050817 0.968905
vt 0.066922 0.965509
vt 0.066922 0.968905
vt 0.050817 0.988834
vt 0.066922 0.988834
vt 0.066922 0.977123
vt 0.066922 0.985589
vt 0.034309 0.977123
vt 0.050810 0.959399
vt 0.050817 0.977123
vt 0.050817 0.985589
vt 0.050810 0.994870
vt 0.014022 0.968785
vt 0.088617 0.968785
vn 0.6336 0.7276 0.2631
vn 0.7129 0.3106 0.6287
vn 0.8895 0.2087 0.4064
vn 0.9009 0.3905 0.1896
vn -0.6364 0.7261 0.2603
vn -0.9001 0.3944 0.1850
vn -0.8908 0.2135 0.4012
vn -0.7147 0.3110 0.6266
vn 0.6178 -0.7434 0.2562
vn 0.8931 -0.4077 0.1901
vn 0.8799 -0.2509 0.4035
vn 0.6957 -0.3703 0.6155
vn -0.6179 -0.7433 0.2563
vn -0.6959 -0.3689 0.6162
vn -0.8792 -0.2485 0.4066
vn -0.8932 -0.4072 0.1909
vn -0.3785 0.4105 0.8296
vn -0.2556 0.9032 0.3449
vn 0.9744 -0.1308 0.1830
vn 0.8927 -0.1156 0.4356
vn -0.2428 -0.9136 0.3263
vn -0.3626 -0.4793 0.7992
vn -0.8908 -0.1131 0.4402
vn -0.9742 -0.1304 0.1844
vn 0.2569 0.9029 0.3446
vn 0.3808 0.4102 0.8287
vn 0.3645 -0.4790 0.7986
vn 0.2440 -0.9133 0.3261
vn -0.1507 0.4313 0.8896
vn -0.0625 0.9265 0.3711
vn -0.1445 -0.5022 0.8526
vn -0.0584 -0.9359 0.3473
vn 0.0664 0.9264 0.3705
vn 0.1601 0.4314 0.8879
vn 0.0057 0.4330 0.9014
vn 0.0024 0.9271 0.3747
vn 0.1534 -0.5022 0.8510
vn 0.0621 -0.9359 0.3468
vn 0.0055 -0.5048 0.8632
vn 0.0022 -0.9367 0.3502
vn -0.9763 0.1195 0.1806
vn -0.8958 0.0701 0.4389
vn 0.8967 0.0687 0.4374
vn 0.9769 0.1135 0.1812
vn 0.8978 -0.0478 0.4378
vn 0.9829 -0.0181 0.1834
vn -0.8956 0.0078 0.4447
vn -0.9828 0.0031 0.1844
vn 0.8987 0.0093 0.4385
vn 0.9833 0.0034 0.1821
vn 0.8993 -0.0147 0.4370
vn 0.9833 -0.0057 0.1817
vn -0.6689 0.0451 0.7420
vn -0.3657 0.0549 0.9291
vn -0.3619 -0.1556 0.9191
vn -0.6647 -0.1259 0.7364
vn 0.6689 0.0468 0.7418
vn 0.6680 0.0141 0.7441
vn 0.6678 -0.0252 0.7439
vn 0.6661 -0.0798 0.7416
vn 0.6647 -0.1279 0.7361
vn 0.3648 0.0168 0.9309
vn 0.3667 0.0548 0.9287
vn 0.3624 -0.1556 0.9189
vn 0.1743 -0.1645 0.9709
vn 0.3636 -0.0316 0.9310
vn 0.3626 -0.0989 0.9267
vn 0.1338 0.9908 0.0186
vn 0.5091 0.8601 0.0318
vn 0.8707 0.4899 0.0448
vn 0.9906 0.1280 0.0483
vn -0.8708 0.4893 0.0478
vn -0.9898 0.1332 0.0500
vn -0.5141 0.8571 0.0333
vn -0.1338 0.9908 0.0185
vn 0.8690 -0.4925 0.0481
vn 0.9900 -0.1309 0.0518
vn 0.5071 -0.8612 0.0344
vn 0.1332 -0.9909 0.0202
vn -0.1332 -0.9909 0.0202
vn -0.5072 -0.8612 0.0344
vn -0.8690 -0.4925 0.0481
vn -0.9900 -0.1309 0.0518
vn 0.0011 0.9999 0.0129
vn 0.1754 -0.1048 0.9789
vn 0.0012 -0.9999 0.0141
vn 0.9988 -0.0023 0.0499
vn 0.9988 -0.0007 0.0481
vn -0.9828 -0.0058 0.1846
vn -0.9988 -0.0007 0.0481
vn -0.9988 -0.0023 0.0499
vn -0.9824 -0.0181 0.1859
vn -0.0011 0.9999 0.0129
vn -0.0011 -0.9999 0.0140
vn -0.8945 -0.0469 0.4447
vn -0.8955 -0.0152 0.4449
vn -0.6682 0.0131 0.7439
vn -0.3659 0.0168 0.9305
vn -0.6680 -0.0253 0.7438
vn -0.3659 -0.0316 0.9301
vn -0.6664 -0.0788 0.7414
vn -0.3643 -0.0988 0.9260
vn 0.1764 0.0581 0.9826
vn 0.1764 0.0181 0.9841
vn 0.0063 0.0585 0.9983
vn 0.0063 0.0180 0.9998
vn -0.1663 0.0577 0.9844
vn -0.1666 0.0178 0.9859
vn 0.0063 -0.1665 0.9860
vn -0.1644 -0.1642 0.9726
vn -0.1665 -0.0335 0.9855
vn -0.1657 -0.1046 0.9806
vn 0.1762 -0.0333 0.9838
vn 0.0000 0.9999 0.0120
vn 0.0063 -0.0339 0.9994
vn 0.0063 -0.1061 0.9943
vn 0.0000 -0.9999 0.0130
vn 0.9989 0.0003 0.0476
vn -0.9989 0.0003 0.0476
f 1/1/1 2/2/2 4/3/3 3/4/4
f 5/5/5 6/6/6 8/7/7 7/8/8
f 9/9/9 10/10/10 12/11/11 11/12/12
f 13/13/13 14/14/14 16/15/15 15/16/16
f 7/8/8 17/17/17 18/18/18 5/5/5
f 10/10/10 19/19/19 20/20/20 12/11/11
f 14/14/14 13/13/13 22/21/21 21/22/22
f 15/16/16 16/15/15 24/23/23 23/24/24
f 2/2/2 1/1/1 26/25/25 25/26/26
f 11/12/12 27/27/27 28/28/28 9/9/9
f 18/18/18 17/17/17 30/29/29 29/30/30
f 31/31/31 21/22/22 22/21/21 32/32/32
f 26/25/25 33/33/33 34/34/34 25/26/26
f 35/35/35 36/36/36 29/30/30 30/29/29
f 35/35/35 34/34/34 33/33/33 36/36/36
f 28/28/28 27/27/27 38/37/37 37/38/38
f 37/38/38 38/37/37 40/39/39 39/40/40
f 32/32/32 39/40/40 40/39/39 31/31/31
f 6/6/6 41/41/41 42/42/42 8/7/7
f 3/4/4 4/3/3 44/43/43 43/44/44
f 45/45/45 20/20/20 19/19/19 46/46/46
f 47/47/47 42/42/42 41/41/41 48/48/48
f 49/49/49 50/50/50 43/44/44 44/43/43
f 51/51/51 52/52/52 50/50/50 49/49/49
f 46/46/46 52/52/52 51/51/51 45/45/45
f 17/17/17 7/8/8 54/53/53 53/54/54
f 21/22/22 55/55/55 56/56/56 14/14/14
f 2/2/2 57/57/57 44/43/43 4/3/3
f 44/43/43 57/57/57 58/58/58 49/49/49
f 58/58/58 59/59/59 51/51/51 49/49/49
f 59/59/59 60/60/60 45/45/45 51/51/51
f 60/60/60 61/61/61 20/20/20 45/45/45
f 11/12/12 12/11/11 20/20/20 61/61/61
f 62/62/62 58/58/58 57/57/57 63/63/63
f 27/27/27 11/12/12 61/61/61 64/64/64
f 27/27/27 64/64/64 65/65/65 38/37/37
f 25/26/26 63/63/63 57/57/57 2/2/2
f 66/66/66 59/59/59 58/58/58 62/62/62
f 66/66/66 67/67/67 60/60/60 59/59/59
f 67/67/67 64/64/64 61/61/61 60/60/60
f 14/14/14 56/56/56 24/23/23 16/15/15
f 68/68/68 26/25/25 1/1/1 69/69/69
f 69/69/69 1/1/1 3/4/4 70/70/70
f 70/70/70 3/4/4 43/44/44 71/71/71
f 72/72/72 73/73/73 41/41/41 6/6/6
f 74/74/74 72/72/72 6/6/6 5/5/5
f 75/75/75 74/74/74 5/5/5 18/18/18
f 76/76/76 77/77/77 19/19/19 10/10/10
f 78/78/78 76/76/76 10/10/10 9/9/9
f 79/79/79 78/78/78 9/9/9 28/28/28
f 80/80/80 22/21/21 13/13/13 81/81/81
f 81/81/81 13/13/13 15/16/16 82/82/82
f 15/16/16 23/24/24 83/83/83 82/82/82
f 84/84/84 33/33/33 26/25/25 68/68/68
f 85/85/85 65/65/65 64/64/64 67/67/67
f 86/86/86 79/79/79 28/28/28 37/38/38
f 7/8/8 8/7/7 42/42/42 54/53/53
f 52/52/52 46/46/46 88/87/87 87/88/88
f 89/89/89 90/90/90 92/91/91 91/92/92
f 91/92/92 92/91/91 83/83/83 23/24/24
f 46/46/46 19/19/19 77/77/77 88/87/87
f 93/93/93 75/75/75 18/18/18 29/30/30
f 94/94/94 32/32/32 22/21/21 80/80/80
f 95/95/95 91/92/92 23/24/24 24/23/23
f 96/96/96 89/89/89 91/92/92 95/95/95
f 89/89/89 96/96/96 47/47/47 48/48/48
f 54/53/53 97/97/97 98/98/98 53/54/54
f 97/97/97 99/99/99 100/100/100 98/98/98
f 99/99/99 101/101/101 102/102/102 100/100/100
f 101/101/101 56/56/56 55/55/55 102/102/102
f 63/63/63 103/103/103 104/104/104 62/62/62
f 103/103/103 105/105/105 106/106/106 104/104/104
f 105/105/105 107/107/107 108/108/108 106/106/106
f 107/107/107 53/54/54 98/98/98 108/108/108
f 42/42/42 47/47/47 97/97/97 54/53/53
f 65/65/65 109/109/109 40/39/39 38/37/37
f 109/109/109 110/110/110 31/31/31 40/39/39
f 110/110/110 55/55/55 21/22/22 31/31/31
f 30/29/29 17/17/17 53/54/54 107/107/107
f 98/98/98 100/100/100 111/111/111 108/108/108
f 100/100/100 102/102/102 112/112/112 111/111/111
f 102/102/102 55/55/55 110/110/110 112/112/112
f 95/95/95 24/23/23 56/56/56 101/101/101
f 25/26/26 34/34/34 103/103/103 63/63/63
f 104/104/104 113/113/113 66/66/66 62/62/62
f 113/113/113 85/85/85 67/67/67 66/66/66
f 93/93/93 29/30/30 36/36/36 114/114/114
f 35/35/35 30/29/29 107/107/107 105/105/105
f 108/108/108 111/111/111 115/115/115 106/106/106
f 111/111/111 112/112/112 116/116/116 115/115/115
f 112/112/112 110/110/110 109/109/109 116/116/116
f 94/94/94 117/117/117 39/40/40 32/32/32
f 114/114/114 36/36/36 33/33/33 84/84/84
f 34/34/34 35/35/35 105/105/105 103/103/103
f 106/106/106 115/115/115 113/113/113 104/104/104
f 115/115/115 116/116/116 85/85/85 113/113/113
f 116/116/116 109/109/109 65/65/65 85/85/85
f 117/117/117 86/86/86 37/38/38 39/40/40
f 71/71/71 43/44/44 50/50/50 118/118/118
f 48/48/48 41/41/41 73/73/73 119/119/119
f 96/96/96 95/95/95 101/101/101 99/99/99
f 118/118/118 50/50/50 52/52/52 87/88/88
f 89/89/89 48/48/48 119/119/119 90/90/90
f 47/47/47 96/96/96 99/99/99 97/97/97
