# RightStickClick
# Sony PlayStation DualShock 3 by 3doverstock, CGTrader Royalty Free License
o RightStickClick
v 24.2974 -28.7864 -20.6944
v 26.5657 -28.7864 -20.1354
v 21.9613 -28.7864 -20.6944
v 19.6930 -28.7864 -20.1354
v 17.6244 -28.7864 -19.0497
v 15.8757 -28.7864 -17.5005
v 14.5486 -28.7864 -15.5778
v 13.7202 -28.7864 -13.3935
v 13.4386 -28.7864 -11.0743
v 13.7202 -28.7864 -8.7552
v 14.5486 -28.7864 -6.5708
v 15.8757 -28.7864 -4.6481
v 17.6244 -28.7864 -3.0989
v 19.6930 -28.7864 -2.0133
v 21.9613 -28.7864 -1.4542
v 24.2974 -28.7864 -1.4542
v 26.5657 -28.7864 -2.0133
v 28.6343 -28.7864 -3.0989
v 30.3830 -28.7864 -4.6481
v 31.7101 -28.7864 -6.5708
v 32.5385 -28.7864 -8.7552
v 32.8201 -28.7864 -11.0743
v 32.5385 -28.7864 -13.3935
v 31.7101 -28.7864 -15.5778
v 30.3830 -28.7864 -17.5005
v 28.6343 -28.7864 -19.0497
v 23.7039 -26.3881 -15.8063
v 24.8197 -26.3881 -15.5313
v 26.3895 -28.2486 -19.6707
v 24.2375 -28.2486 -20.2011
v 22.5548 -26.3881 -15.8063
v 22.0212 -28.2486 -20.2011
v 21.4390 -26.3881 -15.5313
v 19.8692 -28.2486 -19.6707
v 20.4215 -26.3881 -14.9973
v 17.9067 -28.2486 -18.6407
v 19.5614 -26.3881 -14.2352
v 16.2477 -28.2486 -17.1710
v 18.9086 -26.3881 -13.2895
v 14.9886 -28.2486 -15.3469
v 18.5011 -26.3881 -12.2151
v 14.2027 -28.2486 -13.2745
v 18.3626 -26.3881 -11.0743
v 13.9355 -28.2486 -11.0743
v 18.5011 -26.3881 -9.9336
v 14.2027 -28.2486 -8.8741
v 18.9086 -26.3881 -8.8591
v 14.9886 -28.2486 -6.8017
v 19.5614 -26.3881 -7.9134
v 16.2477 -28.2486 -4.9777
v 20.4215 -26.3881 -7.1514
v 17.9067 -28.2486 -3.5079
v 21.4390 -26.3881 -6.6173
v 19.8692 -28.2486 -2.4779
v 22.5548 -26.3881 -6.3423
v 22.0212 -28.2486 -1.9475
v 23.7039 -26.3881 -6.3423
v 24.2375 -28.2486 -1.9475
v 24.8197 -26.3881 -6.6173
v 26.3895 -28.2486 -2.4779
v 25.8372 -26.3881 -7.1514
v 28.3521 -28.2486 -3.5079
v 26.6973 -26.3881 -7.9134
v 30.0110 -28.2486 -4.9777
v 27.3501 -26.3881 -8.8591
v 31.2701 -28.2486 -6.8017
v 27.7576 -26.3881 -9.9336
v 32.0560 -28.2486 -8.8741
v 27.8961 -26.3881 -11.0743
v 32.3232 -28.2486 -11.0743
v 27.7576 -26.3881 -12.2151
v 32.0560 -28.2486 -13.2745
v 27.3501 -26.3881 -13.2895
v 31.2701 -28.2486 -15.3469
v 26.6973 -26.3881 -14.2352
v 30.0110 -28.2486 -17.1710
v 25.8372 -26.3881 -14.9973
v 28.3520 -28.2486 -18.6407
v 33.0656 -18.7508 -13.5234
v 33.3630 -18.7508 -11.0743
v 32.1908 -18.7508 -15.8301
v 30.7893 -18.7508 -17.8605
v 28.9427 -18.7508 -19.4964
v 26.7582 -18.7508 -20.6429
v 24.3629 -18.7508 -21.2333
v 21.8958 -18.7508 -21.2333
v 19.5005 -18.7508 -20.6429
v 17.3160 -18.7508 -19.4964
v 15.4694 -18.7508 -17.8605
v 14.0679 -18.7508 -15.8301
v 13.1931 -18.7508 -13.5234
v 12.8957 -18.7508 -11.0743
v 13.1931 -18.7508 -8.6252
v 14.0679 -18.7508 -6.3185
v 15.4694 -18.7508 -4.2882
v 17.3160 -18.7508 -2.6522
v 19.5005 -18.7508 -1.5057
v 21.8958 -18.7508 -0.9153
v 24.3629 -18.7508 -0.9153
v 26.7582 -18.7508 -1.5057
v 28.9427 -18.7508 -2.6522
v 30.7893 -18.7508 -4.2882
v 32.1908 -18.7508 -6.3185
v 33.0656 -18.7508 -8.6252
v 30.1070 -20.5384 -11.0743
v 29.9042 -20.5384 -9.4045
v 27.7576 -21.1138 -9.9336
v 27.8961 -21.1138 -11.0743
v 29.3077 -20.5384 -7.8316
v 27.3501 -21.1138 -8.8591
v 28.3522 -20.5384 -6.4473
v 26.6973 -21.1138 -7.9134
v 27.0931 -20.5384 -5.3318
v 25.8372 -21.1138 -7.1514
v 25.6036 -20.5384 -4.5501
v 24.8197 -21.1138 -6.6173
v 23.9704 -20.5384 -4.1476
v 23.7039 -21.1138 -6.3423
v 22.2883 -20.5384 -4.1476
v 22.5548 -21.1138 -6.3423
v 20.6550 -20.5384 -4.5501
v 21.4390 -21.1138 -6.6173
v 19.1656 -20.5384 -5.3318
v 20.4215 -21.1138 -7.1514
v 17.9065 -20.5384 -6.4473
v 19.5614 -21.1138 -7.9134
v 16.9510 -20.5384 -7.8316
v 18.9086 -21.1138 -8.8591
v 16.3545 -20.5384 -9.4045
v 18.5011 -21.1138 -9.9336
v 16.1517 -20.5384 -11.0743
v 18.3626 -21.1138 -11.0743
v 16.3545 -20.5384 -12.7442
v 18.5011 -21.1138 -12.2151
v 16.9510 -20.5384 -14.3170
v 18.9086 -21.1138 -13.2895
v 17.9065 -20.5384 -15.7013
v 19.5614 -21.1138 -14.2352
v 19.1656 -20.5384 -16.8168
v 20.4215 -21.1138 -14.9973
v 20.6551 -20.5384 -17.5985
v 21.4390 -21.1138 -15.5313
v 22.2883 -20.5384 -18.0011
v 22.5548 -21.1138 -15.8063
v 23.9704 -20.5384 -18.0011
v 23.7039 -21.1138 -15.8063
v 25.6036 -20.5384 -17.5985
v 24.8197 -21.1138 -15.5313
v 27.0931 -20.5384 -16.8168
v 25.8372 -21.1138 -14.9973
v 28.3522 -20.5384 -15.7013
v 26.6973 -21.1138 -14.2352
v 29.3077 -20.5384 -14.3170
v 27.3501 -21.1138 -13.2895
v 29.9042 -20.5384 -12.7442
v 27.7576 -21.1138 -12.2151
v 30.2141 -28.3626 -4.7978
v 31.5103 -28.3626 -6.6757
v 28.5062 -28.3626 -3.2847
v 26.4857 -28.3626 -2.2243
v 24.2702 -28.3626 -1.6782
v 21.9885 -28.3626 -1.6782
v 19.7730 -28.3626 -2.2243
v 17.7526 -28.3626 -3.2847
v 16.0446 -28.3626 -4.7978
v 14.7484 -28.3626 -6.6757
v 13.9393 -28.3626 -8.8092
v 13.6642 -28.3626 -11.0743
v 13.9393 -28.3626 -13.3395
v 14.7484 -28.3626 -15.4730
v 16.0446 -28.3626 -17.3509
v 17.7526 -28.3626 -18.8639
v 19.7730 -28.3626 -19.9243
v 21.9885 -28.3626 -20.4704
v 24.2702 -28.3626 -20.4704
v 26.4857 -28.3626 -19.9243
v 28.5062 -28.3626 -18.8639
v 30.2141 -28.3626 -17.3509
v 31.5103 -28.3626 -15.4730
v 32.3194 -28.3626 -13.3395
v 32.5945 -28.3626 -11.0743
v 32.3194 -28.3626 -8.8092
v 34.4391 -17.3064 -8.2867
v 33.4433 -17.3064 -5.6611
v 31.8482 -17.3064 -3.3501
v 29.7463 -17.3064 -1.4880
v 27.2599 -17.3064 -0.1830
v 24.5334 -17.3064 0.4890
v 21.7253 -17.3064 0.4890
v 18.9988 -17.3064 -0.1830
v 16.5124 -17.3064 -1.4880
v 14.4105 -17.3064 -3.3501
v 12.8154 -17.3064 -5.6611
v 11.8196 -17.3064 -8.2867
v 11.4811 -17.3064 -11.0743
v 11.8196 -17.3064 -13.8619
v 12.8154 -17.3064 -16.4875
v 14.4105 -17.3064 -18.7985
v 16.5124 -17.3064 -20.6606
v 18.9988 -17.3064 -21.9656
v 21.7253 -17.3064 -22.6376
v 24.5334 -17.3064 -22.6376
v 27.2599 -17.3064 -21.9656
v 29.7463 -17.3064 -20.6606
v 31.8482 -17.3064 -18.7985
v 33.4433 -17.3064 -16.4875
v 34.4391 -17.3064 -13.8619
v 34.7776 -17.3064 -11.0743
v 14.5915 -19.7448 -8.9699
v 15.3432 -19.7448 -6.9878
v 16.5474 -19.7448 -5.2432
v 18.1342 -19.7448 -3.8375
v 20.0112 -19.7448 -2.8524
v 22.0694 -19.7448 -2.3451
v 24.1893 -19.7448 -2.3451
v 26.2475 -19.7448 -2.8524
v 28.1245 -19.7448 -3.8375
v 29.7113 -19.7448 -5.2432
v 30.9155 -19.7448 -6.9878
v 31.6672 -19.7448 -8.9699
v 31.9227 -19.7448 -11.0743
v 31.6672 -19.7448 -13.1787
v 30.9155 -19.7448 -15.1608
v 29.7113 -19.7448 -16.9054
v 28.1245 -19.7448 -18.3111
v 26.2475 -19.7448 -19.2962
v 24.1893 -19.7448 -19.8036
v 22.0694 -19.7448 -19.8036
v 20.0112 -19.7448 -19.2962
v 18.1342 -19.7448 -18.3111
v 16.5474 -19.7448 -16.9054
v 15.3432 -19.7448 -15.1608
v 14.5915 -19.7448 -13.1787
v 14.3360 -19.7448 -11.0743
vt 0.950041 0.889824
vt 0.959093 0.892055
vt 0.940718 0.889824
vt 0.931666 0.892055
vt 0.923411 0.896388
vt 0.916433 0.902570
vt 0.911137 0.910242
vt 0.907831 0.918959
vt 0.906707 0.928214
vt 0.907831 0.937469
vt 0.911137 0.946186
vt 0.916433 0.953858
vt 0.923411 0.960041
vt 0.931666 0.964373
vt 0.940718 0.966604
vt 0.950041 0.966604
vt 0.959093 0.964373
vt 0.967348 0.960041
vt 0.974326 0.953858
vt 0.979622 0.946186
vt 0.982928 0.937469
vt 0.984051 0.928214
vt 0.982928 0.918959
vt 0.979622 0.910242
vt 0.974326 0.902570
vt 0.967348 0.896388
vt 0.332988 0.792099
vt 0.337440 0.791001
vt 0.958390 0.893909
vt 0.949802 0.891793
vt 0.328402 0.792099
vt 0.940957 0.891793
vt 0.323950 0.791001
vt 0.932369 0.893909
vt 0.319890 0.788870
vt 0.924538 0.898020
vt 0.316457 0.785829
vt 0.917917 0.903885
vt 0.313852 0.782055
vt 0.912893 0.911164
vt 0.312226 0.777767
vt 0.909757 0.919434
vt 0.294007 0.773215
vt 0.311673 0.773215
vt 0.312226 0.768663
vt 0.909757 0.936994
vt 0.313852 0.764375
vt 0.912893 0.945264
vt 0.316457 0.760601
vt 0.917917 0.952543
vt 0.319890 0.757560
vt 0.924538 0.958409
vt 0.323950 0.755429
vt 0.932369 0.962519
vt 0.328402 0.754332
vt 0.940957 0.964635
vt 0.332988 0.754332
vt 0.949802 0.964635
vt 0.337440 0.755429
vt 0.958390 0.962519
vt 0.341501 0.757560
vt 0.966221 0.958409
vt 0.344933 0.760601
vt 0.972841 0.952543
vt 0.347538 0.764375
vt 0.977866 0.945264
vt 0.349165 0.768663
vt 0.981002 0.936994
vt 0.349717 0.773215
vt 0.982068 0.928214
vt 0.349165 0.777767
vt 0.981002 0.919434
vt 0.347538 0.782055
vt 0.977866 0.911164
vt 0.344933 0.785829
vt 0.972841 0.903885
vt 0.341501 0.788870
vt 0.966221 0.898020
vt 0.461430 0.463778
vt 0.462616 0.473551
vt 0.456869 0.473551
vt 0.455849 0.465153
vt 0.457939 0.454572
vt 0.452850 0.457243
vt 0.452346 0.446470
vt 0.448044 0.450281
vt 0.444977 0.439942
vt 0.441712 0.444672
vt 0.436260 0.435367
vt 0.434222 0.440741
vt 0.426701 0.433010
vt 0.426008 0.438716
vt 0.416856 0.433010
vt 0.417549 0.438716
vt 0.407297 0.435367
vt 0.409335 0.440741
vt 0.398580 0.439942
vt 0.401845 0.444672
vt 0.391211 0.446470
vt 0.395513 0.450281
vt 0.385618 0.454572
vt 0.390707 0.457243
vt 0.382127 0.463778
vt 0.387707 0.465153
vt 0.386688 0.473551
vt 0.380940 0.473551
vt 0.382127 0.483324
vt 0.387707 0.481949
vt 0.385618 0.492529
vt 0.390707 0.489858
vt 0.391211 0.500632
vt 0.395513 0.496820
vt 0.398580 0.507160
vt 0.401845 0.502430
vt 0.407297 0.511735
vt 0.409335 0.506361
vt 0.416856 0.514091
vt 0.417549 0.508386
vt 0.426701 0.514091
vt 0.426008 0.508386
vt 0.436260 0.511735
vt 0.434222 0.506361
vt 0.444977 0.507160
vt 0.441712 0.502430
vt 0.452346 0.500632
vt 0.448044 0.496820
vt 0.457939 0.492529
vt 0.452850 0.489858
vt 0.461430 0.483324
vt 0.455849 0.481949
vt 0.449623 0.473551
vt 0.448814 0.480215
vt 0.440248 0.478103
vt 0.440800 0.473551
vt 0.446434 0.486491
vt 0.438622 0.482391
vt 0.442621 0.492015
vt 0.436017 0.486165
vt 0.437596 0.496467
vt 0.432584 0.489206
vt 0.431652 0.499586
vt 0.428524 0.491337
vt 0.425135 0.501193
vt 0.424071 0.492434
vt 0.418422 0.501193
vt 0.419486 0.492434
vt 0.411904 0.499586
vt 0.415033 0.491337
vt 0.405961 0.496467
vt 0.410973 0.489206
vt 0.400936 0.492015
vt 0.407540 0.486165
vt 0.397123 0.486491
vt 0.404935 0.482391
vt 0.394743 0.480215
vt 0.403309 0.478103
vt 0.393934 0.473551
vt 0.402756 0.473551
vt 0.394743 0.466887
vt 0.403309 0.468999
vt 0.397123 0.460611
vt 0.404935 0.464711
vt 0.400936 0.455086
vt 0.407540 0.460937
vt 0.405961 0.450635
vt 0.410973 0.457896
vt 0.411904 0.447516
vt 0.415033 0.455765
vt 0.418422 0.445909
vt 0.419486 0.454667
vt 0.425135 0.445909
vt 0.424071 0.454667
vt 0.431652 0.447516
vt 0.428524 0.455765
vt 0.437596 0.450635
vt 0.432584 0.457896
vt 0.442621 0.455086
vt 0.436017 0.460937
vt 0.446434 0.460611
vt 0.438622 0.464711
vt 0.448814 0.466887
vt 0.440248 0.468999
vt 0.973652 0.953261
vt 0.978824 0.945767
vt 0.966836 0.959300
vt 0.958773 0.963531
vt 0.949932 0.965710
vt 0.940827 0.965710
vt 0.931986 0.963531
vt 0.923923 0.959300
vt 0.917107 0.953261
vt 0.911934 0.945767
vt 0.908705 0.937253
vt 0.907608 0.928214
vt 0.908705 0.919175
vt 0.911934 0.910661
vt 0.917107 0.903167
vt 0.923923 0.897129
vt 0.931986 0.892897
vt 0.940827 0.890718
vt 0.949932 0.890718
vt 0.958773 0.892897
vt 0.966836 0.897129
vt 0.973652 0.903167
vt 0.978824 0.910661
vt 0.982053 0.919175
vt 0.983151 0.928214
vt 0.982053 0.937253
vt 0.208463 0.760198
vt 0.206856 0.760198
vt 0.206856 0.780379
vt 0.208463 0.780379
vt 0.204281 0.760198
vt 0.204281 0.780379
vt 0.200889 0.760198
vt 0.200889 0.780379
vt 0.196877 0.760198
vt 0.196877 0.780379
vt 0.192477 0.760198
vt 0.192477 0.780379
vt 0.187945 0.760198
vt 0.187945 0.780379
vt 0.183546 0.760198
vt 0.183546 0.780379
vt 0.179533 0.760198
vt 0.179533 0.780379
vt 0.176141 0.760198
vt 0.176141 0.780379
vt 0.173567 0.760198
vt 0.173567 0.780379
vt 0.171960 0.760198
vt 0.171960 0.780379
vt 0.171414 0.760198
vt 0.171414 0.780379
vt 0.171960 0.760198
vt 0.171960 0.780379
vt 0.173567 0.760198
vt 0.173567 0.780379
vt 0.176141 0.760198
vt 0.176141 0.780379
vt 0.179533 0.760198
vt 0.179533 0.780379
vt 0.183546 0.760198
vt 0.183546 0.780379
vt 0.187945 0.760198
vt 0.187945 0.780379
vt 0.192477 0.760198
vt 0.192477 0.780379
vt 0.196877 0.760198
vt 0.196877 0.780379
vt 0.200889 0.760198
vt 0.200889 0.780379
vt 0.204281 0.760198
vt 0.204281 0.780379
vt 0.206856 0.760198
vt 0.206856 0.780379
vt 0.208463 0.760198
vt 0.208463 0.780379
vt 0.209009 0.760198
vt 0.209009 0.780379
vt 0.466911 0.484675
vt 0.462937 0.495153
vt 0.456572 0.504375
vt 0.448184 0.511806
vt 0.438262 0.517013
vt 0.427381 0.519695
vt 0.416175 0.519695
vt 0.405295 0.517013
vt 0.395373 0.511806
vt 0.386985 0.504375
vt 0.380619 0.495153
vt 0.376646 0.484675
vt 0.375295 0.473551
vt 0.376646 0.462427
vt 0.380619 0.451949
vt 0.386985 0.442727
vt 0.395373 0.435296
vt 0.405295 0.430088
vt 0.416175 0.427407
vt 0.427381 0.427407
vt 0.438262 0.430088
vt 0.448184 0.435296
vt 0.456572 0.442727
vt 0.462937 0.451949
vt 0.466911 0.462427
vt 0.468262 0.473551
vt 0.295073 0.781995
vt 0.908691 0.928214
vt 0.351537 0.803410
vt 0.343705 0.807520
vt 0.358157 0.797544
vt 0.363182 0.790265
vt 0.366318 0.781995
vt 0.367384 0.773215
vt 0.366318 0.764435
vt 0.363182 0.756165
vt 0.358157 0.748886
vt 0.351537 0.743021
vt 0.343705 0.738911
vt 0.335118 0.736794
vt 0.326273 0.736794
vt 0.317685 0.738911
vt 0.309854 0.743021
vt 0.303233 0.748886
vt 0.298209 0.756165
vt 0.295073 0.764435
vt 0.298209 0.790265
vt 0.303233 0.797544
vt 0.309854 0.803410
vt 0.317685 0.807520
vt 0.326273 0.809637
vt 0.335118 0.809637
vn 0.1198 0.1100 -0.9867
vn 0.3524 0.1100 -0.9293
vn -0.1198 0.1100 -0.9867
vn -0.3525 0.1100 -0.9293
vn -0.5646 0.1100 -0.8180
vn -0.7440 0.1100 -0.6591
vn -0.8801 0.1100 -0.4619
vn -0.9650 0.1100 -0.2379
vn -0.9939 0.1100 -0.0000
vn -0.9651 0.1100 0.2379
vn -0.8801 0.1100 0.4619
vn -0.7440 0.1100 0.6591
vn -0.5646 0.1100 0.8180
vn -0.3525 0.1100 0.9293
vn -0.1198 0.1100 0.9867
vn 0.1198 0.1100 0.9867
vn 0.3524 0.1100 0.9293
vn 0.5646 0.1100 0.8180
vn 0.7440 0.1100 0.6591
vn 0.8801 0.1100 0.4619
vn 0.9650 0.1100 0.2379
vn 0.9939 0.1100 -0.0000
vn 0.9650 0.1100 -0.2379
vn 0.8801 0.1100 -0.4619
vn 0.7440 0.1100 -0.6591
vn 0.5646 0.1100 -0.8180
vn 0.0467 0.9219 -0.3846
vn 0.1374 0.9219 -0.3623
vn 0.1374 0.9219 -0.3623
vn 0.0467 0.9219 -0.3846
vn -0.0467 0.9219 -0.3846
vn -0.0467 0.9219 -0.3846
vn -0.1374 0.9219 -0.3623
vn -0.1374 0.9219 -0.3623
vn -0.2201 0.9219 -0.3189
vn -0.2201 0.9219 -0.3189
vn -0.2900 0.9219 -0.2569
vn -0.2900 0.9219 -0.2569
vn -0.3431 0.9219 -0.1800
vn -0.3431 0.9219 -0.1801
vn -0.3762 0.9219 -0.0927
vn -0.3762 0.9219 -0.0927
vn -0.3874 0.9219 -0.0000
vn -0.3874 0.9219 -0.0000
vn -0.3762 0.9219 0.0927
vn -0.3762 0.9219 0.0927
vn -0.3431 0.9219 0.1800
vn -0.3431 0.9219 0.1801
vn -0.2900 0.9219 0.2569
vn -0.2900 0.9219 0.2569
vn -0.2201 0.9219 0.3189
vn -0.2201 0.9219 0.3189
vn -0.1374 0.9219 0.3623
vn -0.1374 0.9219 0.3623
vn -0.0467 0.9219 0.3846
vn -0.0467 0.9219 0.3846
vn 0.0467 0.9219 0.3846
vn 0.0467 0.9219 0.3846
vn 0.1374 0.9219 0.3623
vn 0.1374 0.9219 0.3623
vn 0.2201 0.9219 0.3189
vn 0.2201 0.9219 0.3189
vn 0.2900 0.9219 0.2569
vn 0.2900 0.9219 0.2569
vn 0.3431 0.9219 0.1800
vn 0.3431 0.9219 0.1801
vn 0.3762 0.9219 0.0927
vn 0.3762 0.9219 0.0927
vn 0.3874 0.9219 0.0000
vn 0.3874 0.9219 0.0000
vn 0.3762 0.9219 -0.0927
vn 0.3762 0.9219 -0.0927
vn 0.3431 0.9219 -0.1800
vn 0.3431 0.9219 -0.1801
vn 0.2900 0.9219 -0.2569
vn 0.2900 0.9219 -0.2569
vn 0.2201 0.9219 -0.3189
vn 0.2201 0.9219 -0.3189
vn 0.6254 -0.7649 -0.1542
vn 0.6441 -0.7649 -0.0000
vn 0.4864 -0.8737 0.0000
vn 0.4723 -0.8737 -0.1164
vn 0.5704 -0.7649 -0.2993
vn 0.4307 -0.8737 -0.2261
vn 0.4821 -0.7649 -0.4271
vn 0.3641 -0.8737 -0.3226
vn 0.3659 -0.7649 -0.5301
vn 0.2763 -0.8737 -0.4003
vn 0.2284 -0.7649 -0.6023
vn 0.1725 -0.8737 -0.4548
vn 0.0776 -0.7649 -0.6394
vn 0.0586 -0.8737 -0.4829
vn -0.0776 -0.7649 -0.6394
vn -0.0586 -0.8737 -0.4829
vn -0.2284 -0.7649 -0.6023
vn -0.1725 -0.8737 -0.4548
vn -0.3659 -0.7649 -0.5301
vn -0.2763 -0.8737 -0.4003
vn -0.4821 -0.7649 -0.4271
vn -0.3641 -0.8737 -0.3226
vn -0.5704 -0.7649 -0.2993
vn -0.4307 -0.8737 -0.2261
vn -0.6254 -0.7649 -0.1542
vn -0.4723 -0.8737 -0.1164
vn -0.4864 -0.8737 0.0000
vn -0.6441 -0.7649 -0.0000
vn -0.6254 -0.7649 0.1542
vn -0.4723 -0.8737 0.1164
vn -0.5704 -0.7649 0.2993
vn -0.4307 -0.8737 0.2261
vn -0.4821 -0.7649 0.4271
vn -0.3641 -0.8737 0.3226
vn -0.3659 -0.7649 0.5301
vn -0.2763 -0.8737 0.4003
vn -0.2284 -0.7649 0.6023
vn -0.1725 -0.8737 0.4548
vn -0.0776 -0.7649 0.6394
vn -0.0586 -0.8737 0.4829
vn 0.0776 -0.7649 0.6394
vn 0.0586 -0.8737 0.4829
vn 0.2284 -0.7649 0.6023
vn 0.1725 -0.8737 0.4548
vn 0.3659 -0.7649 0.5301
vn 0.2763 -0.8737 0.4003
vn 0.4821 -0.7649 0.4271
vn 0.3641 -0.8737 0.3226
vn 0.5704 -0.7649 0.2993
vn 0.4307 -0.8737 0.2261
vn 0.6254 -0.7649 0.1542
vn 0.4723 -0.8737 0.1164
vn 0.3272 -0.9450 0.0000
vn 0.3177 -0.9450 0.0783
vn 0.2445 -0.9678 0.0603
vn 0.2518 -0.9678 -0.0000
vn 0.2897 -0.9450 0.1520
vn 0.2230 -0.9678 0.1170
vn 0.2449 -0.9450 0.2169
vn 0.1885 -0.9678 0.1670
vn 0.1858 -0.9450 0.2692
vn 0.1431 -0.9678 0.2073
vn 0.1160 -0.9450 0.3059
vn 0.0893 -0.9678 0.2355
vn 0.0394 -0.9450 0.3248
vn 0.0304 -0.9678 0.2500
vn -0.0394 -0.9450 0.3248
vn -0.0304 -0.9678 0.2500
vn -0.1160 -0.9450 0.3059
vn -0.0893 -0.9678 0.2355
vn -0.1858 -0.9450 0.2692
vn -0.1431 -0.9678 0.2073
vn -0.2449 -0.9450 0.2169
vn -0.1885 -0.9678 0.1670
vn -0.2897 -0.9450 0.1520
vn -0.2230 -0.9678 0.1170
vn -0.3177 -0.9450 0.0783
vn -0.2445 -0.9678 0.0603
vn -0.3272 -0.9450 -0.0000
vn -0.2518 -0.9678 -0.0000
vn -0.3177 -0.9450 -0.0783
vn -0.2445 -0.9678 -0.0603
vn -0.2897 -0.9450 -0.1520
vn -0.2230 -0.9678 -0.1170
vn -0.2449 -0.9450 -0.2169
vn -0.1885 -0.9678 -0.1670
vn -0.1858 -0.9450 -0.2692
vn -0.1431 -0.9678 -0.2073
vn -0.1160 -0.9450 -0.3059
vn -0.0893 -0.9678 -0.2355
vn -0.0394 -0.9450 -0.3248
vn -0.0304 -0.9678 -0.2500
vn 0.0394 -0.9450 -0.3248
vn 0.0304 -0.9678 -0.2500
vn 0.1160 -0.9450 -0.3059
vn 0.0893 -0.9678 -0.2355
vn 0.1858 -0.9450 -0.2692
vn 0.1431 -0.9678 -0.2073
vn 0.2449 -0.9450 -0.2169
vn 0.1885 -0.9678 -0.1670
vn 0.2897 -0.9450 -0.1520
vn 0.2230 -0.9678 -0.1170
vn 0.3177 -0.9450 -0.0783
vn 0.2445 -0.9678 -0.0603
vn 0.5041 0.7392 0.4466
vn 0.5963 0.7392 0.3130
vn 0.3826 0.7392 0.5542
vn 0.2388 0.7392 0.6297
vn 0.0812 0.7392 0.6685
vn -0.0812 0.7392 0.6685
vn -0.2388 0.7392 0.6297
vn -0.3826 0.7392 0.5542
vn -0.5041 0.7392 0.4466
vn -0.5963 0.7392 0.3130
vn -0.6539 0.7392 0.1612
vn -0.6734 0.7392 -0.0000
vn -0.6539 0.7392 -0.1612
vn -0.5963 0.7392 -0.3130
vn -0.5041 0.7392 -0.4466
vn -0.3826 0.7392 -0.5542
vn -0.2388 0.7392 -0.6297
vn -0.0812 0.7392 -0.6685
vn 0.0812 0.7392 -0.6685
vn 0.2388 0.7392 -0.6297
vn 0.3826 0.7392 -0.5542
vn 0.5041 0.7392 -0.4466
vn 0.5963 0.7392 -0.3130
vn 0.6539 0.7392 -0.1612
vn 0.6734 0.7392 0.0000
vn 0.6539 0.7392 0.1612
vn 0.9709 -0.0000 0.2393
vn 0.8855 -0.0000 0.4647
vn 0.8855 -0.0000 0.4647
vn 0.9709 -0.0000 0.2393
vn 0.7485 -0.0000 0.6631
vn 0.7485 -0.0000 0.6631
vn 0.5681 -0.0000 0.8230
vn 0.5681 -0.0000 0.8230
vn 0.3546 -0.0000 0.9350
vn 0.3546 -0.0000 0.9350
vn 0.1205 -0.0000 0.9927
vn 0.1205 -0.0000 0.9927
vn -0.1205 -0.0000 0.9927
vn -0.1205 -0.0000 0.9927
vn -0.3546 -0.0000 0.9350
vn -0.3546 -0.0000 0.9350
vn -0.5681 -0.0000 0.8230
vn -0.5681 -0.0000 0.8230
vn -0.7485 -0.0000 0.6631
vn -0.7485 -0.0000 0.6631
vn -0.8855 -0.0000 0.4647
vn -0.8855 -0.0000 0.4647
vn -0.9709 -0.0000 0.2393
vn -0.9709 -0.0000 0.2393
vn -1.0000 -0.0000 0.0000
vn -1.0000 -0.0000 0.0000
vn -0.9709 -0.0000 -0.2393
vn -0.9709 -0.0000 -0.2393
vn -0.8855 -0.0000 -0.4647
vn -0.8855 -0.0000 -0.4647
vn -0.7485 -0.0000 -0.6631
vn -0.7485 -0.0000 -0.6631
vn -0.5681 -0.0000 -0.8230
vn -0.5681 -0.0000 -0.8230
vn -0.3546 -0.0000 -0.9350
vn -0.3546 -0.0000 -0.9350
vn -0.1205 -0.0000 -0.9927
vn -0.1205 -0.0000 -0.9927
vn 0.1205 -0.0000 -0.9927
vn 0.1205 -0.0000 -0.9927
vn 0.3546 -0.0000 -0.9350
vn 0.3546 -0.0000 -0.9350
vn 0.5681 -0.0000 -0.8230
vn 0.5681 -0.0000 -0.8230
vn 0.7485 -0.0000 -0.6631
vn 0.7485 -0.0000 -0.6631
vn 0.8855 -0.0000 -0.4647
vn 0.8855 -0.0000 -0.4647
vn 0.9709 -0.0000 -0.2393
vn 0.9709 -0.0000 -0.2393
vn 1.0000 -0.0000 0.0000
vn 1.0000 -0.0000 0.0000
vn 0.6937 -0.6997 0.1710
vn 0.6326 -0.6997 0.3320
vn 0.5348 -0.6997 0.4738
vn 0.4058 -0.6997 0.5880
vn 0.2533 -0.6997 0.6680
vn 0.0861 -0.6997 0.7092
vn -0.0861 -0.6997 0.7092
vn -0.2533 -0.6997 0.6680
vn -0.4058 -0.6997 0.5880
vn -0.5348 -0.6997 0.4738
vn -0.6326 -0.6997 0.3320
vn -0.6937 -0.6997 0.1710
vn -0.7144 -0.6997 -0.0000
vn -0.6937 -0.6997 -0.1710
vn -0.6326 -0.6997 -0.3320
vn -0.5348 -0.6997 -0.4738
vn -0.4058 -0.6997 -0.5880
vn -0.2533 -0.6997 -0.6680
vn -0.0861 -0.6997 -0.7092
vn 0.0861 -0.6997 -0.7092
vn 0.2533 -0.6997 -0.6680
vn 0.4058 -0.6997 -0.5880
vn 0.5348 -0.6997 -0.4738
vn 0.6326 -0.6997 -0.3320
vn 0.6937 -0.6997 -0.1710
vn 0.7144 -0.6997 -0.0000
f 27/27/27 28/28/28 29/290/29 30/312/30
f 31/31/31 27/27/27 30/312/30 32/311/32
f 33/33/33 31/31/31 32/311/32 34/310/34
f 35/35/35 33/33/33 34/310/34 36/309/36
f 37/37/37 35/35/35 36/309/36 38/308/38
f 39/39/39 37/37/37 38/308/38 40/307/40
f 41/41/41 39/39/39 40/307/40 42/287/42
f 41/41/41 42/287/42 44/43/43 43/44/44
f 45/45/45 43/44/44 44/43/43 46/306/46
f 47/47/47 45/45/45 46/306/46 48/305/48
f 49/49/49 47/47/47 48/305/48 50/304/50
f 51/51/51 49/49/49 50/304/50 52/303/52
f 53/53/53 51/51/51 52/303/52 54/302/54
f 55/55/55 53/53/53 54/302/54 56/301/56
f 57/57/57 55/55/55 56/301/56 58/300/58
f 59/59/59 57/57/57 58/300/58 60/299/60
f 61/61/61 59/59/59 60/299/60 62/298/62
f 63/63/63 61/61/61 62/298/62 64/297/64
f 65/65/65 63/63/63 64/297/64 66/296/66
f 67/67/67 65/65/65 66/296/66 68/295/68
f 69/69/69 67/67/67 68/295/68 70/294/70
f 71/71/71 69/69/69 70/294/70 72/293/72
f 73/73/73 71/71/71 72/293/72 74/292/74
f 75/75/75 73/73/73 74/292/74 76/291/76
f 77/77/77 75/75/75 76/291/76 78/289/78
f 28/28/28 77/77/77 78/289/78 29/290/29
f 79/79/79 80/80/80 221/81/81 222/82/82
f 81/83/83 79/79/79 222/82/82 223/84/84
f 82/85/85 81/83/83 223/84/84 224/86/86
f 83/87/87 82/85/85 224/86/86 225/88/88
f 84/89/89 83/87/87 225/88/88 226/90/90
f 85/91/91 84/89/89 226/90/90 227/92/92
f 86/93/93 85/91/91 227/92/92 228/94/94
f 87/95/95 86/93/93 228/94/94 229/96/96
f 88/97/97 87/95/95 229/96/96 230/98/98
f 89/99/99 88/97/97 230/98/98 231/100/100
f 90/101/101 89/99/99 231/100/100 232/102/102
f 91/103/103 90/101/101 232/102/102 233/104/104
f 234/105/105 92/106/106 91/103/103 233/104/104
f 93/107/107 92/106/106 234/105/105 209/108/108
f 94/109/109 93/107/107 209/108/108 210/110/110
f 95/111/111 94/109/109 210/110/110 211/112/112
f 96/113/113 95/111/111 211/112/112 212/114/114
f 97/115/115 96/113/113 212/114/114 213/116/116
f 98/117/117 97/115/115 213/116/116 214/118/118
f 99/119/119 98/117/117 214/118/118 215/120/120
f 100/121/121 99/119/119 215/120/120 216/122/122
f 101/123/123 100/121/121 216/122/122 217/124/124
f 102/125/125 101/123/123 217/124/124 218/126/126
f 103/127/127 102/125/125 218/126/126 219/128/128
f 104/129/129 103/127/127 219/128/128 220/130/130
f 80/80/80 104/129/129 220/130/130 221/81/81
f 105/131/131 106/132/132 107/133/133 108/134/134
f 106/132/132 109/135/135 110/136/136 107/133/133
f 109/135/135 111/137/137 112/138/138 110/136/136
f 111/137/137 113/139/139 114/140/140 112/138/138
f 113/139/139 115/141/141 116/142/142 114/140/140
f 115/141/141 117/143/143 118/144/144 116/142/142
f 117/143/143 119/145/145 120/146/146 118/144/144
f 119/145/145 121/147/147 122/148/148 120/146/146
f 121/147/147 123/149/149 124/150/150 122/148/148
f 123/149/149 125/151/151 126/152/152 124/150/150
f 125/151/151 127/153/153 128/154/154 126/152/152
f 127/153/153 129/155/155 130/156/156 128/154/154
f 129/155/155 131/157/157 132/158/158 130/156/156
f 133/159/159 134/160/160 132/158/158 131/157/157
f 133/159/159 135/161/161 136/162/162 134/160/160
f 135/161/161 137/163/163 138/164/164 136/162/162
f 137/163/163 139/165/165 140/166/166 138/164/164
f 139/165/165 141/167/167 142/168/168 140/166/166
f 141/167/167 143/169/169 144/170/170 142/168/168
f 143/169/169 145/171/171 146/172/172 144/170/170
f 145/171/171 147/173/173 148/174/174 146/172/172
f 147/173/173 149/175/175 150/176/176 148/174/174
f 149/175/175 151/177/177 152/178/178 150/176/176
f 151/177/177 153/179/179 154/180/180 152/178/178
f 153/179/179 155/181/181 156/182/182 154/180/180
f 155/181/181 105/131/131 108/134/134 156/182/182
f 157/183/183 19/19/19 20/20/20 158/184/184
f 159/185/185 18/18/18 19/19/19 157/183/183
f 160/186/186 17/17/17 18/18/18 159/185/185
f 161/187/187 16/16/16 17/17/17 160/186/186
f 162/188/188 15/15/15 16/16/16 161/187/187
f 163/189/189 14/14/14 15/15/15 162/188/188
f 164/190/190 13/13/13 14/14/14 163/189/189
f 165/191/191 12/12/12 13/13/13 164/190/190
f 166/192/192 11/11/11 12/12/12 165/191/191
f 167/193/193 10/10/10 11/11/11 166/192/192
f 168/194/194 9/9/9 10/10/10 167/193/193
f 169/195/195 8/8/8 9/9/9 168/194/194
f 170/196/196 7/7/7 8/8/8 169/195/195
f 171/197/197 6/6/6 7/7/7 170/196/196
f 172/198/198 5/5/5 6/6/6 171/197/197
f 173/199/199 4/4/4 5/5/5 172/198/198
f 174/200/200 3/3/3 4/4/4 173/199/199
f 175/201/201 1/1/1 3/3/3 174/200/200
f 176/202/202 2/2/2 1/1/1 175/201/201
f 177/203/203 26/26/26 2/2/2 176/202/202
f 178/204/204 25/25/25 26/26/26 177/203/203
f 179/205/205 24/24/24 25/25/25 178/204/204
f 180/206/206 23/23/23 24/24/24 179/205/205
f 181/207/207 22/22/22 23/23/23 180/206/206
f 21/21/21 182/208/208 158/184/184 20/20/20
f 182/208/208 21/21/21 22/22/22 181/207/207
f 68/68/68 66/66/66 158/184/184 182/208/208
f 66/66/66 64/64/64 157/183/183 158/184/184
f 64/64/64 62/62/62 159/185/185 157/183/183
f 62/62/62 60/60/60 160/186/186 159/185/185
f 60/60/60 58/58/58 161/187/187 160/186/186
f 58/58/58 56/56/56 162/188/188 161/187/187
f 56/56/56 54/54/54 163/189/189 162/188/188
f 54/54/54 52/52/52 164/190/190 163/189/189
f 52/52/52 50/50/50 165/191/191 164/190/190
f 50/50/50 48/48/48 166/192/192 165/191/191
f 48/48/48 46/46/46 167/193/193 166/192/192
f 46/46/46 44/288/43 168/194/194 167/193/193
f 42/42/42 169/195/195 168/194/194 44/288/43
f 42/42/42 40/40/40 170/196/196 169/195/195
f 40/40/40 38/38/38 171/197/197 170/196/196
f 38/38/38 36/36/36 172/198/198 171/197/197
f 36/36/36 34/34/34 173/199/199 172/198/198
f 34/34/34 32/32/32 174/200/200 173/199/199
f 32/32/32 30/30/30 175/201/201 174/200/200
f 30/30/30 29/29/29 176/202/202 175/201/201
f 29/29/29 78/78/78 177/203/203 176/202/202
f 78/78/78 76/76/76 178/204/204 177/203/203
f 76/76/76 74/74/74 179/205/205 178/204/204
f 74/74/74 72/72/72 180/206/206 179/205/205
f 72/72/72 70/70/70 181/207/207 180/206/206
f 70/70/70 68/68/68 182/208/208 181/207/207
f 107/209/209 110/210/210 65/211/211 67/212/212
f 110/210/210 112/213/213 63/214/214 65/211/211
f 112/213/213 114/215/215 61/216/216 63/214/214
f 114/215/215 116/217/217 59/218/218 61/216/216
f 116/217/217 118/219/219 57/220/220 59/218/218
f 118/219/219 120/221/221 55/222/222 57/220/220
f 120/221/221 122/223/223 53/224/224 55/222/222
f 122/223/223 124/225/225 51/226/226 53/224/224
f 124/225/225 126/227/227 49/228/228 51/226/226
f 126/227/227 128/229/229 47/230/230 49/228/228
f 128/229/229 130/231/231 45/232/232 47/230/230
f 130/231/231 132/233/233 43/234/234 45/232/232
f 134/235/235 41/236/236 43/234/234 132/233/233
f 134/235/235 136/237/237 39/238/238 41/236/236
f 136/237/237 138/239/239 37/240/240 39/238/238
f 138/239/239 140/241/241 35/242/242 37/240/240
f 140/241/241 142/243/243 33/244/244 35/242/242
f 142/243/243 144/245/245 31/246/246 33/244/244
f 144/245/245 146/247/247 27/248/248 31/246/246
f 146/247/247 148/249/249 28/250/250 27/248/248
f 148/249/249 150/251/251 77/252/252 28/250/250
f 150/251/251 152/253/253 75/254/254 77/252/252
f 152/253/253 154/255/255 73/256/256 75/254/254
f 154/255/255 156/257/257 71/258/258 73/256/256
f 156/257/257 108/259/259 69/260/260 71/258/258
f 108/259/259 107/209/209 67/212/212 69/260/260
f 183/261/261 184/262/262 103/127/127 104/129/129
f 184/262/262 185/263/263 102/125/125 103/127/127
f 185/263/263 186/264/264 101/123/123 102/125/125
f 186/264/264 187/265/265 100/121/121 101/123/123
f 187/265/265 188/266/266 99/119/119 100/121/121
f 188/266/266 189/267/267 98/117/117 99/119/119
f 189/267/267 190/268/268 97/115/115 98/117/117
f 190/268/268 191/269/269 96/113/113 97/115/115
f 191/269/269 192/270/270 95/111/111 96/113/113
f 192/270/270 193/271/271 94/109/109 95/111/111
f 193/271/271 194/272/272 93/107/107 94/109/109
f 194/272/272 195/273/273 92/106/106 93/107/107
f 196/274/274 91/103/103 92/106/106 195/273/273
f 196/274/274 197/275/275 90/101/101 91/103/103
f 197/275/275 198/276/276 89/99/99 90/101/101
f 198/276/276 199/277/277 88/97/97 89/99/99
f 199/277/277 200/278/278 87/95/95 88/97/97
f 200/278/278 201/279/279 86/93/93 87/95/95
f 201/279/279 202/280/280 85/91/91 86/93/93
f 202/280/280 203/281/281 84/89/89 85/91/91
f 203/281/281 204/282/282 83/87/87 84/89/89
f 204/282/282 205/283/283 82/85/85 83/87/87
f 205/283/283 206/284/284 81/83/83 82/85/85
f 206/284/284 207/285/285 79/79/79 81/83/83
f 207/285/285 208/286/286 80/80/80 79/79/79
f 208/286/286 183/261/261 104/129/129 80/80/80
f 210/110/110 209/108/108 129/155/155 127/153/153
f 211/112/112 210/110/110 127/153/153 125/151/151
f 212/114/114 211/112/112 125/151/151 123/149/149
f 213/116/116 212/114/114 123/149/149 121/147/147
f 214/118/118 213/116/116 121/147/147 119/145/145
f 215/120/120 214/118/118 119/145/145 117/143/143
f 216/122/122 215/120/120 117/143/143 115/141/141
f 217/124/124 216/122/122 115/141/141 113/139/139
f 218/126/126 217/124/124 113/139/139 111/137/137
f 219/128/128 218/126/126 111/137/137 109/135/135
f 106/132/132 220/130/130 219/128/128 109/135/135
f 221/81/81 220/130/130 106/132/132 105/131/131
f 222/82/82 221/81/81 105/131/131 155/181/181
f 223/84/84 222/82/82 155/181/181 153/179/179
f 224/86/86 223/84/84 153/179/179 151/177/177
f 225/88/88 224/86/86 151/177/177 149/175/175
f 226/90/90 225/88/88 149/175/175 147/173/173
f 227/92/92 226/90/90 147/173/173 145/171/171
f 228/94/94 227/92/92 145/171/171 143/169/169
f 229/96/96 228/94/94 143/169/169 141/167/167
f 230/98/98 229/96/96 141/167/167 139/165/165
f 231/100/100 230/98/98 139/165/165 137/163/163
f 232/102/102 231/100/100 137/163/163 135/161/161
f 233/104/104 232/102/102 135/161/161 133/159/159
f 234/105/105 233/104/104 133/159/159 131/157/157
f 209/108/108 234/105/105 131/157/157 129/155/155
