# Shoulder-Right-Trigger
# Sony PlayStation DualShock 3 by 3doverstock, CGTrader Royalty Free License
o Shoulder-Right-Trigger
v 53.8455 17.4258 41.2791
v 53.8408 17.7617 41.7195
v 54.5950 16.7426 41.1014
v 54.5891 17.0817 41.5337
v 37.3927 17.0817 41.5337
v 37.3867 16.7409 41.1004
v 36.8605 16.2038 41.3920
v 36.8525 15.9243 41.0388
v 38.1363 17.4279 41.2808
v 38.1410 17.7621 41.7201
v 42.0272 19.1217 42.1433
v 42.0251 18.7961 41.7239
v 46.1186 19.1401 41.8044
v 46.1186 19.4624 42.2153
v 50.3122 19.0357 42.1178
v 50.3145 18.7097 41.6985
v 54.6916 11.0601 31.9489
v 53.9364 11.5384 31.8101
v 54.6753 12.4627 34.2952
v 53.9217 12.9179 34.1149
v 55.2454 10.2995 32.1697
v 55.2270 11.7724 34.5577
v 55.4493 9.4589 32.4136
v 55.4285 11.0156 34.8902
v 36.7371 10.2995 32.1697
v 36.7579 11.7725 34.5579
v 37.2901 11.0601 31.9489
v 37.3065 12.4627 34.2952
v 38.0454 11.5384 31.8101
v 38.0601 12.9180 34.1151
v 54.6533 2.6253 39.3258
v 54.6904 2.3321 34.5222
v 55.2042 3.1036 38.9423
v 55.2427 2.8626 34.3682
v 53.9010 2.4647 39.5325
v 53.9359 2.1395 34.5781
v 38.0808 2.4648 39.5329
v 37.3285 2.6253 39.3258
v 38.0458 2.1395 34.5781
v 37.2914 2.3321 34.5222
v 36.7776 3.1036 38.9423
v 36.7391 2.8626 34.3682
v 50.3644 12.0279 31.6680
v 50.3574 13.3486 33.9558
v 50.3458 2.4736 39.9281
v 50.3657 2.1479 34.5757
v 41.9793 12.0930 31.6491
v 41.9857 13.4149 33.9405
v 46.1201 12.4206 31.5540
v 46.1199 13.7224 33.8661
v 41.9781 2.1484 34.5755
v 46.1201 2.1508 34.5748
v 41.9964 2.4787 39.9522
v 46.1195 2.5049 40.0769
v 54.6529 13.6123 37.0323
v 55.2037 12.8600 37.2406
v 53.9006 14.0299 36.9409
v 50.3456 14.5060 36.8728
v 46.1195 14.8699 36.8598
v 41.9965 14.5775 36.8685
v 38.0811 14.0301 36.9413
v 37.3289 13.6123 37.0323
v 36.7844 12.8602 37.2411
v 36.5775 12.0950 37.5300
v 36.5533 11.0158 34.8905
v 36.5534 10.1720 35.3300
v 36.5829 9.1911 38.2684
v 36.5776 11.1205 37.8596
v 36.6177 11.5581 40.4782
v 55.4284 10.1720 35.3300
v 55.4042 11.1205 37.8596
v 55.3988 9.1911 38.2684
v 55.3641 11.5581 40.4782
v 55.3643 12.5800 39.7036
v 55.4043 12.0947 37.5294
v 55.1651 13.3594 39.6752
v 54.6158 14.1852 39.6996
v 53.8658 14.6185 39.7959
v 50.3261 15.2172 39.9632
v 46.1190 15.5647 40.0771
v 42.0144 15.2974 39.9772
v 38.1160 14.6189 39.7966
v 37.3659 14.1852 39.6996
v 36.8283 13.3598 39.6762
v 36.6175 12.5805 39.7047
v 36.8403 3.4295 44.5417
v 36.6419 4.1356 44.3159
v 36.5770 3.8286 38.7573
v 37.3887 3.0359 45.2903
v 38.1375 2.9261 45.7212
v 46.1186 3.0434 46.9953
v 42.0257 2.9817 46.7021
v 50.3139 2.9698 46.6454
v 53.8443 2.9258 45.7203
v 54.5930 3.0359 45.2903
v 55.1415 3.4295 44.5417
v 55.3398 4.1356 44.3159
v 55.4048 3.8286 38.7573
v 55.1438 15.9238 41.0375
v 55.3382 15.3823 41.4989
v 36.6436 15.3830 41.5001
v 55.3312 15.5474 42.0672
v 55.1332 16.3583 41.8801
v 55.1368 16.2034 41.3908
v 54.5852 17.2185 41.9721
v 53.8370 17.8433 42.1573
v 50.3100 19.1314 42.5836
v 46.1185 19.5664 42.7042
v 42.0293 19.2187 42.6128
v 38.1448 17.8438 42.1583
v 37.3966 17.2185 41.9721
v 36.8646 16.3587 41.8814
v 36.6506 15.5482 42.0687
v 36.8474 3.4836 45.1701
v 37.3955 3.0996 45.9599
v 38.1439 2.9954 46.4161
v 42.0290 3.0641 47.4587
v 46.1185 3.1297 47.7708
v 50.3103 3.0514 47.3983
v 53.8379 2.9952 46.4151
v 54.5862 3.0996 45.9599
v 55.1344 3.4836 45.1701
v 37.4139 15.6011 43.3639
v 36.8353 15.0909 42.8562
v 37.4145 14.3153 44.0497
v 36.8354 13.8736 43.3872
v 38.1497 15.9950 43.6652
v 38.1492 14.5619 44.3679
v 42.0326 17.3875 44.1059
v 42.0326 15.3768 45.1270
v 46.1184 17.8498 44.2627
v 46.1184 15.7579 45.3056
v 50.3063 17.3004 44.0771
v 50.3063 15.3763 45.0138
v 53.7849 16.0179 43.6745
v 53.7794 14.5861 44.3790
v 54.5874 15.5906 43.3593
v 54.5894 14.3042 44.0443
v 55.1486 15.0908 42.8579
v 55.1489 13.8733 43.3891
v 54.5916 12.6355 44.6799
v 54.5940 10.1360 45.4235
v 55.1491 12.3567 43.8988
v 55.1494 9.9146 44.6233
v 36.6509 13.5890 42.9134
v 36.8355 12.3561 43.8969
v 36.6510 12.1741 43.3815
v 37.4152 12.6387 44.6900
v 38.1487 12.7695 45.0566
v 42.0326 13.1107 46.0137
v 46.1184 13.2152 46.3070
v 50.3063 13.0903 45.9564
v 53.7735 12.7764 45.0777
v 55.3308 13.5890 42.9134
v 55.3308 12.1741 43.3815
v 54.9945 16.4648 42.3902
v 54.5747 17.1062 42.4433
v 36.9873 16.4648 42.3902
v 37.4100 17.1088 42.4434
v 54.5751 3.5001 46.3185
v 54.9973 3.8025 45.6921
v 37.4101 3.4991 46.3200
v 36.9844 3.8025 45.6921
v 38.1529 17.7268 42.5964
v 55.3325 4.1876 44.9397
v 55.1477 4.3033 45.4804
v 38.1528 3.3676 46.7154
v 36.6493 4.1876 44.9397
v 36.8356 4.3031 45.4794
v 53.8228 17.7300 42.5974
v 53.8217 3.3677 46.7181
v 42.0326 19.0957 43.0412
v 42.0326 3.4328 47.7475
v 50.3063 19.0086 43.0124
v 46.1184 19.4409 43.1285
v 50.3063 3.4202 47.6875
v 46.1184 3.4970 48.0550
v 36.8373 15.8659 42.5342
v 55.1458 15.8659 42.5352
v 55.1483 5.1340 45.4301
v 55.3318 5.0166 44.8865
v 36.8355 9.9141 44.6213
v 36.6510 9.7689 44.0931
v 36.8356 7.1207 45.1603
v 36.6511 7.0078 44.6208
v 55.3309 14.7744 42.3936
v 55.1496 7.1212 45.1626
v 55.3307 9.7689 44.0931
v 55.3307 7.0078 44.6208
v 38.1510 16.8322 43.1674
v 37.4120 16.3946 42.9034
v 38.1481 10.2429 45.8106
v 37.4159 10.1390 45.4351
v 38.1476 7.3751 46.3758
v 37.4165 7.2949 45.9924
v 38.1490 5.2992 46.6618
v 37.4147 5.2544 46.2697
v 54.5814 16.3884 42.9007
v 54.5961 7.2921 45.9794
v 54.5831 4.4225 46.3141
v 54.5901 5.2524 46.2600
v 53.8009 16.8467 43.1734
v 50.3063 18.2140 43.5404
v 46.1184 18.6957 43.7300
v 42.0326 18.3011 43.5692
v 53.7958 4.4715 46.7266
v 50.3063 4.6102 47.6679
v 42.0326 4.6228 47.7280
v 38.1506 4.4688 46.7136
v 42.0326 7.5852 47.3796
v 42.0326 10.5142 46.7926
v 53.7672 10.2491 45.8347
v 53.7616 7.3807 46.4024
v 53.7775 5.3034 46.6822
v 37.4126 4.4238 46.3200
v 36.5325 9.4589 32.4136
v 50.3063 10.4980 46.7338
v 50.3063 7.5726 47.3195
v 50.3063 5.4407 47.6167
v 36.8360 5.1336 45.4283
v 36.5304 8.5740 32.6705
v 36.5308 7.4627 33.0526
v 55.3383 14.5100 41.9297
v 36.6434 14.5100 41.9297
v 36.6509 14.7744 42.3936
v 36.6435 13.5033 42.2847
v 55.4453 3.5968 34.1551
v 36.5365 3.5968 34.1551
v 55.4514 8.5740 32.6705
v 55.4045 4.6378 38.6360
v 55.4461 4.3915 33.9245
v 55.4478 6.1520 33.4135
v 55.4041 6.4740 38.3121
v 55.4509 7.4627 33.0526
v 36.5777 6.4740 38.3121
v 36.6436 6.9537 43.9809
v 36.6436 9.7057 43.4563
v 36.5772 4.6378 38.6360
v 36.6426 4.9627 44.2558
v 55.3391 4.9627 44.2558
v 55.3381 6.9537 43.9809
v 55.3382 9.7057 43.4563
v 36.6435 12.1006 42.7483
v 55.3383 13.5033 42.2847
v 55.3382 12.1006 42.7483
v 36.6500 5.0166 44.8865
v 46.1184 10.5974 47.0934
v 46.1184 4.6872 48.0354
v 42.0326 5.4533 47.6768
v 46.1184 7.6495 47.6870
v 46.1184 5.5176 47.9843
v 36.5340 6.1520 33.4135
v 36.5357 4.3915 33.9245
vt 0.169624 0.378018
vt 0.169643 0.379776
vt 0.166657 0.379034
vt 0.166633 0.377309
vt 0.141904 0.915190
vt 0.143264 0.913461
vt 0.146523 0.913215
vt 0.145407 0.914624
vt 0.232313 0.378025
vt 0.235304 0.377305
vt 0.235280 0.379035
vt 0.232294 0.379778
vt 0.216786 0.381467
vt 0.216794 0.379794
vt 0.200459 0.380115
vt 0.200459 0.381754
vt 0.183724 0.381365
vt 0.183715 0.379692
vt 0.166248 0.340785
vt 0.169261 0.340232
vt 0.169320 0.349429
vt 0.166313 0.350148
vt 0.086371 0.806380
vt 0.089406 0.805499
vt 0.095003 0.814862
vt 0.092248 0.815910
vt 0.083016 0.807354
vt 0.089229 0.817237
vt 0.168969 0.877822
vt 0.163091 0.887352
vt 0.160337 0.886304
vt 0.165934 0.876941
vt 0.235690 0.340785
vt 0.235624 0.350148
vt 0.232617 0.349430
vt 0.232676 0.340232
vt 0.320971 0.361904
vt 0.321118 0.342735
vt 0.323323 0.342121
vt 0.323169 0.360374
vt 0.317968 0.362729
vt 0.318108 0.342958
vt 0.254837 0.362731
vt 0.251834 0.361904
vt 0.251686 0.342735
vt 0.254697 0.342958
vt 0.249636 0.360374
vt 0.249482 0.342121
vt 0.183516 0.339665
vt 0.183544 0.348794
vt 0.303781 0.364308
vt 0.303861 0.342948
vt 0.216977 0.339589
vt 0.216952 0.348733
vt 0.200454 0.348436
vt 0.200453 0.339210
vt 0.270389 0.342948
vt 0.286918 0.342945
vt 0.286916 0.364902
vt 0.270462 0.364404
vt 0.099591 0.825785
vt 0.096589 0.826616
vt 0.169404 0.360707
vt 0.166402 0.361071
vt 0.183591 0.360435
vt 0.200455 0.360383
vt 0.216908 0.360418
vt 0.232533 0.360708
vt 0.235535 0.361071
vt 0.155749 0.897226
vt 0.158750 0.898060
vt 0.166111 0.888680
vt 0.161804 0.899213
vt 0.169478 0.890433
vt 0.173392 0.902159
vt 0.163946 0.910978
vt 0.165693 0.900528
vt 0.085862 0.818992
vt 0.089647 0.829086
vt 0.091394 0.839536
vt 0.081948 0.830718
vt 0.093535 0.827769
vt 0.095471 0.836445
vt 0.098582 0.836332
vt 0.101877 0.836429
vt 0.169543 0.372100
vt 0.166550 0.371715
vt 0.183668 0.372767
vt 0.200458 0.373222
vt 0.216837 0.372823
vt 0.232394 0.372102
vt 0.235387 0.371715
vt 0.153463 0.907871
vt 0.156757 0.907777
vt 0.159866 0.907891
vt 0.196384 0.927194
vt 0.193567 0.926293
vt 0.194792 0.904110
vt 0.197685 0.904848
vt 0.252075 0.385706
vt 0.249886 0.382719
vt 0.255063 0.387426
vt 0.286912 0.392510
vt 0.270579 0.391340
vt 0.303654 0.391114
vt 0.317742 0.387422
vt 0.320730 0.385706
vt 0.322919 0.382719
vt 0.058955 0.855752
vt 0.057655 0.833407
vt 0.060548 0.832669
vt 0.061773 0.854851
vt 0.112083 0.842023
vt 0.108815 0.841768
vt 0.106654 0.843609
vt 0.148683 0.915056
vt 0.107313 0.845877
vt 0.109931 0.843178
vt 0.110549 0.845131
vt 0.113436 0.843748
vt 0.113982 0.845498
vt 0.169658 0.381523
vt 0.166672 0.380784
vt 0.183733 0.383224
vt 0.200459 0.383706
vt 0.216778 0.383341
vt 0.232279 0.381527
vt 0.235265 0.380784
vt 0.144789 0.916577
vt 0.141358 0.916939
vt 0.148024 0.917325
vt 0.252102 0.388378
vt 0.249914 0.385227
vt 0.255088 0.390199
vt 0.270592 0.394359
vt 0.286912 0.395605
vt 0.303639 0.394118
vt 0.317717 0.390195
vt 0.320703 0.388378
vt 0.322890 0.385227
vt 0.269612 0.024695
vt 0.271921 0.026732
vt 0.271921 0.031589
vt 0.269610 0.029827
vt 0.266676 0.023124
vt 0.266678 0.028842
vt 0.251180 0.017567
vt 0.251180 0.025591
vt 0.234876 0.015722
vt 0.234876 0.024070
vt 0.218164 0.025592
vt 0.218164 0.017914
vt 0.204304 0.028746
vt 0.204282 0.023032
vt 0.201071 0.029871
vt 0.201080 0.024737
vt 0.198839 0.031591
vt 0.198840 0.026732
vt 0.201063 0.036530
vt 0.201053 0.046504
vt 0.198837 0.047388
vt 0.198838 0.037643
vt 0.154707 0.922586
vt 0.155842 0.920696
vt 0.161489 0.922564
vt 0.160762 0.924621
vt 0.271920 0.037645
vt 0.269607 0.036517
vt 0.266680 0.035995
vt 0.251180 0.034634
vt 0.234876 0.034217
vt 0.218164 0.034715
vt 0.204327 0.035968
vt 0.100632 0.851153
vt 0.094580 0.853186
vt 0.093851 0.851122
vt 0.099498 0.849254
vt 0.113534 0.847378
vt 0.110974 0.847166
vt 0.144366 0.918608
vt 0.141796 0.918820
vt 0.322343 0.387310
vt 0.320658 0.389809
vt 0.252160 0.389815
vt 0.250461 0.387310
vt 0.235212 0.382665
vt 0.232247 0.383275
vt 0.059171 0.858260
vt 0.061981 0.857340
vt 0.062442 0.859498
vt 0.060444 0.860343
vt 0.255124 0.391393
vt 0.196169 0.929702
vt 0.194896 0.931785
vt 0.192898 0.930935
vt 0.193359 0.928782
vt 0.169715 0.383279
vt 0.166714 0.382665
vt 0.317652 0.391404
vt 0.216764 0.385050
vt 0.270607 0.395512
vt 0.183748 0.384935
vt 0.200460 0.385399
vt 0.303623 0.395272
vt 0.286911 0.396739
vt 0.146756 0.919183
vt 0.108584 0.847745
vt 0.065757 0.859297
vt 0.065289 0.857128
vt 0.170507 0.927511
vt 0.171087 0.925403
vt 0.182105 0.927509
vt 0.181654 0.929662
vt 0.104228 0.847180
vt 0.105491 0.849032
vt 0.084835 0.856078
vt 0.073687 0.858230
vt 0.073235 0.856068
vt 0.084253 0.853962
vt 0.266670 0.019783
vt 0.269619 0.021529
vt 0.266682 0.046078
vt 0.269604 0.046493
vt 0.269601 0.057842
vt 0.266684 0.057522
vt 0.269609 0.065985
vt 0.266678 0.065806
vt 0.201130 0.018689
vt 0.201103 0.021554
vt 0.198851 0.023639
vt 0.199455 0.021249
vt 0.201045 0.057853
vt 0.198836 0.058535
vt 0.198844 0.069780
vt 0.198841 0.066466
vt 0.201069 0.065993
vt 0.201096 0.069305
vt 0.201129 0.072986
vt 0.199444 0.071779
vt 0.204218 0.019725
vt 0.218164 0.014269
vt 0.234876 0.012346
vt 0.251180 0.013921
vt 0.271913 0.023639
vt 0.204135 0.073514
vt 0.204238 0.069109
vt 0.218164 0.068556
vt 0.218164 0.073305
vt 0.251180 0.068506
vt 0.266672 0.069120
vt 0.266663 0.073515
vt 0.251180 0.073254
vt 0.266663 0.016213
vt 0.251180 0.010750
vt 0.251180 0.056684
vt 0.251180 0.044995
vt 0.204131 0.016200
vt 0.204353 0.046053
vt 0.204375 0.057500
vt 0.204312 0.065789
vt 0.269627 0.072990
vt 0.269617 0.069300
vt 0.271919 0.069781
vt 0.271326 0.071779
vt 0.172324 0.878795
vt 0.218164 0.011098
vt 0.218164 0.045060
vt 0.218164 0.056734
vt 0.218164 0.065241
vt 0.234876 0.009373
vt 0.269628 0.018679
vt 0.271314 0.021249
vt 0.271920 0.058537
vt 0.271918 0.066467
vt 0.271920 0.047390
vt 0.175855 0.879820
vt 0.180289 0.881346
vt 0.103173 0.845328
vt 0.152167 0.916770
vt 0.151112 0.918621
vt 0.156184 0.918187
vt 0.056693 0.815154
vt 0.059623 0.814303
vt 0.195717 0.885745
vt 0.198647 0.886595
vt 0.079485 0.808379
vt 0.063777 0.832185
vt 0.062795 0.813383
vt 0.069820 0.811344
vt 0.071105 0.830892
vt 0.075050 0.809904
vt 0.184235 0.902334
vt 0.182321 0.924956
vt 0.171339 0.922862
vt 0.191563 0.903627
vt 0.190266 0.926053
vt 0.065074 0.854611
vt 0.073019 0.853514
vt 0.084001 0.851420
vt 0.161782 0.920037
vt 0.099156 0.846745
vt 0.093558 0.848595
vt 0.190051 0.928570
vt 0.149849 0.920468
vt 0.234876 0.044663
vt 0.189584 0.930732
vt 0.234876 0.068249
vt 0.234876 0.072998
vt 0.251180 0.065191
vt 0.234876 0.056427
vt 0.234876 0.064935
vt 0.185520 0.882786
vt 0.192545 0.884825
vn 0.2458 0.6188 -0.7461
vn 0.4268 0.8182 -0.3852
vn 0.6886 0.6467 -0.3281
vn 0.5157 0.5448 -0.6612
vn -0.6938 0.6423 -0.3256
vn -0.5215 0.5425 -0.6586
vn -0.8385 0.3508 -0.4169
vn -0.8982 0.3911 -0.2005
vn -0.2446 0.6194 -0.7460
vn -0.4234 0.8197 -0.3858
vn -0.1668 0.8960 -0.4116
vn -0.0828 0.6325 -0.7701
vn 0.0039 0.6302 -0.7764
vn 0.0072 0.9070 -0.4211
vn 0.1778 0.8942 -0.4109
vn 0.0879 0.6315 -0.7704
vn 0.6827 0.6281 -0.3733
vn 0.3434 0.8089 -0.4772
vn 0.3378 0.8453 -0.4140
vn 0.6806 0.6569 -0.3243
vn 0.9058 0.3646 -0.2160
vn 0.9069 0.3786 -0.1848
vn 0.9929 0.1044 -0.0568
vn 0.9929 0.1092 -0.0470
vn -0.9057 0.3649 -0.2158
vn -0.9068 0.3791 -0.1845
vn -0.6817 0.6561 -0.3237
vn -0.6834 0.6277 -0.3728
vn -0.3401 0.8445 -0.4136
vn -0.3454 0.8083 -0.4768
vn 0.4615 -0.8850 0.0613
vn 0.4781 -0.8764 0.0569
vn 0.8580 -0.5125 0.0356
vn 0.8523 -0.5216 0.0389
vn 0.1137 -0.9912 0.0685
vn 0.1205 -0.9907 0.0636
vn -0.1130 -0.9912 0.0686
vn -0.4614 -0.8851 0.0613
vn -0.4781 -0.8765 0.0569
vn -0.1202 -0.9907 0.0637
vn -0.8523 -0.5216 0.0389
vn -0.8580 -0.5125 0.0356
vn 0.1107 0.8603 -0.4977
vn 0.1093 0.8955 -0.4315
vn -0.0009 -0.9976 0.0688
vn -0.0009 -0.9980 0.0628
vn -0.1062 0.8608 -0.4978
vn -0.1048 0.8959 -0.4317
vn 0.0069 0.9027 -0.4303
vn 0.0067 0.8688 -0.4951
vn 0.0010 -0.9980 0.0631
vn -0.0002 -0.9980 0.0627
vn -0.0004 -0.9976 0.0692
vn 0.0011 -0.9976 0.0691
vn 0.6751 0.7073 -0.2095
vn 0.9093 0.4007 -0.1126
vn 0.3260 0.9052 -0.2727
vn 0.1097 0.9510 -0.2891
vn 0.0075 0.9566 -0.2913
vn -0.1049 0.9514 -0.2897
vn -0.3285 0.9043 -0.2727
vn -0.6774 0.7054 -0.2087
vn -0.9088 0.4018 -0.1121
vn -0.9927 0.1110 -0.0476
vn -0.9919 0.1244 -0.0245
vn -1.0000 0.0018 0.0090
vn -0.9999 0.0015 0.0107
vn -0.9999 0.0040 0.0113
vn -0.9999 0.0038 0.0119
vn 1.0000 0.0018 0.0090
vn 0.9999 0.0038 0.0119
vn 0.9999 0.0040 0.0114
vn 0.9999 0.0015 0.0107
vn 0.9924 0.1204 -0.0238
vn 0.9911 0.1095 -0.0752
vn 0.9099 0.4085 -0.0717
vn 0.6707 0.7277 -0.1435
vn 0.3195 0.9273 -0.1952
vn 0.1116 0.9706 -0.2135
vn 0.0078 0.9760 -0.2177
vn -0.1064 0.9709 -0.2144
vn -0.3220 0.9264 -0.1954
vn -0.6736 0.7252 -0.1425
vn -0.9093 0.4100 -0.0711
vn -0.9902 0.1149 -0.0799
vn -0.8449 -0.5326 0.0497
vn -0.9912 -0.1308 0.0207
vn -0.9913 -0.1309 0.0171
vn -0.4398 -0.8948 0.0774
vn -0.1052 -0.9906 0.0873
vn -0.0006 -0.9957 0.0926
vn -0.0004 -0.9959 0.0909
vn 0.0009 -0.9959 0.0907
vn 0.1065 -0.9905 0.0871
vn 0.4398 -0.8947 0.0774
vn 0.8449 -0.5326 0.0497
vn 0.9913 -0.1309 0.0171
vn 0.9912 -0.1308 0.0207
vn 0.0322 0.4473 -0.8938
vn 0.1186 0.4616 -0.8791
vn 0.3730 0.4423 -0.8156
vn 0.8403 0.3485 -0.4153
vn 0.7848 0.3052 -0.5394
vn 0.9872 0.1273 -0.0963
vn -0.9853 0.1362 -0.1028
vn -0.7822 0.3073 -0.5419
vn -0.3786 0.4414 -0.8135
vn -0.1189 0.4621 -0.8788
vn -0.0308 0.4482 -0.8934
vn 0.0021 0.4404 -0.8978
vn 0.9808 0.1610 0.1103
vn 0.8993 0.3889 -0.2002
vn 0.9149 0.4030 0.0253
vn 0.7533 0.6577 -0.0049
vn 0.5054 0.8626 0.0221
vn 0.2268 0.9732 0.0378
vn 0.0094 0.9992 0.0387
vn -0.2129 0.9763 0.0382
vn -0.5014 0.8649 0.0222
vn -0.7566 0.6538 -0.0072
vn -0.9146 0.4040 0.0181
vn -0.9802 0.1672 0.1062
vn -0.5947 -0.7245 0.3485
vn -0.8903 -0.3939 0.2284
vn -0.2404 -0.8597 0.4507
vn -0.0678 -0.8735 0.4821
vn 0.0019 -0.8732 0.4874
vn 0.0727 -0.8735 0.4813
vn 0.2431 -0.8592 0.4502
vn 0.5947 -0.7246 0.3484
vn 0.8902 -0.3945 0.2277
vn -0.6445 0.3548 0.6773
vn -0.8701 0.2101 0.4458
vn -0.8848 0.1766 0.4312
vn -0.6557 0.3017 0.6921
vn -0.3910 0.4413 0.8077
vn -0.3712 0.3768 0.8487
vn -0.1751 0.4742 0.8628
vn -0.1673 0.4008 0.9008
vn 0.0079 0.4830 0.8756
vn 0.0088 0.4079 0.9130
vn 0.1763 0.4005 0.8992
vn 0.1846 0.4698 0.8633
vn 0.3662 0.3777 0.8504
vn 0.3879 0.4398 0.8100
vn 0.6551 0.3022 0.6925
vn 0.6435 0.3558 0.6777
vn 0.8882 0.1745 0.4250
vn 0.8730 0.2089 0.4406
vn 0.6612 0.2389 0.7111
vn 0.6663 0.1784 0.7241
vn 0.8988 0.1044 0.4257
vn 0.8956 0.1372 0.4231
vn -0.9858 0.0602 0.1570
vn -0.9857 0.0505 0.1606
vn -0.8918 0.1393 0.4304
vn -0.6614 0.2386 0.7111
vn -0.3627 0.3013 0.8818
vn -0.1648 0.3212 0.9326
vn 0.0077 0.3288 0.9444
vn 0.1745 0.3251 0.9294
vn 0.3592 0.3042 0.8823
vn 0.9862 0.0497 0.1579
vn 0.9862 0.0593 0.1546
vn 0.7129 0.5478 0.4378
vn 0.8549 0.4048 0.3244
vn -0.8571 0.4058 0.3173
vn -0.7152 0.5467 0.4355
vn 0.8803 -0.1646 0.4450
vn 0.6965 -0.2406 0.6760
vn -0.6966 -0.2390 0.6765
vn -0.8795 -0.1615 0.4476
vn -0.4836 0.6989 0.5270
vn 0.9790 -0.0976 0.1791
vn 0.8936 -0.0253 0.4481
vn -0.3710 -0.3087 0.8759
vn -0.8917 -0.0218 0.4522
vn -0.9788 -0.0969 0.1803
vn 0.4864 0.6975 0.5261
vn 0.3737 -0.3082 0.8749
vn -0.2114 0.7929 0.5715
vn -0.1530 -0.3178 0.9358
vn 0.2253 0.7908 0.5691
vn 0.0094 0.8190 0.5737
vn 0.1628 -0.3179 0.9340
vn 0.0055 -0.3172 0.9483
vn -0.8550 0.2774 0.4381
vn 0.8558 0.2756 0.4378
vn 0.8984 0.0418 0.4373
vn 0.9862 0.0165 0.1647
vn -0.8947 0.1061 0.4340
vn -0.9859 0.0396 0.1626
vn -0.9859 0.0271 0.1650
vn -0.8951 0.0723 0.4400
vn 0.9862 0.0656 0.1522
vn 0.8993 0.0706 0.4317
vn 0.9865 0.0265 0.1619
vn 0.9864 0.0389 0.1596
vn -0.4044 0.4805 0.7782
vn -0.6247 0.3924 0.6751
vn -0.3645 0.2238 0.9039
vn -0.6664 0.1782 0.7240
vn -0.6675 0.1219 0.7346
vn -0.3656 0.1538 0.9180
vn -0.6686 0.0734 0.7400
vn -0.3664 0.0922 0.9259
vn 0.6241 0.3935 0.6750
vn 0.6674 0.1217 0.7347
vn 0.6683 0.0725 0.7404
vn 0.6681 0.0211 0.7438
vn 0.4047 0.4804 0.7781
vn 0.1909 0.5326 0.8246
vn 0.0076 0.5560 0.8312
vn -0.1797 0.5332 0.8267
vn 0.3663 0.0311 0.9300
vn 0.1761 0.0360 0.9837
vn -0.1660 0.0367 0.9854
vn -0.3658 0.0311 0.9302
vn -0.1663 0.1646 0.9723
vn -0.1658 0.2385 0.9569
vn 0.3617 0.2241 0.9050
vn 0.3628 0.1540 0.9191
vn 0.3647 0.0923 0.9265
vn -0.6681 0.0232 0.7437
vn -0.9928 0.1054 -0.0572
vn 0.1754 0.2381 0.9553
vn 0.1759 0.1642 0.9706
vn 0.1761 0.0977 0.9795
vn -0.8950 0.0441 0.4438
vn -1.0000 0.0021 0.0078
vn -1.0000 0.0010 0.0093
vn 0.9999 0.0046 0.0105
vn -0.9999 0.0046 0.0105
vn -0.9858 0.0662 0.1543
vn -0.9999 0.0040 0.0113
vn 0.9913 -0.1307 0.0154
vn -0.9913 -0.1307 0.0154
vn 1.0000 0.0021 0.0078
vn 0.9999 0.0018 0.0101
vn 1.0000 0.0016 0.0087
vn 1.0000 0.0016 0.0090
vn 0.9999 0.0019 0.0102
vn 1.0000 0.0010 0.0093
vn -0.9999 0.0019 0.0102
vn -0.9999 0.0021 0.0115
vn -0.9999 0.0029 0.0113
vn -0.9999 0.0018 0.0101
vn -0.9999 0.0019 0.0115
vn 0.9999 0.0019 0.0115
vn 0.9999 0.0021 0.0115
vn 0.9999 0.0029 0.0113
vn -0.9999 0.0036 0.0111
vn 0.9999 0.0040 0.0113
vn 0.9999 0.0036 0.0111
vn -0.9858 0.0170 0.1672
vn 0.0063 0.2425 0.9701
vn 0.0063 0.0390 0.9992
vn -0.1663 0.0983 0.9812
vn 0.0063 0.1676 0.9858
vn 0.0063 0.0999 0.9950
vn -1.0000 0.0016 0.0090
vn -1.0000 0.0017 0.0087
f 1/1/1 2/2/2 4/3/3 3/4/4
f 5/5/5 6/6/6 8/7/7 7/8/8
f 9/9/9 6/10/6 5/11/5 10/12/10
f 10/12/10 11/13/11 12/14/12 9/9/9
f 13/15/13 12/14/12 11/13/11 14/16/14
f 15/17/15 16/18/16 13/15/13 14/16/14
f 16/18/16 15/17/15 2/2/2 1/1/1
f 17/19/17 18/20/18 20/21/19 19/22/20
f 21/23/21 17/24/17 19/25/20 22/26/22
f 23/27/23 21/23/21 22/26/22 24/28/24
f 25/29/25 26/30/26 28/31/27 27/32/28
f 27/33/28 28/34/27 30/35/29 29/36/30
f 31/37/31 32/38/32 34/39/33 33/40/34
f 35/41/35 36/42/36 32/38/32 31/37/31
f 37/43/37 38/44/38 40/45/39 39/46/40
f 38/44/38 41/47/41 42/48/42 40/45/39
f 18/20/18 43/49/43 44/50/44 20/21/19
f 45/51/45 46/52/46 36/42/36 35/41/35
f 47/53/47 48/54/48 50/55/49 49/56/50
f 51/57/51 52/58/52 54/59/53 53/60/54
f 43/49/43 49/56/50 50/55/49 44/50/44
f 54/59/53 52/58/52 46/52/46 45/51/45
f 29/36/30 30/35/29 48/54/48 47/53/47
f 55/61/55 56/62/56 22/26/22 19/25/20
f 57/63/57 55/64/55 19/22/20 20/21/19
f 58/65/58 57/63/57 20/21/19 44/50/44
f 44/50/44 50/55/49 59/66/59 58/65/58
f 48/54/48 60/67/60 59/66/59 50/55/49
f 60/67/60 48/54/48 30/35/29 61/68/61
f 61/68/61 30/35/29 28/34/27 62/69/62
f 62/70/62 28/31/27 26/30/26 63/71/63
f 63/71/63 26/30/26 65/72/64 64/73/65
f 66/74/66 67/75/67 69/76/68 68/77/69
f 70/78/70 71/79/71 73/80/72 72/81/73
f 73/80/72 71/79/71 75/82/74 74/83/75
f 76/84/76 74/83/75 75/82/74 56/62/56
f 77/85/77 76/84/76 56/62/56 55/61/55
f 78/86/78 77/87/77 55/64/55 57/63/57
f 79/88/79 78/86/78 57/63/57 58/65/58
f 80/89/80 79/88/79 58/65/58 59/66/59
f 80/89/80 59/66/59 60/67/60 81/90/81
f 81/90/81 60/67/60 61/68/61 82/91/82
f 82/91/82 61/68/61 62/69/62 83/92/83
f 83/93/83 62/70/62 63/71/63 84/94/84
f 84/94/84 63/71/63 64/73/65 85/95/85
f 69/76/68 85/95/85 64/73/65 68/77/69
f 86/96/86 87/97/87 88/98/88 41/99/41
f 89/100/89 86/101/86 41/47/41 38/44/38
f 90/102/90 89/100/89 38/44/38 37/43/37
f 91/103/91 92/104/92 53/60/54 54/59/53
f 91/103/91 54/59/53 45/51/45 93/105/93
f 94/106/94 35/41/35 31/37/31 95/107/95
f 95/107/95 31/37/31 33/40/34 96/108/96
f 96/109/96 33/110/34 98/111/97 97/112/98
f 79/88/99 16/18/16 1/1/1 78/86/100
f 1/1/1 3/4/4 77/87/101 78/86/100
f 3/113/4 99/114/102 76/84/103 77/85/101
f 74/83/75 76/84/103 99/114/102 100/115/104
f 85/95/85 101/116/105 8/7/7 84/94/106
f 6/6/6 83/93/107 84/94/106 8/7/7
f 9/9/9 82/91/108 83/92/107 6/10/6
f 81/90/109 82/91/108 9/9/9 12/14/12
f 81/90/109 12/14/12 13/15/13 80/89/110
f 13/15/13 16/18/16 79/88/99 80/89/110
f 102/117/111 100/115/104 104/118/112 103/119/113
f 103/119/113 104/118/112 4/120/3 105/121/114
f 2/2/2 106/122/115 105/123/114 4/3/3
f 15/17/15 107/124/116 106/122/115 2/2/2
f 14/16/14 108/125/117 107/124/116 15/17/15
f 14/16/14 11/13/11 109/126/118 108/125/117
f 11/13/11 10/12/10 110/127/119 109/126/118
f 10/12/10 5/11/5 111/128/120 110/127/119
f 112/129/121 111/130/120 5/5/5 7/8/8
f 113/131/122 112/129/121 7/8/8 101/116/105
f 86/101/86 89/100/89 115/132/123 114/133/124
f 90/102/90 116/134/125 115/132/123 89/100/89
f 92/104/92 117/135/126 116/134/125 90/102/90
f 92/104/92 91/103/91 118/136/127 117/135/126
f 93/105/93 119/137/128 118/136/127 91/103/91
f 93/105/93 94/106/94 120/138/129 119/137/128
f 94/106/94 95/107/95 121/139/130 120/138/129
f 96/108/96 122/140/131 121/139/130 95/107/95
f 123/141/132 124/142/133 126/143/134 125/144/135
f 127/145/136 123/141/132 125/144/135 128/146/137
f 129/147/138 127/145/136 128/146/137 130/148/139
f 131/149/140 129/147/138 130/148/139 132/150/141
f 131/149/140 132/150/141 134/151/142 133/152/143
f 133/152/143 134/151/142 136/153/144 135/154/145
f 135/154/145 136/153/144 138/155/146 137/156/147
f 137/156/147 138/155/146 140/157/148 139/158/149
f 141/159/150 142/160/151 144/161/152 143/162/153
f 126/163/134 145/164/154 147/165/155 146/166/156
f 125/144/135 126/143/134 146/167/156 148/168/157
f 128/146/137 125/144/135 148/168/157 149/169/158
f 130/148/139 128/146/137 149/169/158 150/170/159
f 132/150/141 130/148/139 150/170/159 151/171/160
f 132/150/141 151/171/160 152/172/161 134/151/142
f 134/151/142 152/172/161 153/173/162 136/153/144
f 136/153/144 153/173/162 141/159/150 138/155/146
f 138/155/146 141/159/150 143/162/153 140/157/148
f 140/174/148 143/175/153 155/176/163 154/177/164
f 103/119/113 105/121/114 157/178/165 156/179/166
f 112/129/121 158/180/167 159/181/168 111/130/120
f 121/139/130 122/140/131 161/182/169 160/183/170
f 115/132/123 162/184/171 163/185/172 114/133/124
f 111/128/120 159/186/168 164/187/173 110/127/119
f 122/188/131 165/189/174 166/190/175 161/191/169
f 162/184/171 115/132/123 116/134/125 167/192/176
f 114/193/124 163/194/172 169/195/177 168/196/178
f 105/123/114 106/122/115 170/197/179 157/198/165
f 160/183/170 171/199/180 120/138/129 121/139/130
f 110/127/119 164/187/173 172/200/181 109/126/118
f 116/134/125 117/135/126 173/201/182 167/192/176
f 106/122/115 107/124/116 174/202/183 170/197/179
f 108/125/117 109/126/118 172/200/181 175/203/184
f 108/125/117 175/203/184 174/202/183 107/124/116
f 120/138/129 171/199/180 176/204/185 119/137/128
f 177/205/186 118/136/127 119/137/128 176/204/185
f 117/135/126 118/136/127 177/205/186 173/201/182
f 112/129/121 113/131/122 178/206/187 158/180/167
f 102/117/111 103/119/113 156/179/166 179/207/188
f 180/208/189 166/190/175 165/189/174 181/209/190
f 182/210/191 183/211/192 185/212/193 184/213/194
f 186/214/195 102/117/111 179/207/188 139/215/149
f 144/216/152 187/217/196 189/218/197 188/219/198
f 187/217/196 180/208/189 181/209/190 189/218/197
f 190/220/199 191/221/200 123/141/132 127/145/136
f 192/222/201 193/223/202 195/224/203 194/225/204
f 194/225/204 195/224/203 197/226/205 196/227/206
f 157/228/165 198/229/207 179/230/188 156/231/166
f 139/158/149 179/230/188 198/229/207 137/156/147
f 142/160/151 199/232/208 187/233/196 144/161/152
f 166/234/175 180/235/189 201/236/209 200/237/210
f 160/238/170 161/239/169 166/234/175 200/237/210
f 202/240/211 135/154/145 137/156/147 198/229/207
f 203/241/212 133/152/143 135/154/145 202/240/211
f 204/242/213 131/149/140 133/152/143 203/241/212
f 129/147/138 131/149/140 204/242/213 205/243/214
f 205/243/214 190/220/199 127/145/136 129/147/138
f 124/142/133 123/141/132 191/221/200 178/244/187
f 171/245/180 160/238/170 200/237/210 206/246/215
f 207/247/216 176/248/185 171/245/180 206/246/215
f 208/249/217 209/250/218 167/251/176 173/252/182
f 164/253/173 190/220/199 205/243/214 172/254/181
f 194/225/204 210/255/219 211/256/220 192/222/201
f 202/240/211 198/229/207 157/228/165 170/257/179
f 212/258/221 213/259/222 199/232/208 142/160/151
f 213/259/222 214/260/223 201/236/209 199/232/208
f 214/260/223 206/246/215 200/237/210 201/236/209
f 162/261/171 215/262/224 169/263/177 163/264/172
f 216/265/225 65/72/64 26/30/26 25/29/25
f 170/257/179 174/266/183 203/241/212 202/240/211
f 217/267/226 218/268/227 213/259/222 212/258/221
f 218/268/227 219/269/228 214/260/223 213/259/222
f 206/246/215 214/260/223 219/269/228 207/247/216
f 175/270/184 172/254/181 205/243/214 204/242/213
f 203/241/212 174/266/183 175/270/184 204/242/213
f 159/271/168 158/272/167 178/244/187 191/221/200
f 195/224/203 184/273/194 220/274/229 197/226/205
f 193/223/202 182/275/191 184/273/194 195/224/203
f 53/60/54 37/43/37 39/46/40 51/57/51
f 67/75/67 66/74/66 221/276/230 222/277/231
f 100/115/104 102/117/111 186/214/195 223/278/232
f 101/116/105 224/279/233 225/280/234 113/131/122
f 145/164/154 225/280/234 224/279/233 226/281/235
f 100/115/104 99/114/102 104/118/112
f 7/8/8 8/7/7 101/116/105
f 33/110/34 34/282/33 227/283/236 98/111/97
f 88/98/88 228/284/237 42/285/42 41/99/41
f 229/286/238 23/27/23 24/28/24 70/78/70
f 230/287/239 231/288/240 232/289/241 233/290/242
f 233/290/242 232/289/241 234/291/243 72/81/73
f 227/283/236 231/288/240 230/287/239 98/111/97
f 24/28/24 22/26/22 56/62/56 75/82/74
f 68/77/69 64/73/65 65/72/64 66/74/66
f 24/28/24 75/82/74 71/79/71 70/78/70
f 67/75/67 235/292/244 236/293/245 237/294/246
f 235/292/244 238/295/247 239/296/248 236/293/245
f 238/295/247 88/98/88 87/97/87 239/296/248
f 37/43/37 53/60/54 92/104/92 90/102/90
f 93/105/93 45/51/45 35/41/35 94/106/94
f 98/111/97 230/287/239 240/297/249 97/112/98
f 240/297/249 230/287/239 233/290/242 241/298/250
f 241/298/250 233/290/242 72/81/73 242/299/251
f 243/300/252 226/281/235 224/279/233 69/76/68
f 73/80/72 74/83/75 100/115/104 223/278/232
f 244/301/253 245/302/254 73/80/72 223/278/232
f 245/302/254 242/299/251 72/81/73 73/80/72
f 69/76/68 67/75/67 237/294/246 243/300/252
f 224/279/233 101/116/105 85/95/85 69/76/68
f 244/301/253 223/278/232 186/214/195 154/177/164
f 226/281/235 243/300/252 147/165/155 145/164/154
f 243/300/252 237/294/246 183/211/192 147/165/155
f 185/212/193 183/211/192 237/294/246 236/293/245
f 246/303/255 185/212/193 236/293/245 239/296/248
f 168/196/178 246/303/255 239/296/248 87/97/87
f 87/97/87 86/96/86 114/193/124 168/196/178
f 96/109/96 97/112/98 165/189/174 122/188/131
f 97/112/98 240/297/249 181/209/190 165/189/174
f 240/297/249 241/298/250 189/218/197 181/209/190
f 241/298/250 242/299/251 188/219/198 189/218/197
f 242/299/251 245/302/254 155/176/163 188/219/198
f 244/301/253 154/177/164 155/176/163 245/302/254
f 145/164/154 126/163/134 124/304/133 225/280/234
f 140/174/148 154/177/164 186/214/195 139/215/149
f 183/211/192 182/210/191 146/166/156 147/165/155
f 146/167/156 182/275/191 193/223/202 148/168/157
f 148/168/157 193/223/202 192/222/201 149/169/158
f 149/169/158 192/222/201 211/256/220 150/170/159
f 150/170/159 211/256/220 247/305/256 151/171/160
f 151/171/160 247/305/256 217/267/226 152/172/161
f 152/172/161 217/267/226 212/258/221 153/173/162
f 153/173/162 212/258/221 142/160/151 141/159/150
f 144/216/152 188/219/198 155/176/163 143/175/153
f 72/81/73 234/291/243 229/286/238 70/78/70
f 220/306/229 246/303/255 168/196/178 169/195/177
f 225/280/234 124/304/133 178/206/187 113/131/122
f 184/213/194 185/212/193 246/303/255 220/306/229
f 164/253/173 159/271/168 191/221/200 190/220/199
f 197/226/205 215/262/224 209/250/218 196/227/206
f 215/262/224 162/261/171 167/251/176 209/250/218
f 199/232/208 201/236/209 180/235/189 187/233/196
f 207/247/216 248/307/257 177/308/186 176/248/185
f 248/307/257 208/249/217 173/252/182 177/308/186
f 194/225/204 196/227/206 249/309/258 210/255/219
f 196/227/206 209/250/218 208/249/217 249/309/258
f 220/274/229 169/263/177 215/262/224 197/226/205
f 211/256/220 210/255/219 250/310/259 247/305/256
f 210/255/219 249/309/258 251/311/260 250/310/259
f 249/309/258 208/249/217 248/307/257 251/311/260
f 247/305/256 250/310/259 218/268/227 217/267/226
f 250/310/259 251/311/260 219/269/228 218/268/227
f 251/311/260 248/307/257 207/247/216 219/269/228
f 66/74/66 65/72/64 216/265/225 221/276/230
f 252/312/261 253/313/262 238/295/247 235/292/244
f 67/75/67 222/277/231 252/312/261 235/292/244
f 253/313/262 228/284/237 88/98/88 238/295/247
f 99/114/102 3/113/4 4/120/3 104/118/112
