# Shoulder-Left-Trigger
# Sony PlayStation DualShock 3 by 3doverstock, CGTrader Royalty Free License
o Shoulder-Left-Trigger
v -53.8455 17.4258 41.2791
v -54.5950 16.7426 41.1014
v -53.8408 17.7617 41.7195
v -54.5891 17.0817 41.5337
v -37.3927 17.0817 41.5337
v -36.8605 16.2038 41.3920
v -37.3867 16.7408 41.1004
v -36.8525 15.9243 41.0388
v -38.1363 17.4279 41.2808
v -38.1410 17.7621 41.7201
v -42.0272 19.1217 42.1433
v -42.0251 18.7961 41.7239
v -46.1186 19.1401 41.8044
v -46.1185 19.4624 42.2153
v -50.3122 19.0357 42.1178
v -50.3145 18.7097 41.6985
v -54.6916 11.0601 31.9489
v -54.6753 12.4627 34.2952
v -53.9364 11.5384 31.8101
v -53.9217 12.9179 34.1149
v -55.2454 10.2995 32.1697
v -55.2270 11.7724 34.5577
v -55.4493 9.4589 32.4136
v -55.4285 11.0156 34.8902
v -36.7371 10.2995 32.1697
v -37.2901 11.0601 31.9489
v -36.7579 11.7725 34.5579
v -37.3065 12.4627 34.2952
v -38.0454 11.5384 31.8101
v -38.0601 12.9180 34.1151
v -54.6533 2.6253 39.3258
v -55.2042 3.1035 38.9423
v -54.6903 2.3321 34.5222
v -55.2427 2.8626 34.3682
v -53.9010 2.4647 39.5325
v -53.9359 2.1395 34.5781
v -38.0808 2.4648 39.5329
v -38.0458 2.1395 34.5781
v -37.3284 2.6253 39.3258
v -37.2914 2.3321 34.5222
v -36.7776 3.1035 38.9423
v -36.7391 2.8626 34.3682
v -50.3644 12.0279 31.6680
v -50.3574 13.3486 33.9558
v -50.3457 2.4736 39.9281
v -50.3657 2.1479 34.5757
v -41.9793 12.0930 31.6491
v -46.1201 12.4206 31.5540
v -41.9857 13.4149 33.9405
v -46.1199 13.7224 33.8661
v -41.9781 2.1484 34.5755
v -41.9964 2.4787 39.9522
v -46.1201 2.1508 34.5748
v -46.1195 2.5049 40.0769
v -54.6529 13.6123 37.0323
v -55.2037 12.8600 37.2406
v -53.9006 14.0299 36.9409
v -50.3456 14.5060 36.8728
v -46.1195 14.8699 36.8598
v -41.9965 14.5775 36.8685
v -38.0811 14.0301 36.9413
v -37.3289 13.6123 37.0323
v -36.7844 12.8602 37.2411
v -36.5775 12.0950 37.5300
v -36.5533 11.0158 34.8905
v -36.5533 10.1720 35.3300
v -36.5776 11.1205 37.8596
v -36.5829 9.1911 38.2684
v -36.6177 11.5582 40.4782
v -55.4284 10.1720 35.3300
v -55.3988 9.1911 38.2684
v -55.4042 11.1205 37.8596
v -55.3641 11.5581 40.4782
v -55.3643 12.5800 39.7036
v -55.4043 12.0947 37.5294
v -55.1651 13.3594 39.6752
v -54.6158 14.1852 39.6996
v -53.8658 14.6185 39.7959
v -50.3261 15.2172 39.9632
v -46.1189 15.5647 40.0771
v -42.0144 15.2974 39.9772
v -38.1160 14.6189 39.7966
v -37.3659 14.1852 39.6996
v -36.8283 13.3598 39.6762
v -36.6175 12.5805 39.7047
v -36.8403 3.4295 44.5417
v -36.6419 4.1356 44.3159
v -36.5769 3.8286 38.7573
v -37.3887 3.0359 45.2903
v -38.1375 2.9261 45.7212
v -46.1186 3.0434 46.9953
v -42.0257 2.9817 46.7021
v -50.3139 2.9698 46.6454
v -53.8443 2.9258 45.7203
v -54.5930 3.0359 45.2903
v -55.1415 3.4295 44.5417
v -55.3398 4.1356 44.3159
v -55.4048 3.8286 38.7573
v -55.1438 15.9238 41.0375
v -55.3382 15.3823 41.4989
v -36.6436 15.3830 41.5001
v -55.3312 15.5474 42.0672
v -55.1332 16.3583 41.8801
v -55.1368 16.2034 41.3908
v -54.5852 17.2185 41.9721
v -53.8370 17.8433 42.1573
v -50.3100 19.1314 42.5836
v -46.1185 19.5664 42.7042
v -42.0293 19.2187 42.6128
v -38.1448 17.8438 42.1583
v -37.3966 17.2185 41.9721
v -36.8646 16.3587 41.8814
v -36.6506 15.5482 42.0687
v -36.8474 3.4836 45.1701
v -37.3955 3.0996 45.9599
v -38.1439 2.9954 46.4161
v -42.0290 3.0641 47.4587
v -46.1185 3.1297 47.7708
v -50.3103 3.0514 47.3983
v -53.8379 2.9952 46.4151
v -54.5862 3.0996 45.9599
v -55.1344 3.4836 45.1701
v -37.4139 15.6011 43.3639
v -37.4145 14.3153 44.0497
v -36.8353 15.0909 42.8562
v -36.8354 13.8736 43.3872
v -38.1496 15.9950 43.6652
v -38.1492 14.5619 44.3679
v -42.0326 17.3875 44.1059
v -42.0326 15.3768 45.1270
v -46.1184 17.8498 44.2627
v -46.1184 15.7579 45.3056
v -50.3062 17.3004 44.0771
v -50.3062 15.3764 45.0138
v -53.7849 16.0179 43.6745
v -53.7794 14.5861 44.3790
v -54.5874 15.5906 43.3594
v -54.5894 14.3042 44.0443
v -55.1486 15.0908 42.8579
v -55.1489 13.8733 43.3891
v -54.5916 12.6355 44.6799
v -55.1491 12.3567 43.8988
v -54.5940 10.1360 45.4235
v -55.1494 9.9146 44.6234
v -36.8354 12.3561 43.8970
v -36.6509 13.5890 42.9134
v -36.6510 12.1741 43.3815
v -37.4152 12.6388 44.6900
v -38.1486 12.7695 45.0566
v -42.0326 13.1107 46.0137
v -46.1184 13.2152 46.3070
v -50.3062 13.0903 45.9564
v -53.7735 12.7764 45.0777
v -55.3308 13.5890 42.9134
v -55.3308 12.1741 43.3815
v -54.9945 16.4648 42.3902
v -54.5747 17.1062 42.4433
v -36.9873 16.4648 42.3902
v -37.4100 17.1088 42.4434
v -54.5751 3.5001 46.3185
v -54.9973 3.8025 45.6921
v -37.4101 3.4991 46.3200
v -36.9844 3.8025 45.6921
v -38.1529 17.7268 42.5964
v -55.3325 4.1876 44.9397
v -55.1477 4.3033 45.4804
v -38.1528 3.3676 46.7154
v -36.6493 4.1876 44.9397
v -36.8356 4.3031 45.4794
v -53.8228 17.7300 42.5974
v -53.8217 3.3677 46.7181
v -42.0326 19.0957 43.0412
v -42.0326 3.4328 47.7475
v -50.3062 19.0086 43.0124
v -46.1184 19.4409 43.1285
v -50.3062 3.4202 47.6875
v -46.1184 3.4970 48.0550
v -36.8373 15.8659 42.5342
v -55.1458 15.8659 42.5352
v -55.1483 5.1340 45.4301
v -55.3318 5.0166 44.8865
v -36.8355 9.9141 44.6213
v -36.8356 7.1207 45.1603
v -36.6510 9.7689 44.0931
v -36.6511 7.0078 44.6208
v -55.3309 14.7744 42.3936
v -55.3307 9.7689 44.0931
v -55.1496 7.1212 45.1626
v -55.3307 7.0078 44.6208
v -38.1510 16.8322 43.1674
v -37.4120 16.3946 42.9034
v -38.1481 10.2429 45.8106
v -38.1476 7.3751 46.3758
v -37.4159 10.1390 45.4351
v -37.4165 7.2949 45.9924
v -38.1490 5.2992 46.6618
v -37.4147 5.2544 46.2697
v -54.5814 16.3884 42.9007
v -54.5961 7.2921 45.9794
v -54.5831 4.4225 46.3141
v -54.5901 5.2524 46.2600
v -53.8009 16.8467 43.1734
v -50.3062 18.2140 43.5404
v -46.1184 18.6957 43.7300
v -42.0326 18.3011 43.5692
v -53.7958 4.4715 46.7266
v -50.3063 4.6102 47.6679
v -42.0326 4.6228 47.7280
v -38.1506 4.4688 46.7135
v -42.0326 7.5852 47.3796
v -42.0326 10.5142 46.7926
v -53.7672 10.2491 45.8347
v -53.7616 7.3807 46.4024
v -53.7775 5.3034 46.6822
v -37.4126 4.4238 46.3200
v -36.5325 9.4589 32.4136
v -50.3062 10.4980 46.7338
v -50.3062 7.5726 47.3195
v -50.3062 5.4407 47.6167
v -36.8360 5.1336 45.4283
v -36.5308 7.4627 33.0526
v -36.5304 8.5740 32.6705
v -55.3383 14.5100 41.9297
v -36.6509 14.7744 42.3936
v -36.6434 14.5100 41.9297
v -36.6435 13.5033 42.2848
v -55.4453 3.5968 34.1551
v -36.5364 3.5968 34.1551
v -55.4513 8.5740 32.6705
v -55.4045 4.6378 38.6360
v -55.4041 6.4740 38.3121
v -55.4478 6.1520 33.4135
v -55.4461 4.3915 33.9245
v -55.4509 7.4627 33.0526
v -36.6436 9.7057 43.4563
v -36.6436 6.9537 43.9809
v -36.5777 6.4740 38.3121
v -36.6426 4.9627 44.2558
v -36.5772 4.6378 38.6360
v -55.3391 4.9627 44.2558
v -55.3381 6.9537 43.9809
v -55.3382 9.7057 43.4563
v -36.6435 12.1006 42.7483
v -55.3383 13.5033 42.2848
v -55.3382 12.1006 42.7483
v -36.6500 5.0166 44.8865
v -46.1184 10.5974 47.0934
v -46.1184 4.6872 48.0354
v -42.0326 5.4533 47.6768
v -46.1184 7.6495 47.6870
v -46.1184 5.5176 47.9843
v -36.5340 6.1520 33.4135
v -36.5357 4.3915 33.9245
vt 0.483529 0.378696
vt 0.486520 0.377987
vt 0.486496 0.379712
vt 0.483510 0.380453
vt 0.126072 0.913342
vt 0.122569 0.912777
vt 0.121453 0.911367
vt 0.124712 0.911614
vt 0.420840 0.378703
vt 0.420859 0.380456
vt 0.417872 0.379712
vt 0.417849 0.377983
vt 0.436359 0.380471
vt 0.436367 0.382145
vt 0.452694 0.380792
vt 0.452694 0.382432
vt 0.469429 0.382043
vt 0.469438 0.380370
vt 0.486906 0.341463
vt 0.486840 0.350826
vt 0.483833 0.350107
vt 0.483892 0.340909
vt 0.187022 0.805930
vt 0.181144 0.815460
vt 0.178389 0.814412
vt 0.183986 0.805049
vt 0.190376 0.806904
vt 0.184164 0.816787
vt 0.099007 0.875974
vt 0.102043 0.875094
vt 0.107640 0.884456
vt 0.104885 0.885505
vt 0.417463 0.341463
vt 0.420477 0.340909
vt 0.420536 0.350107
vt 0.417529 0.350826
vt 0.330119 0.361689
vt 0.327921 0.360158
vt 0.327767 0.341905
vt 0.329971 0.342520
vt 0.333121 0.362514
vt 0.332982 0.342743
vt 0.396253 0.362515
vt 0.396392 0.342743
vt 0.399403 0.342520
vt 0.399255 0.361689
vt 0.401607 0.341905
vt 0.401454 0.360158
vt 0.469610 0.349472
vt 0.469637 0.340342
vt 0.347309 0.364092
vt 0.347229 0.342733
vt 0.436176 0.340267
vt 0.452700 0.339887
vt 0.452699 0.349114
vt 0.436202 0.349411
vt 0.380700 0.342732
vt 0.380627 0.364189
vt 0.364174 0.364686
vt 0.364171 0.342730
vt 0.173802 0.825335
vt 0.176804 0.826166
vt 0.483749 0.361384
vt 0.486751 0.361749
vt 0.469563 0.361112
vt 0.452698 0.361060
vt 0.436245 0.361095
vt 0.420620 0.361386
vt 0.417618 0.361749
vt 0.112227 0.895379
vt 0.109226 0.896213
vt 0.106173 0.897366
vt 0.101866 0.886832
vt 0.098499 0.888586
vt 0.102284 0.898681
vt 0.104030 0.909131
vt 0.094584 0.900312
vt 0.187530 0.818541
vt 0.191445 0.830267
vt 0.181999 0.839086
vt 0.183745 0.828636
vt 0.177921 0.835995
vt 0.179858 0.827319
vt 0.174811 0.835882
vt 0.171516 0.835979
vt 0.483610 0.372777
vt 0.486603 0.372393
vt 0.469485 0.373445
vt 0.452696 0.373899
vt 0.436316 0.373501
vt 0.420759 0.372780
vt 0.417766 0.372393
vt 0.114513 0.906023
vt 0.111219 0.905930
vt 0.108110 0.906043
vt 0.071592 0.925346
vt 0.070291 0.903001
vt 0.073184 0.902263
vt 0.074410 0.924445
vt 0.399015 0.385491
vt 0.401203 0.382504
vt 0.396027 0.387210
vt 0.364177 0.392295
vt 0.380511 0.391125
vt 0.347436 0.390898
vt 0.333347 0.387207
vt 0.330359 0.385491
vt 0.328171 0.382504
vt 0.214437 0.855302
vt 0.211619 0.854401
vt 0.212844 0.832219
vt 0.215738 0.832957
vt 0.161310 0.841573
vt 0.164577 0.841318
vt 0.166738 0.843159
vt 0.119293 0.913208
vt 0.166079 0.845427
vt 0.162844 0.844680
vt 0.163462 0.842728
vt 0.159411 0.845047
vt 0.159957 0.843298
vt 0.486481 0.381461
vt 0.483495 0.382201
vt 0.469420 0.383902
vt 0.452694 0.384383
vt 0.436375 0.384018
vt 0.420874 0.382205
vt 0.417888 0.381461
vt 0.123187 0.914730
vt 0.126618 0.915092
vt 0.119953 0.915478
vt 0.401175 0.385011
vt 0.398988 0.388163
vt 0.396001 0.389983
vt 0.380497 0.394144
vt 0.364178 0.395390
vt 0.347450 0.393903
vt 0.333373 0.389979
vt 0.330387 0.388163
vt 0.328199 0.385011
vt 0.391137 0.024695
vt 0.391140 0.029827
vt 0.388829 0.031589
vt 0.388829 0.026732
vt 0.394074 0.023124
vt 0.394072 0.028842
vt 0.409569 0.017567
vt 0.409569 0.025591
vt 0.425874 0.015722
vt 0.425874 0.024070
vt 0.442586 0.017914
vt 0.442586 0.025592
vt 0.456468 0.023032
vt 0.456446 0.028746
vt 0.459670 0.024737
vt 0.459678 0.029871
vt 0.461910 0.026732
vt 0.461911 0.031591
vt 0.459687 0.036530
vt 0.461912 0.037643
vt 0.461913 0.047388
vt 0.459696 0.046504
vt 0.113270 0.920739
vt 0.107214 0.922773
vt 0.106488 0.920716
vt 0.112134 0.918848
vt 0.391143 0.036517
vt 0.388829 0.037645
vt 0.394070 0.035995
vt 0.409569 0.034634
vt 0.425874 0.034217
vt 0.442586 0.034715
vt 0.456422 0.035968
vt 0.172760 0.850702
vt 0.173894 0.848804
vt 0.179541 0.850672
vt 0.178812 0.852736
vt 0.162418 0.846716
vt 0.159859 0.846928
vt 0.126180 0.916973
vt 0.123610 0.916760
vt 0.330431 0.389594
vt 0.328746 0.387094
vt 0.400628 0.387094
vt 0.398930 0.389600
vt 0.420906 0.383953
vt 0.417942 0.383342
vt 0.214221 0.857810
vt 0.212949 0.859893
vt 0.210950 0.859048
vt 0.211412 0.856890
vt 0.395965 0.391178
vt 0.071808 0.927854
vt 0.074617 0.926935
vt 0.075078 0.929088
vt 0.073080 0.929937
vt 0.486439 0.383342
vt 0.483438 0.383957
vt 0.333437 0.391188
vt 0.436389 0.385728
vt 0.380483 0.395297
vt 0.469405 0.385613
vt 0.452693 0.386076
vt 0.347466 0.395057
vt 0.364178 0.396524
vt 0.121221 0.917335
vt 0.164809 0.847295
vt 0.207635 0.858847
vt 0.208103 0.856678
vt 0.097469 0.925664
vt 0.086322 0.927815
vt 0.085872 0.925662
vt 0.096890 0.923556
vt 0.169164 0.846730
vt 0.167902 0.848582
vt 0.188557 0.855628
vt 0.189139 0.853511
vt 0.200157 0.855617
vt 0.199705 0.857779
vt 0.394079 0.019783
vt 0.391130 0.021529
vt 0.394068 0.046078
vt 0.394065 0.057522
vt 0.391148 0.057842
vt 0.391146 0.046493
vt 0.394071 0.065806
vt 0.391141 0.065985
vt 0.459619 0.018689
vt 0.461295 0.021249
vt 0.461898 0.023639
vt 0.459646 0.021554
vt 0.461914 0.058535
vt 0.459705 0.057853
vt 0.461906 0.069780
vt 0.459653 0.069305
vt 0.459681 0.065993
vt 0.461908 0.066466
vt 0.459621 0.072986
vt 0.461306 0.071779
vt 0.456531 0.019725
vt 0.442586 0.014269
vt 0.425874 0.012346
vt 0.409569 0.013921
vt 0.388837 0.023639
vt 0.456615 0.073514
vt 0.456511 0.069109
vt 0.442586 0.068556
vt 0.442586 0.073305
vt 0.409569 0.068506
vt 0.409569 0.073254
vt 0.394086 0.073515
vt 0.394077 0.069120
vt 0.394087 0.016213
vt 0.409569 0.010750
vt 0.409569 0.044995
vt 0.409569 0.056684
vt 0.456619 0.016200
vt 0.456397 0.046053
vt 0.456374 0.057500
vt 0.456438 0.065789
vt 0.391122 0.072990
vt 0.389424 0.071779
vt 0.388830 0.069781
vt 0.391132 0.069300
vt 0.095653 0.876948
vt 0.442586 0.011098
vt 0.442586 0.045060
vt 0.442586 0.056734
vt 0.442586 0.065241
vt 0.425874 0.009373
vt 0.391122 0.018679
vt 0.389435 0.021249
vt 0.388832 0.066467
vt 0.388830 0.058537
vt 0.388830 0.047390
vt 0.087687 0.879498
vt 0.092121 0.877973
vt 0.170219 0.844878
vt 0.116865 0.916774
vt 0.115810 0.914923
vt 0.111792 0.916340
vt 0.213769 0.813853
vt 0.216699 0.814703
vt 0.069330 0.884748
vt 0.072260 0.883898
vt 0.193908 0.807929
vt 0.209615 0.831735
vt 0.202288 0.830442
vt 0.203573 0.810894
vt 0.210598 0.812933
vt 0.198342 0.809454
vt 0.096638 0.921015
vt 0.085655 0.923108
vt 0.083741 0.900487
vt 0.077710 0.924205
vt 0.076414 0.901779
vt 0.208319 0.854161
vt 0.200373 0.853064
vt 0.189391 0.850970
vt 0.106195 0.918189
vt 0.174237 0.846295
vt 0.179834 0.848145
vt 0.077926 0.926722
vt 0.118128 0.918620
vt 0.425874 0.044663
vt 0.078392 0.928884
vt 0.425874 0.072998
vt 0.425874 0.068249
vt 0.409569 0.065191
vt 0.425874 0.056427
vt 0.425874 0.064935
vt 0.082456 0.880938
vt 0.075431 0.882977
vn -0.2458 0.6188 -0.7461
vn -0.5157 0.5448 -0.6612
vn -0.6886 0.6467 -0.3281
vn -0.4268 0.8182 -0.3852
vn 0.6938 0.6423 -0.3256
vn 0.8982 0.3911 -0.2005
vn 0.8385 0.3508 -0.4169
vn 0.5215 0.5425 -0.6586
vn 0.2446 0.6194 -0.7460
vn 0.4234 0.8197 -0.3858
vn 0.0828 0.6325 -0.7701
vn 0.1668 0.8960 -0.4116
vn -0.0039 0.6302 -0.7764
vn -0.0072 0.9070 -0.4211
vn -0.1778 0.8942 -0.4109
vn -0.0879 0.6315 -0.7704
vn -0.6827 0.6281 -0.3733
vn -0.6806 0.6569 -0.3243
vn -0.3378 0.8453 -0.4140
vn -0.3434 0.8089 -0.4772
vn -0.9058 0.3646 -0.2160
vn -0.9069 0.3786 -0.1848
vn -0.9929 0.1044 -0.0568
vn -0.9929 0.1092 -0.0470
vn 0.9057 0.3649 -0.2158
vn 0.6834 0.6277 -0.3728
vn 0.6817 0.6561 -0.3237
vn 0.9068 0.3791 -0.1845
vn 0.3454 0.8083 -0.4768
vn 0.3401 0.8445 -0.4136
vn -0.4615 -0.8850 0.0613
vn -0.8523 -0.5216 0.0389
vn -0.8580 -0.5125 0.0356
vn -0.4781 -0.8764 0.0569
vn -0.1137 -0.9912 0.0685
vn -0.1205 -0.9907 0.0636
vn 0.1130 -0.9912 0.0686
vn 0.1201 -0.9907 0.0637
vn 0.4781 -0.8765 0.0569
vn 0.4614 -0.8851 0.0613
vn 0.8580 -0.5125 0.0356
vn 0.8523 -0.5216 0.0389
vn -0.1093 0.8955 -0.4315
vn -0.1107 0.8603 -0.4977
vn 0.0009 -0.9976 0.0688
vn 0.0009 -0.9980 0.0628
vn 0.1062 0.8608 -0.4978
vn -0.0067 0.8688 -0.4951
vn -0.0069 0.9027 -0.4303
vn 0.1048 0.8959 -0.4317
vn -0.0010 -0.9980 0.0631
vn -0.0011 -0.9976 0.0691
vn 0.0004 -0.9976 0.0692
vn 0.0002 -0.9980 0.0627
vn -0.6751 0.7073 -0.2095
vn -0.9093 0.4007 -0.1126
vn -0.3260 0.9052 -0.2727
vn -0.1097 0.9510 -0.2891
vn -0.0075 0.9566 -0.2913
vn 0.1049 0.9514 -0.2897
vn 0.3285 0.9043 -0.2727
vn 0.6774 0.7054 -0.2087
vn 0.9088 0.4018 -0.1121
vn 0.9919 0.1244 -0.0245
vn 0.9927 0.1110 -0.0476
vn 1.0000 0.0018 0.0090
vn 0.9999 0.0038 0.0119
vn 0.9999 0.0040 0.0113
vn 0.9999 0.0015 0.0107
vn -1.0000 0.0018 0.0090
vn -0.9999 0.0016 0.0107
vn -0.9999 0.0040 0.0114
vn -0.9999 0.0038 0.0119
vn -0.9911 0.1095 -0.0752
vn -0.9924 0.1204 -0.0238
vn -0.9099 0.4085 -0.0717
vn -0.6707 0.7277 -0.1435
vn -0.3195 0.9273 -0.1952
vn -0.1116 0.9706 -0.2135
vn -0.0078 0.9760 -0.2177
vn 0.1064 0.9709 -0.2144
vn 0.3220 0.9264 -0.1954
vn 0.6736 0.7252 -0.1425
vn 0.9093 0.4100 -0.0711
vn 0.9902 0.1149 -0.0799
vn 0.8449 -0.5326 0.0497
vn 0.9913 -0.1309 0.0171
vn 0.9912 -0.1308 0.0207
vn 0.4398 -0.8948 0.0774
vn 0.1052 -0.9906 0.0873
vn 0.0006 -0.9957 0.0926
vn 0.0004 -0.9959 0.0910
vn -0.0009 -0.9959 0.0907
vn -0.1065 -0.9905 0.0871
vn -0.4399 -0.8947 0.0774
vn -0.8449 -0.5326 0.0497
vn -0.9912 -0.1308 0.0207
vn -0.9913 -0.1309 0.0171
vn -0.0322 0.4473 -0.8938
vn -0.1186 0.4616 -0.8791
vn -0.3730 0.4423 -0.8156
vn -0.7848 0.3052 -0.5394
vn -0.8403 0.3484 -0.4153
vn -0.9872 0.1273 -0.0963
vn 0.7822 0.3073 -0.5419
vn 0.9853 0.1362 -0.1028
vn 0.3786 0.4414 -0.8135
vn 0.1189 0.4621 -0.8788
vn 0.0308 0.4482 -0.8934
vn -0.0021 0.4404 -0.8978
vn -0.9808 0.1610 0.1102
vn -0.9149 0.4029 0.0253
vn -0.8993 0.3889 -0.2002
vn -0.7533 0.6577 -0.0049
vn -0.5054 0.8626 0.0221
vn -0.2268 0.9732 0.0378
vn -0.0094 0.9992 0.0387
vn 0.2129 0.9763 0.0382
vn 0.5014 0.8649 0.0222
vn 0.7566 0.6538 -0.0072
vn 0.9146 0.4040 0.0181
vn 0.9802 0.1672 0.1062
vn 0.8903 -0.3939 0.2284
vn 0.5947 -0.7245 0.3485
vn 0.2404 -0.8597 0.4507
vn 0.0678 -0.8735 0.4821
vn -0.0019 -0.8732 0.4874
vn -0.0727 -0.8735 0.4813
vn -0.2431 -0.8592 0.4502
vn -0.5947 -0.7246 0.3484
vn -0.8902 -0.3945 0.2277
vn 0.6445 0.3548 0.6773
vn 0.6557 0.3017 0.6921
vn 0.8848 0.1766 0.4312
vn 0.8701 0.2101 0.4458
vn 0.3910 0.4413 0.8077
vn 0.3712 0.3768 0.8487
vn 0.1751 0.4742 0.8628
vn 0.1673 0.4008 0.9008
vn -0.0079 0.4830 0.8756
vn -0.0088 0.4079 0.9130
vn -0.1846 0.4698 0.8633
vn -0.1763 0.4005 0.8992
vn -0.3879 0.4398 0.8100
vn -0.3662 0.3777 0.8504
vn -0.6435 0.3558 0.6777
vn -0.6551 0.3022 0.6925
vn -0.8730 0.2089 0.4406
vn -0.8882 0.1745 0.4250
vn -0.6612 0.2389 0.7111
vn -0.8956 0.1372 0.4231
vn -0.8988 0.1044 0.4257
vn -0.6663 0.1784 0.7241
vn 0.8918 0.1393 0.4304
vn 0.9857 0.0505 0.1606
vn 0.9858 0.0602 0.1570
vn 0.6614 0.2386 0.7111
vn 0.3627 0.3013 0.8818
vn 0.1648 0.3212 0.9326
vn -0.0077 0.3288 0.9444
vn -0.1745 0.3251 0.9294
vn -0.3592 0.3042 0.8823
vn -0.9862 0.0593 0.1546
vn -0.9862 0.0497 0.1579
vn -0.8549 0.4048 0.3244
vn -0.7129 0.5478 0.4378
vn 0.7152 0.5467 0.4355
vn 0.8571 0.4058 0.3173
vn -0.6965 -0.2406 0.6760
vn -0.8803 -0.1646 0.4450
vn 0.8795 -0.1615 0.4476
vn 0.6966 -0.2391 0.6765
vn 0.4836 0.6989 0.5270
vn -0.8936 -0.0253 0.4481
vn -0.9790 -0.0976 0.1791
vn 0.3710 -0.3087 0.8759
vn 0.9788 -0.0969 0.1803
vn 0.8917 -0.0218 0.4522
vn -0.4864 0.6975 0.5261
vn -0.3737 -0.3082 0.8749
vn 0.2114 0.7929 0.5715
vn 0.1530 -0.3178 0.9358
vn -0.2253 0.7908 0.5691
vn -0.0094 0.8190 0.5737
vn -0.1628 -0.3179 0.9340
vn -0.0055 -0.3172 0.9483
vn 0.8550 0.2774 0.4381
vn -0.8558 0.2756 0.4378
vn -0.8984 0.0418 0.4373
vn -0.9862 0.0165 0.1647
vn 0.8947 0.1061 0.4340
vn 0.8951 0.0723 0.4400
vn 0.9859 0.0271 0.1650
vn 0.9859 0.0396 0.1626
vn -0.9862 0.0656 0.1522
vn -0.9864 0.0389 0.1596
vn -0.9865 0.0265 0.1619
vn -0.8993 0.0706 0.4317
vn 0.4044 0.4805 0.7782
vn 0.6247 0.3924 0.6751
vn 0.3645 0.2238 0.9039
vn 0.3656 0.1538 0.9180
vn 0.6675 0.1219 0.7346
vn 0.6664 0.1782 0.7240
vn 0.3664 0.0922 0.9259
vn 0.6686 0.0734 0.7400
vn -0.6241 0.3935 0.6750
vn -0.6674 0.1217 0.7347
vn -0.6681 0.0211 0.7438
vn -0.6683 0.0725 0.7404
vn -0.4047 0.4804 0.7781
vn -0.1909 0.5326 0.8246
vn -0.0076 0.5560 0.8312
vn 0.1797 0.5332 0.8267
vn -0.3663 0.0311 0.9300
vn -0.1761 0.0360 0.9837
vn 0.1660 0.0367 0.9854
vn 0.3658 0.0311 0.9302
vn 0.1658 0.2385 0.9569
vn 0.1663 0.1646 0.9723
vn -0.3617 0.2241 0.9050
vn -0.3628 0.1540 0.9191
vn -0.3647 0.0922 0.9265
vn 0.6681 0.0232 0.7437
vn 0.9928 0.1054 -0.0572
vn -0.1754 0.2381 0.9553
vn -0.1759 0.1642 0.9706
vn -0.1761 0.0977 0.9795
vn 0.8950 0.0441 0.4438
vn 1.0000 0.0010 0.0093
vn 1.0000 0.0021 0.0078
vn -0.9999 0.0046 0.0105
vn 0.9858 0.0662 0.1543
vn 0.9999 0.0046 0.0105
vn 0.9999 0.0040 0.0113
vn -0.9913 -0.1307 0.0154
vn 0.9913 -0.1307 0.0154
vn -1.0000 0.0021 0.0078
vn -0.9999 0.0018 0.0101
vn -0.9999 0.0019 0.0102
vn -1.0000 0.0016 0.0090
vn -1.0000 0.0016 0.0087
vn -1.0000 0.0010 0.0093
vn 0.9999 0.0029 0.0113
vn 0.9999 0.0021 0.0115
vn 0.9999 0.0019 0.0102
vn 0.9999 0.0019 0.0115
vn 0.9999 0.0018 0.0101
vn -0.9999 0.0019 0.0115
vn -0.9999 0.0021 0.0115
vn -0.9999 0.0029 0.0113
vn 0.9999 0.0036 0.0111
vn -0.9999 0.0040 0.0113
vn -0.9999 0.0036 0.0111
vn 0.9858 0.0170 0.1672
vn -0.0063 0.2425 0.9701
vn -0.0063 0.0390 0.9992
vn 0.1663 0.0983 0.9812
vn -0.0063 0.1676 0.9858
vn -0.0063 0.0999 0.9950
vn 1.0000 0.0016 0.0090
vn 1.0000 0.0017 0.0087
f 1/1/1 2/2/2 4/3/3 3/4/4
f 5/5/5 6/6/6 8/7/7 7/8/8
f 9/9/9 10/10/10 5/11/5 7/12/8
f 10/10/10 9/9/9 12/13/11 11/14/12
f 13/15/13 14/16/14 11/14/12 12/13/11
f 15/17/15 14/16/14 13/15/13 16/18/16
f 16/18/16 1/1/1 3/4/4 15/17/15
f 17/19/17 18/20/18 20/21/19 19/22/20
f 21/23/21 22/24/22 18/25/18 17/26/17
f 23/27/23 24/28/24 22/24/22 21/23/21
f 25/29/25 26/30/26 28/31/27 27/32/28
f 26/33/26 29/34/29 30/35/30 28/36/27
f 31/37/31 32/38/32 34/39/33 33/40/34
f 35/41/35 31/37/31 33/40/34 36/42/36
f 37/43/37 38/44/38 40/45/39 39/46/40
f 39/46/40 40/45/39 42/47/41 41/48/42
f 19/22/20 20/21/19 44/49/43 43/50/44
f 45/51/45 35/41/35 36/42/36 46/52/46
f 47/53/47 48/54/48 50/55/49 49/56/50
f 51/57/51 52/58/52 54/59/53 53/60/54
f 43/50/44 44/49/43 50/55/49 48/54/48
f 54/59/53 45/51/45 46/52/46 53/60/54
f 29/34/29 47/53/47 49/56/50 30/35/30
f 55/61/55 18/25/18 22/24/22 56/62/56
f 57/63/57 20/21/19 18/20/18 55/64/55
f 58/65/58 44/49/43 20/21/19 57/63/57
f 44/49/43 58/65/58 59/66/59 50/55/49
f 49/56/50 50/55/49 59/66/59 60/67/60
f 60/67/60 61/68/61 30/35/30 49/56/50
f 61/68/61 62/69/62 28/36/27 30/35/30
f 62/70/62 63/71/63 27/32/28 28/31/27
f 63/71/63 64/72/64 65/73/65 27/32/28
f 66/74/66 67/75/67 69/76/68 68/77/69
f 70/78/70 71/79/71 73/80/72 72/81/73
f 73/80/72 74/82/74 75/83/75 72/81/73
f 76/84/76 56/62/56 75/83/75 74/82/74
f 77/85/77 55/61/55 56/62/56 76/84/76
f 78/86/78 57/63/57 55/64/55 77/87/77
f 79/88/79 58/65/58 57/63/57 78/86/78
f 80/89/80 59/66/59 58/65/58 79/88/79
f 80/89/80 81/90/81 60/67/60 59/66/59
f 81/90/81 82/91/82 61/68/61 60/67/60
f 82/91/82 83/92/83 62/69/62 61/68/61
f 83/93/83 84/94/84 63/71/63 62/70/62
f 84/94/84 85/95/85 64/72/64 63/71/63
f 69/76/68 67/75/67 64/72/64 85/95/85
f 86/96/86 41/97/42 88/98/87 87/99/88
f 89/100/89 39/46/40 41/48/42 86/101/86
f 90/102/90 37/43/37 39/46/40 89/100/89
f 91/103/91 54/59/53 52/58/52 92/104/92
f 91/103/91 93/105/93 45/51/45 54/59/53
f 94/106/94 95/107/95 31/37/31 35/41/35
f 95/107/95 96/108/96 32/38/32 31/37/31
f 96/109/96 97/110/97 98/111/98 32/112/32
f 79/88/99 78/86/100 1/1/1 16/18/16
f 1/1/1 78/86/100 77/87/101 2/2/2
f 2/113/2 77/85/101 76/84/102 99/114/103
f 74/82/74 100/115/104 99/114/103 76/84/102
f 85/95/85 84/94/105 8/7/7 101/116/106
f 7/8/8 8/7/7 84/94/105 83/93/107
f 9/9/9 7/12/8 83/92/107 82/91/108
f 81/90/109 12/13/11 9/9/9 82/91/108
f 81/90/109 80/89/110 13/15/13 12/13/11
f 13/15/13 80/89/110 79/88/99 16/18/16
f 102/117/111 103/118/112 104/119/113 100/115/104
f 103/118/112 105/120/114 4/121/3 104/119/113
f 3/4/4 4/3/3 105/122/114 106/123/115
f 15/17/15 3/4/4 106/123/115 107/124/116
f 14/16/14 15/17/15 107/124/116 108/125/117
f 14/16/14 108/125/117 109/126/118 11/14/12
f 11/14/12 109/126/118 110/127/119 10/10/10
f 10/10/10 110/127/119 111/128/120 5/11/5
f 112/129/121 6/6/6 5/5/5 111/130/120
f 113/131/122 101/116/106 6/6/6 112/129/121
f 86/101/86 114/132/123 115/133/124 89/100/89
f 90/102/90 89/100/89 115/133/124 116/134/125
f 92/104/92 90/102/90 116/134/125 117/135/126
f 92/104/92 117/135/126 118/136/127 91/103/91
f 93/105/93 91/103/91 118/136/127 119/137/128
f 93/105/93 119/137/128 120/138/129 94/106/94
f 94/106/94 120/138/129 121/139/130 95/107/95
f 96/108/96 95/107/95 121/139/130 122/140/131
f 123/141/132 124/142/133 126/143/134 125/144/135
f 127/145/136 128/146/137 124/142/133 123/141/132
f 129/147/138 130/148/139 128/146/137 127/145/136
f 131/149/140 132/150/141 130/148/139 129/147/138
f 131/149/140 133/151/142 134/152/143 132/150/141
f 133/151/142 135/153/144 136/154/145 134/152/143
f 135/153/144 137/155/146 138/156/147 136/154/145
f 137/155/146 139/157/148 140/158/149 138/156/147
f 141/159/150 142/160/151 144/161/152 143/162/153
f 126/163/134 145/164/154 147/165/155 146/166/156
f 124/142/133 148/167/157 145/168/154 126/143/134
f 128/146/137 149/169/158 148/167/157 124/142/133
f 130/148/139 150/170/159 149/169/158 128/146/137
f 132/150/141 151/171/160 150/170/159 130/148/139
f 132/150/141 134/152/143 152/172/161 151/171/160
f 134/152/143 136/154/145 153/173/162 152/172/161
f 136/154/145 138/156/147 141/159/150 153/173/162
f 138/156/147 140/158/149 142/160/151 141/159/150
f 140/174/149 154/175/163 155/176/164 142/177/151
f 103/118/112 156/178/165 157/179/166 105/120/114
f 112/129/121 111/130/120 159/180/167 158/181/168
f 121/139/130 160/182/169 161/183/170 122/140/131
f 115/133/124 114/132/123 163/184/171 162/185/172
f 111/128/120 110/127/119 164/186/173 159/187/167
f 122/188/131 161/189/170 166/190/174 165/191/175
f 162/185/172 167/192/176 116/134/125 115/133/124
f 114/193/123 168/194/177 169/195/178 163/196/171
f 105/122/114 157/197/166 170/198/179 106/123/115
f 160/182/169 121/139/130 120/138/129 171/199/180
f 110/127/119 109/126/118 172/200/181 164/186/173
f 116/134/125 167/192/176 173/201/182 117/135/126
f 106/123/115 170/198/179 174/202/183 107/124/116
f 108/125/117 175/203/184 172/200/181 109/126/118
f 108/125/117 107/124/116 174/202/183 175/203/184
f 120/138/129 119/137/128 176/204/185 171/199/180
f 177/205/186 176/204/185 119/137/128 118/136/127
f 117/135/126 173/201/182 177/205/186 118/136/127
f 112/129/121 158/181/168 178/206/187 113/131/122
f 102/117/111 179/207/188 156/178/165 103/118/112
f 180/208/189 181/209/190 165/191/175 166/190/174
f 182/210/191 183/211/192 185/212/193 184/213/194
f 186/214/195 139/215/148 179/207/188 102/117/111
f 144/216/152 187/217/196 189/218/197 188/219/198
f 188/219/198 189/218/197 181/209/190 180/208/189
f 190/220/199 127/145/136 123/141/132 191/221/200
f 192/222/201 193/223/202 195/224/203 194/225/204
f 193/223/202 196/226/205 197/227/206 195/224/203
f 157/228/166 156/229/165 179/230/188 198/231/207
f 139/157/148 137/155/146 198/231/207 179/230/188
f 143/162/153 144/161/152 188/232/198 199/233/208
f 166/234/174 200/235/209 201/236/210 180/237/189
f 160/238/169 200/235/209 166/234/174 161/239/170
f 202/240/211 198/231/207 137/155/146 135/153/144
f 203/241/212 202/240/211 135/153/144 133/151/142
f 204/242/213 203/241/212 133/151/142 131/149/140
f 129/147/138 205/243/214 204/242/213 131/149/140
f 205/243/214 129/147/138 127/145/136 190/220/199
f 125/144/135 178/244/187 191/221/200 123/141/132
f 171/245/180 206/246/215 200/235/209 160/238/169
f 207/247/216 206/246/215 171/245/180 176/248/185
f 208/249/217 173/250/182 167/251/176 209/252/218
f 164/253/173 172/254/181 205/243/214 190/220/199
f 193/223/202 192/222/201 211/255/219 210/256/220
f 202/240/211 170/257/179 157/228/166 198/231/207
f 212/258/221 143/162/153 199/233/208 213/259/222
f 213/259/222 199/233/208 201/236/210 214/260/223
f 214/260/223 201/236/210 200/235/209 206/246/215
f 162/261/172 163/262/171 169/263/178 215/264/224
f 216/265/225 25/29/25 27/32/28 65/73/65
f 170/257/179 202/240/211 203/241/212 174/266/183
f 217/267/226 212/258/221 213/259/222 218/268/227
f 218/268/227 213/259/222 214/260/223 219/269/228
f 206/246/215 207/247/216 219/269/228 214/260/223
f 175/270/184 204/242/213 205/243/214 172/254/181
f 203/241/212 204/242/213 175/270/184 174/266/183
f 159/271/167 191/221/200 178/244/187 158/272/168
f 195/224/203 197/227/206 220/273/229 183/274/192
f 194/225/204 195/224/203 183/274/192 182/275/191
f 52/58/52 51/57/51 38/44/38 37/43/37
f 68/77/69 221/276/230 222/277/231 66/74/66
f 100/115/104 223/278/232 186/214/195 102/117/111
f 101/116/106 113/131/122 224/279/233 225/280/234
f 146/166/156 226/281/235 225/280/234 224/279/233
f 100/115/104 104/119/113 99/114/103
f 6/6/6 101/116/106 8/7/7
f 32/112/32 98/111/98 227/282/236 34/283/33
f 88/98/87 41/97/42 42/284/41 228/285/237
f 229/286/238 70/78/70 24/28/24 23/27/23
f 230/287/239 231/288/240 232/289/241 233/290/242
f 231/288/240 71/79/71 234/291/243 232/289/241
f 227/282/236 98/111/98 230/287/239 233/290/242
f 24/28/24 75/83/75 56/62/56 22/24/22
f 67/75/67 66/74/66 65/73/65 64/72/64
f 24/28/24 70/78/70 72/81/73 75/83/75
f 68/77/69 235/292/244 236/293/245 237/294/246
f 237/294/246 236/293/245 238/295/247 239/296/248
f 239/296/248 238/295/247 87/99/88 88/98/87
f 37/43/37 90/102/90 92/104/92 52/58/52
f 93/105/93 94/106/94 35/41/35 45/51/45
f 98/111/98 97/110/97 240/297/249 230/287/239
f 240/297/249 241/298/250 231/288/240 230/287/239
f 241/298/250 242/299/251 71/79/71 231/288/240
f 243/300/252 69/76/68 225/280/234 226/281/235
f 73/80/72 223/278/232 100/115/104 74/82/74
f 244/301/253 223/278/232 73/80/72 245/302/254
f 245/302/254 73/80/72 71/79/71 242/299/251
f 69/76/68 243/300/252 235/292/244 68/77/69
f 225/280/234 69/76/68 85/95/85 101/116/106
f 244/301/253 154/175/163 186/214/195 223/278/232
f 226/281/235 146/166/156 147/165/155 243/300/252
f 243/300/252 147/165/155 184/213/194 235/292/244
f 185/212/193 236/293/245 235/292/244 184/213/194
f 246/303/255 238/295/247 236/293/245 185/212/193
f 168/194/177 87/99/88 238/295/247 246/303/255
f 87/99/88 168/194/177 114/193/123 86/96/86
f 96/109/96 122/188/131 165/191/175 97/110/97
f 97/110/97 165/191/175 181/209/190 240/297/249
f 240/297/249 181/209/190 189/218/197 241/298/250
f 241/298/250 189/218/197 187/217/196 242/299/251
f 242/299/251 187/217/196 155/176/164 245/302/254
f 244/301/253 245/302/254 155/176/164 154/175/163
f 146/166/156 224/279/233 125/304/135 126/163/134
f 140/174/149 139/215/148 186/214/195 154/175/163
f 184/213/194 147/165/155 145/164/154 182/210/191
f 145/168/154 148/167/157 194/225/204 182/275/191
f 148/167/157 149/169/158 192/222/201 194/225/204
f 149/169/158 150/170/159 211/255/219 192/222/201
f 150/170/159 151/171/160 247/305/256 211/255/219
f 151/171/160 152/172/161 217/267/226 247/305/256
f 152/172/161 153/173/162 212/258/221 217/267/226
f 153/173/162 141/159/150 143/162/153 212/258/221
f 144/216/152 142/177/151 155/176/164 187/217/196
f 71/79/71 70/78/70 229/286/238 234/291/243
f 220/306/229 169/195/178 168/194/177 246/303/255
f 224/279/233 113/131/122 178/206/187 125/304/135
f 183/211/192 220/306/229 246/303/255 185/212/193
f 164/253/173 190/220/199 191/221/200 159/271/167
f 197/227/206 196/226/205 209/252/218 215/264/224
f 215/264/224 209/252/218 167/251/176 162/261/172
f 199/233/208 188/232/198 180/237/189 201/236/210
f 207/247/216 176/248/185 177/307/186 248/308/257
f 248/308/257 177/307/186 173/250/182 208/249/217
f 193/223/202 210/256/220 249/309/258 196/226/205
f 196/226/205 249/309/258 208/249/217 209/252/218
f 220/273/229 197/227/206 215/264/224 169/263/178
f 211/255/219 247/305/256 250/310/259 210/256/220
f 210/256/220 250/310/259 251/311/260 249/309/258
f 249/309/258 251/311/260 248/308/257 208/249/217
f 247/305/256 217/267/226 218/268/227 250/310/259
f 250/310/259 218/268/227 219/269/228 251/311/260
f 251/311/260 219/269/228 207/247/216 248/308/257
f 66/74/66 222/277/231 216/265/225 65/73/65
f 252/312/261 237/294/246 239/296/248 253/313/262
f 68/77/69 237/294/246 252/312/261 221/276/230
f 253/313/262 239/296/248 88/98/87 228/285/237
f 99/114/103 104/119/113 4/121/3 2/113/2
