# Special
# Sony PlayStation DualShock 3 by 3doverstock, CGTrader Royalty Free License
o Special
v 3.9305 -18.4135 1.0688
v 4.2586 -18.4707 2.7174
v 2.8657 -18.8617 2.7038
v 2.6437 -18.8229 1.5880
v 3.9305 -18.5280 4.3659
v 2.6437 -18.9004 3.8196
v 2.9961 -18.5765 5.7635
v 2.0112 -18.9333 4.7656
v 1.5977 -18.6089 6.6973
v 1.0647 -18.9552 5.3977
v -0.0518 -18.6195 7.0278
v -0.0518 -18.9533 5.6486
v -1.7014 -18.6089 6.6973
v -1.1684 -18.9552 5.3977
v -3.0998 -18.5765 5.7635
v -2.1149 -18.9333 4.7656
v -4.0341 -18.5280 4.3659
v -2.7473 -18.9004 3.8196
v -4.3623 -18.4707 2.7174
v -2.9694 -18.8617 2.7038
v -4.0341 -18.4135 1.0688
v -2.7473 -18.8229 1.5880
v -3.0998 -18.3650 -0.3287
v -2.1149 -18.7901 0.6420
v -1.7014 -18.3326 -1.2625
v -1.1684 -18.7682 0.0099
v -0.0518 -18.3212 -1.5904
v -0.0518 -18.7604 -0.2120
v 1.5977 -18.3326 -1.2625
v 1.0647 -18.7682 0.0099
v 2.9961 -18.3650 -0.3287
v 2.0112 -18.7901 0.6420
v 3.2509 -17.9885 -0.5706
v 4.2634 -18.0411 0.9438
v 4.2595 -18.1385 0.9420
v 3.2479 -18.0860 -0.5710
v 4.6189 -18.1031 2.7301
v 4.6147 -18.2005 2.7268
v 4.2634 -18.1651 4.5165
v 4.2595 -18.2625 4.5115
v 3.2509 -18.2177 6.0309
v 3.2479 -18.3150 6.0245
v 1.7356 -18.2528 7.0427
v 1.7340 -18.3501 7.0355
v -0.0518 -18.2652 7.3981
v -0.0518 -18.3624 7.3905
v -1.8393 -18.2528 7.0427
v -1.8377 -18.3501 7.0355
v -3.3546 -18.2177 6.0309
v -3.3516 -18.3150 6.0245
v -4.3670 -18.1651 4.5165
v -4.3632 -18.2625 4.5115
v -4.7226 -18.1031 2.7302
v -4.7184 -18.2005 2.7268
v -4.3670 -18.0411 0.9438
v -4.3632 -18.1385 0.9420
v -3.3546 -17.9885 -0.5706
v -3.3516 -18.0860 -0.5710
v -1.8393 -17.9534 -1.5825
v -1.8377 -18.0509 -1.5820
v -0.0518 -17.9410 -1.9378
v -0.0518 -18.0386 -1.9370
v 1.7356 -17.9534 -1.5825
v 1.7340 -18.0509 -1.5820
v 4.0571 -18.3732 1.0177
v 4.3957 -18.4323 2.7187
v 3.0930 -18.3231 -0.4243
v 1.6501 -18.2897 -1.3878
v -0.0518 -18.2779 -1.7261
v -1.7538 -18.2897 -1.3878
v -3.1967 -18.3231 -0.4242
v -4.1608 -18.3732 1.0177
v -4.4994 -18.4323 2.7187
v -4.1608 -18.4913 4.4197
v -3.1967 -18.5414 5.8617
v -1.7538 -18.5748 6.8252
v -0.0518 -18.5866 7.1636
v 1.6501 -18.5748 6.8252
v 3.0930 -18.5414 5.8617
v 4.0571 -18.4913 4.4197
v -0.0518 -19.1187 2.6949
v 4.6852 -16.4737 2.7867
v 4.3246 -16.5366 4.5984
v 4.3246 -16.4108 0.9750
v 3.2977 -16.3575 -0.5608
v 1.7609 -16.3219 -1.5871
v -0.0518 -16.3093 -1.9474
v -1.8646 -16.3219 -1.5871
v -3.4014 -16.3575 -0.5608
v -4.4282 -16.4108 0.9750
v -4.7888 -16.4737 2.7867
v -4.4282 -16.5366 4.5984
v -3.4014 -16.5899 6.1343
v -1.8646 -16.6256 7.1605
v -0.0518 -16.6381 7.5209
v 1.7609 -16.6256 7.1605
v 3.2977 -16.5899 6.1343
vt 0.343937 0.522135
vt 0.345222 0.528593
vt 0.339765 0.528540
vt 0.338895 0.524168
vt 0.343937 0.535051
vt 0.338895 0.532911
vt 0.340276 0.540526
vt 0.336418 0.536617
vt 0.334798 0.544185
vt 0.332709 0.539093
vt 0.328335 0.545480
vt 0.328335 0.540076
vt 0.321873 0.544185
vt 0.323961 0.539093
vt 0.316395 0.540526
vt 0.320253 0.536617
vt 0.312734 0.535051
vt 0.317775 0.532911
vt 0.311449 0.528593
vt 0.316905 0.528540
vt 0.312734 0.522135
vt 0.317775 0.524168
vt 0.316395 0.516659
vt 0.320253 0.520462
vt 0.321873 0.513001
vt 0.323961 0.517986
vt 0.328335 0.511716
vt 0.328335 0.517116
vt 0.334798 0.513001
vt 0.332709 0.517986
vt 0.340276 0.516659
vt 0.336418 0.520462
vt 0.341274 0.515712
vt 0.345241 0.521645
vt 0.345226 0.521638
vt 0.341262 0.515710
vt 0.346634 0.528643
vt 0.346617 0.528630
vt 0.345241 0.535641
vt 0.345226 0.535622
vt 0.341274 0.541574
vt 0.341263 0.541549
vt 0.335338 0.545538
vt 0.335331 0.545510
vt 0.328335 0.546930
vt 0.328335 0.546901
vt 0.321333 0.545538
vt 0.321339 0.545510
vt 0.315396 0.541574
vt 0.315408 0.541549
vt 0.311430 0.535641
vt 0.311445 0.535622
vt 0.310037 0.528643
vt 0.310053 0.528630
vt 0.311430 0.521645
vt 0.311445 0.521638
vt 0.315396 0.515712
vt 0.315408 0.515710
vt 0.321333 0.511748
vt 0.321339 0.511750
vt 0.328335 0.510356
vt 0.328335 0.510359
vt 0.335338 0.511748
vt 0.335331 0.511750
vt 0.344433 0.521934
vt 0.345759 0.528598
vt 0.340656 0.516285
vt 0.335003 0.512510
vt 0.328335 0.511185
vt 0.321668 0.512510
vt 0.316015 0.516285
vt 0.312238 0.521934
vt 0.310912 0.528598
vt 0.312238 0.535262
vt 0.316015 0.540911
vt 0.321668 0.544686
vt 0.328335 0.546011
vt 0.335003 0.544686
vt 0.340656 0.540911
vt 0.344433 0.535262
vt 0.328335 0.528505
vt 0.346893 0.528865
vt 0.345481 0.535962
vt 0.345481 0.521767
vt 0.341458 0.515750
vt 0.335437 0.511730
vt 0.328335 0.510318
vt 0.321234 0.511730
vt 0.315213 0.515750
vt 0.311190 0.521767
vt 0.309777 0.528865
vt 0.311190 0.535962
vt 0.315213 0.541979
vt 0.321234 0.545999
vt 0.328335 0.547411
vt 0.335437 0.545999
vt 0.341458 0.541979
vn 0.2498 -0.9586 -0.1368
vn 0.2704 -0.9622 -0.0334
vn 0.1798 -0.9831 -0.0341
vn 0.1661 -0.9807 -0.1029
vn 0.2498 -0.9658 0.0700
vn 0.1661 -0.9855 0.0346
vn 0.1912 -0.9688 0.1577
vn 0.1272 -0.9875 0.0929
vn 0.1032 -0.9709 0.2159
vn 0.0669 -0.9889 0.1324
vn 0.0000 -0.9717 0.2362
vn 0.0000 -0.9892 0.1466
vn -0.1032 -0.9709 0.2159
vn -0.0669 -0.9889 0.1324
vn -0.1912 -0.9688 0.1577
vn -0.1272 -0.9875 0.0929
vn -0.2498 -0.9658 0.0700
vn -0.1661 -0.9855 0.0346
vn -0.2704 -0.9622 -0.0334
vn -0.1798 -0.9831 -0.0341
vn -0.2498 -0.9586 -0.1368
vn -0.1661 -0.9807 -0.1029
vn -0.1912 -0.9555 -0.2245
vn -0.1272 -0.9787 -0.1612
vn -0.1035 -0.9535 -0.2831
vn -0.0688 -0.9773 -0.2002
vn 0.0000 -0.9528 -0.3036
vn 0.0000 -0.9769 -0.2138
vn 0.1035 -0.9535 -0.2831
vn 0.0688 -0.9773 -0.2002
vn 0.1912 -0.9555 -0.2245
vn 0.1272 -0.9787 -0.1612
vn 0.7065 -0.0173 -0.7075
vn 0.9231 -0.0285 -0.3836
vn 0.8504 -0.3785 -0.3656
vn 0.6508 -0.3681 -0.6640
vn 0.9991 -0.0418 -0.0015
vn 0.9204 -0.3907 -0.0136
vn 0.9231 -0.0550 0.3807
vn 0.8504 -0.4029 0.3385
vn 0.7065 -0.0663 0.7046
vn 0.6508 -0.4132 0.6369
vn 0.3824 -0.0738 0.9211
vn 0.3522 -0.4202 0.8363
vn 0.0000 -0.0764 0.9971
vn 0.0000 -0.4226 0.9063
vn -0.3824 -0.0738 0.9211
vn -0.3522 -0.4202 0.8363
vn -0.7065 -0.0663 0.7046
vn -0.6508 -0.4133 0.6369
vn -0.9231 -0.0550 0.3807
vn -0.8504 -0.4029 0.3385
vn -0.9991 -0.0418 -0.0015
vn -0.9204 -0.3907 -0.0136
vn -0.9231 -0.0285 -0.3836
vn -0.8504 -0.3785 -0.3656
vn -0.7065 -0.0173 -0.7075
vn -0.6508 -0.3681 -0.6640
vn -0.3823 -0.0097 -0.9240
vn -0.3522 -0.3612 -0.8634
vn -0.0000 -0.0071 -1.0000
vn -0.0000 -0.3587 -0.9334
vn 0.3823 -0.0097 -0.9240
vn 0.3522 -0.3612 -0.8634
vn 0.4771 -0.8490 -0.2272
vn 0.5164 -0.8558 -0.0297
vn 0.3651 -0.8432 -0.3946
vn 0.1976 -0.8393 -0.5065
vn 0.0000 -0.8379 -0.5458
vn -0.1976 -0.8393 -0.5065
vn -0.3651 -0.8432 -0.3946
vn -0.4771 -0.8490 -0.2272
vn -0.5164 -0.8558 -0.0297
vn -0.4771 -0.8627 0.1678
vn -0.3651 -0.8685 0.3352
vn -0.1976 -0.8725 0.4469
vn 0.0000 -0.8739 0.4860
vn 0.1976 -0.8725 0.4469
vn 0.3651 -0.8685 0.3352
vn 0.4771 -0.8627 0.1678
vn -0.0000 -0.9994 -0.0344
vn 0.9992 -0.0406 -0.0014
vn 0.9231 -0.0538 0.3807
vn 0.9231 -0.0273 -0.3835
vn 0.7065 -0.0161 -0.7075
vn 0.3824 -0.0085 -0.9240
vn 0.0000 -0.0059 -1.0000
vn -0.3824 -0.0085 -0.9240
vn -0.7065 -0.0161 -0.7075
vn -0.9231 -0.0273 -0.3835
vn -0.9992 -0.0406 -0.0014
vn -0.9231 -0.0538 0.3807
vn -0.7065 -0.0651 0.7047
vn -0.3824 -0.0726 0.9212
vn 0.0000 -0.0753 0.9972
vn 0.3824 -0.0726 0.9212
vn 0.7065 -0.0651 0.7047
f 1/1/1 2/2/2 3/3/3 4/4/4
f 2/2/2 5/5/5 6/6/6 3/3/3
f 5/5/5 7/7/7 8/8/8 6/6/6
f 7/7/7 9/9/9 10/10/10 8/8/8
f 9/9/9 11/11/11 12/12/12 10/10/10
f 11/11/11 13/13/13 14/14/14 12/12/12
f 13/13/13 15/15/15 16/16/16 14/14/14
f 15/15/15 17/17/17 18/18/18 16/16/16
f 17/17/17 19/19/19 20/20/20 18/18/18
f 19/19/19 21/21/21 22/22/22 20/20/20
f 21/21/21 23/23/23 24/24/24 22/22/22
f 23/23/23 25/25/25 26/26/26 24/24/24
f 25/25/25 27/27/27 28/28/28 26/26/26
f 27/27/27 29/29/29 30/30/30 28/28/28
f 29/29/29 31/31/31 32/32/32 30/30/30
f 32/32/32 31/31/31 1/1/1 4/4/4
f 33/33/33 34/34/34 35/35/35 36/36/36
f 34/34/34 37/37/37 38/38/38 35/35/35
f 37/37/37 39/39/39 40/40/40 38/38/38
f 39/39/39 41/41/41 42/42/42 40/40/40
f 41/41/41 43/43/43 44/44/44 42/42/42
f 43/43/43 45/45/45 46/46/46 44/44/44
f 45/45/45 47/47/47 48/48/48 46/46/46
f 47/47/47 49/49/49 50/50/50 48/48/48
f 49/49/49 51/51/51 52/52/52 50/50/50
f 51/51/51 53/53/53 54/54/54 52/52/52
f 53/53/53 55/55/55 56/56/56 54/54/54
f 55/55/55 57/57/57 58/58/58 56/56/56
f 57/57/57 59/59/59 60/60/60 58/58/58
f 59/59/59 61/61/61 62/62/62 60/60/60
f 61/61/61 63/63/63 64/64/64 62/62/62
f 63/63/63 33/33/33 36/36/36 64/64/64
f 65/65/65 35/35/35 38/38/38 66/66/66
f 67/67/67 36/36/36 35/35/35 65/65/65
f 68/68/68 64/64/64 36/36/36 67/67/67
f 69/69/69 62/62/62 64/64/64 68/68/68
f 70/70/70 60/60/60 62/62/62 69/69/69
f 71/71/71 58/58/58 60/60/60 70/70/70
f 72/72/72 56/56/56 58/58/58 71/71/71
f 73/73/73 54/54/54 56/56/56 72/72/72
f 74/74/74 52/52/52 54/54/54 73/73/73
f 75/75/75 50/50/50 52/52/52 74/74/74
f 76/76/76 48/48/48 50/50/50 75/75/75
f 77/77/77 46/46/46 48/48/48 76/76/76
f 78/78/78 44/44/44 46/46/46 77/77/77
f 79/79/79 42/42/42 44/44/44 78/78/78
f 80/80/80 40/40/40 42/42/42 79/79/79
f 40/40/40 80/80/80 66/66/66 38/38/38
f 66/66/66 80/80/80 5/5/5 2/2/2
f 65/65/65 66/66/66 2/2/2 1/1/1
f 31/31/31 67/67/67 65/65/65 1/1/1
f 68/68/68 67/67/67 31/31/31 29/29/29
f 69/69/69 68/68/68 29/29/29 27/27/27
f 70/70/70 69/69/69 27/27/27 25/25/25
f 71/71/71 70/70/70 25/25/25 23/23/23
f 72/72/72 71/71/71 23/23/23 21/21/21
f 73/73/73 72/72/72 21/21/21 19/19/19
f 74/74/74 73/73/73 19/19/19 17/17/17
f 75/75/75 74/74/74 17/17/17 15/15/15
f 76/76/76 75/75/75 15/15/15 13/13/13
f 77/77/77 76/76/76 13/13/13 11/11/11
f 78/78/78 77/77/77 11/11/11 9/9/9
f 79/79/79 78/78/78 9/9/9 7/7/7
f 80/80/80 79/79/79 7/7/7 5/5/5
f 3/3/3 6/6/6 81/81/81
f 4/4/4 3/3/3 81/81/81
f 32/32/32 4/4/4 81/81/81
f 30/30/30 32/32/32 81/81/81
f 28/28/28 30/30/30 81/81/81
f 26/26/26 28/28/28 81/81/81
f 24/24/24 26/26/26 81/81/81
f 22/22/22 24/24/24 81/81/81
f 20/20/20 22/22/22 81/81/81
f 18/18/18 20/20/20 81/81/81
f 16/16/16 18/18/18 81/81/81
f 14/14/14 16/16/16 81/81/81
f 12/12/12 14/14/14 81/81/81
f 10/10/10 12/12/12 81/81/81
f 8/8/8 10/10/10 81/81/81
f 6/6/6 8/8/8 81/81/81
f 82/82/82 83/83/83 39/39/39 37/37/37
f 84/84/84 82/82/82 37/37/37 34/34/34
f 85/85/85 84/84/84 34/34/34 33/33/33
f 86/86/86 85/85/85 33/33/33 63/63/63
f 87/87/87 86/86/86 63/63/63 61/61/61
f 88/88/88 87/87/87 61/61/61 59/59/59
f 89/89/89 88/88/88 59/59/59 57/57/57
f 90/90/90 89/89/89 57/57/57 55/55/55
f 91/91/91 90/90/90 55/55/55 53/53/53
f 92/92/92 91/91/91 53/53/53 51/51/51
f 93/93/93 92/92/92 51/51/51 49/49/49
f 94/94/94 93/93/93 49/49/49 47/47/47
f 95/95/95 94/94/94 47/47/47 45/45/45
f 96/96/96 95/95/95 45/45/45 43/43/43
f 97/97/97 96/96/96 43/43/43 41/41/41
f 83/83/83 97/97/97 41/41/41 39/39/39
