# Start
# Sony PlayStation DualShock 3 by 3doverstock, CGTrader Royalty Free License
o Start
v 10.7982 -19.3734 13.9973
v 10.7982 -19.3734 9.3810
v 17.7573 -19.3734 11.3143
v 17.7573 -19.3734 12.0640
v 10.3282 -19.3734 13.6379
v 10.7287 -17.3743 14.0467
v 10.2486 -17.3743 13.6797
v 10.2486 -17.3743 9.6986
v 10.7287 -17.3743 9.3316
v 10.3282 -19.3734 9.7403
v 17.8368 -17.3743 11.3063
v 17.8368 -17.3743 12.0720
vt 0.373599 0.572869
vt 0.373599 0.555912
vt 0.399162 0.563013
vt 0.399162 0.565767
vt 0.371873 0.571549
vt 0.373344 0.573050
vt 0.371580 0.571702
vt 0.371580 0.557079
vt 0.373344 0.555730
vt 0.371873 0.557232
vt 0.399454 0.562984
vt 0.399454 0.565797
vn 0.0000 -1.0000 -0.0000
vn 0.0000 -1.0000 -0.0000
vn 0.0000 -1.0000 -0.0000
vn 0.0000 -1.0000 -0.0000
vn -0.8956 -0.0449 0.4427
vn -0.1894 -0.0309 0.9814
vn -0.1894 -0.0309 0.9814
vn -0.8956 -0.0449 0.4427
vn -0.8956 -0.0449 -0.4427
vn -0.1894 -0.0309 -0.9814
vn -0.1894 -0.0309 -0.9814
vn -0.8956 -0.0449 -0.4427
vn 0.0000 -1.0000 -0.0000
vn 0.0000 -1.0000 -0.0000
vn 0.7955 -0.0341 -0.6050
vn 0.7955 -0.0341 0.6050
vn 0.7955 -0.0341 0.6050
vn 0.7955 -0.0341 -0.6050
f 1/1/1 2/2/2 3/3/3 4/4/4
f 5/5/5 1/1/6 6/6/7 7/7/8
f 8/8/9 9/9/10 2/2/11 10/10/12
f 10/10/13 2/2/2 1/1/1 5/5/14
f 5/5/5 7/7/8 8/8/9 10/10/12
f 11/11/15 12/12/16 4/4/17 3/3/18
f 6/6/7 1/1/6 4/4/17 12/12/16
f 2/2/11 9/9/10 11/11/15 3/3/18
